%TF.GenerationSoftware,KiCad,Pcbnew,9.0.0*%
%TF.CreationDate,2025-04-07T10:39:53+02:00*%
%TF.ProjectId,UniBoard-Xiao,556e6942-6f61-4726-942d-5869616f2e6b,rev?*%
%TF.SameCoordinates,Original*%
%TF.FileFunction,Soldermask,Bot*%
%TF.FilePolarity,Negative*%
%FSLAX46Y46*%
G04 Gerber Fmt 4.6, Leading zero omitted, Abs format (unit mm)*
G04 Created by KiCad (PCBNEW 9.0.0) date 2025-04-07 10:39:53*
%MOMM*%
%LPD*%
G01*
G04 APERTURE LIST*
G04 Aperture macros list*
%AMRoundRect*
0 Rectangle with rounded corners*
0 $1 Rounding radius*
0 $2 $3 $4 $5 $6 $7 $8 $9 X,Y pos of 4 corners*
0 Add a 4 corners polygon primitive as box body*
4,1,4,$2,$3,$4,$5,$6,$7,$8,$9,$2,$3,0*
0 Add four circle primitives for the rounded corners*
1,1,$1+$1,$2,$3*
1,1,$1+$1,$4,$5*
1,1,$1+$1,$6,$7*
1,1,$1+$1,$8,$9*
0 Add four rect primitives between the rounded corners*
20,1,$1+$1,$2,$3,$4,$5,0*
20,1,$1+$1,$4,$5,$6,$7,0*
20,1,$1+$1,$6,$7,$8,$9,0*
20,1,$1+$1,$8,$9,$2,$3,0*%
G04 Aperture macros list end*
%ADD10RoundRect,0.250000X0.600000X0.725000X-0.600000X0.725000X-0.600000X-0.725000X0.600000X-0.725000X0*%
%ADD11O,1.700000X1.950000*%
%ADD12RoundRect,0.250000X-0.620000X-0.845000X0.620000X-0.845000X0.620000X0.845000X-0.620000X0.845000X0*%
%ADD13O,1.740000X2.190000*%
%ADD14C,0.800000*%
%ADD15C,6.400000*%
%ADD16R,2.000000X2.000000*%
%ADD17C,2.000000*%
%ADD18R,1.508000X1.508000*%
%ADD19C,1.508000*%
%ADD20RoundRect,0.760000X-1.140000X-1.140000X1.140000X-1.140000X1.140000X1.140000X-1.140000X1.140000X0*%
%ADD21C,4.000000*%
%ADD22R,1.800000X1.800000*%
%ADD23O,1.800000X1.800000*%
%ADD24C,1.524000*%
%ADD25RoundRect,0.250000X0.620000X0.845000X-0.620000X0.845000X-0.620000X-0.845000X0.620000X-0.845000X0*%
%ADD26RoundRect,1.500000X1.500000X1.500000X-1.500000X1.500000X-1.500000X-1.500000X1.500000X-1.500000X0*%
%ADD27C,6.000000*%
%ADD28R,1.500000X1.500000*%
%ADD29C,1.500000*%
%ADD30C,1.803400*%
%ADD31RoundRect,0.250000X-1.800000X1.330000X-1.800000X-1.330000X1.800000X-1.330000X1.800000X1.330000X0*%
%ADD32O,4.100000X3.160000*%
%ADD33RoundRect,0.250000X0.400000X0.625000X-0.400000X0.625000X-0.400000X-0.625000X0.400000X-0.625000X0*%
%ADD34RoundRect,0.250000X-0.625000X0.375000X-0.625000X-0.375000X0.625000X-0.375000X0.625000X0.375000X0*%
%ADD35RoundRect,0.250000X-0.625000X0.400000X-0.625000X-0.400000X0.625000X-0.400000X0.625000X0.400000X0*%
%ADD36RoundRect,0.250000X0.375000X0.625000X-0.375000X0.625000X-0.375000X-0.625000X0.375000X-0.625000X0*%
%ADD37RoundRect,0.250000X-0.550000X-0.550000X0.550000X-0.550000X0.550000X0.550000X-0.550000X0.550000X0*%
%ADD38C,1.600000*%
%ADD39RoundRect,0.250000X0.625000X-0.400000X0.625000X0.400000X-0.625000X0.400000X-0.625000X-0.400000X0*%
%ADD40RoundRect,0.250000X0.625000X-0.375000X0.625000X0.375000X-0.625000X0.375000X-0.625000X-0.375000X0*%
G04 APERTURE END LIST*
D10*
%TO.C,J11*%
X151500000Y-84074000D03*
D11*
X149000000Y-84074000D03*
X146500000Y-84074000D03*
X144000000Y-84074000D03*
X141500000Y-84074000D03*
%TD*%
D12*
%TO.C,J6*%
X128690000Y-121500000D03*
D13*
X131230000Y-121500000D03*
X133770000Y-121500000D03*
X136310000Y-121500000D03*
%TD*%
D14*
%TO.C,H3*%
X192100000Y-124500000D03*
X192802944Y-122802944D03*
X192802944Y-126197056D03*
X194500000Y-122100000D03*
D15*
X194500000Y-124500000D03*
D14*
X194500000Y-126900000D03*
X196197056Y-122802944D03*
X196197056Y-126197056D03*
X196900000Y-124500000D03*
%TD*%
D16*
%TO.C,U5*%
X180803708Y-84619167D03*
D17*
X183343708Y-84619167D03*
X185883708Y-84619167D03*
%TD*%
D18*
%TO.C,U3*%
X146610000Y-115350000D03*
D19*
X149150000Y-115350000D03*
X151690000Y-115350000D03*
X154230000Y-115350000D03*
X156770000Y-115350000D03*
X159310000Y-115350000D03*
X161850000Y-115350000D03*
X164390000Y-115350000D03*
X146610000Y-102650000D03*
X149150000Y-102650000D03*
X151690000Y-102650000D03*
X154230000Y-102650000D03*
X156770000Y-102650000D03*
X159310000Y-102650000D03*
X161850000Y-102650000D03*
X164390000Y-102650000D03*
X164390000Y-107730000D03*
X164390000Y-105190000D03*
%TD*%
D20*
%TO.C,J12*%
X190000000Y-103500000D03*
D21*
X195000000Y-103500000D03*
%TD*%
D12*
%TO.C,J1*%
X156464000Y-75438000D03*
D13*
X159004000Y-75438000D03*
%TD*%
D22*
%TO.C,D1*%
X162500000Y-51920000D03*
D23*
X162500000Y-62080000D03*
%TD*%
D16*
%TO.C,C1*%
X144500000Y-120132323D03*
D17*
X144500000Y-125132323D03*
%TD*%
D24*
%TO.C,U1*%
X140880000Y-51880000D03*
X140880000Y-54420000D03*
X140880000Y-56960000D03*
X140880000Y-59500000D03*
X140880000Y-62040000D03*
X140880000Y-64580000D03*
X140880000Y-67120000D03*
X156120000Y-67120000D03*
X156120000Y-64580000D03*
X156120000Y-62040000D03*
X156120000Y-59500000D03*
X156120000Y-56960000D03*
X156120000Y-54420000D03*
X156120000Y-51880000D03*
%TD*%
D20*
%TO.C,J13*%
X190000000Y-110000000D03*
D21*
X195000000Y-110000000D03*
%TD*%
D12*
%TO.C,J5*%
X152960000Y-122000000D03*
D13*
X155500000Y-122000000D03*
X158040000Y-122000000D03*
X160580000Y-122000000D03*
%TD*%
D14*
%TO.C,H1*%
X120100000Y-52500000D03*
X120802944Y-50802944D03*
X120802944Y-54197056D03*
X122500000Y-50100000D03*
D15*
X122500000Y-52500000D03*
D14*
X122500000Y-54900000D03*
X124197056Y-50802944D03*
X124197056Y-54197056D03*
X124900000Y-52500000D03*
%TD*%
D25*
%TO.C,J15*%
X149098000Y-75438000D03*
D13*
X146558000Y-75438000D03*
X144018000Y-75438000D03*
X141478000Y-75438000D03*
%TD*%
D26*
%TO.C,J8*%
X186100000Y-123500000D03*
D27*
X178900000Y-123500000D03*
%TD*%
D12*
%TO.C,J9*%
X124460000Y-80000000D03*
D13*
X127000000Y-80000000D03*
X129540000Y-80000000D03*
X132080000Y-80000000D03*
%TD*%
D14*
%TO.C,H4*%
X120100000Y-124500000D03*
X120802944Y-122802944D03*
X120802944Y-126197056D03*
X122500000Y-122100000D03*
D15*
X122500000Y-124500000D03*
D14*
X122500000Y-126900000D03*
X124197056Y-122802944D03*
X124197056Y-126197056D03*
X124900000Y-124500000D03*
%TD*%
D28*
%TO.C,U6*%
X177960000Y-107000000D03*
D29*
X180500000Y-107000000D03*
X183040000Y-107000000D03*
%TD*%
D12*
%TO.C,J10*%
X124460000Y-88520000D03*
D13*
X127000000Y-88520000D03*
X129540000Y-88520000D03*
X132080000Y-88520000D03*
%TD*%
D30*
%TO.C,PS1*%
X170380000Y-51640000D03*
X175460000Y-51640000D03*
X185620000Y-51640000D03*
X167840000Y-97360000D03*
X178000000Y-97360000D03*
X188160000Y-97360000D03*
%TD*%
D28*
%TO.C,U4*%
X172000000Y-109500000D03*
D29*
X172000000Y-106960000D03*
X172000000Y-104420000D03*
%TD*%
D18*
%TO.C,U2*%
X122110000Y-115350000D03*
D19*
X124650000Y-115350000D03*
X127190000Y-115350000D03*
X129730000Y-115350000D03*
X132270000Y-115350000D03*
X134810000Y-115350000D03*
X137350000Y-115350000D03*
X139890000Y-115350000D03*
X122110000Y-102650000D03*
X124650000Y-102650000D03*
X127190000Y-102650000D03*
X129730000Y-102650000D03*
X132270000Y-102650000D03*
X134810000Y-102650000D03*
X137350000Y-102650000D03*
X139890000Y-102650000D03*
X139890000Y-107730000D03*
X139890000Y-105190000D03*
%TD*%
D16*
%TO.C,C2*%
X169000000Y-120132323D03*
D17*
X169000000Y-125132323D03*
%TD*%
D12*
%TO.C,J7*%
X124460000Y-72000000D03*
D13*
X127000000Y-72000000D03*
X129540000Y-72000000D03*
X132080000Y-72000000D03*
%TD*%
D31*
%TO.C,J3*%
X180500000Y-112040000D03*
D32*
X180500000Y-116000000D03*
%TD*%
D14*
%TO.C,H2*%
X192100000Y-52500000D03*
X192802944Y-50802944D03*
X192802944Y-54197056D03*
X194500000Y-50100000D03*
D15*
X194500000Y-52500000D03*
D14*
X194500000Y-54900000D03*
X196197056Y-50802944D03*
X196197056Y-54197056D03*
X196900000Y-52500000D03*
%TD*%
D20*
%TO.C,J14*%
X190000000Y-116500000D03*
D21*
X195000000Y-116500000D03*
%TD*%
D12*
%TO.C,J4*%
X124460000Y-64000000D03*
D13*
X127000000Y-64000000D03*
X129540000Y-64000000D03*
X132080000Y-64000000D03*
%TD*%
D33*
%TO.C,R3*%
X170050000Y-104420883D03*
X166950000Y-104420883D03*
%TD*%
D34*
%TO.C,D4*%
X180574271Y-87697229D03*
X180574271Y-90497229D03*
%TD*%
D35*
%TO.C,R6*%
X127000000Y-93420000D03*
X127000000Y-96520000D03*
%TD*%
D36*
%TO.C,D3*%
X169900000Y-107027500D03*
X167100000Y-107027500D03*
%TD*%
D37*
%TO.C,SW1*%
X151638000Y-109461500D03*
D38*
X151638000Y-106921500D03*
X159258000Y-106921500D03*
X159258000Y-109461500D03*
%TD*%
D35*
%TO.C,R7*%
X185913708Y-87369167D03*
X185913708Y-90469167D03*
%TD*%
D39*
%TO.C,R2*%
X183050459Y-104874541D03*
X183050459Y-101774541D03*
%TD*%
D37*
%TO.C,SW2*%
X127254000Y-109474000D03*
D38*
X127254000Y-106934000D03*
X134874000Y-106934000D03*
X134874000Y-109474000D03*
%TD*%
D35*
%TO.C,R5*%
X124500000Y-93420000D03*
X124500000Y-96520000D03*
%TD*%
D34*
%TO.C,D5*%
X183388000Y-87630000D03*
X183388000Y-90430000D03*
%TD*%
D40*
%TO.C,D2*%
X180506711Y-104605832D03*
X180506711Y-101805832D03*
%TD*%
D35*
%TO.C,R4*%
X178074271Y-87547229D03*
X178074271Y-90647229D03*
%TD*%
M02*
