M48
; DRILL file {KiCad 9.0.0} date 2025-04-07T10:39:47+0200
; FORMAT={-:-/ absolute / metric / decimal}
; #@! TF.CreationDate,2025-04-07T10:39:47+02:00
; #@! TF.GenerationSoftware,Kicad,Pcbnew,9.0.0
; #@! TF.FileFunction,Plated,1,2,PTH
FMAT,2
METRIC
; #@! TA.AperFunction,Plated,PTH,ComponentDrill
T1C0.500
; #@! TA.AperFunction,Plated,PTH,ComponentDrill
T2C0.800
; #@! TA.AperFunction,Plated,PTH,ComponentDrill
T3C0.889
; #@! TA.AperFunction,Plated,PTH,ComponentDrill
T4C0.900
; #@! TA.AperFunction,Plated,PTH,ComponentDrill
T5C0.950
; #@! TA.AperFunction,Plated,PTH,ComponentDrill
T6C1.000
; #@! TA.AperFunction,Plated,PTH,ComponentDrill
T7C1.190
; #@! TA.AperFunction,Plated,PTH,ComponentDrill
T8C1.295
; #@! TA.AperFunction,Plated,PTH,ComponentDrill
T9C1.400
; #@! TA.AperFunction,Plated,PTH,ComponentDrill
T10C1.700
; #@! TA.AperFunction,Plated,PTH,ComponentDrill
T11C2.700
; #@! TA.AperFunction,Plated,PTH,ComponentDrill
T12C3.200
; #@! TA.AperFunction,Plated,PTH,ComponentDrill
T13C4.500
%
G90
G05
T1
X120.1Y-52.5
X120.1Y-124.5
X120.803Y-50.803
X120.803Y-54.197
X120.803Y-122.803
X120.803Y-126.197
X122.5Y-50.1
X122.5Y-54.9
X122.5Y-122.1
X122.5Y-126.9
X124.197Y-50.803
X124.197Y-54.197
X124.197Y-122.803
X124.197Y-126.197
X124.9Y-52.5
X124.9Y-124.5
X192.1Y-52.5
X192.1Y-124.5
X192.803Y-50.803
X192.803Y-54.197
X192.803Y-122.803
X192.803Y-126.197
X194.5Y-50.1
X194.5Y-54.9
X194.5Y-122.1
X194.5Y-126.9
X196.197Y-50.803
X196.197Y-54.197
X196.197Y-122.803
X196.197Y-126.197
X196.9Y-52.5
X196.9Y-124.5
T2
X127.254Y-106.934
X127.254Y-109.474
X134.874Y-106.934
X134.874Y-109.474
X151.638Y-106.921
X151.638Y-109.462
X159.258Y-106.921
X159.258Y-109.462
T3
X140.88Y-51.88
X140.88Y-54.42
X140.88Y-56.96
X140.88Y-59.5
X140.88Y-62.04
X140.88Y-64.58
X140.88Y-67.12
X156.12Y-51.88
X156.12Y-54.42
X156.12Y-56.96
X156.12Y-59.5
X156.12Y-62.04
X156.12Y-64.58
X156.12Y-67.12
T4
X162.5Y-51.92
X162.5Y-62.08
T5
X141.5Y-84.074
X144.0Y-84.074
X146.5Y-84.074
X149.0Y-84.074
X151.5Y-84.074
T6
X122.11Y-102.65
X122.11Y-115.35
X124.65Y-102.65
X124.65Y-115.35
X127.19Y-102.65
X127.19Y-115.35
X129.73Y-102.65
X129.73Y-115.35
X132.27Y-102.65
X132.27Y-115.35
X134.81Y-102.65
X134.81Y-115.35
X137.35Y-102.65
X137.35Y-115.35
X139.89Y-102.65
X139.89Y-105.19
X139.89Y-107.73
X139.89Y-115.35
X144.5Y-120.132
X144.5Y-125.132
X146.61Y-102.65
X146.61Y-115.35
X149.15Y-102.65
X149.15Y-115.35
X151.69Y-102.65
X151.69Y-115.35
X154.23Y-102.65
X154.23Y-115.35
X156.77Y-102.65
X156.77Y-115.35
X159.31Y-102.65
X159.31Y-115.35
X161.85Y-102.65
X161.85Y-115.35
X164.39Y-102.65
X164.39Y-105.19
X164.39Y-107.73
X164.39Y-115.35
X169.0Y-120.132
X169.0Y-125.132
X172.0Y-104.42
X172.0Y-106.96
X172.0Y-109.5
X177.96Y-107.0
X180.5Y-107.0
X183.04Y-107.0
T7
X124.46Y-64.0
X124.46Y-72.0
X124.46Y-80.0
X124.46Y-88.52
X127.0Y-64.0
X127.0Y-72.0
X127.0Y-80.0
X127.0Y-88.52
X128.69Y-121.5
X129.54Y-64.0
X129.54Y-72.0
X129.54Y-80.0
X129.54Y-88.52
X131.23Y-121.5
X132.08Y-64.0
X132.08Y-72.0
X132.08Y-80.0
X132.08Y-88.52
X133.77Y-121.5
X136.31Y-121.5
X141.478Y-75.438
X144.018Y-75.438
X146.558Y-75.438
X149.098Y-75.438
X152.96Y-122.0
X155.5Y-122.0
X156.464Y-75.438
X158.04Y-122.0
X159.004Y-75.438
X160.58Y-122.0
T8
X167.84Y-97.36
X170.38Y-51.64
X175.46Y-51.64
X178.0Y-97.36
X185.62Y-51.64
X188.16Y-97.36
T9
X180.804Y-84.619
X183.344Y-84.619
X185.884Y-84.619
T10
X180.5Y-112.04
X180.5Y-116.0
T11
X190.0Y-103.5
X190.0Y-110.0
X190.0Y-116.5
X195.0Y-103.5
X195.0Y-110.0
X195.0Y-116.5
T12
X122.5Y-52.5
X122.5Y-124.5
X194.5Y-52.5
X194.5Y-124.5
T13
X178.9Y-123.5
X186.1Y-123.5
M30
