%TF.GenerationSoftware,KiCad,Pcbnew,9.0.0*%
%TF.CreationDate,2025-04-07T10:39:53+02:00*%
%TF.ProjectId,UniBoard-Xiao,556e6942-6f61-4726-942d-5869616f2e6b,rev?*%
%TF.SameCoordinates,Original*%
%TF.FileFunction,Legend,Top*%
%TF.FilePolarity,Positive*%
%FSLAX46Y46*%
G04 Gerber Fmt 4.6, Leading zero omitted, Abs format (unit mm)*
G04 Created by KiCad (PCBNEW 9.0.0) date 2025-04-07 10:39:53*
%MOMM*%
%LPD*%
G01*
G04 APERTURE LIST*
%ADD10C,0.150000*%
%ADD11C,0.101600*%
%ADD12C,0.000000*%
%ADD13C,0.120000*%
%ADD14C,0.127000*%
%ADD15C,0.200000*%
%ADD16C,0.100000*%
%ADD17C,0.504000*%
%ADD18C,0.152400*%
G04 APERTURE END LIST*
D10*
X161694905Y-57454819D02*
X161694905Y-56454819D01*
X161694905Y-56454819D02*
X161933000Y-56454819D01*
X161933000Y-56454819D02*
X162075857Y-56502438D01*
X162075857Y-56502438D02*
X162171095Y-56597676D01*
X162171095Y-56597676D02*
X162218714Y-56692914D01*
X162218714Y-56692914D02*
X162266333Y-56883390D01*
X162266333Y-56883390D02*
X162266333Y-57026247D01*
X162266333Y-57026247D02*
X162218714Y-57216723D01*
X162218714Y-57216723D02*
X162171095Y-57311961D01*
X162171095Y-57311961D02*
X162075857Y-57407200D01*
X162075857Y-57407200D02*
X161933000Y-57454819D01*
X161933000Y-57454819D02*
X161694905Y-57454819D01*
X163218714Y-57454819D02*
X162647286Y-57454819D01*
X162933000Y-57454819D02*
X162933000Y-56454819D01*
X162933000Y-56454819D02*
X162837762Y-56597676D01*
X162837762Y-56597676D02*
X162742524Y-56692914D01*
X162742524Y-56692914D02*
X162647286Y-56740533D01*
X146391333Y-120501580D02*
X146343714Y-120549200D01*
X146343714Y-120549200D02*
X146200857Y-120596819D01*
X146200857Y-120596819D02*
X146105619Y-120596819D01*
X146105619Y-120596819D02*
X145962762Y-120549200D01*
X145962762Y-120549200D02*
X145867524Y-120453961D01*
X145867524Y-120453961D02*
X145819905Y-120358723D01*
X145819905Y-120358723D02*
X145772286Y-120168247D01*
X145772286Y-120168247D02*
X145772286Y-120025390D01*
X145772286Y-120025390D02*
X145819905Y-119834914D01*
X145819905Y-119834914D02*
X145867524Y-119739676D01*
X145867524Y-119739676D02*
X145962762Y-119644438D01*
X145962762Y-119644438D02*
X146105619Y-119596819D01*
X146105619Y-119596819D02*
X146200857Y-119596819D01*
X146200857Y-119596819D02*
X146343714Y-119644438D01*
X146343714Y-119644438D02*
X146391333Y-119692057D01*
X147343714Y-120596819D02*
X146772286Y-120596819D01*
X147058000Y-120596819D02*
X147058000Y-119596819D01*
X147058000Y-119596819D02*
X146962762Y-119739676D01*
X146962762Y-119739676D02*
X146867524Y-119834914D01*
X146867524Y-119834914D02*
X146772286Y-119882533D01*
D11*
X140016190Y-47153479D02*
X140016190Y-47667526D01*
X140016190Y-47667526D02*
X140046428Y-47728002D01*
X140046428Y-47728002D02*
X140076666Y-47758241D01*
X140076666Y-47758241D02*
X140137142Y-47788479D01*
X140137142Y-47788479D02*
X140258095Y-47788479D01*
X140258095Y-47788479D02*
X140318571Y-47758241D01*
X140318571Y-47758241D02*
X140348809Y-47728002D01*
X140348809Y-47728002D02*
X140379047Y-47667526D01*
X140379047Y-47667526D02*
X140379047Y-47153479D01*
X141014047Y-47788479D02*
X140651190Y-47788479D01*
X140832618Y-47788479D02*
X140832618Y-47153479D01*
X140832618Y-47153479D02*
X140772142Y-47244193D01*
X140772142Y-47244193D02*
X140711666Y-47304669D01*
X140711666Y-47304669D02*
X140651190Y-47334907D01*
D10*
X121738095Y-48754819D02*
X121738095Y-47754819D01*
X121738095Y-48231009D02*
X122309523Y-48231009D01*
X122309523Y-48754819D02*
X122309523Y-47754819D01*
X123309523Y-48754819D02*
X122738095Y-48754819D01*
X123023809Y-48754819D02*
X123023809Y-47754819D01*
X123023809Y-47754819D02*
X122928571Y-47897676D01*
X122928571Y-47897676D02*
X122833333Y-47992914D01*
X122833333Y-47992914D02*
X122738095Y-48040533D01*
X171029333Y-120501580D02*
X170981714Y-120549200D01*
X170981714Y-120549200D02*
X170838857Y-120596819D01*
X170838857Y-120596819D02*
X170743619Y-120596819D01*
X170743619Y-120596819D02*
X170600762Y-120549200D01*
X170600762Y-120549200D02*
X170505524Y-120453961D01*
X170505524Y-120453961D02*
X170457905Y-120358723D01*
X170457905Y-120358723D02*
X170410286Y-120168247D01*
X170410286Y-120168247D02*
X170410286Y-120025390D01*
X170410286Y-120025390D02*
X170457905Y-119834914D01*
X170457905Y-119834914D02*
X170505524Y-119739676D01*
X170505524Y-119739676D02*
X170600762Y-119644438D01*
X170600762Y-119644438D02*
X170743619Y-119596819D01*
X170743619Y-119596819D02*
X170838857Y-119596819D01*
X170838857Y-119596819D02*
X170981714Y-119644438D01*
X170981714Y-119644438D02*
X171029333Y-119692057D01*
X171410286Y-119692057D02*
X171457905Y-119644438D01*
X171457905Y-119644438D02*
X171553143Y-119596819D01*
X171553143Y-119596819D02*
X171791238Y-119596819D01*
X171791238Y-119596819D02*
X171886476Y-119644438D01*
X171886476Y-119644438D02*
X171934095Y-119692057D01*
X171934095Y-119692057D02*
X171981714Y-119787295D01*
X171981714Y-119787295D02*
X171981714Y-119882533D01*
X171981714Y-119882533D02*
X171934095Y-120025390D01*
X171934095Y-120025390D02*
X171362667Y-120596819D01*
X171362667Y-120596819D02*
X171981714Y-120596819D01*
X183786666Y-113044819D02*
X183786666Y-113759104D01*
X183786666Y-113759104D02*
X183739047Y-113901961D01*
X183739047Y-113901961D02*
X183643809Y-113997200D01*
X183643809Y-113997200D02*
X183500952Y-114044819D01*
X183500952Y-114044819D02*
X183405714Y-114044819D01*
X184167619Y-113044819D02*
X184786666Y-113044819D01*
X184786666Y-113044819D02*
X184453333Y-113425771D01*
X184453333Y-113425771D02*
X184596190Y-113425771D01*
X184596190Y-113425771D02*
X184691428Y-113473390D01*
X184691428Y-113473390D02*
X184739047Y-113521009D01*
X184739047Y-113521009D02*
X184786666Y-113616247D01*
X184786666Y-113616247D02*
X184786666Y-113854342D01*
X184786666Y-113854342D02*
X184739047Y-113949580D01*
X184739047Y-113949580D02*
X184691428Y-113997200D01*
X184691428Y-113997200D02*
X184596190Y-114044819D01*
X184596190Y-114044819D02*
X184310476Y-114044819D01*
X184310476Y-114044819D02*
X184215238Y-113997200D01*
X184215238Y-113997200D02*
X184167619Y-113949580D01*
X193738095Y-48754819D02*
X193738095Y-47754819D01*
X193738095Y-48231009D02*
X194309523Y-48231009D01*
X194309523Y-48754819D02*
X194309523Y-47754819D01*
X194738095Y-47850057D02*
X194785714Y-47802438D01*
X194785714Y-47802438D02*
X194880952Y-47754819D01*
X194880952Y-47754819D02*
X195119047Y-47754819D01*
X195119047Y-47754819D02*
X195214285Y-47802438D01*
X195214285Y-47802438D02*
X195261904Y-47850057D01*
X195261904Y-47850057D02*
X195309523Y-47945295D01*
X195309523Y-47945295D02*
X195309523Y-48040533D01*
X195309523Y-48040533D02*
X195261904Y-48183390D01*
X195261904Y-48183390D02*
X194690476Y-48754819D01*
X194690476Y-48754819D02*
X195309523Y-48754819D01*
D12*
%TO.C,kibuzzard-67ED72F3*%
G36*
X155529935Y-125477386D02*
G01*
X155566123Y-125506466D01*
X155586801Y-125547176D01*
X155593263Y-125594349D01*
X155350291Y-125594349D01*
X155361276Y-125546530D01*
X155384540Y-125505173D01*
X155422019Y-125476740D01*
X155475654Y-125466401D01*
X155529935Y-125477386D01*
G37*
G36*
X157468546Y-125477386D02*
G01*
X157504733Y-125506466D01*
X157525412Y-125547176D01*
X157531874Y-125594349D01*
X157288901Y-125594349D01*
X157299887Y-125546530D01*
X157323150Y-125505173D01*
X157360630Y-125476740D01*
X157414265Y-125466401D01*
X157468546Y-125477386D01*
G37*
G36*
X156163861Y-125484656D02*
G01*
X156204572Y-125523913D01*
X156228805Y-125583525D01*
X156236882Y-125657677D01*
X156230097Y-125732152D01*
X156209742Y-125787564D01*
X156175170Y-125821974D01*
X156125735Y-125833445D01*
X156074039Y-125826983D01*
X156032682Y-125810181D01*
X156032682Y-125476740D01*
X156067577Y-125473509D01*
X156106349Y-125471571D01*
X156163861Y-125484656D01*
G37*
G36*
X156810065Y-125484656D02*
G01*
X156850775Y-125523913D01*
X156875008Y-125583525D01*
X156883086Y-125657677D01*
X156876300Y-125732152D01*
X156855945Y-125787564D01*
X156821373Y-125821974D01*
X156771939Y-125833445D01*
X156720242Y-125826983D01*
X156678885Y-125810181D01*
X156678885Y-125476740D01*
X156713780Y-125473509D01*
X156752553Y-125471571D01*
X156810065Y-125484656D01*
G37*
G36*
X159385186Y-125308081D02*
G01*
X159438174Y-125368178D01*
X159465315Y-125454769D01*
X159473069Y-125555577D01*
X159470646Y-125612605D01*
X159463376Y-125664785D01*
X159431066Y-125750731D01*
X159371616Y-125807596D01*
X159280501Y-125828275D01*
X159266284Y-125828275D01*
X159252068Y-125826983D01*
X159252068Y-125289341D01*
X159275331Y-125286110D01*
X159298595Y-125285464D01*
X159385186Y-125308081D01*
G37*
G36*
X159903872Y-126277171D02*
G01*
X159634620Y-126277171D01*
X159263700Y-126277171D01*
X158006187Y-126277171D01*
X157458207Y-126277171D01*
X156678885Y-126277171D01*
X156032682Y-126277171D01*
X155519596Y-126277171D01*
X154916042Y-126277171D01*
X154153522Y-126277171D01*
X153905380Y-126277171D01*
X153636128Y-126277171D01*
X153526661Y-125912281D01*
X153905380Y-125912281D01*
X153994556Y-125951700D01*
X154064023Y-125967693D01*
X154153522Y-125973025D01*
X154244206Y-125966204D01*
X154318088Y-125945740D01*
X154375170Y-125911635D01*
X154429935Y-125837483D01*
X154448191Y-125737806D01*
X154442698Y-125677548D01*
X154426220Y-125628598D01*
X154370000Y-125556223D01*
X154295040Y-125509697D01*
X154216850Y-125478033D01*
X154167092Y-125458647D01*
X154121858Y-125434737D01*
X154088901Y-125403719D01*
X154075977Y-125363008D01*
X154079901Y-125348792D01*
X154546414Y-125348792D01*
X154546414Y-125480617D01*
X154684701Y-125480617D01*
X154684701Y-125730052D01*
X154688578Y-125799034D01*
X154700210Y-125853477D01*
X154745444Y-125926498D01*
X154817819Y-125961393D01*
X154916042Y-125970440D01*
X155014911Y-125962685D01*
X155109903Y-125936837D01*
X155087932Y-125799842D01*
X155047221Y-125816643D01*
X155011034Y-125826336D01*
X154974847Y-125830860D01*
X154934136Y-125832152D01*
X154896656Y-125828275D01*
X154868223Y-125812766D01*
X154850129Y-125780456D01*
X154843667Y-125726175D01*
X154843667Y-125657677D01*
X155186155Y-125657677D01*
X155191971Y-125730375D01*
X155209418Y-125793380D01*
X155237690Y-125846853D01*
X155275977Y-125890957D01*
X155323796Y-125925529D01*
X155380662Y-125950407D01*
X155446090Y-125965432D01*
X155519596Y-125970440D01*
X155624281Y-125960747D01*
X155712165Y-125936837D01*
X155690194Y-125801134D01*
X155617173Y-125821813D01*
X155526058Y-125832152D01*
X155455622Y-125823590D01*
X155399402Y-125797903D01*
X155362569Y-125757354D01*
X155350291Y-125704204D01*
X155744475Y-125704204D01*
X155746414Y-125677063D01*
X155747060Y-125644753D01*
X155739305Y-125551197D01*
X155716042Y-125473868D01*
X155677270Y-125412766D01*
X155623563Y-125368609D01*
X155622456Y-125368178D01*
X155873716Y-125368178D01*
X155873716Y-126169470D01*
X156032682Y-126169470D01*
X156032682Y-125940714D01*
X156096333Y-125963008D01*
X156158045Y-125970440D01*
X156213942Y-125964624D01*
X156262730Y-125947176D01*
X156337690Y-125881910D01*
X156363861Y-125835706D01*
X156382924Y-125781102D01*
X156394556Y-125719551D01*
X156398433Y-125652508D01*
X156390104Y-125561895D01*
X156365118Y-125484782D01*
X156323473Y-125421167D01*
X156266177Y-125373778D01*
X156252007Y-125368178D01*
X156519919Y-125368178D01*
X156519919Y-126169470D01*
X156678885Y-126169470D01*
X156678885Y-125940714D01*
X156742536Y-125963008D01*
X156804249Y-125970440D01*
X156860145Y-125964624D01*
X156908934Y-125947176D01*
X156983893Y-125881910D01*
X157010065Y-125835706D01*
X157029128Y-125781102D01*
X157040759Y-125719551D01*
X157044338Y-125657677D01*
X157124766Y-125657677D01*
X157130582Y-125730375D01*
X157148029Y-125793380D01*
X157176300Y-125846853D01*
X157214588Y-125890957D01*
X157262407Y-125925529D01*
X157319273Y-125950407D01*
X157384701Y-125965432D01*
X157458207Y-125970440D01*
X157562892Y-125960747D01*
X157650775Y-125936837D01*
X157628805Y-125801134D01*
X157555784Y-125821813D01*
X157464669Y-125832152D01*
X157394233Y-125823590D01*
X157338013Y-125797903D01*
X157301179Y-125757354D01*
X157288901Y-125704204D01*
X157683086Y-125704204D01*
X157685024Y-125677063D01*
X157685670Y-125644753D01*
X157677916Y-125551197D01*
X157654653Y-125473868D01*
X157615880Y-125412766D01*
X157586801Y-125388857D01*
X157845929Y-125388857D01*
X157845929Y-125956223D01*
X158006187Y-125956223D01*
X158006187Y-125505173D01*
X158072100Y-125492895D01*
X158138013Y-125489664D01*
X158172908Y-125490957D01*
X158215557Y-125495480D01*
X158258853Y-125502588D01*
X158295687Y-125510343D01*
X158324120Y-125363008D01*
X158274362Y-125350731D01*
X158219435Y-125342976D01*
X158168384Y-125338453D01*
X158131551Y-125337160D01*
X158048029Y-125340714D01*
X157975816Y-125351377D01*
X157910065Y-125367855D01*
X157845929Y-125388857D01*
X157586801Y-125388857D01*
X157562174Y-125368609D01*
X157494107Y-125342114D01*
X157411680Y-125333283D01*
X157358045Y-125338453D01*
X157305703Y-125353962D01*
X157256914Y-125379648D01*
X157213942Y-125415351D01*
X157177754Y-125461070D01*
X157149321Y-125516805D01*
X157130905Y-125582395D01*
X157124766Y-125657677D01*
X157044338Y-125657677D01*
X157044637Y-125652508D01*
X157036308Y-125561895D01*
X157011321Y-125484782D01*
X156969677Y-125421167D01*
X156912380Y-125373778D01*
X156840436Y-125345346D01*
X156753845Y-125335868D01*
X156691325Y-125338130D01*
X156627835Y-125344915D01*
X156568869Y-125355254D01*
X156519919Y-125368178D01*
X156252007Y-125368178D01*
X156194233Y-125345346D01*
X156107641Y-125335868D01*
X156045121Y-125338130D01*
X155981632Y-125344915D01*
X155922666Y-125355254D01*
X155873716Y-125368178D01*
X155622456Y-125368178D01*
X155555496Y-125342114D01*
X155473069Y-125333283D01*
X155419435Y-125338453D01*
X155367092Y-125353962D01*
X155318304Y-125379648D01*
X155275331Y-125415351D01*
X155239144Y-125461070D01*
X155210711Y-125516805D01*
X155192294Y-125582395D01*
X155186155Y-125657677D01*
X154843667Y-125657677D01*
X154843667Y-125480617D01*
X155098271Y-125480617D01*
X155098271Y-125348792D01*
X154843667Y-125348792D01*
X154843667Y-125170440D01*
X154684701Y-125196288D01*
X154684701Y-125348792D01*
X154546414Y-125348792D01*
X154079901Y-125348792D01*
X154090050Y-125312030D01*
X154132269Y-125281443D01*
X154202633Y-125271247D01*
X154293748Y-125284172D01*
X154365477Y-125315189D01*
X154412003Y-125192411D01*
X154348275Y-125166563D01*
X159093102Y-125166563D01*
X159093102Y-125947176D01*
X159180339Y-125962039D01*
X159263700Y-125966563D01*
X159341729Y-125960908D01*
X159412973Y-125943945D01*
X159476139Y-125914705D01*
X159529935Y-125872217D01*
X159573716Y-125815836D01*
X159606834Y-125744915D01*
X159627674Y-125658485D01*
X159634620Y-125555577D01*
X159628320Y-125454931D01*
X159609418Y-125370117D01*
X159579208Y-125300004D01*
X159538982Y-125243461D01*
X159488740Y-125200327D01*
X159428481Y-125170440D01*
X159359822Y-125152992D01*
X159284378Y-125147176D01*
X159195202Y-125151054D01*
X159093102Y-125166563D01*
X154348275Y-125166563D01*
X154319596Y-125154931D01*
X154259984Y-125142330D01*
X154191002Y-125138130D01*
X154111806Y-125145166D01*
X154044816Y-125166275D01*
X153990032Y-125201458D01*
X153935267Y-125277063D01*
X153917011Y-125377225D01*
X153937690Y-125472217D01*
X153990032Y-125536191D01*
X154060468Y-125578840D01*
X154135428Y-125608566D01*
X154189709Y-125631183D01*
X154238821Y-125658323D01*
X154275008Y-125692572D01*
X154289225Y-125736514D01*
X154283409Y-125774640D01*
X154262084Y-125808243D01*
X154220081Y-125831506D01*
X154153522Y-125839907D01*
X154089063Y-125835383D01*
X154035267Y-125821813D01*
X153951906Y-125783041D01*
X153905380Y-125912281D01*
X153526661Y-125912281D01*
X153262106Y-125030429D01*
X153636128Y-125030429D01*
X153905380Y-125030429D01*
X159634620Y-125030429D01*
X159903872Y-125030429D01*
X160277894Y-125030429D01*
X159903872Y-126277171D01*
G37*
D13*
%TO.C,J11*%
X138940000Y-80564000D02*
X138940000Y-86534000D01*
X138940000Y-86534000D02*
X154060000Y-86534000D01*
X138950000Y-84274000D02*
X139700000Y-84274000D01*
X138950000Y-85774000D02*
X138950000Y-86524000D01*
X138950000Y-86524000D02*
X140750000Y-86524000D01*
X139700000Y-81324000D02*
X146500000Y-81324000D01*
X139700000Y-84274000D02*
X139700000Y-81324000D01*
X140750000Y-85774000D02*
X138950000Y-85774000D01*
X140750000Y-86524000D02*
X140750000Y-85774000D01*
X142250000Y-85774000D02*
X142250000Y-86524000D01*
X142250000Y-86524000D02*
X150750000Y-86524000D01*
X150750000Y-85774000D02*
X142250000Y-85774000D01*
X150750000Y-86524000D02*
X150750000Y-85774000D01*
X152250000Y-85774000D02*
X152250000Y-86524000D01*
X152250000Y-86524000D02*
X154050000Y-86524000D01*
X153100000Y-86824000D02*
X154350000Y-86824000D01*
X153300000Y-81324000D02*
X146500000Y-81324000D01*
X153300000Y-84274000D02*
X153300000Y-81324000D01*
X154050000Y-84274000D02*
X153300000Y-84274000D01*
X154050000Y-85774000D02*
X152250000Y-85774000D01*
X154050000Y-86524000D02*
X154050000Y-85774000D01*
X154060000Y-80564000D02*
X138940000Y-80564000D01*
X154060000Y-86534000D02*
X154060000Y-80564000D01*
X154350000Y-86824000D02*
X154350000Y-85574000D01*
D12*
%TO.C,kibuzzard-67ED7493*%
G36*
X145976159Y-49371680D02*
G01*
X145996837Y-49451809D01*
X146014285Y-49531292D01*
X146029794Y-49614006D01*
X145873412Y-49614006D01*
X145889567Y-49531292D01*
X145907661Y-49451809D01*
X145928340Y-49371680D01*
X145952249Y-49285735D01*
X145976159Y-49371680D01*
G37*
G36*
X149226078Y-49267157D02*
G01*
X149270504Y-49288966D01*
X149299099Y-49328223D01*
X149308630Y-49387835D01*
X149298937Y-49450679D01*
X149269858Y-49491874D01*
X149221716Y-49514653D01*
X149154834Y-49522246D01*
X149090214Y-49522246D01*
X149090214Y-49263764D01*
X149129632Y-49260533D01*
X149169050Y-49259887D01*
X149226078Y-49267157D01*
G37*
G36*
X146665658Y-49272811D02*
G01*
X146703784Y-49332262D01*
X146721878Y-49420792D01*
X146725270Y-49473619D01*
X146726401Y-49530000D01*
X146725270Y-49586220D01*
X146721878Y-49638562D01*
X146703784Y-49727092D01*
X146665012Y-49787189D01*
X146599745Y-49809160D01*
X146533832Y-49787189D01*
X146495706Y-49727738D01*
X146477613Y-49639208D01*
X146474220Y-49586381D01*
X146473089Y-49530000D01*
X146474220Y-49473780D01*
X146477613Y-49421438D01*
X146495706Y-49332908D01*
X146533832Y-49272811D01*
X146599745Y-49250840D01*
X146665658Y-49272811D01*
G37*
G36*
X152944602Y-50055148D02*
G01*
X152675351Y-50055148D01*
X152367758Y-50055148D01*
X151746110Y-50055148D01*
X151300230Y-50055148D01*
X150750957Y-50055148D01*
X149782944Y-50055148D01*
X149090214Y-50055148D01*
X148515092Y-50055148D01*
X147650472Y-50055148D01*
X147423008Y-50055148D01*
X146601037Y-50055148D01*
X146094414Y-50055148D01*
X145054026Y-50055148D01*
X144798130Y-50055148D01*
X144352249Y-50055148D01*
X144082998Y-50055148D01*
X144045647Y-49930646D01*
X144352249Y-49930646D01*
X144524139Y-49930646D01*
X144553865Y-49860695D01*
X144588760Y-49782666D01*
X144626239Y-49702052D01*
X144663719Y-49624346D01*
X144701684Y-49704475D01*
X144738033Y-49784604D01*
X144770827Y-49861179D01*
X144798130Y-49930646D01*
X144970020Y-49930646D01*
X144935125Y-49845994D01*
X144911377Y-49794297D01*
X144884075Y-49738724D01*
X144853865Y-49680404D01*
X144821393Y-49620468D01*
X144787467Y-49561018D01*
X144752895Y-49504152D01*
X144885025Y-49262472D01*
X145054026Y-49262472D01*
X145228501Y-49262472D01*
X145228501Y-49798821D01*
X145054026Y-49798821D01*
X145054026Y-49930646D01*
X145561942Y-49930646D01*
X145642071Y-49930646D01*
X145807500Y-49930646D01*
X145843687Y-49745832D01*
X146056934Y-49745832D01*
X146094414Y-49930646D01*
X146265012Y-49930646D01*
X146243687Y-49839945D01*
X146222104Y-49751880D01*
X146200262Y-49666452D01*
X146178162Y-49583661D01*
X146163193Y-49530000D01*
X146311538Y-49530000D01*
X146316183Y-49627052D01*
X146330117Y-49711422D01*
X146353340Y-49783110D01*
X146385852Y-49842116D01*
X146442789Y-49900634D01*
X146514518Y-49935744D01*
X146601037Y-49947447D01*
X146685475Y-49935744D01*
X146695734Y-49930646D01*
X147650472Y-49930646D01*
X148163558Y-49930646D01*
X148163558Y-49886704D01*
X148266950Y-49886704D01*
X148356126Y-49926123D01*
X148425593Y-49942116D01*
X148515092Y-49947447D01*
X148605776Y-49940626D01*
X148679659Y-49920163D01*
X148736740Y-49886058D01*
X148791506Y-49811906D01*
X148809761Y-49712229D01*
X148804268Y-49651971D01*
X148787790Y-49603021D01*
X148731571Y-49530646D01*
X148656611Y-49484120D01*
X148578420Y-49452456D01*
X148528663Y-49433069D01*
X148483428Y-49409160D01*
X148450472Y-49378142D01*
X148437548Y-49337431D01*
X148451621Y-49286453D01*
X148493839Y-49255866D01*
X148564204Y-49245670D01*
X148655319Y-49258595D01*
X148727047Y-49289612D01*
X148773574Y-49166834D01*
X148709843Y-49140985D01*
X148931247Y-49140985D01*
X148931247Y-49930646D01*
X149090214Y-49930646D01*
X149090214Y-49903506D01*
X149560650Y-49903506D01*
X149600714Y-49917722D01*
X149656934Y-49931939D01*
X149720262Y-49942924D01*
X149782944Y-49947447D01*
X149857580Y-49942763D01*
X149921231Y-49928708D01*
X149974220Y-49906090D01*
X150016869Y-49875719D01*
X150072443Y-49794943D01*
X150090537Y-49692843D01*
X150081974Y-49627900D01*
X150056288Y-49572649D01*
X150015092Y-49528384D01*
X149960004Y-49496397D01*
X150032378Y-49429192D01*
X150059519Y-49337431D01*
X150044010Y-49248255D01*
X150024193Y-49218530D01*
X150209438Y-49218530D01*
X150288275Y-49329677D01*
X150369697Y-49268934D01*
X150448533Y-49250840D01*
X150523493Y-49277334D01*
X150553218Y-49352940D01*
X150529309Y-49421438D01*
X150468566Y-49491228D01*
X150430440Y-49528223D01*
X150389729Y-49566834D01*
X150349018Y-49607868D01*
X150310892Y-49652132D01*
X150277289Y-49700113D01*
X150250149Y-49752294D01*
X150232217Y-49809160D01*
X150226239Y-49871195D01*
X150225593Y-49898336D01*
X150228824Y-49930646D01*
X150750957Y-49930646D01*
X150750957Y-49886704D01*
X151497968Y-49886704D01*
X151587144Y-49926123D01*
X151656611Y-49942116D01*
X151746110Y-49947447D01*
X151836794Y-49940626D01*
X151910677Y-49920163D01*
X151938556Y-49903506D01*
X152145464Y-49903506D01*
X152185529Y-49917722D01*
X152241748Y-49931939D01*
X152305076Y-49942924D01*
X152367758Y-49947447D01*
X152442395Y-49942763D01*
X152506046Y-49928708D01*
X152559034Y-49906090D01*
X152601684Y-49875719D01*
X152657257Y-49794943D01*
X152675351Y-49692843D01*
X152666789Y-49627900D01*
X152641102Y-49572649D01*
X152599907Y-49528384D01*
X152544818Y-49496397D01*
X152617193Y-49429192D01*
X152644333Y-49337431D01*
X152628824Y-49248255D01*
X152581005Y-49176527D01*
X152498937Y-49129354D01*
X152444818Y-49116753D01*
X152381974Y-49112553D01*
X152313315Y-49118530D01*
X152252088Y-49136462D01*
X152159680Y-49183635D01*
X152216546Y-49299952D01*
X152293445Y-49263118D01*
X152383267Y-49248255D01*
X152456288Y-49273457D01*
X152482782Y-49342601D01*
X152470504Y-49391712D01*
X152438840Y-49422730D01*
X152394899Y-49439532D01*
X152345787Y-49444701D01*
X152286336Y-49444701D01*
X152286336Y-49576527D01*
X152335448Y-49576527D01*
X152406207Y-49582827D01*
X152463396Y-49601729D01*
X152501199Y-49636462D01*
X152513800Y-49690258D01*
X152480844Y-49776850D01*
X152435771Y-49803021D01*
X152366466Y-49811745D01*
X152305238Y-49808191D01*
X152253380Y-49797528D01*
X152176482Y-49770388D01*
X152145464Y-49903506D01*
X151938556Y-49903506D01*
X151967758Y-49886058D01*
X152022524Y-49811906D01*
X152040779Y-49712229D01*
X152035286Y-49651971D01*
X152018808Y-49603021D01*
X151962588Y-49530646D01*
X151887629Y-49484120D01*
X151809438Y-49452456D01*
X151759680Y-49433069D01*
X151714446Y-49409160D01*
X151681490Y-49378142D01*
X151668566Y-49337431D01*
X151682639Y-49286453D01*
X151724857Y-49255866D01*
X151795222Y-49245670D01*
X151886336Y-49258595D01*
X151958065Y-49289612D01*
X152004592Y-49166834D01*
X151912184Y-49129354D01*
X151852572Y-49116753D01*
X151783590Y-49112553D01*
X151704394Y-49119589D01*
X151637404Y-49140698D01*
X151582621Y-49175880D01*
X151527855Y-49251486D01*
X151509600Y-49351648D01*
X151530278Y-49446640D01*
X151582621Y-49510614D01*
X151653057Y-49553263D01*
X151728016Y-49582989D01*
X151782298Y-49605606D01*
X151831409Y-49632746D01*
X151867596Y-49666995D01*
X151881813Y-49710937D01*
X151875997Y-49749063D01*
X151854672Y-49782666D01*
X151812669Y-49805929D01*
X151746110Y-49814330D01*
X151681651Y-49809806D01*
X151627855Y-49796236D01*
X151544495Y-49757464D01*
X151497968Y-49886704D01*
X150750957Y-49886704D01*
X150750957Y-49798821D01*
X150407176Y-49798821D01*
X150420747Y-49756171D01*
X150453703Y-49710291D01*
X150484721Y-49677334D01*
X150946110Y-49677334D01*
X151300230Y-49677334D01*
X151300230Y-49520953D01*
X150946110Y-49520953D01*
X150946110Y-49677334D01*
X150484721Y-49677334D01*
X150495060Y-49666349D01*
X150533832Y-49629515D01*
X150599745Y-49564895D01*
X150657903Y-49495105D01*
X150699260Y-49420792D01*
X150714769Y-49341309D01*
X150694091Y-49241147D01*
X150638517Y-49169418D01*
X150558388Y-49126769D01*
X150464042Y-49112553D01*
X150396676Y-49119015D01*
X150328986Y-49138401D01*
X150265173Y-49171357D01*
X150209438Y-49218530D01*
X150024193Y-49218530D01*
X149996191Y-49176527D01*
X149914123Y-49129354D01*
X149860004Y-49116753D01*
X149797160Y-49112553D01*
X149728501Y-49118530D01*
X149667273Y-49136462D01*
X149574866Y-49183635D01*
X149631732Y-49299952D01*
X149708630Y-49263118D01*
X149798453Y-49248255D01*
X149871474Y-49273457D01*
X149897968Y-49342601D01*
X149885690Y-49391712D01*
X149854026Y-49422730D01*
X149810084Y-49439532D01*
X149760973Y-49444701D01*
X149701522Y-49444701D01*
X149701522Y-49576527D01*
X149750634Y-49576527D01*
X149821393Y-49582827D01*
X149878582Y-49601729D01*
X149916385Y-49636462D01*
X149928986Y-49690258D01*
X149896029Y-49776850D01*
X149850957Y-49803021D01*
X149781651Y-49811745D01*
X149720424Y-49808191D01*
X149668566Y-49797528D01*
X149591668Y-49770388D01*
X149560650Y-49903506D01*
X149090214Y-49903506D01*
X149090214Y-49660533D01*
X149147079Y-49660533D01*
X149242646Y-49653425D01*
X149322560Y-49632100D01*
X149386821Y-49596559D01*
X149433850Y-49545078D01*
X149462068Y-49475934D01*
X149471474Y-49389128D01*
X149462140Y-49303183D01*
X149434137Y-49234900D01*
X149387467Y-49184281D01*
X149323852Y-49149458D01*
X149245015Y-49128564D01*
X149150957Y-49121599D01*
X149100553Y-49122892D01*
X149042395Y-49126123D01*
X148983590Y-49131939D01*
X148931247Y-49140985D01*
X148709843Y-49140985D01*
X148681167Y-49129354D01*
X148621554Y-49116753D01*
X148552572Y-49112553D01*
X148473376Y-49119589D01*
X148406387Y-49140698D01*
X148351603Y-49175880D01*
X148296837Y-49251486D01*
X148278582Y-49351648D01*
X148299260Y-49446640D01*
X148351603Y-49510614D01*
X148422039Y-49553263D01*
X148496999Y-49582989D01*
X148551280Y-49605606D01*
X148600391Y-49632746D01*
X148636579Y-49666995D01*
X148650795Y-49710937D01*
X148644979Y-49749063D01*
X148623655Y-49782666D01*
X148581651Y-49805929D01*
X148515092Y-49814330D01*
X148450634Y-49809806D01*
X148396837Y-49796236D01*
X148313477Y-49757464D01*
X148266950Y-49886704D01*
X148163558Y-49886704D01*
X148163558Y-49798821D01*
X147809438Y-49798821D01*
X147809438Y-49573942D01*
X148092475Y-49573942D01*
X148092475Y-49442116D01*
X147809438Y-49442116D01*
X147809438Y-49262472D01*
X148135125Y-49262472D01*
X148135125Y-49130646D01*
X147650472Y-49130646D01*
X147650472Y-49930646D01*
X146695734Y-49930646D01*
X146756126Y-49900634D01*
X146812992Y-49842116D01*
X146845787Y-49783110D01*
X146869212Y-49711422D01*
X146874891Y-49677334D01*
X147068889Y-49677334D01*
X147423008Y-49677334D01*
X147423008Y-49520953D01*
X147068889Y-49520953D01*
X147068889Y-49677334D01*
X146874891Y-49677334D01*
X146883267Y-49627052D01*
X146887952Y-49530000D01*
X146883348Y-49432948D01*
X146869535Y-49348578D01*
X146846514Y-49276890D01*
X146814285Y-49217884D01*
X146757706Y-49159366D01*
X146686193Y-49124256D01*
X146599745Y-49112553D01*
X146515882Y-49124256D01*
X146445231Y-49159366D01*
X146387790Y-49217884D01*
X146354430Y-49276890D01*
X146330601Y-49348578D01*
X146316304Y-49432948D01*
X146311538Y-49530000D01*
X146163193Y-49530000D01*
X146155803Y-49503506D01*
X146127653Y-49406292D01*
X146099422Y-49311745D01*
X146071110Y-49219863D01*
X146042718Y-49130646D01*
X145869535Y-49130646D01*
X145842152Y-49219136D01*
X145814285Y-49310129D01*
X145785932Y-49403627D01*
X145757096Y-49499628D01*
X145733884Y-49579111D01*
X145710776Y-49661955D01*
X145687771Y-49748158D01*
X145664869Y-49837722D01*
X145642071Y-49930646D01*
X145561942Y-49930646D01*
X145561942Y-49798821D01*
X145388760Y-49798821D01*
X145388760Y-49262472D01*
X145561942Y-49262472D01*
X145561942Y-49130646D01*
X145054026Y-49130646D01*
X145054026Y-49262472D01*
X144885025Y-49262472D01*
X144957096Y-49130646D01*
X144796837Y-49130646D01*
X144663719Y-49386543D01*
X144537063Y-49130646D01*
X144365173Y-49130646D01*
X144574543Y-49508029D01*
X144542879Y-49564733D01*
X144509923Y-49623700D01*
X144477128Y-49682989D01*
X144445949Y-49740662D01*
X144416869Y-49795590D01*
X144390375Y-49846640D01*
X144352249Y-49930646D01*
X144045647Y-49930646D01*
X143767909Y-49004852D01*
X144082998Y-49004852D01*
X144352249Y-49004852D01*
X152675351Y-49004852D01*
X152944602Y-49004852D01*
X153259691Y-49004852D01*
X152944602Y-50055148D01*
G37*
D13*
%TO.C,J6*%
X127020000Y-119500000D02*
X127020000Y-123500000D01*
X127310000Y-118470000D02*
X127310000Y-124490000D01*
X127310000Y-124490000D02*
X137690000Y-124490000D01*
X127890000Y-118470000D02*
X127890000Y-119070000D01*
X127890000Y-119070000D02*
X129490000Y-119070000D01*
X128690000Y-123490000D02*
X128940000Y-122960000D01*
X128690000Y-123490000D02*
X136310000Y-123490000D01*
X128690000Y-124490000D02*
X128690000Y-123490000D01*
X128940000Y-122960000D02*
X136060000Y-122960000D01*
X128940000Y-124490000D02*
X128940000Y-123490000D01*
X129490000Y-119070000D02*
X129490000Y-118470000D01*
X130430000Y-118470000D02*
X130430000Y-119070000D01*
X130430000Y-119070000D02*
X132030000Y-119070000D01*
X132030000Y-119070000D02*
X132030000Y-118470000D01*
X132970000Y-118470000D02*
X132970000Y-119070000D01*
X132970000Y-119070000D02*
X134570000Y-119070000D01*
X134570000Y-119070000D02*
X134570000Y-118470000D01*
X135510000Y-118470000D02*
X135510000Y-119070000D01*
X135510000Y-119070000D02*
X137110000Y-119070000D01*
X136060000Y-122960000D02*
X136310000Y-123490000D01*
X136060000Y-124490000D02*
X136060000Y-123490000D01*
X136310000Y-123490000D02*
X136310000Y-124490000D01*
X137110000Y-119070000D02*
X137110000Y-118470000D01*
X137690000Y-118470000D02*
X127310000Y-118470000D01*
X137690000Y-124490000D02*
X137690000Y-118470000D01*
D12*
%TO.C,kibuzzard-67ED6169*%
G36*
X124683522Y-68454766D02*
G01*
X124719709Y-68483845D01*
X124740388Y-68524556D01*
X124746850Y-68571729D01*
X124503877Y-68571729D01*
X124514863Y-68523910D01*
X124538126Y-68482553D01*
X124575606Y-68454120D01*
X124629241Y-68443780D01*
X124683522Y-68454766D01*
G37*
G36*
X126622132Y-68454766D02*
G01*
X126658320Y-68483845D01*
X126678998Y-68524556D01*
X126685460Y-68571729D01*
X126442488Y-68571729D01*
X126453473Y-68523910D01*
X126476737Y-68482553D01*
X126514216Y-68454120D01*
X126567851Y-68443780D01*
X126622132Y-68454766D01*
G37*
G36*
X129203231Y-68461389D02*
G01*
X129241195Y-68498708D01*
X129263005Y-68556381D01*
X129270275Y-68629887D01*
X129262359Y-68703554D01*
X129238611Y-68761712D01*
X129199354Y-68799515D01*
X129144911Y-68812116D01*
X129089176Y-68799515D01*
X129051212Y-68761712D01*
X129029402Y-68703554D01*
X129022132Y-68629887D01*
X129030048Y-68556381D01*
X129053796Y-68498708D01*
X129093053Y-68461389D01*
X129147496Y-68448950D01*
X129203231Y-68461389D01*
G37*
G36*
X133264373Y-69058104D02*
G01*
X132929510Y-69058104D01*
X132660258Y-69058104D01*
X132436672Y-69058104D01*
X132005008Y-69058104D01*
X130831502Y-69058104D01*
X130039257Y-69058104D01*
X129147496Y-69058104D01*
X128608562Y-69058104D01*
X127946850Y-69058104D01*
X127454443Y-69058104D01*
X126611793Y-69058104D01*
X126008239Y-69058104D01*
X125567528Y-69058104D01*
X124673183Y-69058104D01*
X124339742Y-69058104D01*
X124070490Y-69058104D01*
X123735627Y-69058104D01*
X123862541Y-68635057D01*
X124339742Y-68635057D01*
X124345557Y-68707754D01*
X124363005Y-68770759D01*
X124391276Y-68824233D01*
X124429564Y-68868336D01*
X124477383Y-68902908D01*
X124534249Y-68927787D01*
X124599677Y-68942811D01*
X124673183Y-68947819D01*
X124777868Y-68938126D01*
X124794493Y-68933603D01*
X124971729Y-68933603D01*
X125133279Y-68933603D01*
X125165267Y-68875767D01*
X125196607Y-68823748D01*
X125229564Y-68773990D01*
X125266397Y-68722940D01*
X125298384Y-68766882D01*
X125332310Y-68815994D01*
X125367205Y-68871244D01*
X125402100Y-68933603D01*
X125567528Y-68933603D01*
X125530048Y-68863813D01*
X125480937Y-68782391D01*
X125424071Y-68697738D01*
X125363328Y-68618255D01*
X125559774Y-68326171D01*
X125638611Y-68326171D01*
X125638611Y-68457997D01*
X125776898Y-68457997D01*
X125776898Y-68707431D01*
X125780775Y-68776414D01*
X125792407Y-68830856D01*
X125837641Y-68903877D01*
X125910016Y-68938772D01*
X126008239Y-68947819D01*
X126107108Y-68940065D01*
X126202100Y-68914216D01*
X126180129Y-68777221D01*
X126139418Y-68794023D01*
X126103231Y-68803716D01*
X126067044Y-68808239D01*
X126026333Y-68809532D01*
X125988853Y-68805654D01*
X125960420Y-68790145D01*
X125942326Y-68757835D01*
X125935864Y-68703554D01*
X125935864Y-68635057D01*
X126278352Y-68635057D01*
X126284168Y-68707754D01*
X126301616Y-68770759D01*
X126329887Y-68824233D01*
X126368174Y-68868336D01*
X126415994Y-68902908D01*
X126472859Y-68927787D01*
X126538288Y-68942811D01*
X126611793Y-68947819D01*
X126716478Y-68938126D01*
X126804362Y-68914216D01*
X126782391Y-68778514D01*
X126709370Y-68799192D01*
X126618255Y-68809532D01*
X126547819Y-68800969D01*
X126491599Y-68775283D01*
X126454766Y-68734733D01*
X126442488Y-68681583D01*
X126836672Y-68681583D01*
X126838611Y-68654443D01*
X126839257Y-68622132D01*
X126831502Y-68528577D01*
X126808239Y-68451248D01*
X126769467Y-68390145D01*
X126715760Y-68345988D01*
X126714653Y-68345557D01*
X126965913Y-68345557D01*
X126965913Y-68933603D01*
X127124879Y-68933603D01*
X127124879Y-68456704D01*
X127161712Y-68452827D01*
X127197254Y-68451535D01*
X127276090Y-68489015D01*
X127290630Y-68538449D01*
X127295477Y-68611793D01*
X127295477Y-68933603D01*
X127454443Y-68933603D01*
X127454443Y-68591115D01*
X127451535Y-68531826D01*
X127442811Y-68478029D01*
X127403393Y-68390145D01*
X127327787Y-68333279D01*
X127302259Y-68326171D01*
X127577221Y-68326171D01*
X127577221Y-68457997D01*
X127715509Y-68457997D01*
X127715509Y-68707431D01*
X127719386Y-68776414D01*
X127731018Y-68830856D01*
X127776252Y-68903877D01*
X127848627Y-68938772D01*
X127946850Y-68947819D01*
X128045719Y-68940065D01*
X128140711Y-68914216D01*
X128118740Y-68777221D01*
X128078029Y-68794023D01*
X128041842Y-68803716D01*
X128005654Y-68808239D01*
X127964943Y-68809532D01*
X127927464Y-68805654D01*
X127899031Y-68790145D01*
X127880937Y-68757835D01*
X127874475Y-68703554D01*
X127874475Y-68457997D01*
X128129079Y-68457997D01*
X128129079Y-68326171D01*
X128223425Y-68326171D01*
X128223425Y-68457997D01*
X128391438Y-68457997D01*
X128391438Y-68681583D01*
X128394023Y-68741357D01*
X128401777Y-68794023D01*
X128437318Y-68877383D01*
X128504523Y-68929725D01*
X128551535Y-68943296D01*
X128608562Y-68947819D01*
X128688045Y-68939418D01*
X128780452Y-68907754D01*
X128759774Y-68779806D01*
X128689984Y-68803716D01*
X128636995Y-68809532D01*
X128570436Y-68783037D01*
X128550404Y-68702262D01*
X128550404Y-68628595D01*
X128860582Y-68628595D01*
X128865751Y-68697577D01*
X128881260Y-68759774D01*
X128906300Y-68814540D01*
X128940065Y-68861228D01*
X128981745Y-68899031D01*
X129030533Y-68927141D01*
X129085945Y-68944588D01*
X129147496Y-68950404D01*
X129209047Y-68944588D01*
X129264459Y-68927141D01*
X129313086Y-68899031D01*
X129354281Y-68861228D01*
X129387561Y-68814540D01*
X129412439Y-68759774D01*
X129427948Y-68697577D01*
X129433118Y-68628595D01*
X129427948Y-68560582D01*
X129412439Y-68498708D01*
X129387399Y-68444103D01*
X129353635Y-68397900D01*
X129311955Y-68360743D01*
X129284978Y-68345557D01*
X129550727Y-68345557D01*
X129550727Y-68933603D01*
X129709693Y-68933603D01*
X129709693Y-68456704D01*
X129746527Y-68452827D01*
X129782068Y-68451535D01*
X129860905Y-68489015D01*
X129875444Y-68538449D01*
X129880291Y-68611793D01*
X129880291Y-68933603D01*
X130039257Y-68933603D01*
X130039257Y-68591115D01*
X130036349Y-68531826D01*
X130027625Y-68478029D01*
X129988207Y-68390145D01*
X129912601Y-68333279D01*
X129858643Y-68318255D01*
X129792407Y-68313247D01*
X129721486Y-68315832D01*
X129656058Y-68323586D01*
X129598384Y-68334249D01*
X129550727Y-68345557D01*
X129284978Y-68345557D01*
X129263166Y-68333279D01*
X129208078Y-68316317D01*
X129147496Y-68310662D01*
X129087722Y-68316317D01*
X129032472Y-68333279D01*
X128983199Y-68360743D01*
X128941357Y-68397900D01*
X128907431Y-68444103D01*
X128881906Y-68498708D01*
X128865913Y-68560582D01*
X128860582Y-68628595D01*
X128550404Y-68628595D01*
X128550404Y-68326171D01*
X128443134Y-68326171D01*
X128223425Y-68326171D01*
X128129079Y-68326171D01*
X127874475Y-68326171D01*
X127874475Y-68265428D01*
X130831502Y-68265428D01*
X131005977Y-68265428D01*
X131005977Y-68801777D01*
X130831502Y-68801777D01*
X130831502Y-68933603D01*
X131339418Y-68933603D01*
X131339418Y-68801777D01*
X131166236Y-68801777D01*
X131166236Y-68265428D01*
X131339418Y-68265428D01*
X131339418Y-68221486D01*
X131463489Y-68221486D01*
X131542326Y-68332633D01*
X131623748Y-68271890D01*
X131702585Y-68253796D01*
X131777544Y-68280291D01*
X131807270Y-68355897D01*
X131783360Y-68424394D01*
X131722617Y-68494184D01*
X131684491Y-68531179D01*
X131643780Y-68569790D01*
X131603069Y-68610824D01*
X131564943Y-68655089D01*
X131531341Y-68703069D01*
X131504200Y-68755250D01*
X131486268Y-68812116D01*
X131480291Y-68874152D01*
X131479645Y-68901292D01*
X131482876Y-68933603D01*
X132005008Y-68933603D01*
X132005008Y-68801777D01*
X131661228Y-68801777D01*
X131674798Y-68759128D01*
X131707754Y-68713247D01*
X131749111Y-68669305D01*
X131787884Y-68632472D01*
X131853796Y-68567851D01*
X131882876Y-68532956D01*
X132089015Y-68532956D01*
X132094588Y-68627383D01*
X132111309Y-68710339D01*
X132139176Y-68781826D01*
X132178191Y-68841842D01*
X132246545Y-68902154D01*
X132332705Y-68938341D01*
X132436672Y-68950404D01*
X132507270Y-68946042D01*
X132569144Y-68932956D01*
X132660258Y-68894830D01*
X132620194Y-68769467D01*
X132554927Y-68797900D01*
X132452181Y-68812116D01*
X132359935Y-68793861D01*
X132297738Y-68739095D01*
X132271531Y-68683306D01*
X132255807Y-68613301D01*
X132250565Y-68529079D01*
X132254927Y-68456704D01*
X132268013Y-68397254D01*
X132313247Y-68312601D01*
X132376575Y-68267367D01*
X132449596Y-68253796D01*
X132545880Y-68267367D01*
X132617609Y-68300323D01*
X132658966Y-68173667D01*
X132632472Y-68158158D01*
X132589176Y-68138772D01*
X132529079Y-68122617D01*
X132452181Y-68115509D01*
X132376414Y-68122456D01*
X132306785Y-68143296D01*
X132244750Y-68177544D01*
X132191761Y-68224717D01*
X132148627Y-68284330D01*
X132116155Y-68355897D01*
X132095800Y-68438934D01*
X132089015Y-68532956D01*
X131882876Y-68532956D01*
X131911955Y-68498061D01*
X131953312Y-68423748D01*
X131968821Y-68344265D01*
X131948142Y-68244103D01*
X131892569Y-68172375D01*
X131812439Y-68129725D01*
X131718094Y-68115509D01*
X131650727Y-68121971D01*
X131583037Y-68141357D01*
X131519225Y-68174313D01*
X131463489Y-68221486D01*
X131339418Y-68221486D01*
X131339418Y-68133603D01*
X130831502Y-68133603D01*
X130831502Y-68265428D01*
X127874475Y-68265428D01*
X127874475Y-68151696D01*
X128343619Y-68151696D01*
X128372698Y-68225363D01*
X128443134Y-68252504D01*
X128514216Y-68225363D01*
X128543942Y-68151696D01*
X128514216Y-68076737D01*
X128443134Y-68049596D01*
X128372698Y-68076737D01*
X128343619Y-68151696D01*
X127874475Y-68151696D01*
X127874475Y-68147819D01*
X127715509Y-68173667D01*
X127715509Y-68326171D01*
X127577221Y-68326171D01*
X127302259Y-68326171D01*
X127273829Y-68318255D01*
X127207593Y-68313247D01*
X127136672Y-68315832D01*
X127071244Y-68323586D01*
X127013570Y-68334249D01*
X126965913Y-68345557D01*
X126714653Y-68345557D01*
X126647693Y-68319494D01*
X126565267Y-68310662D01*
X126511632Y-68315832D01*
X126459289Y-68331341D01*
X126410501Y-68357027D01*
X126367528Y-68392730D01*
X126331341Y-68438449D01*
X126302908Y-68494184D01*
X126284491Y-68559774D01*
X126278352Y-68635057D01*
X125935864Y-68635057D01*
X125935864Y-68457997D01*
X126190468Y-68457997D01*
X126190468Y-68326171D01*
X125935864Y-68326171D01*
X125935864Y-68147819D01*
X125776898Y-68173667D01*
X125776898Y-68326171D01*
X125638611Y-68326171D01*
X125559774Y-68326171D01*
X125398223Y-68326171D01*
X125274152Y-68516155D01*
X125139742Y-68326171D01*
X124973021Y-68326171D01*
X125186268Y-68620840D01*
X125127464Y-68697092D01*
X125069305Y-68777868D01*
X125016317Y-68857997D01*
X124971729Y-68933603D01*
X124794493Y-68933603D01*
X124865751Y-68914216D01*
X124843780Y-68778514D01*
X124770759Y-68799192D01*
X124679645Y-68809532D01*
X124609208Y-68800969D01*
X124552989Y-68775283D01*
X124516155Y-68734733D01*
X124503877Y-68681583D01*
X124898061Y-68681583D01*
X124900000Y-68654443D01*
X124900646Y-68622132D01*
X124892892Y-68528577D01*
X124869628Y-68451248D01*
X124830856Y-68390145D01*
X124777150Y-68345988D01*
X124709083Y-68319494D01*
X124626656Y-68310662D01*
X124573021Y-68315832D01*
X124520679Y-68331341D01*
X124471890Y-68357027D01*
X124428918Y-68392730D01*
X124392730Y-68438449D01*
X124364297Y-68494184D01*
X124345880Y-68559774D01*
X124339742Y-68635057D01*
X123862541Y-68635057D01*
X124070490Y-67941896D01*
X124339742Y-67941896D01*
X132660258Y-67941896D01*
X132929510Y-67941896D01*
X133264373Y-69058104D01*
G37*
D13*
%TO.C,U5*%
X175543708Y-91579167D02*
X175543708Y-89045834D01*
X175783708Y-82619167D02*
X190903708Y-82619167D01*
X175783708Y-91339167D02*
X175783708Y-82619167D01*
X175783708Y-91339167D02*
X190903708Y-91339167D01*
X178077041Y-91579167D02*
X175543708Y-91579167D01*
X190903708Y-91339167D02*
X190903708Y-82619167D01*
D12*
%TO.C,kibuzzard-67ED72FD*%
G36*
X131277551Y-124893186D02*
G01*
X131313739Y-124922266D01*
X131334417Y-124962976D01*
X131340879Y-125010149D01*
X131097907Y-125010149D01*
X131108892Y-124962330D01*
X131132155Y-124920973D01*
X131169635Y-124892540D01*
X131223270Y-124882201D01*
X131277551Y-124893186D01*
G37*
G36*
X133216162Y-124893186D02*
G01*
X133252349Y-124922266D01*
X133273028Y-124962976D01*
X133279490Y-125010149D01*
X133036517Y-125010149D01*
X133047503Y-124962330D01*
X133070766Y-124920973D01*
X133108246Y-124892540D01*
X133161881Y-124882201D01*
X133216162Y-124893186D01*
G37*
G36*
X131911477Y-124900456D02*
G01*
X131952188Y-124939713D01*
X131976420Y-124999325D01*
X131984498Y-125073477D01*
X131977713Y-125147952D01*
X131957357Y-125203364D01*
X131922785Y-125237774D01*
X131873351Y-125249245D01*
X131821655Y-125242783D01*
X131780298Y-125225981D01*
X131780298Y-124892540D01*
X131815193Y-124889309D01*
X131853965Y-124887371D01*
X131911477Y-124900456D01*
G37*
G36*
X132557680Y-124900456D02*
G01*
X132598391Y-124939713D01*
X132622624Y-124999325D01*
X132630701Y-125073477D01*
X132623916Y-125147952D01*
X132603561Y-125203364D01*
X132568989Y-125237774D01*
X132519554Y-125249245D01*
X132467858Y-125242783D01*
X132426501Y-125225981D01*
X132426501Y-124892540D01*
X132461396Y-124889309D01*
X132500168Y-124887371D01*
X132557680Y-124900456D01*
G37*
G36*
X135639856Y-125692971D02*
G01*
X135370605Y-125692971D01*
X135132802Y-125692971D01*
X133753803Y-125692971D01*
X133205823Y-125692971D01*
X132426501Y-125692971D01*
X131780298Y-125692971D01*
X131267212Y-125692971D01*
X130663658Y-125692971D01*
X129901138Y-125692971D01*
X129652995Y-125692971D01*
X129383744Y-125692971D01*
X129274277Y-125328081D01*
X129652995Y-125328081D01*
X129742172Y-125367500D01*
X129811638Y-125383493D01*
X129901138Y-125388825D01*
X129991822Y-125382004D01*
X130065704Y-125361540D01*
X130122785Y-125327435D01*
X130177551Y-125253283D01*
X130195806Y-125153606D01*
X130190314Y-125093348D01*
X130173836Y-125044398D01*
X130117616Y-124972023D01*
X130042656Y-124925497D01*
X129964466Y-124893833D01*
X129914708Y-124874447D01*
X129869474Y-124850537D01*
X129836517Y-124819519D01*
X129823593Y-124778808D01*
X129827517Y-124764592D01*
X130294029Y-124764592D01*
X130294029Y-124896417D01*
X130432317Y-124896417D01*
X130432317Y-125145852D01*
X130436194Y-125214834D01*
X130447826Y-125269277D01*
X130493060Y-125342298D01*
X130565435Y-125377193D01*
X130663658Y-125386240D01*
X130762527Y-125378485D01*
X130857519Y-125352637D01*
X130835548Y-125215642D01*
X130794837Y-125232443D01*
X130758650Y-125242136D01*
X130722462Y-125246660D01*
X130681752Y-125247952D01*
X130644272Y-125244075D01*
X130615839Y-125228566D01*
X130597745Y-125196256D01*
X130591283Y-125141975D01*
X130591283Y-125073477D01*
X130933771Y-125073477D01*
X130939587Y-125146175D01*
X130957034Y-125209180D01*
X130985306Y-125262653D01*
X131023593Y-125306757D01*
X131071412Y-125341329D01*
X131128278Y-125366207D01*
X131193706Y-125381232D01*
X131267212Y-125386240D01*
X131371897Y-125376547D01*
X131459781Y-125352637D01*
X131437810Y-125216934D01*
X131364789Y-125237613D01*
X131273674Y-125247952D01*
X131203238Y-125239390D01*
X131147018Y-125213703D01*
X131110184Y-125173154D01*
X131097907Y-125120004D01*
X131492091Y-125120004D01*
X131494029Y-125092863D01*
X131494676Y-125060553D01*
X131486921Y-124966997D01*
X131463658Y-124889668D01*
X131424886Y-124828566D01*
X131371179Y-124784409D01*
X131370072Y-124783978D01*
X131621332Y-124783978D01*
X131621332Y-125585270D01*
X131780298Y-125585270D01*
X131780298Y-125356514D01*
X131843949Y-125378808D01*
X131905661Y-125386240D01*
X131961558Y-125380424D01*
X132010346Y-125362976D01*
X132085306Y-125297710D01*
X132111477Y-125251506D01*
X132130540Y-125196902D01*
X132142172Y-125135351D01*
X132146049Y-125068308D01*
X132137720Y-124977695D01*
X132112733Y-124900582D01*
X132071089Y-124836967D01*
X132013792Y-124789578D01*
X131999622Y-124783978D01*
X132267535Y-124783978D01*
X132267535Y-125585270D01*
X132426501Y-125585270D01*
X132426501Y-125356514D01*
X132490152Y-125378808D01*
X132551865Y-125386240D01*
X132607761Y-125380424D01*
X132656550Y-125362976D01*
X132731509Y-125297710D01*
X132757680Y-125251506D01*
X132776743Y-125196902D01*
X132788375Y-125135351D01*
X132791953Y-125073477D01*
X132872382Y-125073477D01*
X132878197Y-125146175D01*
X132895645Y-125209180D01*
X132923916Y-125262653D01*
X132962204Y-125306757D01*
X133010023Y-125341329D01*
X133066889Y-125366207D01*
X133132317Y-125381232D01*
X133205823Y-125386240D01*
X133310508Y-125376547D01*
X133398391Y-125352637D01*
X133376420Y-125216934D01*
X133303399Y-125237613D01*
X133212285Y-125247952D01*
X133141848Y-125239390D01*
X133085629Y-125213703D01*
X133048795Y-125173154D01*
X133036517Y-125120004D01*
X133430701Y-125120004D01*
X133432640Y-125092863D01*
X133433286Y-125060553D01*
X133425532Y-124966997D01*
X133402268Y-124889668D01*
X133363496Y-124828566D01*
X133334417Y-124804657D01*
X133593545Y-124804657D01*
X133593545Y-125372023D01*
X133753803Y-125372023D01*
X133753803Y-124971377D01*
X134805823Y-124971377D01*
X134811638Y-125068469D01*
X134829086Y-125152960D01*
X134857196Y-125224689D01*
X134894999Y-125283493D01*
X134942010Y-125329374D01*
X134997745Y-125362330D01*
X135061558Y-125382201D01*
X135132802Y-125388825D01*
X135211800Y-125385594D01*
X135278197Y-125375900D01*
X135366727Y-125352637D01*
X135366727Y-124953283D01*
X135207761Y-124953283D01*
X135207761Y-125245367D01*
X135176743Y-125249245D01*
X135145726Y-125250537D01*
X135068504Y-125233574D01*
X135012608Y-125182686D01*
X134987478Y-125129051D01*
X134972400Y-125058615D01*
X134967374Y-124971377D01*
X134970120Y-124912088D01*
X134978359Y-124858291D01*
X135014546Y-124770408D01*
X135078521Y-124712896D01*
X135174159Y-124692217D01*
X135259458Y-124706434D01*
X135329247Y-124738744D01*
X135370605Y-124612088D01*
X135344110Y-124596579D01*
X135299522Y-124577193D01*
X135235548Y-124561038D01*
X135152188Y-124553930D01*
X135082075Y-124560553D01*
X135016485Y-124580424D01*
X134957357Y-124613542D01*
X134906630Y-124659907D01*
X134864950Y-124719196D01*
X134832963Y-124791086D01*
X134812608Y-124875254D01*
X134805823Y-124971377D01*
X133753803Y-124971377D01*
X133753803Y-124920973D01*
X133819716Y-124908695D01*
X133885629Y-124905464D01*
X133920524Y-124906757D01*
X133963173Y-124911280D01*
X134006469Y-124918388D01*
X134043302Y-124926143D01*
X134071735Y-124778808D01*
X134021978Y-124766531D01*
X133967050Y-124758776D01*
X133916000Y-124754253D01*
X133879167Y-124752960D01*
X133795645Y-124756514D01*
X133723432Y-124767177D01*
X133657680Y-124783655D01*
X133593545Y-124804657D01*
X133334417Y-124804657D01*
X133309790Y-124784409D01*
X133241723Y-124757914D01*
X133159296Y-124749083D01*
X133105661Y-124754253D01*
X133053319Y-124769762D01*
X133004530Y-124795448D01*
X132961558Y-124831151D01*
X132925370Y-124876870D01*
X132896937Y-124932605D01*
X132878521Y-124998195D01*
X132872382Y-125073477D01*
X132791953Y-125073477D01*
X132792252Y-125068308D01*
X132783923Y-124977695D01*
X132758937Y-124900582D01*
X132717293Y-124836967D01*
X132659996Y-124789578D01*
X132588052Y-124761146D01*
X132501461Y-124751668D01*
X132438941Y-124753930D01*
X132375451Y-124760715D01*
X132316485Y-124771054D01*
X132267535Y-124783978D01*
X131999622Y-124783978D01*
X131941848Y-124761146D01*
X131855257Y-124751668D01*
X131792737Y-124753930D01*
X131729247Y-124760715D01*
X131670281Y-124771054D01*
X131621332Y-124783978D01*
X131370072Y-124783978D01*
X131303112Y-124757914D01*
X131220685Y-124749083D01*
X131167050Y-124754253D01*
X131114708Y-124769762D01*
X131065920Y-124795448D01*
X131022947Y-124831151D01*
X130986760Y-124876870D01*
X130958327Y-124932605D01*
X130939910Y-124998195D01*
X130933771Y-125073477D01*
X130591283Y-125073477D01*
X130591283Y-124896417D01*
X130845887Y-124896417D01*
X130845887Y-124764592D01*
X130591283Y-124764592D01*
X130591283Y-124586240D01*
X130432317Y-124612088D01*
X130432317Y-124764592D01*
X130294029Y-124764592D01*
X129827517Y-124764592D01*
X129837666Y-124727830D01*
X129879885Y-124697243D01*
X129950249Y-124687047D01*
X130041364Y-124699972D01*
X130113092Y-124730989D01*
X130159619Y-124608211D01*
X130067212Y-124570731D01*
X130007600Y-124558130D01*
X129938617Y-124553930D01*
X129859422Y-124560966D01*
X129792432Y-124582075D01*
X129737648Y-124617258D01*
X129682882Y-124692863D01*
X129664627Y-124793025D01*
X129685306Y-124888017D01*
X129737648Y-124951991D01*
X129808084Y-124994640D01*
X129883044Y-125024366D01*
X129937325Y-125046983D01*
X129986437Y-125074123D01*
X130022624Y-125108372D01*
X130036840Y-125152314D01*
X130031025Y-125190440D01*
X130009700Y-125224043D01*
X129967697Y-125247306D01*
X129901138Y-125255707D01*
X129836679Y-125251183D01*
X129782882Y-125237613D01*
X129699522Y-125198841D01*
X129652995Y-125328081D01*
X129274277Y-125328081D01*
X129009721Y-124446229D01*
X129383744Y-124446229D01*
X129652995Y-124446229D01*
X135370605Y-124446229D01*
X135639856Y-124446229D01*
X136013879Y-124446229D01*
X135639856Y-125692971D01*
G37*
%TO.C,kibuzzard-67ED71B1*%
G36*
X184650311Y-90886422D02*
G01*
X184469374Y-90886422D01*
X184508147Y-90812754D01*
X184554027Y-90738441D01*
X184602492Y-90668005D01*
X184650311Y-90604677D01*
X184650311Y-90886422D01*
G37*
G36*
X182030925Y-90542318D02*
G01*
X182075836Y-90564612D01*
X182104916Y-90602738D01*
X182114609Y-90657666D01*
X182078421Y-90747488D01*
X182030925Y-90771236D01*
X181960812Y-90779152D01*
X181925917Y-90779152D01*
X181925917Y-90538764D01*
X181951765Y-90535533D01*
X181973736Y-90534887D01*
X182030925Y-90542318D01*
G37*
G36*
X185955481Y-90541187D02*
G01*
X185997646Y-90594984D01*
X186016673Y-90650055D01*
X186028089Y-90719629D01*
X186031895Y-90803708D01*
X186028089Y-90888504D01*
X186016673Y-90958509D01*
X185997646Y-91013724D01*
X185955481Y-91067520D01*
X185898777Y-91085053D01*
X185897484Y-91085452D01*
X185840295Y-91067520D01*
X185797969Y-91013724D01*
X185778583Y-90958509D01*
X185766951Y-90888504D01*
X185763074Y-90803708D01*
X185763670Y-90790784D01*
X185826402Y-90790784D01*
X185845788Y-90850880D01*
X185898777Y-90876082D01*
X185949827Y-90850880D01*
X185969859Y-90790784D01*
X185949827Y-90730040D01*
X185898777Y-90704192D01*
X185845788Y-90730040D01*
X185826402Y-90790784D01*
X185763670Y-90790784D01*
X185766951Y-90719629D01*
X185778583Y-90650055D01*
X185797969Y-90594984D01*
X185840295Y-90541187D01*
X185897484Y-90523255D01*
X185955481Y-90541187D01*
G37*
G36*
X186759692Y-91330148D02*
G01*
X186444603Y-91330148D01*
X186175352Y-91330148D01*
X185897484Y-91330148D01*
X185189245Y-91330148D01*
X184809277Y-91330148D01*
X184232864Y-91330148D01*
X183489730Y-91330148D01*
X182940457Y-91330148D01*
X182329148Y-91330148D01*
X181350796Y-91330148D01*
X180807985Y-91330148D01*
X180437064Y-91330148D01*
X180167813Y-91330148D01*
X179852724Y-91330148D01*
X180090527Y-90537472D01*
X180437064Y-90537472D01*
X180647727Y-90537472D01*
X180647727Y-91205646D01*
X180807985Y-91205646D01*
X180807985Y-91161704D01*
X181102654Y-91161704D01*
X181191830Y-91201123D01*
X181261297Y-91217116D01*
X181350796Y-91222447D01*
X181441480Y-91215626D01*
X181515363Y-91195163D01*
X181572444Y-91161058D01*
X181627210Y-91086906D01*
X181645465Y-90987229D01*
X181639972Y-90926971D01*
X181623494Y-90878021D01*
X181567274Y-90805646D01*
X181492315Y-90759120D01*
X181414124Y-90727456D01*
X181364366Y-90708069D01*
X181319132Y-90684160D01*
X181286176Y-90653142D01*
X181273252Y-90612431D01*
X181287324Y-90561453D01*
X181329543Y-90530866D01*
X181399908Y-90520670D01*
X181491022Y-90533595D01*
X181562751Y-90564612D01*
X181609277Y-90441834D01*
X181548734Y-90417278D01*
X181766951Y-90417278D01*
X181766951Y-91205646D01*
X181925917Y-91205646D01*
X181925917Y-90910977D01*
X182008631Y-90910977D01*
X182052412Y-90984160D01*
X182093284Y-91056373D01*
X182130279Y-91129556D01*
X182162428Y-91205646D01*
X182329148Y-91205646D01*
X182292315Y-91120994D01*
X182247727Y-91031817D01*
X182199908Y-90946519D01*
X182153381Y-90872205D01*
X182209924Y-90835695D01*
X182247727Y-90785614D01*
X182269051Y-90725517D01*
X182276160Y-90658958D01*
X182270828Y-90596115D01*
X182254835Y-90541995D01*
X182218581Y-90493530D01*
X182398938Y-90493530D01*
X182477775Y-90604677D01*
X182559197Y-90543934D01*
X182638034Y-90525840D01*
X182712993Y-90552334D01*
X182742719Y-90627940D01*
X182718809Y-90696438D01*
X182658066Y-90766228D01*
X182619940Y-90803223D01*
X182579229Y-90841834D01*
X182538518Y-90882868D01*
X182500392Y-90927132D01*
X182466790Y-90975113D01*
X182439649Y-91027294D01*
X182421717Y-91084160D01*
X182415740Y-91146195D01*
X182415093Y-91173336D01*
X182418324Y-91205646D01*
X182940457Y-91205646D01*
X182940457Y-91073821D01*
X182596676Y-91073821D01*
X182610247Y-91031171D01*
X182643203Y-90985291D01*
X182674221Y-90952334D01*
X183135610Y-90952334D01*
X183489730Y-90952334D01*
X183489730Y-90795953D01*
X183135610Y-90795953D01*
X183135610Y-90952334D01*
X182674221Y-90952334D01*
X182684560Y-90941349D01*
X182723332Y-90904515D01*
X182789245Y-90839895D01*
X182847403Y-90770105D01*
X182888761Y-90695792D01*
X182904269Y-90616309D01*
X182883591Y-90516147D01*
X182866068Y-90493530D01*
X183691345Y-90493530D01*
X183770182Y-90604677D01*
X183851604Y-90543934D01*
X183930441Y-90525840D01*
X184005400Y-90552334D01*
X184035126Y-90627940D01*
X184011216Y-90696438D01*
X183950473Y-90766228D01*
X183912347Y-90803223D01*
X183871636Y-90841834D01*
X183830925Y-90882868D01*
X183792799Y-90927132D01*
X183759197Y-90975113D01*
X183732056Y-91027294D01*
X183714124Y-91084160D01*
X183708147Y-91146195D01*
X183707500Y-91173336D01*
X183710731Y-91205646D01*
X184232864Y-91205646D01*
X184232864Y-91073821D01*
X183889084Y-91073821D01*
X183902654Y-91031171D01*
X183935610Y-90985291D01*
X183976967Y-90941349D01*
X184015740Y-90904515D01*
X184019695Y-90900638D01*
X184316870Y-90900638D01*
X184316870Y-91016955D01*
X184650311Y-91016955D01*
X184650311Y-91205646D01*
X184809277Y-91205646D01*
X184809277Y-91181090D01*
X184973413Y-91181090D01*
X185010247Y-91195307D01*
X185063882Y-91208877D01*
X185125917Y-91218570D01*
X185189245Y-91222447D01*
X185263235Y-91217601D01*
X185327533Y-91203061D01*
X185382137Y-91179798D01*
X185427048Y-91148780D01*
X185486499Y-91066712D01*
X185505885Y-90963966D01*
X185497125Y-90889006D01*
X185470846Y-90826109D01*
X185451546Y-90803708D01*
X185619617Y-90803708D01*
X185624059Y-90902900D01*
X185637387Y-90988522D01*
X185659601Y-91060574D01*
X185690699Y-91119055D01*
X185745267Y-91176495D01*
X185814196Y-91210959D01*
X185897484Y-91222447D01*
X185980773Y-91210959D01*
X186049701Y-91176495D01*
X186104269Y-91119055D01*
X186135368Y-91060574D01*
X186157581Y-90988522D01*
X186170909Y-90902900D01*
X186175352Y-90803708D01*
X186170909Y-90705121D01*
X186157581Y-90620024D01*
X186135368Y-90548417D01*
X186104269Y-90490299D01*
X186049701Y-90433218D01*
X185980773Y-90398969D01*
X185897484Y-90387553D01*
X185815488Y-90399041D01*
X185746991Y-90433505D01*
X185691992Y-90490945D01*
X185660328Y-90549265D01*
X185637710Y-90620832D01*
X185624140Y-90705646D01*
X185619617Y-90803708D01*
X185451546Y-90803708D01*
X185427048Y-90775275D01*
X185365443Y-90736790D01*
X185285745Y-90710941D01*
X185187953Y-90697730D01*
X185194415Y-90624063D01*
X185200877Y-90537472D01*
X185476160Y-90537472D01*
X185476160Y-90405646D01*
X185067759Y-90405646D01*
X185062912Y-90504354D01*
X185056127Y-90606616D01*
X185047080Y-90711785D01*
X185035449Y-90819216D01*
X185124302Y-90821963D01*
X185194415Y-90830202D01*
X185288114Y-90861220D01*
X185332056Y-90909039D01*
X185343042Y-90970428D01*
X185336580Y-91013078D01*
X185312670Y-91049911D01*
X185264851Y-91076405D01*
X185187953Y-91086745D01*
X185127533Y-91083837D01*
X185078098Y-91075113D01*
X185005723Y-91049265D01*
X184973413Y-91181090D01*
X184809277Y-91181090D01*
X184809277Y-91016955D01*
X184895869Y-91016955D01*
X184895869Y-90886422D01*
X184809277Y-90886422D01*
X184809277Y-90405646D01*
X184667113Y-90405646D01*
X184615416Y-90460735D01*
X184563720Y-90522609D01*
X184513316Y-90588360D01*
X184465497Y-90655081D01*
X184420909Y-90721478D01*
X184380198Y-90786260D01*
X184344980Y-90846842D01*
X184316870Y-90900638D01*
X184019695Y-90900638D01*
X184081652Y-90839895D01*
X184139811Y-90770105D01*
X184181168Y-90695792D01*
X184196676Y-90616309D01*
X184175998Y-90516147D01*
X184120424Y-90444418D01*
X184040295Y-90401769D01*
X183945950Y-90387553D01*
X183878583Y-90394015D01*
X183810893Y-90413401D01*
X183747080Y-90446357D01*
X183691345Y-90493530D01*
X182866068Y-90493530D01*
X182828017Y-90444418D01*
X182747888Y-90401769D01*
X182653542Y-90387553D01*
X182586176Y-90394015D01*
X182518486Y-90413401D01*
X182454673Y-90446357D01*
X182398938Y-90493530D01*
X182218581Y-90493530D01*
X182193445Y-90459927D01*
X182149504Y-90431817D01*
X182097807Y-90412108D01*
X182039003Y-90400477D01*
X181973736Y-90396599D01*
X181928502Y-90397892D01*
X181874221Y-90401123D01*
X181818001Y-90407585D01*
X181766951Y-90417278D01*
X181548734Y-90417278D01*
X181516870Y-90404354D01*
X181457258Y-90391753D01*
X181388276Y-90387553D01*
X181309080Y-90394589D01*
X181242090Y-90415698D01*
X181187307Y-90450880D01*
X181132541Y-90526486D01*
X181114286Y-90626648D01*
X181134964Y-90721640D01*
X181187307Y-90785614D01*
X181257743Y-90828263D01*
X181332702Y-90857989D01*
X181386983Y-90880606D01*
X181436095Y-90907746D01*
X181472282Y-90941995D01*
X181486499Y-90985937D01*
X181480683Y-91024063D01*
X181459358Y-91057666D01*
X181417355Y-91080929D01*
X181350796Y-91089330D01*
X181286337Y-91084806D01*
X181232541Y-91071236D01*
X181149181Y-91032464D01*
X181102654Y-91161704D01*
X180807985Y-91161704D01*
X180807985Y-90537472D01*
X181018647Y-90537472D01*
X181018647Y-90405646D01*
X180437064Y-90405646D01*
X180437064Y-90537472D01*
X180090527Y-90537472D01*
X180167813Y-90279852D01*
X180437064Y-90279852D01*
X186175352Y-90279852D01*
X186444603Y-90279852D01*
X186759692Y-91330148D01*
G37*
D14*
%TO.C,U3*%
X145340000Y-101380000D02*
X165660000Y-101380000D01*
X145340000Y-116620000D02*
X145340000Y-101380000D01*
X165660000Y-101380000D02*
X165660000Y-116620000D01*
X165660000Y-116620000D02*
X145340000Y-116620000D01*
D15*
X146710000Y-117200000D02*
G75*
G02*
X146510000Y-117200000I-100000J0D01*
G01*
X146510000Y-117200000D02*
G75*
G02*
X146710000Y-117200000I100000J0D01*
G01*
D13*
%TO.C,J12*%
X187290000Y-102090000D02*
X187290000Y-104910000D01*
X187290000Y-102090000D02*
X188990000Y-100790000D01*
X187290000Y-104910000D02*
X188990000Y-106210000D01*
X188990000Y-100790000D02*
X197710000Y-100790000D01*
X188990000Y-106210000D02*
X197710000Y-106210000D01*
X197710000Y-100790000D02*
X197710000Y-106210000D01*
%TO.C,J1*%
X154794000Y-73438000D02*
X154794000Y-77438000D01*
X155084000Y-72408000D02*
X155084000Y-78428000D01*
X155084000Y-78428000D02*
X160384000Y-78428000D01*
X155664000Y-72408000D02*
X155664000Y-73008000D01*
X155664000Y-73008000D02*
X157264000Y-73008000D01*
X156464000Y-77428000D02*
X156714000Y-76898000D01*
X156464000Y-77428000D02*
X159004000Y-77428000D01*
X156464000Y-78428000D02*
X156464000Y-77428000D01*
X156714000Y-76898000D02*
X158754000Y-76898000D01*
X156714000Y-78428000D02*
X156714000Y-77428000D01*
X157264000Y-73008000D02*
X157264000Y-72408000D01*
X158204000Y-72408000D02*
X158204000Y-73008000D01*
X158204000Y-73008000D02*
X159804000Y-73008000D01*
X158754000Y-76898000D02*
X159004000Y-77428000D01*
X158754000Y-78428000D02*
X158754000Y-77428000D01*
X159004000Y-77428000D02*
X159004000Y-78428000D01*
X159804000Y-73008000D02*
X159804000Y-72408000D01*
X160384000Y-72408000D02*
X155084000Y-72408000D01*
X160384000Y-78428000D02*
X160384000Y-72408000D01*
%TO.C,D1*%
X161030000Y-54280000D02*
X161030000Y-59720000D01*
X161030000Y-59720000D02*
X163970000Y-59720000D01*
X162500000Y-53060000D02*
X162500000Y-54280000D01*
X162500000Y-60940000D02*
X162500000Y-59720000D01*
X163970000Y-54280000D02*
X161030000Y-54280000D01*
X163970000Y-55060000D02*
X161030000Y-55060000D01*
X163970000Y-55180000D02*
X161030000Y-55180000D01*
X163970000Y-55300000D02*
X161030000Y-55300000D01*
X163970000Y-59720000D02*
X163970000Y-54280000D01*
%TO.C,C1*%
X143259000Y-123913323D02*
X139582000Y-123913323D01*
X143259000Y-123953323D02*
X139593000Y-123953323D01*
X143259000Y-123993323D02*
X139603000Y-123993323D01*
X143259000Y-124033323D02*
X139615000Y-124033323D01*
X143259000Y-124073323D02*
X139626000Y-124073323D01*
X143259000Y-124113323D02*
X139638000Y-124113323D01*
X143259000Y-124153323D02*
X139650000Y-124153323D01*
X143259000Y-124193323D02*
X139663000Y-124193323D01*
X143259000Y-124233323D02*
X139676000Y-124233323D01*
X143259000Y-124273323D02*
X139689000Y-124273323D01*
X143259000Y-124313323D02*
X139703000Y-124313323D01*
X143259000Y-124353323D02*
X139717000Y-124353323D01*
X143259000Y-124393323D02*
X139732000Y-124393323D01*
X143259000Y-124433323D02*
X139746000Y-124433323D01*
X143259000Y-124473323D02*
X139762000Y-124473323D01*
X143259000Y-124513323D02*
X139777000Y-124513323D01*
X143259000Y-124553323D02*
X139793000Y-124553323D01*
X143259000Y-124593323D02*
X139810000Y-124593323D01*
X143259000Y-124633323D02*
X139826000Y-124633323D01*
X143259000Y-124673323D02*
X139843000Y-124673323D01*
X143259000Y-124713323D02*
X139861000Y-124713323D01*
X143259000Y-124753323D02*
X139879000Y-124753323D01*
X143259000Y-124793323D02*
X139897000Y-124793323D01*
X143259000Y-124833323D02*
X139916000Y-124833323D01*
X143259000Y-124873323D02*
X139936000Y-124873323D01*
X143259000Y-124913323D02*
X139955000Y-124913323D01*
X143259000Y-124953323D02*
X139975000Y-124953323D01*
X143259000Y-124993323D02*
X139996000Y-124993323D01*
X143259000Y-125033323D02*
X140017000Y-125033323D01*
X143259000Y-125073323D02*
X140038000Y-125073323D01*
X143259000Y-125113323D02*
X140060000Y-125113323D01*
X143259000Y-125153323D02*
X140083000Y-125153323D01*
X143259000Y-125193323D02*
X140105000Y-125193323D01*
X143259000Y-125233323D02*
X140129000Y-125233323D01*
X143259000Y-125273323D02*
X140153000Y-125273323D01*
X143259000Y-125313323D02*
X140177000Y-125313323D01*
X143259000Y-125353323D02*
X140202000Y-125353323D01*
X143259000Y-125393323D02*
X140227000Y-125393323D01*
X143259000Y-125433323D02*
X140253000Y-125433323D01*
X143259000Y-125473323D02*
X140279000Y-125473323D01*
X143259000Y-125513323D02*
X140306000Y-125513323D01*
X143259000Y-125553323D02*
X140334000Y-125553323D01*
X143259000Y-125593323D02*
X140362000Y-125593323D01*
X143259000Y-125633323D02*
X140390000Y-125633323D01*
X143259000Y-125673323D02*
X140420000Y-125673323D01*
X143259000Y-125713323D02*
X140450000Y-125713323D01*
X143259000Y-125753323D02*
X140480000Y-125753323D01*
X143259000Y-125793323D02*
X140511000Y-125793323D01*
X143259000Y-125833323D02*
X140543000Y-125833323D01*
X143259000Y-125873323D02*
X140575000Y-125873323D01*
X143259000Y-125913323D02*
X140608000Y-125913323D01*
X143259000Y-125953323D02*
X140642000Y-125953323D01*
X143259000Y-125993323D02*
X140676000Y-125993323D01*
X143259000Y-126033323D02*
X140711000Y-126033323D01*
X143259000Y-126073323D02*
X140747000Y-126073323D01*
X143259000Y-126113323D02*
X140784000Y-126113323D01*
X143259000Y-126153323D02*
X140821000Y-126153323D01*
X143259000Y-126193323D02*
X140860000Y-126193323D01*
X143259000Y-126233323D02*
X140899000Y-126233323D01*
X143259000Y-126273323D02*
X140939000Y-126273323D01*
X143259000Y-126313323D02*
X140980000Y-126313323D01*
X143259000Y-126353323D02*
X141022000Y-126353323D01*
X145099000Y-127713323D02*
X143901000Y-127713323D01*
X145362000Y-127673323D02*
X143638000Y-127673323D01*
X145562000Y-127633323D02*
X143438000Y-127633323D01*
X145730000Y-127593323D02*
X143270000Y-127593323D01*
X145878000Y-127553323D02*
X143122000Y-127553323D01*
X146010000Y-127513323D02*
X142990000Y-127513323D01*
X146130000Y-127473323D02*
X142870000Y-127473323D01*
X146242000Y-127433323D02*
X142758000Y-127433323D01*
X146346000Y-127393323D02*
X142654000Y-127393323D01*
X146444000Y-127353323D02*
X142556000Y-127353323D01*
X146537000Y-127313323D02*
X142463000Y-127313323D01*
X146625000Y-127273323D02*
X142375000Y-127273323D01*
X146709000Y-127233323D02*
X142291000Y-127233323D01*
X146789000Y-127193323D02*
X142211000Y-127193323D01*
X146865000Y-127153323D02*
X142135000Y-127153323D01*
X146939000Y-127113323D02*
X142061000Y-127113323D01*
X147010000Y-127073323D02*
X141990000Y-127073323D01*
X147079000Y-127033323D02*
X141921000Y-127033323D01*
X147145000Y-126993323D02*
X141855000Y-126993323D01*
X147209000Y-126953323D02*
X141791000Y-126953323D01*
X147270000Y-126913323D02*
X141730000Y-126913323D01*
X147330000Y-126873323D02*
X141670000Y-126873323D01*
X147375000Y-117152677D02*
X147375000Y-118152677D01*
X147389000Y-126833323D02*
X141611000Y-126833323D01*
X147445000Y-126793323D02*
X141555000Y-126793323D01*
X147500000Y-126753323D02*
X141500000Y-126753323D01*
X147554000Y-126713323D02*
X141446000Y-126713323D01*
X147606000Y-126673323D02*
X141394000Y-126673323D01*
X147656000Y-126633323D02*
X141344000Y-126633323D01*
X147706000Y-126593323D02*
X141294000Y-126593323D01*
X147754000Y-126553323D02*
X141246000Y-126553323D01*
X147801000Y-126513323D02*
X141199000Y-126513323D01*
X147847000Y-126473323D02*
X141153000Y-126473323D01*
X147875000Y-117652677D02*
X146875000Y-117652677D01*
X147892000Y-126433323D02*
X141108000Y-126433323D01*
X147936000Y-126393323D02*
X141064000Y-126393323D01*
X147978000Y-126353323D02*
X145741000Y-126353323D01*
X148020000Y-126313323D02*
X145741000Y-126313323D01*
X148061000Y-126273323D02*
X145741000Y-126273323D01*
X148101000Y-126233323D02*
X145741000Y-126233323D01*
X148140000Y-126193323D02*
X145741000Y-126193323D01*
X148179000Y-126153323D02*
X145741000Y-126153323D01*
X148216000Y-126113323D02*
X145741000Y-126113323D01*
X148253000Y-126073323D02*
X145741000Y-126073323D01*
X148289000Y-126033323D02*
X145741000Y-126033323D01*
X148324000Y-125993323D02*
X145741000Y-125993323D01*
X148358000Y-125953323D02*
X145741000Y-125953323D01*
X148392000Y-125913323D02*
X145741000Y-125913323D01*
X148425000Y-125873323D02*
X145741000Y-125873323D01*
X148457000Y-125833323D02*
X145741000Y-125833323D01*
X148489000Y-125793323D02*
X145741000Y-125793323D01*
X148520000Y-125753323D02*
X145741000Y-125753323D01*
X148550000Y-125713323D02*
X145741000Y-125713323D01*
X148580000Y-125673323D02*
X145741000Y-125673323D01*
X148610000Y-125633323D02*
X145741000Y-125633323D01*
X148638000Y-125593323D02*
X145741000Y-125593323D01*
X148666000Y-125553323D02*
X145741000Y-125553323D01*
X148694000Y-125513323D02*
X145741000Y-125513323D01*
X148721000Y-125473323D02*
X145741000Y-125473323D01*
X148747000Y-125433323D02*
X145741000Y-125433323D01*
X148773000Y-125393323D02*
X145741000Y-125393323D01*
X148798000Y-125353323D02*
X145741000Y-125353323D01*
X148823000Y-125313323D02*
X145741000Y-125313323D01*
X148847000Y-125273323D02*
X145741000Y-125273323D01*
X148871000Y-125233323D02*
X145741000Y-125233323D01*
X148895000Y-125193323D02*
X145741000Y-125193323D01*
X148917000Y-125153323D02*
X145741000Y-125153323D01*
X148940000Y-125113323D02*
X145741000Y-125113323D01*
X148962000Y-125073323D02*
X145741000Y-125073323D01*
X148983000Y-125033323D02*
X145741000Y-125033323D01*
X149004000Y-124993323D02*
X145741000Y-124993323D01*
X149025000Y-124953323D02*
X145741000Y-124953323D01*
X149045000Y-124913323D02*
X145741000Y-124913323D01*
X149064000Y-124873323D02*
X145741000Y-124873323D01*
X149084000Y-124833323D02*
X145741000Y-124833323D01*
X149103000Y-124793323D02*
X145741000Y-124793323D01*
X149121000Y-124753323D02*
X145741000Y-124753323D01*
X149139000Y-124713323D02*
X145741000Y-124713323D01*
X149157000Y-124673323D02*
X145741000Y-124673323D01*
X149174000Y-124633323D02*
X145741000Y-124633323D01*
X149190000Y-124593323D02*
X145741000Y-124593323D01*
X149207000Y-124553323D02*
X145741000Y-124553323D01*
X149223000Y-124513323D02*
X145741000Y-124513323D01*
X149238000Y-124473323D02*
X145741000Y-124473323D01*
X149254000Y-124433323D02*
X145741000Y-124433323D01*
X149268000Y-124393323D02*
X145741000Y-124393323D01*
X149283000Y-124353323D02*
X145741000Y-124353323D01*
X149297000Y-124313323D02*
X145741000Y-124313323D01*
X149311000Y-124273323D02*
X145741000Y-124273323D01*
X149324000Y-124233323D02*
X145741000Y-124233323D01*
X149337000Y-124193323D02*
X145741000Y-124193323D01*
X149350000Y-124153323D02*
X145741000Y-124153323D01*
X149362000Y-124113323D02*
X145741000Y-124113323D01*
X149374000Y-124073323D02*
X145741000Y-124073323D01*
X149385000Y-124033323D02*
X145741000Y-124033323D01*
X149397000Y-123993323D02*
X145741000Y-123993323D01*
X149407000Y-123953323D02*
X145741000Y-123953323D01*
X149418000Y-123913323D02*
X145741000Y-123913323D01*
X149428000Y-123873323D02*
X139572000Y-123873323D01*
X149438000Y-123833323D02*
X139562000Y-123833323D01*
X149447000Y-123793323D02*
X139553000Y-123793323D01*
X149456000Y-123753323D02*
X139544000Y-123753323D01*
X149465000Y-123713323D02*
X139535000Y-123713323D01*
X149474000Y-123673323D02*
X139526000Y-123673323D01*
X149482000Y-123633323D02*
X139518000Y-123633323D01*
X149490000Y-123593323D02*
X139510000Y-123593323D01*
X149497000Y-123553323D02*
X139503000Y-123553323D01*
X149504000Y-123513323D02*
X139496000Y-123513323D01*
X149511000Y-123473323D02*
X139489000Y-123473323D01*
X149518000Y-123433323D02*
X139482000Y-123433323D01*
X149524000Y-123393323D02*
X139476000Y-123393323D01*
X149530000Y-123353323D02*
X139470000Y-123353323D01*
X149535000Y-123312323D02*
X139465000Y-123312323D01*
X149540000Y-123272323D02*
X139460000Y-123272323D01*
X149545000Y-123232323D02*
X139455000Y-123232323D01*
X149550000Y-123192323D02*
X139450000Y-123192323D01*
X149554000Y-123152323D02*
X139446000Y-123152323D01*
X149558000Y-123112323D02*
X139442000Y-123112323D01*
X149562000Y-123072323D02*
X139438000Y-123072323D01*
X149565000Y-123032323D02*
X139435000Y-123032323D01*
X149568000Y-122992323D02*
X139432000Y-122992323D01*
X149570000Y-122952323D02*
X139430000Y-122952323D01*
X149573000Y-122912323D02*
X139427000Y-122912323D01*
X149575000Y-122872323D02*
X139425000Y-122872323D01*
X149577000Y-122832323D02*
X139423000Y-122832323D01*
X149578000Y-122792323D02*
X139422000Y-122792323D01*
X149579000Y-122752323D02*
X139421000Y-122752323D01*
X149580000Y-122632323D02*
X139420000Y-122632323D01*
X149580000Y-122672323D02*
X139420000Y-122672323D01*
X149580000Y-122712323D02*
X139420000Y-122712323D01*
X149620000Y-122632323D02*
G75*
G02*
X139380000Y-122632323I-5120000J0D01*
G01*
X139380000Y-122632323D02*
G75*
G02*
X149620000Y-122632323I5120000J0D01*
G01*
D12*
%TO.C,kibuzzard-67ED70B6*%
G36*
X179994184Y-49640199D02*
G01*
X179813247Y-49640199D01*
X179852019Y-49566532D01*
X179897900Y-49492218D01*
X179946365Y-49421782D01*
X179994184Y-49358454D01*
X179994184Y-49640199D01*
G37*
G36*
X178068336Y-49294964D02*
G01*
X178110501Y-49348761D01*
X178129528Y-49403832D01*
X178140944Y-49473406D01*
X178144750Y-49557485D01*
X178140944Y-49642281D01*
X178129528Y-49712286D01*
X178110501Y-49767501D01*
X178068336Y-49821297D01*
X178011632Y-49838830D01*
X178010339Y-49839229D01*
X177953150Y-49821297D01*
X177910824Y-49767501D01*
X177891438Y-49712286D01*
X177879806Y-49642281D01*
X177875929Y-49557485D01*
X177876525Y-49544561D01*
X177939257Y-49544561D01*
X177958643Y-49604658D01*
X178011632Y-49629859D01*
X178062682Y-49604658D01*
X178082714Y-49544561D01*
X178062682Y-49483817D01*
X178011632Y-49457969D01*
X177958643Y-49483817D01*
X177939257Y-49544561D01*
X177876525Y-49544561D01*
X177879806Y-49473406D01*
X177891438Y-49403832D01*
X177910824Y-49348761D01*
X177953150Y-49294964D01*
X178010339Y-49277032D01*
X178068336Y-49294964D01*
G37*
G36*
X181780722Y-50280371D02*
G01*
X181511470Y-50280371D01*
X180865267Y-50280371D01*
X180153150Y-50280371D01*
X179576737Y-50280371D01*
X178833603Y-50280371D01*
X178010339Y-50280371D01*
X177302100Y-50280371D01*
X177030695Y-50280371D01*
X176207431Y-50280371D01*
X175183845Y-50280371D01*
X174859451Y-50280371D01*
X174488530Y-50280371D01*
X174219278Y-50280371D01*
X174186968Y-50172670D01*
X176405170Y-50172670D01*
X177030695Y-50172670D01*
X177030695Y-50034383D01*
X176405170Y-50034383D01*
X176405170Y-50172670D01*
X174186968Y-50172670D01*
X173922542Y-49291249D01*
X174488530Y-49291249D01*
X174699192Y-49291249D01*
X174699192Y-49959423D01*
X174859451Y-49959423D01*
X175183845Y-49959423D01*
X175696931Y-49959423D01*
X175808078Y-49959423D01*
X175951535Y-49959423D01*
X175951535Y-49428244D01*
X175999569Y-49516917D01*
X176045450Y-49605447D01*
X176089176Y-49693834D01*
X176130749Y-49782220D01*
X176170167Y-49870750D01*
X176207431Y-49959423D01*
X176335380Y-49959423D01*
X176335380Y-49934868D01*
X177086268Y-49934868D01*
X177123102Y-49949084D01*
X177176737Y-49962654D01*
X177238772Y-49972347D01*
X177302100Y-49976225D01*
X177376090Y-49971378D01*
X177440388Y-49956838D01*
X177494992Y-49933575D01*
X177539903Y-49902557D01*
X177599354Y-49820489D01*
X177618740Y-49717743D01*
X177609980Y-49642784D01*
X177583701Y-49579886D01*
X177564401Y-49557485D01*
X177732472Y-49557485D01*
X177736914Y-49656677D01*
X177750242Y-49742299D01*
X177772456Y-49814351D01*
X177803554Y-49872832D01*
X177858122Y-49930272D01*
X177927051Y-49964736D01*
X178010339Y-49976225D01*
X178093628Y-49964736D01*
X178162556Y-49930272D01*
X178217124Y-49872832D01*
X178248223Y-49814351D01*
X178270436Y-49742299D01*
X178276069Y-49706111D01*
X178479483Y-49706111D01*
X178833603Y-49706111D01*
X178833603Y-49549730D01*
X178479483Y-49549730D01*
X178479483Y-49706111D01*
X178276069Y-49706111D01*
X178283764Y-49656677D01*
X178288207Y-49557485D01*
X178283764Y-49458898D01*
X178270436Y-49373801D01*
X178248223Y-49302194D01*
X178218853Y-49247307D01*
X179035218Y-49247307D01*
X179114055Y-49358454D01*
X179195477Y-49297711D01*
X179274313Y-49279617D01*
X179349273Y-49306111D01*
X179378998Y-49381717D01*
X179355089Y-49450215D01*
X179294346Y-49520005D01*
X179256220Y-49557000D01*
X179215509Y-49595611D01*
X179174798Y-49636645D01*
X179136672Y-49680910D01*
X179103069Y-49728890D01*
X179075929Y-49781071D01*
X179057997Y-49837937D01*
X179052019Y-49899973D01*
X179051373Y-49927113D01*
X179054604Y-49959423D01*
X179576737Y-49959423D01*
X179576737Y-49827598D01*
X179232956Y-49827598D01*
X179246527Y-49784948D01*
X179279483Y-49739068D01*
X179320840Y-49695126D01*
X179359612Y-49658292D01*
X179363567Y-49654415D01*
X179660743Y-49654415D01*
X179660743Y-49770732D01*
X179994184Y-49770732D01*
X179994184Y-49959423D01*
X180153150Y-49959423D01*
X180153150Y-49770732D01*
X180239742Y-49770732D01*
X180239742Y-49640199D01*
X180153150Y-49640199D01*
X180153150Y-49326144D01*
X180334087Y-49326144D01*
X180385784Y-49457969D01*
X180464620Y-49426305D01*
X180547334Y-49380425D01*
X180547334Y-49827598D01*
X180379321Y-49827598D01*
X180379321Y-49959423D01*
X180865267Y-49959423D01*
X180865267Y-49827598D01*
X180706300Y-49827598D01*
X180706300Y-49326144D01*
X180980291Y-49326144D01*
X181031987Y-49457969D01*
X181110824Y-49426305D01*
X181193538Y-49380425D01*
X181193538Y-49827598D01*
X181025525Y-49827598D01*
X181025525Y-49959423D01*
X181511470Y-49959423D01*
X181511470Y-49827598D01*
X181352504Y-49827598D01*
X181352504Y-49159423D01*
X181243942Y-49159423D01*
X181188368Y-49209827D01*
X181119871Y-49256354D01*
X181047496Y-49296418D01*
X180980291Y-49326144D01*
X180706300Y-49326144D01*
X180706300Y-49159423D01*
X180597738Y-49159423D01*
X180542165Y-49209827D01*
X180473667Y-49256354D01*
X180401292Y-49296418D01*
X180334087Y-49326144D01*
X180153150Y-49326144D01*
X180153150Y-49159423D01*
X180010985Y-49159423D01*
X179959289Y-49214512D01*
X179907593Y-49276386D01*
X179857189Y-49342137D01*
X179809370Y-49408858D01*
X179764782Y-49475255D01*
X179724071Y-49540037D01*
X179688853Y-49600619D01*
X179660743Y-49654415D01*
X179363567Y-49654415D01*
X179425525Y-49593672D01*
X179483683Y-49523882D01*
X179525040Y-49449569D01*
X179540549Y-49370086D01*
X179519871Y-49269924D01*
X179464297Y-49198195D01*
X179384168Y-49155546D01*
X179289822Y-49141330D01*
X179222456Y-49147792D01*
X179154766Y-49167178D01*
X179090953Y-49200134D01*
X179035218Y-49247307D01*
X178218853Y-49247307D01*
X178217124Y-49244076D01*
X178162556Y-49186995D01*
X178093628Y-49152746D01*
X178010339Y-49141330D01*
X177928343Y-49152818D01*
X177859846Y-49187282D01*
X177804847Y-49244722D01*
X177773183Y-49303042D01*
X177750565Y-49374609D01*
X177736995Y-49459423D01*
X177732472Y-49557485D01*
X177564401Y-49557485D01*
X177539903Y-49529052D01*
X177478298Y-49490567D01*
X177398600Y-49464719D01*
X177300808Y-49451507D01*
X177307270Y-49377840D01*
X177313732Y-49291249D01*
X177589015Y-49291249D01*
X177589015Y-49159423D01*
X177180614Y-49159423D01*
X177175767Y-49258131D01*
X177168982Y-49360393D01*
X177159935Y-49465562D01*
X177148304Y-49572994D01*
X177237157Y-49575740D01*
X177307270Y-49583979D01*
X177400969Y-49614997D01*
X177444911Y-49662816D01*
X177455897Y-49724205D01*
X177449435Y-49766855D01*
X177425525Y-49803688D01*
X177377706Y-49830183D01*
X177300808Y-49840522D01*
X177240388Y-49837614D01*
X177190953Y-49828890D01*
X177118578Y-49803042D01*
X177086268Y-49934868D01*
X176335380Y-49934868D01*
X176335380Y-49159423D01*
X176191922Y-49159423D01*
X176191922Y-49651830D01*
X176169144Y-49601426D01*
X176142165Y-49543268D01*
X176111793Y-49480263D01*
X176078837Y-49415320D01*
X176044103Y-49349246D01*
X176008401Y-49282848D01*
X175972213Y-49218712D01*
X175936026Y-49159423D01*
X175808078Y-49159423D01*
X175808078Y-49959423D01*
X175696931Y-49959423D01*
X175696931Y-49827598D01*
X175342811Y-49827598D01*
X175342811Y-49602719D01*
X175625848Y-49602719D01*
X175625848Y-49470893D01*
X175342811Y-49470893D01*
X175342811Y-49291249D01*
X175668498Y-49291249D01*
X175668498Y-49159423D01*
X175183845Y-49159423D01*
X175183845Y-49959423D01*
X174859451Y-49959423D01*
X174859451Y-49291249D01*
X175070113Y-49291249D01*
X175070113Y-49159423D01*
X174488530Y-49159423D01*
X174488530Y-49291249D01*
X173922542Y-49291249D01*
X173845256Y-49033629D01*
X174219278Y-49033629D01*
X174488530Y-49033629D01*
X181511470Y-49033629D01*
X181780722Y-49033629D01*
X182154744Y-49033629D01*
X181780722Y-50280371D01*
G37*
D14*
%TO.C,U1*%
X139610000Y-68009000D02*
X139610000Y-50864000D01*
X141515000Y-69914000D02*
X155485000Y-69914000D01*
X144005000Y-48959000D02*
X144008728Y-47948728D01*
X144508728Y-47449000D02*
X152504000Y-47449000D01*
X153004000Y-47949000D02*
X153004000Y-48959000D01*
D16*
X155485000Y-48959000D02*
X141515000Y-48959000D01*
D14*
X155485000Y-48959000D02*
X141515000Y-48959000D01*
X157390000Y-68009000D02*
X157390000Y-50864000D01*
X139610000Y-50864000D02*
G75*
G02*
X141515000Y-48959000I1905001J-1D01*
G01*
X141515000Y-69914000D02*
G75*
G02*
X139610000Y-68009000I1J1905001D01*
G01*
X144008728Y-47948728D02*
G75*
G02*
X144508728Y-47449001I500018J-291D01*
G01*
X152504000Y-47449000D02*
G75*
G02*
X153004000Y-47949000I0J-500000D01*
G01*
X155485000Y-48959000D02*
G75*
G02*
X157390000Y-50864000I0J-1905000D01*
G01*
X157390000Y-68009000D02*
G75*
G02*
X155485000Y-69914000I-1905000J0D01*
G01*
D17*
X139848000Y-49100000D02*
G75*
G02*
X139344000Y-49100000I-252000J0D01*
G01*
X139344000Y-49100000D02*
G75*
G02*
X139848000Y-49100000I252000J0D01*
G01*
X140991000Y-49980000D02*
G75*
G02*
X140487000Y-49980000I-252000J0D01*
G01*
X140487000Y-49980000D02*
G75*
G02*
X140991000Y-49980000I252000J0D01*
G01*
D13*
%TO.C,J13*%
X187290000Y-108590000D02*
X187290000Y-111410000D01*
X187290000Y-108590000D02*
X188990000Y-107290000D01*
X187290000Y-111410000D02*
X188990000Y-112710000D01*
X188990000Y-107290000D02*
X197710000Y-107290000D01*
X188990000Y-112710000D02*
X197710000Y-112710000D01*
X197710000Y-107290000D02*
X197710000Y-112710000D01*
%TO.C,J5*%
X151290000Y-120000000D02*
X151290000Y-124000000D01*
X151580000Y-118970000D02*
X151580000Y-124990000D01*
X151580000Y-124990000D02*
X161960000Y-124990000D01*
X152160000Y-118970000D02*
X152160000Y-119570000D01*
X152160000Y-119570000D02*
X153760000Y-119570000D01*
X152960000Y-123990000D02*
X153210000Y-123460000D01*
X152960000Y-123990000D02*
X160580000Y-123990000D01*
X152960000Y-124990000D02*
X152960000Y-123990000D01*
X153210000Y-123460000D02*
X160330000Y-123460000D01*
X153210000Y-124990000D02*
X153210000Y-123990000D01*
X153760000Y-119570000D02*
X153760000Y-118970000D01*
X154700000Y-118970000D02*
X154700000Y-119570000D01*
X154700000Y-119570000D02*
X156300000Y-119570000D01*
X156300000Y-119570000D02*
X156300000Y-118970000D01*
X157240000Y-118970000D02*
X157240000Y-119570000D01*
X157240000Y-119570000D02*
X158840000Y-119570000D01*
X158840000Y-119570000D02*
X158840000Y-118970000D01*
X159780000Y-118970000D02*
X159780000Y-119570000D01*
X159780000Y-119570000D02*
X161380000Y-119570000D01*
X160330000Y-123460000D02*
X160580000Y-123990000D01*
X160330000Y-124990000D02*
X160330000Y-123990000D01*
X160580000Y-123990000D02*
X160580000Y-124990000D01*
X161380000Y-119570000D02*
X161380000Y-118970000D01*
X161960000Y-118970000D02*
X151580000Y-118970000D01*
X161960000Y-124990000D02*
X161960000Y-118970000D01*
D12*
%TO.C,kibuzzard-67ED5DC2*%
G36*
X127374468Y-60319179D02*
G01*
X127410655Y-60348258D01*
X127431334Y-60388969D01*
X127437796Y-60436142D01*
X127194823Y-60436142D01*
X127205808Y-60388323D01*
X127229072Y-60346966D01*
X127266552Y-60318533D01*
X127320187Y-60308193D01*
X127374468Y-60319179D01*
G37*
G36*
X127992238Y-60321764D02*
G01*
X128033595Y-60339211D01*
X128033595Y-60670067D01*
X127998700Y-60673945D01*
X127962513Y-60675237D01*
X127904516Y-60662313D01*
X127864936Y-60623541D01*
X127842157Y-60564413D01*
X127834565Y-60490423D01*
X127841027Y-60415140D01*
X127860413Y-60359890D01*
X127894015Y-60325964D01*
X127943127Y-60314655D01*
X127992238Y-60321764D01*
G37*
G36*
X126087230Y-60140180D02*
G01*
X126125356Y-60199631D01*
X126143450Y-60288161D01*
X126146842Y-60340988D01*
X126147973Y-60397369D01*
X126146842Y-60453589D01*
X126143450Y-60505932D01*
X126125356Y-60594462D01*
X126086584Y-60654558D01*
X126021317Y-60676529D01*
X125955405Y-60654558D01*
X125917279Y-60595108D01*
X125899185Y-60506578D01*
X125895792Y-60453751D01*
X125894661Y-60397369D01*
X125895792Y-60341150D01*
X125899185Y-60288807D01*
X125917279Y-60200277D01*
X125955405Y-60140180D01*
X126021317Y-60118209D01*
X126087230Y-60140180D01*
G37*
G36*
X131435771Y-60922518D02*
G01*
X131097031Y-60922518D01*
X130827779Y-60922518D01*
X130604193Y-60922518D01*
X130172529Y-60922518D01*
X128999023Y-60922518D01*
X127961220Y-60922518D01*
X127364128Y-60922518D01*
X126769621Y-60922518D01*
X126022610Y-60922518D01*
X125733111Y-60922518D01*
X125463859Y-60922518D01*
X125125119Y-60922518D01*
X125282664Y-60397369D01*
X125733111Y-60397369D01*
X125737755Y-60494421D01*
X125751689Y-60578791D01*
X125774912Y-60650479D01*
X125807424Y-60709486D01*
X125864362Y-60768003D01*
X125936090Y-60803113D01*
X126022610Y-60814817D01*
X126107047Y-60803113D01*
X126177699Y-60768003D01*
X126234565Y-60709486D01*
X126267359Y-60650479D01*
X126290784Y-60578791D01*
X126304839Y-60494421D01*
X126309524Y-60397369D01*
X126304920Y-60300318D01*
X126291107Y-60215948D01*
X126268086Y-60144260D01*
X126235857Y-60085253D01*
X126192746Y-60040665D01*
X126390946Y-60040665D01*
X126558959Y-60040665D01*
X126558959Y-60556335D01*
X126571560Y-60666675D01*
X126609363Y-60746966D01*
X126674629Y-60795915D01*
X126769621Y-60812232D01*
X126841350Y-60807062D01*
X126894985Y-60794785D01*
X126930526Y-60781214D01*
X126947973Y-60772167D01*
X126927295Y-60644219D01*
X126884645Y-60661020D01*
X126804516Y-60673945D01*
X126742481Y-60651974D01*
X126717925Y-60567967D01*
X126717925Y-60499470D01*
X127030687Y-60499470D01*
X127036503Y-60572167D01*
X127053951Y-60635172D01*
X127082222Y-60688646D01*
X127120510Y-60732749D01*
X127168329Y-60767321D01*
X127225195Y-60792200D01*
X127290623Y-60807224D01*
X127364128Y-60812232D01*
X127468813Y-60802539D01*
X127556697Y-60778630D01*
X127534726Y-60642927D01*
X127461705Y-60663605D01*
X127370590Y-60673945D01*
X127300154Y-60665382D01*
X127243934Y-60639696D01*
X127207101Y-60599146D01*
X127194823Y-60545996D01*
X127589007Y-60545996D01*
X127590946Y-60518856D01*
X127591359Y-60498177D01*
X127673014Y-60498177D01*
X127681127Y-60588646D01*
X127705467Y-60665328D01*
X127746035Y-60728226D01*
X127802398Y-60774896D01*
X127874127Y-60802898D01*
X127961220Y-60812232D01*
X128022610Y-60809970D01*
X128085292Y-60803185D01*
X128143773Y-60792846D01*
X128192561Y-60779922D01*
X128192561Y-60129841D01*
X128999023Y-60129841D01*
X129173498Y-60129841D01*
X129173498Y-60666190D01*
X128999023Y-60666190D01*
X128999023Y-60798016D01*
X129506939Y-60798016D01*
X129506939Y-60666190D01*
X129333757Y-60666190D01*
X129333757Y-60129841D01*
X129506939Y-60129841D01*
X129506939Y-60085899D01*
X129631010Y-60085899D01*
X129709847Y-60197046D01*
X129791269Y-60136303D01*
X129870106Y-60118209D01*
X129945065Y-60144704D01*
X129974791Y-60220310D01*
X129950881Y-60288807D01*
X129890138Y-60358597D01*
X129852012Y-60395592D01*
X129811301Y-60434203D01*
X129770590Y-60475237D01*
X129732464Y-60519502D01*
X129698862Y-60567483D01*
X129671721Y-60619663D01*
X129653789Y-60676529D01*
X129647812Y-60738565D01*
X129647166Y-60765705D01*
X129650397Y-60798016D01*
X130172529Y-60798016D01*
X130172529Y-60666190D01*
X129828749Y-60666190D01*
X129842319Y-60623541D01*
X129875275Y-60577660D01*
X129916632Y-60533718D01*
X129955405Y-60496885D01*
X130021317Y-60432264D01*
X130050397Y-60397369D01*
X130256535Y-60397369D01*
X130262109Y-60491796D01*
X130278829Y-60574752D01*
X130306697Y-60646239D01*
X130345712Y-60706255D01*
X130414066Y-60766567D01*
X130500226Y-60802754D01*
X130604193Y-60814817D01*
X130674791Y-60810455D01*
X130736665Y-60797369D01*
X130827779Y-60759243D01*
X130787715Y-60633880D01*
X130722448Y-60662313D01*
X130619702Y-60676529D01*
X130527456Y-60658274D01*
X130465259Y-60603508D01*
X130439052Y-60547719D01*
X130423328Y-60477714D01*
X130418086Y-60393492D01*
X130422448Y-60321117D01*
X130435534Y-60261667D01*
X130480768Y-60177014D01*
X130544096Y-60131780D01*
X130617117Y-60118209D01*
X130713401Y-60131780D01*
X130785130Y-60164736D01*
X130826487Y-60038080D01*
X130799993Y-60022571D01*
X130756697Y-60003185D01*
X130696600Y-59987030D01*
X130619702Y-59979922D01*
X130543934Y-59986869D01*
X130474306Y-60007709D01*
X130412271Y-60041957D01*
X130359282Y-60089130D01*
X130316148Y-60148743D01*
X130283676Y-60220310D01*
X130263321Y-60303347D01*
X130256535Y-60397369D01*
X130050397Y-60397369D01*
X130079476Y-60362474D01*
X130120833Y-60288161D01*
X130136342Y-60208678D01*
X130115663Y-60108516D01*
X130060090Y-60036788D01*
X129979960Y-59994138D01*
X129885615Y-59979922D01*
X129818248Y-59986384D01*
X129750558Y-60005770D01*
X129686745Y-60038726D01*
X129631010Y-60085899D01*
X129506939Y-60085899D01*
X129506939Y-59998016D01*
X128999023Y-59998016D01*
X128999023Y-60129841D01*
X128192561Y-60129841D01*
X128192561Y-59901085D01*
X128033595Y-59928226D01*
X128033595Y-60204801D01*
X127979314Y-60184768D01*
X127915986Y-60177660D01*
X127842391Y-60187210D01*
X127781863Y-60215858D01*
X127734403Y-60263605D01*
X127700298Y-60327867D01*
X127679835Y-60406057D01*
X127673014Y-60498177D01*
X127591359Y-60498177D01*
X127591592Y-60486546D01*
X127583838Y-60392990D01*
X127560574Y-60315661D01*
X127521802Y-60254558D01*
X127468095Y-60210401D01*
X127400029Y-60183907D01*
X127317602Y-60175075D01*
X127263967Y-60180245D01*
X127211624Y-60195754D01*
X127162836Y-60221440D01*
X127119863Y-60257143D01*
X127083676Y-60302862D01*
X127055243Y-60358597D01*
X127036826Y-60424187D01*
X127030687Y-60499470D01*
X126717925Y-60499470D01*
X126717925Y-59908840D01*
X126390946Y-59908840D01*
X126390946Y-60040665D01*
X126192746Y-60040665D01*
X126179278Y-60026736D01*
X126107765Y-59991625D01*
X126021317Y-59979922D01*
X125937455Y-59991625D01*
X125866803Y-60026736D01*
X125809363Y-60085253D01*
X125776002Y-60144260D01*
X125752174Y-60215948D01*
X125737876Y-60300318D01*
X125733111Y-60397369D01*
X125282664Y-60397369D01*
X125463859Y-59793384D01*
X125733111Y-59793384D01*
X130827779Y-59793384D01*
X131097031Y-59793384D01*
X131435771Y-60922518D01*
G37*
%TO.C,kibuzzard-67ED6169*%
G36*
X124453522Y-76454766D02*
G01*
X124489709Y-76483845D01*
X124510388Y-76524556D01*
X124516850Y-76571729D01*
X124273877Y-76571729D01*
X124284863Y-76523910D01*
X124308126Y-76482553D01*
X124345606Y-76454120D01*
X124399241Y-76443780D01*
X124453522Y-76454766D01*
G37*
G36*
X126392132Y-76454766D02*
G01*
X126428320Y-76483845D01*
X126448998Y-76524556D01*
X126455460Y-76571729D01*
X126212488Y-76571729D01*
X126223473Y-76523910D01*
X126246737Y-76482553D01*
X126284216Y-76454120D01*
X126337851Y-76443780D01*
X126392132Y-76454766D01*
G37*
G36*
X128973231Y-76461389D02*
G01*
X129011195Y-76498708D01*
X129033005Y-76556381D01*
X129040275Y-76629887D01*
X129032359Y-76703554D01*
X129008611Y-76761712D01*
X128969354Y-76799515D01*
X128914911Y-76812116D01*
X128859176Y-76799515D01*
X128821212Y-76761712D01*
X128799402Y-76703554D01*
X128792132Y-76629887D01*
X128800048Y-76556381D01*
X128823796Y-76498708D01*
X128863053Y-76461389D01*
X128917496Y-76448950D01*
X128973231Y-76461389D01*
G37*
G36*
X133034373Y-77058104D02*
G01*
X132699510Y-77058104D01*
X132430258Y-77058104D01*
X132206672Y-77058104D01*
X131775008Y-77058104D01*
X130601502Y-77058104D01*
X129809257Y-77058104D01*
X128917496Y-77058104D01*
X128378562Y-77058104D01*
X127716850Y-77058104D01*
X127224443Y-77058104D01*
X126381793Y-77058104D01*
X125778239Y-77058104D01*
X125337528Y-77058104D01*
X124443183Y-77058104D01*
X124109742Y-77058104D01*
X123840490Y-77058104D01*
X123505627Y-77058104D01*
X123632541Y-76635057D01*
X124109742Y-76635057D01*
X124115557Y-76707754D01*
X124133005Y-76770759D01*
X124161276Y-76824233D01*
X124199564Y-76868336D01*
X124247383Y-76902908D01*
X124304249Y-76927787D01*
X124369677Y-76942811D01*
X124443183Y-76947819D01*
X124547868Y-76938126D01*
X124564493Y-76933603D01*
X124741729Y-76933603D01*
X124903279Y-76933603D01*
X124935267Y-76875767D01*
X124966607Y-76823748D01*
X124999564Y-76773990D01*
X125036397Y-76722940D01*
X125068384Y-76766882D01*
X125102310Y-76815994D01*
X125137205Y-76871244D01*
X125172100Y-76933603D01*
X125337528Y-76933603D01*
X125300048Y-76863813D01*
X125250937Y-76782391D01*
X125194071Y-76697738D01*
X125133328Y-76618255D01*
X125329774Y-76326171D01*
X125408611Y-76326171D01*
X125408611Y-76457997D01*
X125546898Y-76457997D01*
X125546898Y-76707431D01*
X125550775Y-76776414D01*
X125562407Y-76830856D01*
X125607641Y-76903877D01*
X125680016Y-76938772D01*
X125778239Y-76947819D01*
X125877108Y-76940065D01*
X125972100Y-76914216D01*
X125950129Y-76777221D01*
X125909418Y-76794023D01*
X125873231Y-76803716D01*
X125837044Y-76808239D01*
X125796333Y-76809532D01*
X125758853Y-76805654D01*
X125730420Y-76790145D01*
X125712326Y-76757835D01*
X125705864Y-76703554D01*
X125705864Y-76635057D01*
X126048352Y-76635057D01*
X126054168Y-76707754D01*
X126071616Y-76770759D01*
X126099887Y-76824233D01*
X126138174Y-76868336D01*
X126185994Y-76902908D01*
X126242859Y-76927787D01*
X126308288Y-76942811D01*
X126381793Y-76947819D01*
X126486478Y-76938126D01*
X126574362Y-76914216D01*
X126552391Y-76778514D01*
X126479370Y-76799192D01*
X126388255Y-76809532D01*
X126317819Y-76800969D01*
X126261599Y-76775283D01*
X126224766Y-76734733D01*
X126212488Y-76681583D01*
X126606672Y-76681583D01*
X126608611Y-76654443D01*
X126609257Y-76622132D01*
X126601502Y-76528577D01*
X126578239Y-76451248D01*
X126539467Y-76390145D01*
X126485760Y-76345988D01*
X126484653Y-76345557D01*
X126735913Y-76345557D01*
X126735913Y-76933603D01*
X126894879Y-76933603D01*
X126894879Y-76456704D01*
X126931712Y-76452827D01*
X126967254Y-76451535D01*
X127046090Y-76489015D01*
X127060630Y-76538449D01*
X127065477Y-76611793D01*
X127065477Y-76933603D01*
X127224443Y-76933603D01*
X127224443Y-76591115D01*
X127221535Y-76531826D01*
X127212811Y-76478029D01*
X127173393Y-76390145D01*
X127097787Y-76333279D01*
X127072259Y-76326171D01*
X127347221Y-76326171D01*
X127347221Y-76457997D01*
X127485509Y-76457997D01*
X127485509Y-76707431D01*
X127489386Y-76776414D01*
X127501018Y-76830856D01*
X127546252Y-76903877D01*
X127618627Y-76938772D01*
X127716850Y-76947819D01*
X127815719Y-76940065D01*
X127910711Y-76914216D01*
X127888740Y-76777221D01*
X127848029Y-76794023D01*
X127811842Y-76803716D01*
X127775654Y-76808239D01*
X127734943Y-76809532D01*
X127697464Y-76805654D01*
X127669031Y-76790145D01*
X127650937Y-76757835D01*
X127644475Y-76703554D01*
X127644475Y-76457997D01*
X127899079Y-76457997D01*
X127899079Y-76326171D01*
X127993425Y-76326171D01*
X127993425Y-76457997D01*
X128161438Y-76457997D01*
X128161438Y-76681583D01*
X128164023Y-76741357D01*
X128171777Y-76794023D01*
X128207318Y-76877383D01*
X128274523Y-76929725D01*
X128321535Y-76943296D01*
X128378562Y-76947819D01*
X128458045Y-76939418D01*
X128550452Y-76907754D01*
X128529774Y-76779806D01*
X128459984Y-76803716D01*
X128406995Y-76809532D01*
X128340436Y-76783037D01*
X128320404Y-76702262D01*
X128320404Y-76628595D01*
X128630582Y-76628595D01*
X128635751Y-76697577D01*
X128651260Y-76759774D01*
X128676300Y-76814540D01*
X128710065Y-76861228D01*
X128751745Y-76899031D01*
X128800533Y-76927141D01*
X128855945Y-76944588D01*
X128917496Y-76950404D01*
X128979047Y-76944588D01*
X129034459Y-76927141D01*
X129083086Y-76899031D01*
X129124281Y-76861228D01*
X129157561Y-76814540D01*
X129182439Y-76759774D01*
X129197948Y-76697577D01*
X129203118Y-76628595D01*
X129197948Y-76560582D01*
X129182439Y-76498708D01*
X129157399Y-76444103D01*
X129123635Y-76397900D01*
X129081955Y-76360743D01*
X129054978Y-76345557D01*
X129320727Y-76345557D01*
X129320727Y-76933603D01*
X129479693Y-76933603D01*
X129479693Y-76456704D01*
X129516527Y-76452827D01*
X129552068Y-76451535D01*
X129630905Y-76489015D01*
X129645444Y-76538449D01*
X129650291Y-76611793D01*
X129650291Y-76933603D01*
X129809257Y-76933603D01*
X129809257Y-76591115D01*
X129806349Y-76531826D01*
X129797625Y-76478029D01*
X129758207Y-76390145D01*
X129682601Y-76333279D01*
X129628643Y-76318255D01*
X129562407Y-76313247D01*
X129491486Y-76315832D01*
X129426058Y-76323586D01*
X129368384Y-76334249D01*
X129320727Y-76345557D01*
X129054978Y-76345557D01*
X129033166Y-76333279D01*
X128978078Y-76316317D01*
X128917496Y-76310662D01*
X128857722Y-76316317D01*
X128802472Y-76333279D01*
X128753199Y-76360743D01*
X128711357Y-76397900D01*
X128677431Y-76444103D01*
X128651906Y-76498708D01*
X128635913Y-76560582D01*
X128630582Y-76628595D01*
X128320404Y-76628595D01*
X128320404Y-76326171D01*
X128213134Y-76326171D01*
X127993425Y-76326171D01*
X127899079Y-76326171D01*
X127644475Y-76326171D01*
X127644475Y-76265428D01*
X130601502Y-76265428D01*
X130775977Y-76265428D01*
X130775977Y-76801777D01*
X130601502Y-76801777D01*
X130601502Y-76933603D01*
X131109418Y-76933603D01*
X131109418Y-76801777D01*
X130936236Y-76801777D01*
X130936236Y-76265428D01*
X131109418Y-76265428D01*
X131109418Y-76221486D01*
X131233489Y-76221486D01*
X131312326Y-76332633D01*
X131393748Y-76271890D01*
X131472585Y-76253796D01*
X131547544Y-76280291D01*
X131577270Y-76355897D01*
X131553360Y-76424394D01*
X131492617Y-76494184D01*
X131454491Y-76531179D01*
X131413780Y-76569790D01*
X131373069Y-76610824D01*
X131334943Y-76655089D01*
X131301341Y-76703069D01*
X131274200Y-76755250D01*
X131256268Y-76812116D01*
X131250291Y-76874152D01*
X131249645Y-76901292D01*
X131252876Y-76933603D01*
X131775008Y-76933603D01*
X131775008Y-76801777D01*
X131431228Y-76801777D01*
X131444798Y-76759128D01*
X131477754Y-76713247D01*
X131519111Y-76669305D01*
X131557884Y-76632472D01*
X131623796Y-76567851D01*
X131652876Y-76532956D01*
X131859015Y-76532956D01*
X131864588Y-76627383D01*
X131881309Y-76710339D01*
X131909176Y-76781826D01*
X131948191Y-76841842D01*
X132016545Y-76902154D01*
X132102705Y-76938341D01*
X132206672Y-76950404D01*
X132277270Y-76946042D01*
X132339144Y-76932956D01*
X132430258Y-76894830D01*
X132390194Y-76769467D01*
X132324927Y-76797900D01*
X132222181Y-76812116D01*
X132129935Y-76793861D01*
X132067738Y-76739095D01*
X132041531Y-76683306D01*
X132025807Y-76613301D01*
X132020565Y-76529079D01*
X132024927Y-76456704D01*
X132038013Y-76397254D01*
X132083247Y-76312601D01*
X132146575Y-76267367D01*
X132219596Y-76253796D01*
X132315880Y-76267367D01*
X132387609Y-76300323D01*
X132428966Y-76173667D01*
X132402472Y-76158158D01*
X132359176Y-76138772D01*
X132299079Y-76122617D01*
X132222181Y-76115509D01*
X132146414Y-76122456D01*
X132076785Y-76143296D01*
X132014750Y-76177544D01*
X131961761Y-76224717D01*
X131918627Y-76284330D01*
X131886155Y-76355897D01*
X131865800Y-76438934D01*
X131859015Y-76532956D01*
X131652876Y-76532956D01*
X131681955Y-76498061D01*
X131723312Y-76423748D01*
X131738821Y-76344265D01*
X131718142Y-76244103D01*
X131662569Y-76172375D01*
X131582439Y-76129725D01*
X131488094Y-76115509D01*
X131420727Y-76121971D01*
X131353037Y-76141357D01*
X131289225Y-76174313D01*
X131233489Y-76221486D01*
X131109418Y-76221486D01*
X131109418Y-76133603D01*
X130601502Y-76133603D01*
X130601502Y-76265428D01*
X127644475Y-76265428D01*
X127644475Y-76151696D01*
X128113619Y-76151696D01*
X128142698Y-76225363D01*
X128213134Y-76252504D01*
X128284216Y-76225363D01*
X128313942Y-76151696D01*
X128284216Y-76076737D01*
X128213134Y-76049596D01*
X128142698Y-76076737D01*
X128113619Y-76151696D01*
X127644475Y-76151696D01*
X127644475Y-76147819D01*
X127485509Y-76173667D01*
X127485509Y-76326171D01*
X127347221Y-76326171D01*
X127072259Y-76326171D01*
X127043829Y-76318255D01*
X126977593Y-76313247D01*
X126906672Y-76315832D01*
X126841244Y-76323586D01*
X126783570Y-76334249D01*
X126735913Y-76345557D01*
X126484653Y-76345557D01*
X126417693Y-76319494D01*
X126335267Y-76310662D01*
X126281632Y-76315832D01*
X126229289Y-76331341D01*
X126180501Y-76357027D01*
X126137528Y-76392730D01*
X126101341Y-76438449D01*
X126072908Y-76494184D01*
X126054491Y-76559774D01*
X126048352Y-76635057D01*
X125705864Y-76635057D01*
X125705864Y-76457997D01*
X125960468Y-76457997D01*
X125960468Y-76326171D01*
X125705864Y-76326171D01*
X125705864Y-76147819D01*
X125546898Y-76173667D01*
X125546898Y-76326171D01*
X125408611Y-76326171D01*
X125329774Y-76326171D01*
X125168223Y-76326171D01*
X125044152Y-76516155D01*
X124909742Y-76326171D01*
X124743021Y-76326171D01*
X124956268Y-76620840D01*
X124897464Y-76697092D01*
X124839305Y-76777868D01*
X124786317Y-76857997D01*
X124741729Y-76933603D01*
X124564493Y-76933603D01*
X124635751Y-76914216D01*
X124613780Y-76778514D01*
X124540759Y-76799192D01*
X124449645Y-76809532D01*
X124379208Y-76800969D01*
X124322989Y-76775283D01*
X124286155Y-76734733D01*
X124273877Y-76681583D01*
X124668061Y-76681583D01*
X124670000Y-76654443D01*
X124670646Y-76622132D01*
X124662892Y-76528577D01*
X124639628Y-76451248D01*
X124600856Y-76390145D01*
X124547150Y-76345988D01*
X124479083Y-76319494D01*
X124396656Y-76310662D01*
X124343021Y-76315832D01*
X124290679Y-76331341D01*
X124241890Y-76357027D01*
X124198918Y-76392730D01*
X124162730Y-76438449D01*
X124134297Y-76494184D01*
X124115880Y-76559774D01*
X124109742Y-76635057D01*
X123632541Y-76635057D01*
X123840490Y-75941896D01*
X124109742Y-75941896D01*
X132430258Y-75941896D01*
X132699510Y-75941896D01*
X133034373Y-77058104D01*
G37*
D13*
%TO.C,J15*%
X140098000Y-72448000D02*
X140098000Y-78468000D01*
X140098000Y-78468000D02*
X150478000Y-78468000D01*
X140678000Y-77868000D02*
X140678000Y-78468000D01*
X141478000Y-73448000D02*
X141478000Y-72448000D01*
X141728000Y-72448000D02*
X141728000Y-73448000D01*
X141728000Y-73978000D02*
X141478000Y-73448000D01*
X142278000Y-77868000D02*
X140678000Y-77868000D01*
X142278000Y-78468000D02*
X142278000Y-77868000D01*
X143218000Y-77868000D02*
X143218000Y-78468000D01*
X144818000Y-77868000D02*
X143218000Y-77868000D01*
X144818000Y-78468000D02*
X144818000Y-77868000D01*
X145758000Y-77868000D02*
X145758000Y-78468000D01*
X147358000Y-77868000D02*
X145758000Y-77868000D01*
X147358000Y-78468000D02*
X147358000Y-77868000D01*
X148298000Y-77868000D02*
X148298000Y-78468000D01*
X148848000Y-72448000D02*
X148848000Y-73448000D01*
X148848000Y-73978000D02*
X141728000Y-73978000D01*
X149098000Y-72448000D02*
X149098000Y-73448000D01*
X149098000Y-73448000D02*
X141478000Y-73448000D01*
X149098000Y-73448000D02*
X148848000Y-73978000D01*
X149898000Y-77868000D02*
X148298000Y-77868000D01*
X149898000Y-78468000D02*
X149898000Y-77868000D01*
X150478000Y-72448000D02*
X140098000Y-72448000D01*
X150478000Y-78468000D02*
X150478000Y-72448000D01*
X150768000Y-77438000D02*
X150768000Y-73438000D01*
%TO.C,J8*%
X174650000Y-119350000D02*
X174650000Y-127650000D01*
X174650000Y-127650000D02*
X187500000Y-127650000D01*
X187500000Y-119350000D02*
X174650000Y-119350000D01*
X187500000Y-127650000D02*
X190350000Y-125100000D01*
X190350000Y-121950000D02*
X187500000Y-119350000D01*
X190350000Y-125100000D02*
X190350000Y-121950000D01*
%TO.C,J9*%
X122790000Y-78000000D02*
X122790000Y-82000000D01*
X123080000Y-76970000D02*
X123080000Y-82990000D01*
X123080000Y-82990000D02*
X133460000Y-82990000D01*
X123660000Y-76970000D02*
X123660000Y-77570000D01*
X123660000Y-77570000D02*
X125260000Y-77570000D01*
X124460000Y-81990000D02*
X124710000Y-81460000D01*
X124460000Y-81990000D02*
X132080000Y-81990000D01*
X124460000Y-82990000D02*
X124460000Y-81990000D01*
X124710000Y-81460000D02*
X131830000Y-81460000D01*
X124710000Y-82990000D02*
X124710000Y-81990000D01*
X125260000Y-77570000D02*
X125260000Y-76970000D01*
X126200000Y-76970000D02*
X126200000Y-77570000D01*
X126200000Y-77570000D02*
X127800000Y-77570000D01*
X127800000Y-77570000D02*
X127800000Y-76970000D01*
X128740000Y-76970000D02*
X128740000Y-77570000D01*
X128740000Y-77570000D02*
X130340000Y-77570000D01*
X130340000Y-77570000D02*
X130340000Y-76970000D01*
X131280000Y-76970000D02*
X131280000Y-77570000D01*
X131280000Y-77570000D02*
X132880000Y-77570000D01*
X131830000Y-81460000D02*
X132080000Y-81990000D01*
X131830000Y-82990000D02*
X131830000Y-81990000D01*
X132080000Y-81990000D02*
X132080000Y-82990000D01*
X132880000Y-77570000D02*
X132880000Y-76970000D01*
X133460000Y-76970000D02*
X123080000Y-76970000D01*
X133460000Y-82990000D02*
X133460000Y-76970000D01*
D12*
%TO.C,kibuzzard-67ED71A8*%
G36*
X171634750Y-112400222D02*
G01*
X171453813Y-112400222D01*
X171492585Y-112326554D01*
X171538466Y-112252241D01*
X171586931Y-112181805D01*
X171634750Y-112118477D01*
X171634750Y-112400222D01*
G37*
G36*
X169015364Y-112056118D02*
G01*
X169060275Y-112078412D01*
X169089354Y-112116538D01*
X169099047Y-112171466D01*
X169062860Y-112261288D01*
X169015364Y-112285036D01*
X168945251Y-112292952D01*
X168910356Y-112292952D01*
X168910356Y-112052564D01*
X168936204Y-112049333D01*
X168958175Y-112048687D01*
X169015364Y-112056118D01*
G37*
G36*
X173726037Y-112843948D02*
G01*
X173410948Y-112843948D01*
X173141697Y-112843948D01*
X172834104Y-112843948D01*
X172187900Y-112843948D01*
X171793716Y-112843948D01*
X171217303Y-112843948D01*
X170474169Y-112843948D01*
X169921018Y-112843948D01*
X169313587Y-112843948D01*
X168335235Y-112843948D01*
X167792424Y-112843948D01*
X167421503Y-112843948D01*
X167152252Y-112843948D01*
X166837163Y-112843948D01*
X167074966Y-112051272D01*
X167421503Y-112051272D01*
X167632165Y-112051272D01*
X167632165Y-112719446D01*
X167792424Y-112719446D01*
X167792424Y-112675504D01*
X168087093Y-112675504D01*
X168176269Y-112714923D01*
X168245736Y-112730916D01*
X168335235Y-112736247D01*
X168425919Y-112729426D01*
X168499801Y-112708963D01*
X168556883Y-112674858D01*
X168611648Y-112600706D01*
X168629904Y-112501029D01*
X168624411Y-112440771D01*
X168607933Y-112391821D01*
X168551713Y-112319446D01*
X168476753Y-112272920D01*
X168398563Y-112241256D01*
X168348805Y-112221869D01*
X168303571Y-112197960D01*
X168270615Y-112166942D01*
X168257690Y-112126231D01*
X168271763Y-112075253D01*
X168313982Y-112044666D01*
X168384346Y-112034470D01*
X168475461Y-112047395D01*
X168547190Y-112078412D01*
X168593716Y-111955634D01*
X168533173Y-111931078D01*
X168751390Y-111931078D01*
X168751390Y-112719446D01*
X168910356Y-112719446D01*
X168910356Y-112424777D01*
X168993070Y-112424777D01*
X169036850Y-112497960D01*
X169077723Y-112570173D01*
X169114718Y-112643356D01*
X169146867Y-112719446D01*
X169313587Y-112719446D01*
X169276753Y-112634794D01*
X169232165Y-112545617D01*
X169184346Y-112460319D01*
X169137820Y-112386005D01*
X169194363Y-112349495D01*
X169232165Y-112299414D01*
X169253490Y-112239317D01*
X169260598Y-112172758D01*
X169255267Y-112109915D01*
X169248249Y-112086167D01*
X169389839Y-112086167D01*
X169441535Y-112217992D01*
X169520372Y-112186328D01*
X169603086Y-112140448D01*
X169603086Y-112587621D01*
X169435073Y-112587621D01*
X169435073Y-112719446D01*
X169921018Y-112719446D01*
X169921018Y-112587621D01*
X169762052Y-112587621D01*
X169762052Y-112466134D01*
X170120049Y-112466134D01*
X170474169Y-112466134D01*
X170474169Y-112309753D01*
X170120049Y-112309753D01*
X170120049Y-112466134D01*
X169762052Y-112466134D01*
X169762052Y-112007330D01*
X170675784Y-112007330D01*
X170754621Y-112118477D01*
X170836043Y-112057734D01*
X170914879Y-112039640D01*
X170989839Y-112066134D01*
X171019564Y-112141740D01*
X170995655Y-112210238D01*
X170934912Y-112280028D01*
X170896786Y-112317023D01*
X170856075Y-112355634D01*
X170815364Y-112396668D01*
X170777238Y-112440932D01*
X170743636Y-112488913D01*
X170716495Y-112541094D01*
X170698563Y-112597960D01*
X170692585Y-112659995D01*
X170691939Y-112687136D01*
X170695170Y-112719446D01*
X171217303Y-112719446D01*
X171217303Y-112587621D01*
X170873522Y-112587621D01*
X170887093Y-112544971D01*
X170920049Y-112499091D01*
X170961406Y-112455149D01*
X171000178Y-112418315D01*
X171004133Y-112414438D01*
X171301309Y-112414438D01*
X171301309Y-112530755D01*
X171634750Y-112530755D01*
X171634750Y-112719446D01*
X171793716Y-112719446D01*
X171793716Y-112692306D01*
X171965606Y-112692306D01*
X172005671Y-112706522D01*
X172061891Y-112720739D01*
X172125219Y-112731724D01*
X172187900Y-112736247D01*
X172262537Y-112731563D01*
X172326188Y-112717508D01*
X172379177Y-112694890D01*
X172382806Y-112692306D01*
X172611810Y-112692306D01*
X172651875Y-112706522D01*
X172708094Y-112720739D01*
X172771422Y-112731724D01*
X172834104Y-112736247D01*
X172908741Y-112731563D01*
X172972392Y-112717508D01*
X173025380Y-112694890D01*
X173068030Y-112664519D01*
X173123603Y-112583743D01*
X173141697Y-112481643D01*
X173133135Y-112416700D01*
X173107448Y-112361449D01*
X173066253Y-112317184D01*
X173011164Y-112285197D01*
X173083539Y-112217992D01*
X173110679Y-112126231D01*
X173095170Y-112037055D01*
X173047351Y-111965327D01*
X172965283Y-111918154D01*
X172911164Y-111905553D01*
X172848321Y-111901353D01*
X172779661Y-111907330D01*
X172718434Y-111925262D01*
X172626026Y-111972435D01*
X172682892Y-112088752D01*
X172759791Y-112051918D01*
X172849613Y-112037055D01*
X172922634Y-112062257D01*
X172949128Y-112131401D01*
X172936850Y-112180512D01*
X172905186Y-112211530D01*
X172861245Y-112228332D01*
X172812133Y-112233501D01*
X172752682Y-112233501D01*
X172752682Y-112365327D01*
X172801794Y-112365327D01*
X172872553Y-112371627D01*
X172929742Y-112390529D01*
X172967545Y-112425262D01*
X172980146Y-112479058D01*
X172947190Y-112565650D01*
X172902117Y-112591821D01*
X172832812Y-112600545D01*
X172771584Y-112596991D01*
X172719726Y-112586328D01*
X172642828Y-112559188D01*
X172611810Y-112692306D01*
X172382806Y-112692306D01*
X172421826Y-112664519D01*
X172477400Y-112583743D01*
X172495493Y-112481643D01*
X172486931Y-112416700D01*
X172461245Y-112361449D01*
X172420049Y-112317184D01*
X172364960Y-112285197D01*
X172437335Y-112217992D01*
X172464476Y-112126231D01*
X172448967Y-112037055D01*
X172401148Y-111965327D01*
X172319080Y-111918154D01*
X172264960Y-111905553D01*
X172202117Y-111901353D01*
X172133458Y-111907330D01*
X172072230Y-111925262D01*
X171979823Y-111972435D01*
X172036689Y-112088752D01*
X172113587Y-112051918D01*
X172203409Y-112037055D01*
X172276430Y-112062257D01*
X172302925Y-112131401D01*
X172290647Y-112180512D01*
X172258983Y-112211530D01*
X172215041Y-112228332D01*
X172165930Y-112233501D01*
X172106479Y-112233501D01*
X172106479Y-112365327D01*
X172155590Y-112365327D01*
X172226350Y-112371627D01*
X172283539Y-112390529D01*
X172321342Y-112425262D01*
X172333942Y-112479058D01*
X172300986Y-112565650D01*
X172255913Y-112591821D01*
X172186608Y-112600545D01*
X172125380Y-112596991D01*
X172073522Y-112586328D01*
X171996624Y-112559188D01*
X171965606Y-112692306D01*
X171793716Y-112692306D01*
X171793716Y-112530755D01*
X171880308Y-112530755D01*
X171880308Y-112400222D01*
X171793716Y-112400222D01*
X171793716Y-111919446D01*
X171651552Y-111919446D01*
X171599855Y-111974535D01*
X171548159Y-112036409D01*
X171497755Y-112102160D01*
X171449936Y-112168881D01*
X171405348Y-112235278D01*
X171364637Y-112300060D01*
X171329419Y-112360642D01*
X171301309Y-112414438D01*
X171004133Y-112414438D01*
X171066091Y-112353695D01*
X171124249Y-112283905D01*
X171165606Y-112209592D01*
X171181115Y-112130109D01*
X171160437Y-112029947D01*
X171104863Y-111958218D01*
X171024734Y-111915569D01*
X170930388Y-111901353D01*
X170863022Y-111907815D01*
X170795332Y-111927201D01*
X170731519Y-111960157D01*
X170675784Y-112007330D01*
X169762052Y-112007330D01*
X169762052Y-111919446D01*
X169653490Y-111919446D01*
X169597917Y-111969850D01*
X169529419Y-112016377D01*
X169457044Y-112056441D01*
X169389839Y-112086167D01*
X169248249Y-112086167D01*
X169239274Y-112055795D01*
X169177884Y-111973727D01*
X169133942Y-111945617D01*
X169082246Y-111925908D01*
X169023442Y-111914277D01*
X168958175Y-111910399D01*
X168912941Y-111911692D01*
X168858660Y-111914923D01*
X168802440Y-111921385D01*
X168751390Y-111931078D01*
X168533173Y-111931078D01*
X168501309Y-111918154D01*
X168441697Y-111905553D01*
X168372715Y-111901353D01*
X168293519Y-111908389D01*
X168226529Y-111929498D01*
X168171745Y-111964680D01*
X168116980Y-112040286D01*
X168098724Y-112140448D01*
X168119403Y-112235440D01*
X168171745Y-112299414D01*
X168242182Y-112342063D01*
X168317141Y-112371789D01*
X168371422Y-112394406D01*
X168420534Y-112421546D01*
X168456721Y-112455795D01*
X168470938Y-112499737D01*
X168465122Y-112537863D01*
X168443797Y-112571466D01*
X168401794Y-112594729D01*
X168335235Y-112603130D01*
X168270776Y-112598606D01*
X168216980Y-112585036D01*
X168133619Y-112546264D01*
X168087093Y-112675504D01*
X167792424Y-112675504D01*
X167792424Y-112051272D01*
X168003086Y-112051272D01*
X168003086Y-111919446D01*
X167421503Y-111919446D01*
X167421503Y-112051272D01*
X167074966Y-112051272D01*
X167152252Y-111793652D01*
X167421503Y-111793652D01*
X173141697Y-111793652D01*
X173410948Y-111793652D01*
X173726037Y-112843948D01*
G37*
%TO.C,kibuzzard-67ED71DE*%
G36*
X181781603Y-102037022D02*
G01*
X181600666Y-102037022D01*
X181639439Y-101963354D01*
X181685319Y-101889041D01*
X181733784Y-101818605D01*
X181781603Y-101755277D01*
X181781603Y-102037022D01*
G37*
G36*
X179162217Y-101692918D02*
G01*
X179207128Y-101715212D01*
X179236208Y-101753338D01*
X179245901Y-101808266D01*
X179209713Y-101898088D01*
X179162217Y-101921836D01*
X179092104Y-101929752D01*
X179057209Y-101929752D01*
X179057209Y-101689364D01*
X179083057Y-101686133D01*
X179105028Y-101685487D01*
X179162217Y-101692918D01*
G37*
G36*
X183086773Y-101691787D02*
G01*
X183128938Y-101745584D01*
X183147965Y-101800655D01*
X183159381Y-101870229D01*
X183163187Y-101954308D01*
X183159381Y-102039104D01*
X183147965Y-102109109D01*
X183128938Y-102164324D01*
X183086773Y-102218120D01*
X183030069Y-102235653D01*
X183028776Y-102236052D01*
X182971587Y-102218120D01*
X182929261Y-102164324D01*
X182909875Y-102109109D01*
X182898243Y-102039104D01*
X182894366Y-101954308D01*
X182894962Y-101941384D01*
X182957694Y-101941384D01*
X182977080Y-102001480D01*
X183030069Y-102026682D01*
X183081119Y-102001480D01*
X183101151Y-101941384D01*
X183081119Y-101880640D01*
X183030069Y-101854792D01*
X182977080Y-101880640D01*
X182957694Y-101941384D01*
X182894962Y-101941384D01*
X182898243Y-101870229D01*
X182909875Y-101800655D01*
X182929261Y-101745584D01*
X182971587Y-101691787D01*
X183028776Y-101673855D01*
X183086773Y-101691787D01*
G37*
G36*
X183575895Y-102480748D02*
G01*
X183306644Y-102480748D01*
X183028776Y-102480748D01*
X182320537Y-102480748D01*
X181940569Y-102480748D01*
X181364156Y-102480748D01*
X180621022Y-102480748D01*
X180067872Y-102480748D01*
X179460440Y-102480748D01*
X178482088Y-102480748D01*
X177939277Y-102480748D01*
X177568356Y-102480748D01*
X177299105Y-102480748D01*
X177061302Y-101688072D01*
X177568356Y-101688072D01*
X177779019Y-101688072D01*
X177779019Y-102356246D01*
X177939277Y-102356246D01*
X177939277Y-102312304D01*
X178233946Y-102312304D01*
X178323122Y-102351723D01*
X178392589Y-102367716D01*
X178482088Y-102373047D01*
X178572772Y-102366226D01*
X178646655Y-102345763D01*
X178703736Y-102311658D01*
X178758502Y-102237506D01*
X178776757Y-102137829D01*
X178771264Y-102077571D01*
X178754786Y-102028621D01*
X178698566Y-101956246D01*
X178623607Y-101909720D01*
X178545416Y-101878056D01*
X178495658Y-101858669D01*
X178450424Y-101834760D01*
X178417468Y-101803742D01*
X178404544Y-101763031D01*
X178418616Y-101712053D01*
X178460835Y-101681466D01*
X178531200Y-101671270D01*
X178622314Y-101684195D01*
X178694043Y-101715212D01*
X178740569Y-101592434D01*
X178680026Y-101567878D01*
X178898243Y-101567878D01*
X178898243Y-102356246D01*
X179057209Y-102356246D01*
X179057209Y-102061577D01*
X179139923Y-102061577D01*
X179183704Y-102134760D01*
X179224576Y-102206973D01*
X179261571Y-102280156D01*
X179293720Y-102356246D01*
X179460440Y-102356246D01*
X179423607Y-102271594D01*
X179379019Y-102182417D01*
X179331200Y-102097119D01*
X179284673Y-102022805D01*
X179341216Y-101986295D01*
X179379019Y-101936214D01*
X179400343Y-101876117D01*
X179407452Y-101809558D01*
X179402120Y-101746715D01*
X179395102Y-101722967D01*
X179536692Y-101722967D01*
X179588389Y-101854792D01*
X179667225Y-101823128D01*
X179749939Y-101777248D01*
X179749939Y-102224421D01*
X179581926Y-102224421D01*
X179581926Y-102356246D01*
X180067872Y-102356246D01*
X180067872Y-102224421D01*
X179908905Y-102224421D01*
X179908905Y-102102934D01*
X180266902Y-102102934D01*
X180621022Y-102102934D01*
X180621022Y-101946553D01*
X180266902Y-101946553D01*
X180266902Y-102102934D01*
X179908905Y-102102934D01*
X179908905Y-101644130D01*
X180822637Y-101644130D01*
X180901474Y-101755277D01*
X180982896Y-101694534D01*
X181061733Y-101676440D01*
X181136692Y-101702934D01*
X181166418Y-101778540D01*
X181142508Y-101847038D01*
X181081765Y-101916828D01*
X181043639Y-101953823D01*
X181002928Y-101992434D01*
X180962217Y-102033468D01*
X180924091Y-102077732D01*
X180890489Y-102125713D01*
X180863348Y-102177894D01*
X180845416Y-102234760D01*
X180839439Y-102296795D01*
X180838792Y-102323936D01*
X180842023Y-102356246D01*
X181364156Y-102356246D01*
X181364156Y-102224421D01*
X181020376Y-102224421D01*
X181033946Y-102181771D01*
X181066902Y-102135891D01*
X181108259Y-102091949D01*
X181147032Y-102055115D01*
X181150987Y-102051238D01*
X181448162Y-102051238D01*
X181448162Y-102167555D01*
X181781603Y-102167555D01*
X181781603Y-102356246D01*
X181940569Y-102356246D01*
X181940569Y-102331690D01*
X182104705Y-102331690D01*
X182141539Y-102345907D01*
X182195174Y-102359477D01*
X182257209Y-102369170D01*
X182320537Y-102373047D01*
X182394527Y-102368201D01*
X182458825Y-102353661D01*
X182513429Y-102330398D01*
X182558340Y-102299380D01*
X182617791Y-102217312D01*
X182637177Y-102114566D01*
X182628417Y-102039606D01*
X182602138Y-101976709D01*
X182582838Y-101954308D01*
X182750909Y-101954308D01*
X182755351Y-102053500D01*
X182768679Y-102139122D01*
X182790893Y-102211174D01*
X182821991Y-102269655D01*
X182876559Y-102327095D01*
X182945488Y-102361559D01*
X183028776Y-102373047D01*
X183112065Y-102361559D01*
X183180993Y-102327095D01*
X183235561Y-102269655D01*
X183266660Y-102211174D01*
X183288873Y-102139122D01*
X183302201Y-102053500D01*
X183306644Y-101954308D01*
X183302201Y-101855721D01*
X183288873Y-101770624D01*
X183266660Y-101699017D01*
X183235561Y-101640899D01*
X183180993Y-101583818D01*
X183112065Y-101549569D01*
X183028776Y-101538153D01*
X182946780Y-101549641D01*
X182878283Y-101584105D01*
X182823284Y-101641545D01*
X182791620Y-101699865D01*
X182769002Y-101771432D01*
X182755432Y-101856246D01*
X182750909Y-101954308D01*
X182582838Y-101954308D01*
X182558340Y-101925875D01*
X182496735Y-101887390D01*
X182417037Y-101861541D01*
X182319245Y-101848330D01*
X182325707Y-101774663D01*
X182332169Y-101688072D01*
X182607452Y-101688072D01*
X182607452Y-101556246D01*
X182199051Y-101556246D01*
X182194204Y-101654954D01*
X182187419Y-101757216D01*
X182178372Y-101862385D01*
X182166741Y-101969816D01*
X182255594Y-101972563D01*
X182325707Y-101980802D01*
X182419406Y-102011820D01*
X182463348Y-102059639D01*
X182474334Y-102121028D01*
X182467872Y-102163678D01*
X182443962Y-102200511D01*
X182396143Y-102227005D01*
X182319245Y-102237345D01*
X182258825Y-102234437D01*
X182209390Y-102225713D01*
X182137015Y-102199865D01*
X182104705Y-102331690D01*
X181940569Y-102331690D01*
X181940569Y-102167555D01*
X182027161Y-102167555D01*
X182027161Y-102037022D01*
X181940569Y-102037022D01*
X181940569Y-101556246D01*
X181798405Y-101556246D01*
X181746708Y-101611335D01*
X181695012Y-101673209D01*
X181644608Y-101738960D01*
X181596789Y-101805681D01*
X181552201Y-101872078D01*
X181511490Y-101936860D01*
X181476272Y-101997442D01*
X181448162Y-102051238D01*
X181150987Y-102051238D01*
X181212944Y-101990495D01*
X181271103Y-101920705D01*
X181312460Y-101846392D01*
X181327968Y-101766909D01*
X181307290Y-101666747D01*
X181251716Y-101595018D01*
X181171587Y-101552369D01*
X181077242Y-101538153D01*
X181009875Y-101544615D01*
X180942185Y-101564001D01*
X180878372Y-101596957D01*
X180822637Y-101644130D01*
X179908905Y-101644130D01*
X179908905Y-101556246D01*
X179800343Y-101556246D01*
X179744770Y-101606650D01*
X179676272Y-101653177D01*
X179603897Y-101693241D01*
X179536692Y-101722967D01*
X179395102Y-101722967D01*
X179386127Y-101692595D01*
X179324737Y-101610527D01*
X179280796Y-101582417D01*
X179229099Y-101562708D01*
X179170295Y-101551077D01*
X179105028Y-101547199D01*
X179059794Y-101548492D01*
X179005513Y-101551723D01*
X178949293Y-101558185D01*
X178898243Y-101567878D01*
X178680026Y-101567878D01*
X178648162Y-101554954D01*
X178588550Y-101542353D01*
X178519568Y-101538153D01*
X178440372Y-101545189D01*
X178373382Y-101566298D01*
X178318599Y-101601480D01*
X178263833Y-101677086D01*
X178245578Y-101777248D01*
X178266256Y-101872240D01*
X178318599Y-101936214D01*
X178389035Y-101978863D01*
X178463994Y-102008589D01*
X178518275Y-102031206D01*
X178567387Y-102058346D01*
X178603574Y-102092595D01*
X178617791Y-102136537D01*
X178611975Y-102174663D01*
X178590650Y-102208266D01*
X178548647Y-102231529D01*
X178482088Y-102239930D01*
X178417629Y-102235406D01*
X178363833Y-102221836D01*
X178280473Y-102183064D01*
X178233946Y-102312304D01*
X177939277Y-102312304D01*
X177939277Y-101688072D01*
X178149939Y-101688072D01*
X178149939Y-101556246D01*
X177568356Y-101556246D01*
X177568356Y-101688072D01*
X177061302Y-101688072D01*
X176984016Y-101430452D01*
X177299105Y-101430452D01*
X177568356Y-101430452D01*
X183306644Y-101430452D01*
X183575895Y-101430452D01*
X183890984Y-101430452D01*
X183575895Y-102480748D01*
G37*
%TO.C,kibuzzard-67ED6224*%
G36*
X160985398Y-75316546D02*
G01*
X161026755Y-75339809D01*
X161055188Y-75377289D01*
X161065527Y-75430924D01*
X161054542Y-75485205D01*
X161025463Y-75521393D01*
X160984752Y-75542071D01*
X160937579Y-75548533D01*
X160937579Y-75305561D01*
X160985398Y-75316546D01*
G37*
G36*
X160985398Y-77255157D02*
G01*
X161026755Y-77278420D01*
X161055188Y-77315900D01*
X161065527Y-77369535D01*
X161054542Y-77423816D01*
X161025463Y-77460003D01*
X160984752Y-77480682D01*
X160937579Y-77487144D01*
X160937579Y-77244171D01*
X160985398Y-77255157D01*
G37*
G36*
X161567412Y-72925808D02*
G01*
X161567412Y-73195060D01*
X161567412Y-77640940D01*
X161567412Y-77910192D01*
X160453788Y-78244279D01*
X160453788Y-77910192D01*
X160453788Y-77640940D01*
X160453788Y-77413477D01*
X160561489Y-77413477D01*
X160571182Y-77518162D01*
X160595091Y-77606045D01*
X160730794Y-77584074D01*
X160710115Y-77511053D01*
X160699776Y-77419939D01*
X160708338Y-77349502D01*
X160734025Y-77293283D01*
X160774574Y-77256449D01*
X160827724Y-77244171D01*
X160827724Y-77638355D01*
X160854865Y-77640294D01*
X160887175Y-77640940D01*
X160980731Y-77633186D01*
X161058060Y-77609922D01*
X161119162Y-77571150D01*
X161163319Y-77517444D01*
X161189814Y-77449377D01*
X161198645Y-77366950D01*
X161193476Y-77313315D01*
X161177967Y-77260973D01*
X161152280Y-77212184D01*
X161116577Y-77169212D01*
X161070858Y-77133024D01*
X161015123Y-77104591D01*
X160949534Y-77086174D01*
X160874251Y-77080036D01*
X160801553Y-77085851D01*
X160738548Y-77103299D01*
X160685075Y-77131570D01*
X160640972Y-77169858D01*
X160606400Y-77217677D01*
X160581521Y-77274543D01*
X160566497Y-77339971D01*
X160561489Y-77413477D01*
X160453788Y-77413477D01*
X160453788Y-76809922D01*
X160561489Y-76809922D01*
X160569243Y-76908792D01*
X160595091Y-77003784D01*
X160732086Y-76981813D01*
X160715285Y-76941102D01*
X160705592Y-76904914D01*
X160701068Y-76868727D01*
X160699776Y-76828016D01*
X160703653Y-76790536D01*
X160719162Y-76762103D01*
X160751472Y-76744010D01*
X160805753Y-76737548D01*
X161051311Y-76737548D01*
X161051311Y-76992152D01*
X161183136Y-76992152D01*
X161183136Y-76737548D01*
X161361489Y-76737548D01*
X161335640Y-76578582D01*
X161183136Y-76578582D01*
X161183136Y-76440294D01*
X161051311Y-76440294D01*
X161051311Y-76578582D01*
X160801876Y-76578582D01*
X160732894Y-76582459D01*
X160678451Y-76594090D01*
X160605430Y-76639325D01*
X160570535Y-76711700D01*
X160561489Y-76809922D01*
X160453788Y-76809922D01*
X160453788Y-76163719D01*
X160561489Y-76163719D01*
X160569243Y-76262588D01*
X160595091Y-76357580D01*
X160732086Y-76335609D01*
X160715285Y-76294898D01*
X160705592Y-76258711D01*
X160701068Y-76222523D01*
X160699776Y-76181813D01*
X160703653Y-76144333D01*
X160719162Y-76115900D01*
X160751472Y-76097806D01*
X160805753Y-76091344D01*
X161051311Y-76091344D01*
X161051311Y-76345948D01*
X161183136Y-76345948D01*
X161183136Y-76091344D01*
X161361489Y-76091344D01*
X161335640Y-75932378D01*
X161183136Y-75932378D01*
X161183136Y-75794090D01*
X161051311Y-75794090D01*
X161051311Y-75932378D01*
X160801876Y-75932378D01*
X160732894Y-75936255D01*
X160678451Y-75947887D01*
X160605430Y-75993121D01*
X160570535Y-76065496D01*
X160561489Y-76163719D01*
X160453788Y-76163719D01*
X160453788Y-75474866D01*
X160561489Y-75474866D01*
X160571182Y-75579551D01*
X160595091Y-75667435D01*
X160730794Y-75645464D01*
X160710115Y-75572443D01*
X160699776Y-75481328D01*
X160708338Y-75410892D01*
X160734025Y-75354672D01*
X160774574Y-75317838D01*
X160827724Y-75305561D01*
X160827724Y-75699745D01*
X160854865Y-75701683D01*
X160887175Y-75702330D01*
X160980731Y-75694575D01*
X161058060Y-75671312D01*
X161119162Y-75632540D01*
X161163319Y-75578833D01*
X161189814Y-75510766D01*
X161198645Y-75428339D01*
X161193476Y-75374704D01*
X161177967Y-75322362D01*
X161152280Y-75273574D01*
X161116577Y-75230601D01*
X161070858Y-75194414D01*
X161015123Y-75165981D01*
X160949534Y-75147564D01*
X160874251Y-75141425D01*
X160801553Y-75147241D01*
X160738548Y-75164688D01*
X160685075Y-75192960D01*
X160640972Y-75231247D01*
X160606400Y-75279066D01*
X160581521Y-75335932D01*
X160566497Y-75401360D01*
X160561489Y-75474866D01*
X160453788Y-75474866D01*
X160453788Y-74730439D01*
X160453788Y-74570181D01*
X160575705Y-74570181D01*
X160575705Y-74730439D01*
X161026755Y-74730439D01*
X161039033Y-74796352D01*
X161042264Y-74862265D01*
X161040972Y-74897160D01*
X161036448Y-74939809D01*
X161029340Y-74983105D01*
X161021585Y-75019939D01*
X161168920Y-75048372D01*
X161181198Y-74998614D01*
X161188952Y-74943687D01*
X161193476Y-74892637D01*
X161194768Y-74855803D01*
X161191214Y-74772281D01*
X161180552Y-74700068D01*
X161164073Y-74634317D01*
X161143072Y-74570181D01*
X160575705Y-74570181D01*
X160453788Y-74570181D01*
X160453788Y-74240617D01*
X160561489Y-74240617D01*
X160569889Y-74320100D01*
X160601553Y-74412507D01*
X160729501Y-74391829D01*
X160705592Y-74322039D01*
X160699776Y-74269050D01*
X160726270Y-74202491D01*
X160807046Y-74182459D01*
X161183136Y-74182459D01*
X161183136Y-74075189D01*
X161256804Y-74075189D01*
X161283944Y-74146271D01*
X161357611Y-74175997D01*
X161432571Y-74146271D01*
X161459711Y-74075189D01*
X161432571Y-74004753D01*
X161357611Y-73975674D01*
X161283944Y-74004753D01*
X161256804Y-74075189D01*
X161183136Y-74075189D01*
X161183136Y-73855480D01*
X161051311Y-73855480D01*
X161051311Y-74023493D01*
X160827724Y-74023493D01*
X160767951Y-74026078D01*
X160715285Y-74033832D01*
X160631925Y-74069373D01*
X160579582Y-74136578D01*
X160566012Y-74183590D01*
X160561489Y-74240617D01*
X160453788Y-74240617D01*
X160453788Y-73565981D01*
X160453788Y-73405722D01*
X160575705Y-73405722D01*
X160575705Y-73565981D01*
X161243879Y-73565981D01*
X161243879Y-73776643D01*
X161375705Y-73776643D01*
X161375705Y-73195060D01*
X161243879Y-73195060D01*
X161243879Y-73405722D01*
X160575705Y-73405722D01*
X160453788Y-73405722D01*
X160453788Y-73195060D01*
X160453788Y-72925808D01*
X160453788Y-72591721D01*
X161567412Y-72925808D01*
G37*
D13*
%TO.C,U6*%
X174350000Y-109400000D02*
X174350000Y-106900000D01*
X174590000Y-101440000D02*
X186410000Y-101440000D01*
X174590000Y-109160000D02*
X174590000Y-101440000D01*
X174590000Y-109160000D02*
X186410000Y-109160000D01*
X176850000Y-109400000D02*
X174350000Y-109400000D01*
X186410000Y-109160000D02*
X186410000Y-101440000D01*
%TO.C,J10*%
X122790000Y-86520000D02*
X122790000Y-90520000D01*
X123080000Y-85490000D02*
X123080000Y-91510000D01*
X123080000Y-91510000D02*
X133460000Y-91510000D01*
X123660000Y-85490000D02*
X123660000Y-86090000D01*
X123660000Y-86090000D02*
X125260000Y-86090000D01*
X124460000Y-90510000D02*
X124710000Y-89980000D01*
X124460000Y-90510000D02*
X132080000Y-90510000D01*
X124460000Y-91510000D02*
X124460000Y-90510000D01*
X124710000Y-89980000D02*
X131830000Y-89980000D01*
X124710000Y-91510000D02*
X124710000Y-90510000D01*
X125260000Y-86090000D02*
X125260000Y-85490000D01*
X126200000Y-85490000D02*
X126200000Y-86090000D01*
X126200000Y-86090000D02*
X127800000Y-86090000D01*
X127800000Y-86090000D02*
X127800000Y-85490000D01*
X128740000Y-85490000D02*
X128740000Y-86090000D01*
X128740000Y-86090000D02*
X130340000Y-86090000D01*
X130340000Y-86090000D02*
X130340000Y-85490000D01*
X131280000Y-85490000D02*
X131280000Y-86090000D01*
X131280000Y-86090000D02*
X132880000Y-86090000D01*
X131830000Y-89980000D02*
X132080000Y-90510000D01*
X131830000Y-91510000D02*
X131830000Y-90510000D01*
X132080000Y-90510000D02*
X132080000Y-91510000D01*
X132880000Y-86090000D02*
X132880000Y-85490000D01*
X133460000Y-85490000D02*
X123080000Y-85490000D01*
X133460000Y-91510000D02*
X133460000Y-85490000D01*
D18*
%TO.C,PS1*%
X165173000Y-48973000D02*
X165173000Y-100027000D01*
X165173000Y-100027000D02*
X190827000Y-100027000D01*
X190827000Y-48973000D02*
X165173000Y-48973000D01*
X190827000Y-100027000D02*
X190827000Y-48973000D01*
D13*
%TO.C,U4*%
X166440000Y-112870000D02*
X166440000Y-101050000D01*
X174160000Y-101050000D02*
X166440000Y-101050000D01*
X174160000Y-112870000D02*
X166440000Y-112870000D01*
X174160000Y-112870000D02*
X174160000Y-101050000D01*
X174400000Y-110610000D02*
X174400000Y-113110000D01*
X174400000Y-113110000D02*
X171900000Y-113110000D01*
D12*
%TO.C,kibuzzard-67ED72B0*%
G36*
X138446613Y-100741966D02*
G01*
X138482801Y-100771045D01*
X138503479Y-100811756D01*
X138509941Y-100858929D01*
X138266969Y-100858929D01*
X138277954Y-100811110D01*
X138301217Y-100769753D01*
X138338697Y-100741320D01*
X138392332Y-100730980D01*
X138446613Y-100741966D01*
G37*
G36*
X135839828Y-100572660D02*
G01*
X135892817Y-100632757D01*
X135919957Y-100719349D01*
X135927712Y-100820156D01*
X135925289Y-100877184D01*
X135918019Y-100929365D01*
X135885709Y-101015310D01*
X135826258Y-101072176D01*
X135735143Y-101092854D01*
X135720927Y-101092854D01*
X135706710Y-101091562D01*
X135706710Y-100553921D01*
X135729974Y-100550689D01*
X135753237Y-100550043D01*
X135839828Y-100572660D01*
G37*
G36*
X141205170Y-101345304D02*
G01*
X140870307Y-101345304D01*
X140601056Y-101345304D01*
X140363253Y-101345304D01*
X138984255Y-101345304D01*
X138436274Y-101345304D01*
X137667292Y-101345304D01*
X137202025Y-101345304D01*
X136399440Y-101345304D01*
X135718342Y-101345304D01*
X135547744Y-101345304D01*
X135278493Y-101345304D01*
X134943630Y-101345304D01*
X135217879Y-100431142D01*
X135547744Y-100431142D01*
X135547744Y-101211756D01*
X135634982Y-101226618D01*
X135718342Y-101231142D01*
X135796371Y-101225488D01*
X135867615Y-101208525D01*
X135930781Y-101179284D01*
X135984578Y-101136796D01*
X136028358Y-101080415D01*
X136061476Y-101009494D01*
X136082316Y-100923064D01*
X136089263Y-100820156D01*
X136082962Y-100719510D01*
X136068237Y-100653436D01*
X136239182Y-100653436D01*
X136239182Y-101220803D01*
X136399440Y-101220803D01*
X136399440Y-100769753D01*
X136465353Y-100757475D01*
X136531266Y-100754244D01*
X136566161Y-100755536D01*
X136608810Y-100760059D01*
X136652106Y-100767168D01*
X136688940Y-100774922D01*
X136717373Y-100627588D01*
X136667615Y-100615310D01*
X136653881Y-100613371D01*
X136816888Y-100613371D01*
X136816888Y-100745197D01*
X136984901Y-100745197D01*
X136984901Y-100968783D01*
X136987486Y-101028557D01*
X136995240Y-101081223D01*
X137030781Y-101164583D01*
X137097986Y-101216925D01*
X137144998Y-101230496D01*
X137202025Y-101235019D01*
X137281508Y-101226618D01*
X137373915Y-101194954D01*
X137353237Y-101067006D01*
X137283447Y-101090916D01*
X137230458Y-101096732D01*
X137163899Y-101070237D01*
X137143867Y-100989462D01*
X137143867Y-100613371D01*
X137434658Y-100613371D01*
X137462163Y-100703315D01*
X137490394Y-100789623D01*
X137519352Y-100872297D01*
X137549037Y-100951336D01*
X137588886Y-101049918D01*
X137628304Y-101139740D01*
X137667292Y-101220803D01*
X137800410Y-101220803D01*
X137840044Y-101139740D01*
X137881401Y-101049918D01*
X137924481Y-100951336D01*
X137936338Y-100922257D01*
X138102833Y-100922257D01*
X138108649Y-100994954D01*
X138126096Y-101057959D01*
X138154368Y-101111433D01*
X138192655Y-101155536D01*
X138240474Y-101190108D01*
X138297340Y-101214987D01*
X138362768Y-101230011D01*
X138436274Y-101235019D01*
X138540959Y-101225326D01*
X138628843Y-101201416D01*
X138606872Y-101065714D01*
X138533851Y-101086392D01*
X138442736Y-101096732D01*
X138372300Y-101088169D01*
X138316080Y-101062483D01*
X138279247Y-101021933D01*
X138266969Y-100968783D01*
X138661153Y-100968783D01*
X138663091Y-100941643D01*
X138663738Y-100909332D01*
X138655983Y-100815777D01*
X138632720Y-100738448D01*
X138593948Y-100677345D01*
X138564868Y-100653436D01*
X138823996Y-100653436D01*
X138823996Y-101220803D01*
X138984255Y-101220803D01*
X138984255Y-100820156D01*
X140036274Y-100820156D01*
X140042090Y-100917248D01*
X140059537Y-101001740D01*
X140087647Y-101073468D01*
X140125450Y-101132273D01*
X140172461Y-101178153D01*
X140228196Y-101211110D01*
X140292009Y-101230980D01*
X140363253Y-101237604D01*
X140442251Y-101234373D01*
X140508649Y-101224680D01*
X140597179Y-101201416D01*
X140597179Y-100802063D01*
X140438213Y-100802063D01*
X140438213Y-101094147D01*
X140407195Y-101098024D01*
X140376177Y-101099316D01*
X140298956Y-101082353D01*
X140243059Y-101031465D01*
X140217929Y-100977830D01*
X140202851Y-100907394D01*
X140197825Y-100820156D01*
X140200571Y-100760867D01*
X140208810Y-100707071D01*
X140244998Y-100619187D01*
X140308972Y-100561675D01*
X140404610Y-100540996D01*
X140489909Y-100555213D01*
X140559699Y-100587523D01*
X140601056Y-100460867D01*
X140574562Y-100445358D01*
X140529974Y-100425972D01*
X140465999Y-100409817D01*
X140382639Y-100402709D01*
X140312526Y-100409332D01*
X140246936Y-100429203D01*
X140187809Y-100462321D01*
X140137082Y-100508686D01*
X140095402Y-100567975D01*
X140063415Y-100639866D01*
X140043059Y-100724034D01*
X140036274Y-100820156D01*
X138984255Y-100820156D01*
X138984255Y-100769753D01*
X139050167Y-100757475D01*
X139116080Y-100754244D01*
X139150975Y-100755536D01*
X139193625Y-100760059D01*
X139236920Y-100767168D01*
X139273754Y-100774922D01*
X139302187Y-100627588D01*
X139252429Y-100615310D01*
X139197502Y-100607555D01*
X139146452Y-100603032D01*
X139109618Y-100601740D01*
X139026096Y-100605294D01*
X138953883Y-100615956D01*
X138888132Y-100632434D01*
X138823996Y-100653436D01*
X138564868Y-100653436D01*
X138540241Y-100633188D01*
X138472174Y-100606694D01*
X138389747Y-100597862D01*
X138336112Y-100603032D01*
X138283770Y-100618541D01*
X138234982Y-100644227D01*
X138192009Y-100679930D01*
X138155822Y-100725649D01*
X138127389Y-100781384D01*
X138108972Y-100846974D01*
X138102833Y-100922257D01*
X137936338Y-100922257D01*
X137956710Y-100872297D01*
X137987486Y-100789623D01*
X138016807Y-100703315D01*
X138044675Y-100613371D01*
X137883124Y-100613371D01*
X137869715Y-100664098D01*
X137852752Y-100718056D01*
X137833689Y-100773791D01*
X137813980Y-100829849D01*
X137793786Y-100885261D01*
X137773269Y-100939058D01*
X137735789Y-101035988D01*
X137700248Y-100939058D01*
X137681670Y-100885261D01*
X137663415Y-100829849D01*
X137645805Y-100773791D01*
X137629166Y-100718056D01*
X137614142Y-100664098D01*
X137601379Y-100613371D01*
X137434658Y-100613371D01*
X137143867Y-100613371D01*
X137036597Y-100613371D01*
X136816888Y-100613371D01*
X136653881Y-100613371D01*
X136612688Y-100607555D01*
X136561637Y-100603032D01*
X136524804Y-100601740D01*
X136441282Y-100605294D01*
X136369069Y-100615956D01*
X136303318Y-100632434D01*
X136239182Y-100653436D01*
X136068237Y-100653436D01*
X136064061Y-100634696D01*
X136033851Y-100564583D01*
X135993625Y-100508040D01*
X135943382Y-100464906D01*
X135890941Y-100438896D01*
X136937082Y-100438896D01*
X136966161Y-100512563D01*
X137036597Y-100539704D01*
X137107679Y-100512563D01*
X137137405Y-100438896D01*
X137107679Y-100363937D01*
X137036597Y-100336796D01*
X136966161Y-100363937D01*
X136937082Y-100438896D01*
X135890941Y-100438896D01*
X135883124Y-100435019D01*
X135814465Y-100417572D01*
X135739020Y-100411756D01*
X135649844Y-100415633D01*
X135547744Y-100431142D01*
X135217879Y-100431142D01*
X135278493Y-100229096D01*
X135547744Y-100229096D01*
X140601056Y-100229096D01*
X140870307Y-100229096D01*
X141205170Y-101345304D01*
G37*
D14*
%TO.C,U2*%
X120840000Y-101380000D02*
X141160000Y-101380000D01*
X120840000Y-116620000D02*
X120840000Y-101380000D01*
X141160000Y-101380000D02*
X141160000Y-116620000D01*
X141160000Y-116620000D02*
X120840000Y-116620000D01*
D15*
X122210000Y-117200000D02*
G75*
G02*
X122010000Y-117200000I-100000J0D01*
G01*
X122010000Y-117200000D02*
G75*
G02*
X122210000Y-117200000I100000J0D01*
G01*
D12*
%TO.C,kibuzzard-67ED725F*%
G36*
X174907631Y-113769133D02*
G01*
X174987114Y-113787226D01*
X175067243Y-113807905D01*
X175153188Y-113831815D01*
X175067243Y-113855724D01*
X174987114Y-113876403D01*
X174907631Y-113893850D01*
X174824917Y-113909359D01*
X174824917Y-113752978D01*
X174907631Y-113769133D01*
G37*
G36*
X174858520Y-113177857D02*
G01*
X174833318Y-113276726D01*
X174749957Y-113313559D01*
X174692445Y-113300635D01*
X174657550Y-113267679D01*
X174640749Y-113221798D01*
X174636226Y-113168810D01*
X174637518Y-113129391D01*
X174641395Y-113092558D01*
X174858520Y-113092558D01*
X174858520Y-113177857D01*
G37*
G36*
X175177744Y-113127453D02*
G01*
X175179037Y-113164932D01*
X175175805Y-113207582D01*
X175162881Y-113243769D01*
X175135741Y-113268325D01*
X175089860Y-113277372D01*
X175016839Y-113246354D01*
X174990345Y-113154593D01*
X174990345Y-113092558D01*
X175173867Y-113092558D01*
X175177744Y-113127453D01*
G37*
G36*
X175425025Y-112664340D02*
G01*
X175425025Y-112933592D01*
X175425025Y-114752008D01*
X175425025Y-115021260D01*
X175425025Y-115333635D01*
X174383775Y-115021260D01*
X174383775Y-114752008D01*
X174383775Y-114476726D01*
X174491476Y-114476726D01*
X174496807Y-114549100D01*
X174512801Y-114608551D01*
X174538810Y-114656370D01*
X174574190Y-114693850D01*
X174618455Y-114721314D01*
X174671121Y-114739084D01*
X174731217Y-114748777D01*
X174797776Y-114752008D01*
X175308277Y-114752008D01*
X175308277Y-114593042D01*
X174809408Y-114593042D01*
X174724755Y-114587873D01*
X174669182Y-114569779D01*
X174638810Y-114534884D01*
X174629763Y-114479311D01*
X174638810Y-114423737D01*
X174668536Y-114389488D01*
X174723463Y-114372041D01*
X174808116Y-114366871D01*
X175308277Y-114366871D01*
X175308277Y-114206613D01*
X174797776Y-114206613D01*
X174731217Y-114209844D01*
X174671121Y-114219537D01*
X174618455Y-114236984D01*
X174574190Y-114263479D01*
X174512801Y-114346839D01*
X174496807Y-114405482D01*
X174491476Y-114476726D01*
X174383775Y-114476726D01*
X174383775Y-114144577D01*
X174508277Y-114144577D01*
X174598978Y-114123252D01*
X174687043Y-114101669D01*
X174772471Y-114079827D01*
X174855263Y-114057727D01*
X174935418Y-114035369D01*
X175032631Y-114007218D01*
X175127179Y-113978987D01*
X175219061Y-113950676D01*
X175308277Y-113922283D01*
X175308277Y-113749100D01*
X175219788Y-113721718D01*
X175128794Y-113693850D01*
X175035297Y-113665498D01*
X174939295Y-113636661D01*
X174859812Y-113613449D01*
X174776969Y-113590341D01*
X174690765Y-113567336D01*
X174601201Y-113544435D01*
X174508277Y-113521637D01*
X174508277Y-113687065D01*
X174693091Y-113723252D01*
X174693091Y-113936500D01*
X174508277Y-113973979D01*
X174508277Y-114144577D01*
X174383775Y-114144577D01*
X174383775Y-113973979D01*
X174383775Y-113155886D01*
X174497938Y-113155886D01*
X174501007Y-113219698D01*
X174510216Y-113279311D01*
X174526694Y-113332945D01*
X174551573Y-113378826D01*
X174629117Y-113445385D01*
X174683560Y-113463802D01*
X174749957Y-113469941D01*
X174804238Y-113462671D01*
X174855935Y-113440861D01*
X174901169Y-113398697D01*
X174936064Y-113330361D01*
X175005854Y-113404674D01*
X175053027Y-113425514D01*
X175106662Y-113432461D01*
X175181621Y-113420829D01*
X175249473Y-113376887D01*
X175298584Y-113287711D01*
X175312639Y-113222445D01*
X175317324Y-113140377D01*
X175311508Y-113033107D01*
X175297938Y-112933592D01*
X174521201Y-112933592D01*
X174511024Y-112989488D01*
X174503754Y-113046031D01*
X174499392Y-113101928D01*
X174497938Y-113155886D01*
X174383775Y-113155886D01*
X174383775Y-112933592D01*
X174383775Y-112664340D01*
X175425025Y-112351965D01*
X175425025Y-112664340D01*
G37*
D13*
%TO.C,C2*%
X167759000Y-123913323D02*
X164082000Y-123913323D01*
X167759000Y-123953323D02*
X164093000Y-123953323D01*
X167759000Y-123993323D02*
X164103000Y-123993323D01*
X167759000Y-124033323D02*
X164115000Y-124033323D01*
X167759000Y-124073323D02*
X164126000Y-124073323D01*
X167759000Y-124113323D02*
X164138000Y-124113323D01*
X167759000Y-124153323D02*
X164150000Y-124153323D01*
X167759000Y-124193323D02*
X164163000Y-124193323D01*
X167759000Y-124233323D02*
X164176000Y-124233323D01*
X167759000Y-124273323D02*
X164189000Y-124273323D01*
X167759000Y-124313323D02*
X164203000Y-124313323D01*
X167759000Y-124353323D02*
X164217000Y-124353323D01*
X167759000Y-124393323D02*
X164232000Y-124393323D01*
X167759000Y-124433323D02*
X164246000Y-124433323D01*
X167759000Y-124473323D02*
X164262000Y-124473323D01*
X167759000Y-124513323D02*
X164277000Y-124513323D01*
X167759000Y-124553323D02*
X164293000Y-124553323D01*
X167759000Y-124593323D02*
X164310000Y-124593323D01*
X167759000Y-124633323D02*
X164326000Y-124633323D01*
X167759000Y-124673323D02*
X164343000Y-124673323D01*
X167759000Y-124713323D02*
X164361000Y-124713323D01*
X167759000Y-124753323D02*
X164379000Y-124753323D01*
X167759000Y-124793323D02*
X164397000Y-124793323D01*
X167759000Y-124833323D02*
X164416000Y-124833323D01*
X167759000Y-124873323D02*
X164436000Y-124873323D01*
X167759000Y-124913323D02*
X164455000Y-124913323D01*
X167759000Y-124953323D02*
X164475000Y-124953323D01*
X167759000Y-124993323D02*
X164496000Y-124993323D01*
X167759000Y-125033323D02*
X164517000Y-125033323D01*
X167759000Y-125073323D02*
X164538000Y-125073323D01*
X167759000Y-125113323D02*
X164560000Y-125113323D01*
X167759000Y-125153323D02*
X164583000Y-125153323D01*
X167759000Y-125193323D02*
X164605000Y-125193323D01*
X167759000Y-125233323D02*
X164629000Y-125233323D01*
X167759000Y-125273323D02*
X164653000Y-125273323D01*
X167759000Y-125313323D02*
X164677000Y-125313323D01*
X167759000Y-125353323D02*
X164702000Y-125353323D01*
X167759000Y-125393323D02*
X164727000Y-125393323D01*
X167759000Y-125433323D02*
X164753000Y-125433323D01*
X167759000Y-125473323D02*
X164779000Y-125473323D01*
X167759000Y-125513323D02*
X164806000Y-125513323D01*
X167759000Y-125553323D02*
X164834000Y-125553323D01*
X167759000Y-125593323D02*
X164862000Y-125593323D01*
X167759000Y-125633323D02*
X164890000Y-125633323D01*
X167759000Y-125673323D02*
X164920000Y-125673323D01*
X167759000Y-125713323D02*
X164950000Y-125713323D01*
X167759000Y-125753323D02*
X164980000Y-125753323D01*
X167759000Y-125793323D02*
X165011000Y-125793323D01*
X167759000Y-125833323D02*
X165043000Y-125833323D01*
X167759000Y-125873323D02*
X165075000Y-125873323D01*
X167759000Y-125913323D02*
X165108000Y-125913323D01*
X167759000Y-125953323D02*
X165142000Y-125953323D01*
X167759000Y-125993323D02*
X165176000Y-125993323D01*
X167759000Y-126033323D02*
X165211000Y-126033323D01*
X167759000Y-126073323D02*
X165247000Y-126073323D01*
X167759000Y-126113323D02*
X165284000Y-126113323D01*
X167759000Y-126153323D02*
X165321000Y-126153323D01*
X167759000Y-126193323D02*
X165360000Y-126193323D01*
X167759000Y-126233323D02*
X165399000Y-126233323D01*
X167759000Y-126273323D02*
X165439000Y-126273323D01*
X167759000Y-126313323D02*
X165480000Y-126313323D01*
X167759000Y-126353323D02*
X165522000Y-126353323D01*
X169599000Y-127713323D02*
X168401000Y-127713323D01*
X169862000Y-127673323D02*
X168138000Y-127673323D01*
X170062000Y-127633323D02*
X167938000Y-127633323D01*
X170230000Y-127593323D02*
X167770000Y-127593323D01*
X170378000Y-127553323D02*
X167622000Y-127553323D01*
X170510000Y-127513323D02*
X167490000Y-127513323D01*
X170630000Y-127473323D02*
X167370000Y-127473323D01*
X170742000Y-127433323D02*
X167258000Y-127433323D01*
X170846000Y-127393323D02*
X167154000Y-127393323D01*
X170944000Y-127353323D02*
X167056000Y-127353323D01*
X171037000Y-127313323D02*
X166963000Y-127313323D01*
X171125000Y-127273323D02*
X166875000Y-127273323D01*
X171209000Y-127233323D02*
X166791000Y-127233323D01*
X171289000Y-127193323D02*
X166711000Y-127193323D01*
X171365000Y-127153323D02*
X166635000Y-127153323D01*
X171439000Y-127113323D02*
X166561000Y-127113323D01*
X171510000Y-127073323D02*
X166490000Y-127073323D01*
X171579000Y-127033323D02*
X166421000Y-127033323D01*
X171645000Y-126993323D02*
X166355000Y-126993323D01*
X171709000Y-126953323D02*
X166291000Y-126953323D01*
X171770000Y-126913323D02*
X166230000Y-126913323D01*
X171830000Y-126873323D02*
X166170000Y-126873323D01*
X171875000Y-117152677D02*
X171875000Y-118152677D01*
X171889000Y-126833323D02*
X166111000Y-126833323D01*
X171945000Y-126793323D02*
X166055000Y-126793323D01*
X172000000Y-126753323D02*
X166000000Y-126753323D01*
X172054000Y-126713323D02*
X165946000Y-126713323D01*
X172106000Y-126673323D02*
X165894000Y-126673323D01*
X172156000Y-126633323D02*
X165844000Y-126633323D01*
X172206000Y-126593323D02*
X165794000Y-126593323D01*
X172254000Y-126553323D02*
X165746000Y-126553323D01*
X172301000Y-126513323D02*
X165699000Y-126513323D01*
X172347000Y-126473323D02*
X165653000Y-126473323D01*
X172375000Y-117652677D02*
X171375000Y-117652677D01*
X172392000Y-126433323D02*
X165608000Y-126433323D01*
X172436000Y-126393323D02*
X165564000Y-126393323D01*
X172478000Y-126353323D02*
X170241000Y-126353323D01*
X172520000Y-126313323D02*
X170241000Y-126313323D01*
X172561000Y-126273323D02*
X170241000Y-126273323D01*
X172601000Y-126233323D02*
X170241000Y-126233323D01*
X172640000Y-126193323D02*
X170241000Y-126193323D01*
X172679000Y-126153323D02*
X170241000Y-126153323D01*
X172716000Y-126113323D02*
X170241000Y-126113323D01*
X172753000Y-126073323D02*
X170241000Y-126073323D01*
X172789000Y-126033323D02*
X170241000Y-126033323D01*
X172824000Y-125993323D02*
X170241000Y-125993323D01*
X172858000Y-125953323D02*
X170241000Y-125953323D01*
X172892000Y-125913323D02*
X170241000Y-125913323D01*
X172925000Y-125873323D02*
X170241000Y-125873323D01*
X172957000Y-125833323D02*
X170241000Y-125833323D01*
X172989000Y-125793323D02*
X170241000Y-125793323D01*
X173020000Y-125753323D02*
X170241000Y-125753323D01*
X173050000Y-125713323D02*
X170241000Y-125713323D01*
X173080000Y-125673323D02*
X170241000Y-125673323D01*
X173110000Y-125633323D02*
X170241000Y-125633323D01*
X173138000Y-125593323D02*
X170241000Y-125593323D01*
X173166000Y-125553323D02*
X170241000Y-125553323D01*
X173194000Y-125513323D02*
X170241000Y-125513323D01*
X173221000Y-125473323D02*
X170241000Y-125473323D01*
X173247000Y-125433323D02*
X170241000Y-125433323D01*
X173273000Y-125393323D02*
X170241000Y-125393323D01*
X173298000Y-125353323D02*
X170241000Y-125353323D01*
X173323000Y-125313323D02*
X170241000Y-125313323D01*
X173347000Y-125273323D02*
X170241000Y-125273323D01*
X173371000Y-125233323D02*
X170241000Y-125233323D01*
X173395000Y-125193323D02*
X170241000Y-125193323D01*
X173417000Y-125153323D02*
X170241000Y-125153323D01*
X173440000Y-125113323D02*
X170241000Y-125113323D01*
X173462000Y-125073323D02*
X170241000Y-125073323D01*
X173483000Y-125033323D02*
X170241000Y-125033323D01*
X173504000Y-124993323D02*
X170241000Y-124993323D01*
X173525000Y-124953323D02*
X170241000Y-124953323D01*
X173545000Y-124913323D02*
X170241000Y-124913323D01*
X173564000Y-124873323D02*
X170241000Y-124873323D01*
X173584000Y-124833323D02*
X170241000Y-124833323D01*
X173603000Y-124793323D02*
X170241000Y-124793323D01*
X173621000Y-124753323D02*
X170241000Y-124753323D01*
X173639000Y-124713323D02*
X170241000Y-124713323D01*
X173657000Y-124673323D02*
X170241000Y-124673323D01*
X173674000Y-124633323D02*
X170241000Y-124633323D01*
X173690000Y-124593323D02*
X170241000Y-124593323D01*
X173707000Y-124553323D02*
X170241000Y-124553323D01*
X173723000Y-124513323D02*
X170241000Y-124513323D01*
X173738000Y-124473323D02*
X170241000Y-124473323D01*
X173754000Y-124433323D02*
X170241000Y-124433323D01*
X173768000Y-124393323D02*
X170241000Y-124393323D01*
X173783000Y-124353323D02*
X170241000Y-124353323D01*
X173797000Y-124313323D02*
X170241000Y-124313323D01*
X173811000Y-124273323D02*
X170241000Y-124273323D01*
X173824000Y-124233323D02*
X170241000Y-124233323D01*
X173837000Y-124193323D02*
X170241000Y-124193323D01*
X173850000Y-124153323D02*
X170241000Y-124153323D01*
X173862000Y-124113323D02*
X170241000Y-124113323D01*
X173874000Y-124073323D02*
X170241000Y-124073323D01*
X173885000Y-124033323D02*
X170241000Y-124033323D01*
X173897000Y-123993323D02*
X170241000Y-123993323D01*
X173907000Y-123953323D02*
X170241000Y-123953323D01*
X173918000Y-123913323D02*
X170241000Y-123913323D01*
X173928000Y-123873323D02*
X164072000Y-123873323D01*
X173938000Y-123833323D02*
X164062000Y-123833323D01*
X173947000Y-123793323D02*
X164053000Y-123793323D01*
X173956000Y-123753323D02*
X164044000Y-123753323D01*
X173965000Y-123713323D02*
X164035000Y-123713323D01*
X173974000Y-123673323D02*
X164026000Y-123673323D01*
X173982000Y-123633323D02*
X164018000Y-123633323D01*
X173990000Y-123593323D02*
X164010000Y-123593323D01*
X173997000Y-123553323D02*
X164003000Y-123553323D01*
X174004000Y-123513323D02*
X163996000Y-123513323D01*
X174011000Y-123473323D02*
X163989000Y-123473323D01*
X174018000Y-123433323D02*
X163982000Y-123433323D01*
X174024000Y-123393323D02*
X163976000Y-123393323D01*
X174030000Y-123353323D02*
X163970000Y-123353323D01*
X174035000Y-123312323D02*
X163965000Y-123312323D01*
X174040000Y-123272323D02*
X163960000Y-123272323D01*
X174045000Y-123232323D02*
X163955000Y-123232323D01*
X174050000Y-123192323D02*
X163950000Y-123192323D01*
X174054000Y-123152323D02*
X163946000Y-123152323D01*
X174058000Y-123112323D02*
X163942000Y-123112323D01*
X174062000Y-123072323D02*
X163938000Y-123072323D01*
X174065000Y-123032323D02*
X163935000Y-123032323D01*
X174068000Y-122992323D02*
X163932000Y-122992323D01*
X174070000Y-122952323D02*
X163930000Y-122952323D01*
X174073000Y-122912323D02*
X163927000Y-122912323D01*
X174075000Y-122872323D02*
X163925000Y-122872323D01*
X174077000Y-122832323D02*
X163923000Y-122832323D01*
X174078000Y-122792323D02*
X163922000Y-122792323D01*
X174079000Y-122752323D02*
X163921000Y-122752323D01*
X174080000Y-122632323D02*
X163920000Y-122632323D01*
X174080000Y-122672323D02*
X163920000Y-122672323D01*
X174080000Y-122712323D02*
X163920000Y-122712323D01*
X174120000Y-122632323D02*
G75*
G02*
X163880000Y-122632323I-5120000J0D01*
G01*
X163880000Y-122632323D02*
G75*
G02*
X174120000Y-122632323I5120000J0D01*
G01*
%TO.C,J7*%
X122790000Y-70000000D02*
X122790000Y-74000000D01*
X123080000Y-68970000D02*
X123080000Y-74990000D01*
X123080000Y-74990000D02*
X133460000Y-74990000D01*
X123660000Y-68970000D02*
X123660000Y-69570000D01*
X123660000Y-69570000D02*
X125260000Y-69570000D01*
X124460000Y-73990000D02*
X124710000Y-73460000D01*
X124460000Y-73990000D02*
X132080000Y-73990000D01*
X124460000Y-74990000D02*
X124460000Y-73990000D01*
X124710000Y-73460000D02*
X131830000Y-73460000D01*
X124710000Y-74990000D02*
X124710000Y-73990000D01*
X125260000Y-69570000D02*
X125260000Y-68970000D01*
X126200000Y-68970000D02*
X126200000Y-69570000D01*
X126200000Y-69570000D02*
X127800000Y-69570000D01*
X127800000Y-69570000D02*
X127800000Y-68970000D01*
X128740000Y-68970000D02*
X128740000Y-69570000D01*
X128740000Y-69570000D02*
X130340000Y-69570000D01*
X130340000Y-69570000D02*
X130340000Y-68970000D01*
X131280000Y-68970000D02*
X131280000Y-69570000D01*
X131280000Y-69570000D02*
X132880000Y-69570000D01*
X131830000Y-73460000D02*
X132080000Y-73990000D01*
X131830000Y-74990000D02*
X131830000Y-73990000D01*
X132080000Y-73990000D02*
X132080000Y-74990000D01*
X132880000Y-69570000D02*
X132880000Y-68970000D01*
X133460000Y-68970000D02*
X123080000Y-68970000D01*
X133460000Y-74990000D02*
X133460000Y-68970000D01*
D12*
%TO.C,kibuzzard-67ED61B4*%
G36*
X143287408Y-71725515D02*
G01*
X143319072Y-71750959D01*
X143337165Y-71786581D01*
X143342820Y-71827857D01*
X143130219Y-71827857D01*
X143139831Y-71786015D01*
X143160186Y-71749828D01*
X143192981Y-71724949D01*
X143239912Y-71715902D01*
X143287408Y-71725515D01*
G37*
G36*
X141587731Y-71915499D02*
G01*
X141620525Y-71919457D01*
X141620525Y-72041589D01*
X141583207Y-72044416D01*
X141539104Y-72044982D01*
X141468991Y-72029715D01*
X141441850Y-71978261D01*
X141450897Y-71945466D01*
X141475210Y-71926242D01*
X141510832Y-71916629D01*
X141552674Y-71913802D01*
X141587731Y-71915499D01*
G37*
G36*
X147807440Y-71915499D02*
G01*
X147840235Y-71919457D01*
X147840235Y-72041589D01*
X147802916Y-72044416D01*
X147758813Y-72044982D01*
X147688700Y-72029715D01*
X147661559Y-71978261D01*
X147670606Y-71945466D01*
X147694920Y-71926242D01*
X147730542Y-71916629D01*
X147772383Y-71913802D01*
X147807440Y-71915499D01*
G37*
G36*
X142145808Y-71731876D02*
G01*
X142181430Y-71766225D01*
X142202634Y-71818386D01*
X142209702Y-71883269D01*
X142203765Y-71948435D01*
X142185954Y-71996920D01*
X142155703Y-72027029D01*
X142112448Y-72037066D01*
X142067214Y-72031411D01*
X142031026Y-72016710D01*
X142031026Y-71724949D01*
X142061559Y-71722122D01*
X142095485Y-71720426D01*
X142145808Y-71731876D01*
G37*
G36*
X148938437Y-71731310D02*
G01*
X148971656Y-71763964D01*
X148990740Y-71814428D01*
X148997101Y-71878746D01*
X148990174Y-71943204D01*
X148969395Y-71994093D01*
X148935045Y-72027171D01*
X148887408Y-72038196D01*
X148838639Y-72027171D01*
X148805420Y-71994093D01*
X148786337Y-71943204D01*
X148779976Y-71878746D01*
X148786903Y-71814428D01*
X148807682Y-71763964D01*
X148842032Y-71731310D01*
X148889669Y-71720426D01*
X148938437Y-71731310D01*
G37*
G36*
X150251484Y-72425326D02*
G01*
X149905555Y-72425326D01*
X149669960Y-72425326D01*
X148889669Y-72425326D01*
X148297101Y-72425326D01*
X147748635Y-72425326D01*
X147150412Y-72425326D01*
X146708248Y-72425326D01*
X146150736Y-72425326D01*
X145493708Y-72425326D01*
X144323272Y-72425326D01*
X143799685Y-72425326D01*
X143278361Y-72425326D01*
X142750251Y-72425326D01*
X142031026Y-72425326D01*
X141528926Y-72425326D01*
X141024564Y-72425326D01*
X140720364Y-72425326D01*
X140484769Y-72425326D01*
X140138840Y-72425326D01*
X140328259Y-71793931D01*
X140720364Y-71793931D01*
X140725241Y-71876555D01*
X140739871Y-71949141D01*
X140764255Y-72011692D01*
X140798393Y-72064206D01*
X140858203Y-72116979D01*
X140933593Y-72148643D01*
X141024564Y-72159198D01*
X141086337Y-72155381D01*
X141140477Y-72143931D01*
X141220202Y-72110571D01*
X141185146Y-72000878D01*
X141128038Y-72025757D01*
X141038135Y-72038196D01*
X140957420Y-72022223D01*
X140911346Y-71981654D01*
X141305017Y-71981654D01*
X141320849Y-72063641D01*
X141366083Y-72117922D01*
X141436761Y-72147889D01*
X141528926Y-72156936D01*
X141599887Y-72154675D01*
X141663498Y-72147889D01*
X141753967Y-72132057D01*
X141753967Y-71815418D01*
X141742658Y-71725515D01*
X141705340Y-71657663D01*
X141660499Y-71629957D01*
X141891931Y-71629957D01*
X141891931Y-72331088D01*
X142031026Y-72331088D01*
X142031026Y-72130927D01*
X142086721Y-72150434D01*
X142140719Y-72156936D01*
X142189629Y-72151847D01*
X142232319Y-72136581D01*
X142297908Y-72079473D01*
X142320808Y-72039045D01*
X142337488Y-71991266D01*
X142347666Y-71937409D01*
X142351059Y-71878746D01*
X142343771Y-71799460D01*
X142321908Y-71731986D01*
X142285469Y-71676322D01*
X142235334Y-71634858D01*
X142180012Y-71612994D01*
X142426826Y-71612994D01*
X142426826Y-71728342D01*
X142547828Y-71728342D01*
X142547828Y-71946597D01*
X142551220Y-72006957D01*
X142561398Y-72054594D01*
X142600978Y-72118487D01*
X142664306Y-72149020D01*
X142750251Y-72156936D01*
X142836761Y-72150151D01*
X142919879Y-72127534D01*
X142900655Y-72007663D01*
X142865033Y-72022364D01*
X142833369Y-72030846D01*
X142801705Y-72034804D01*
X142766083Y-72035935D01*
X142733288Y-72032542D01*
X142708409Y-72018972D01*
X142692577Y-71990700D01*
X142686923Y-71943204D01*
X142686923Y-71883269D01*
X142986600Y-71883269D01*
X142991689Y-71946880D01*
X143006955Y-72002009D01*
X143031693Y-72048798D01*
X143065194Y-72087389D01*
X143107036Y-72117639D01*
X143156794Y-72139408D01*
X143214043Y-72152554D01*
X143278361Y-72156936D01*
X143369960Y-72148455D01*
X143446858Y-72127534D01*
X143427634Y-72008794D01*
X143363740Y-72026888D01*
X143284015Y-72035935D01*
X143222383Y-72028443D01*
X143173191Y-72005967D01*
X143140962Y-71970486D01*
X143130219Y-71923980D01*
X143475130Y-71923980D01*
X143476180Y-71909279D01*
X143583692Y-71909279D01*
X143585954Y-71961298D01*
X143592739Y-72008794D01*
X143626099Y-72087389D01*
X143692254Y-72138843D01*
X143740033Y-72152413D01*
X143799685Y-72156936D01*
X143861741Y-72154392D01*
X143918991Y-72146759D01*
X143969738Y-72136581D01*
X144012286Y-72126403D01*
X144012286Y-71648051D01*
X144183046Y-71648051D01*
X144183046Y-72144497D01*
X144323272Y-72144497D01*
X144323272Y-71891185D01*
X145257359Y-71891185D01*
X145260186Y-71949424D01*
X145268668Y-72002009D01*
X145283934Y-72048091D01*
X145307117Y-72086823D01*
X145380057Y-72140539D01*
X145431370Y-72154533D01*
X145493708Y-72159198D01*
X145557036Y-72154533D01*
X145609055Y-72140539D01*
X145650897Y-72117780D01*
X145683692Y-72086823D01*
X145707723Y-72048091D01*
X145723272Y-72002009D01*
X145731753Y-71949424D01*
X145734580Y-71891185D01*
X145734580Y-71481815D01*
X145819395Y-71481815D01*
X145966406Y-71481815D01*
X145966406Y-71933027D01*
X145977432Y-72029574D01*
X146010509Y-72099828D01*
X146067618Y-72142659D01*
X146150736Y-72156936D01*
X146213498Y-72152413D01*
X146260429Y-72141670D01*
X146291527Y-72129796D01*
X146306794Y-72121880D01*
X146288700Y-72009925D01*
X146251382Y-72024626D01*
X146181269Y-72035935D01*
X146126988Y-72016710D01*
X146105501Y-71943204D01*
X146105501Y-71612994D01*
X146384823Y-71612994D01*
X146384823Y-71728342D01*
X146505824Y-71728342D01*
X146505824Y-71946597D01*
X146509217Y-72006957D01*
X146519395Y-72054594D01*
X146558975Y-72118487D01*
X146622303Y-72149020D01*
X146708248Y-72156936D01*
X146794758Y-72150151D01*
X146877876Y-72127534D01*
X146858651Y-72007663D01*
X146823030Y-72022364D01*
X146791366Y-72030846D01*
X146759702Y-72034804D01*
X146724080Y-72035935D01*
X146691285Y-72032542D01*
X146666406Y-72018972D01*
X146650574Y-71990700D01*
X146644920Y-71943204D01*
X146644920Y-71728342D01*
X146867698Y-71728342D01*
X146867698Y-71648051D01*
X147010186Y-71648051D01*
X147010186Y-72144497D01*
X147150412Y-72144497D01*
X147150412Y-71981654D01*
X147524726Y-71981654D01*
X147540558Y-72063641D01*
X147585792Y-72117922D01*
X147656471Y-72147889D01*
X147748635Y-72156936D01*
X147819597Y-72154675D01*
X147883207Y-72147889D01*
X147973676Y-72132057D01*
X147973676Y-72112833D01*
X148101462Y-72112833D01*
X148179492Y-72141104D01*
X148233207Y-72152978D01*
X148297101Y-72156936D01*
X148359580Y-72153826D01*
X148411317Y-72144497D01*
X148486519Y-72110571D01*
X148527795Y-72059683D01*
X148540235Y-71997486D01*
X148523272Y-71926807D01*
X148479734Y-71879311D01*
X148476496Y-71877615D01*
X148638619Y-71877615D01*
X148643143Y-71937974D01*
X148656713Y-71992397D01*
X148678623Y-72040317D01*
X148708167Y-72081169D01*
X148744637Y-72114246D01*
X148787327Y-72138843D01*
X148835812Y-72154109D01*
X148889669Y-72159198D01*
X148943526Y-72154109D01*
X148992012Y-72138843D01*
X149034560Y-72114246D01*
X149070606Y-72081169D01*
X149099726Y-72040317D01*
X149121495Y-71992397D01*
X149135065Y-71937974D01*
X149139588Y-71877615D01*
X149135065Y-71818104D01*
X149121495Y-71763964D01*
X149099584Y-71716185D01*
X149070041Y-71675757D01*
X149033571Y-71643245D01*
X149009965Y-71629957D01*
X149242496Y-71629957D01*
X149242496Y-72144497D01*
X149381592Y-72144497D01*
X149381592Y-71727211D01*
X149413821Y-71723818D01*
X149444920Y-71722688D01*
X149513902Y-71755482D01*
X149526624Y-71798738D01*
X149530865Y-71862914D01*
X149530865Y-72144497D01*
X149669960Y-72144497D01*
X149669960Y-71844820D01*
X149667416Y-71792942D01*
X149659782Y-71745870D01*
X149625291Y-71668972D01*
X149559136Y-71619214D01*
X149511923Y-71606068D01*
X149453967Y-71601686D01*
X149391911Y-71603948D01*
X149334661Y-71610733D01*
X149284197Y-71620062D01*
X149242496Y-71629957D01*
X149009965Y-71629957D01*
X148990881Y-71619214D01*
X148942678Y-71604372D01*
X148889669Y-71599424D01*
X148837367Y-71604372D01*
X148789023Y-71619214D01*
X148745909Y-71643245D01*
X148709298Y-71675757D01*
X148679613Y-71716185D01*
X148657278Y-71763964D01*
X148643284Y-71818104D01*
X148638619Y-71877615D01*
X148476496Y-71877615D01*
X148420364Y-71848213D01*
X148357036Y-71825595D01*
X148316891Y-71811460D01*
X148284096Y-71796193D01*
X148261479Y-71778665D01*
X148252997Y-71756613D01*
X148271656Y-71728907D01*
X148343466Y-71715902D01*
X148435065Y-71728907D01*
X148495000Y-71747566D01*
X148516487Y-71629957D01*
X148439023Y-71607340D01*
X148392517Y-71601403D01*
X148342335Y-71599424D01*
X148286640Y-71602675D01*
X148239427Y-71612429D01*
X148168748Y-71648616D01*
X148128038Y-71701767D01*
X148115033Y-71765660D01*
X148131996Y-71835208D01*
X148174968Y-71881007D01*
X148232642Y-71910975D01*
X148294839Y-71931896D01*
X148336115Y-71945466D01*
X148371172Y-71959602D01*
X148394920Y-71977130D01*
X148403401Y-72002009D01*
X148376261Y-72031977D01*
X148298231Y-72039327D01*
X148207198Y-72025757D01*
X148122949Y-71996355D01*
X148101462Y-72112833D01*
X147973676Y-72112833D01*
X147973676Y-71815418D01*
X147962367Y-71725515D01*
X147925049Y-71657663D01*
X147855501Y-71614691D01*
X147806450Y-71603241D01*
X147746374Y-71599424D01*
X147696333Y-71601262D01*
X147647989Y-71606775D01*
X147574483Y-71623172D01*
X147593708Y-71735127D01*
X147653078Y-71721557D01*
X147729411Y-71715902D01*
X147781430Y-71722546D01*
X147815356Y-71742478D01*
X147840235Y-71808633D01*
X147840235Y-71825595D01*
X147795283Y-71818810D01*
X147744112Y-71816549D01*
X147661559Y-71825030D01*
X147591446Y-71852736D01*
X147542820Y-71903625D01*
X147524726Y-71981654D01*
X147150412Y-71981654D01*
X147150412Y-71749828D01*
X147208086Y-71739085D01*
X147265760Y-71736258D01*
X147296293Y-71737389D01*
X147333611Y-71741347D01*
X147371495Y-71747566D01*
X147403724Y-71754352D01*
X147428603Y-71625434D01*
X147385065Y-71614691D01*
X147337004Y-71607906D01*
X147292335Y-71603948D01*
X147260105Y-71602817D01*
X147187024Y-71605927D01*
X147123837Y-71615256D01*
X147066305Y-71629675D01*
X147010186Y-71648051D01*
X146867698Y-71648051D01*
X146867698Y-71612994D01*
X146644920Y-71612994D01*
X146644920Y-71456936D01*
X146505824Y-71479553D01*
X146505824Y-71612994D01*
X146384823Y-71612994D01*
X146105501Y-71612994D01*
X146105501Y-71366468D01*
X145819395Y-71366468D01*
X145819395Y-71481815D01*
X145734580Y-71481815D01*
X145734580Y-71444497D01*
X145595485Y-71444497D01*
X145595485Y-71881007D01*
X145590962Y-71955078D01*
X145575130Y-72003705D01*
X145544597Y-72030280D01*
X145495970Y-72038196D01*
X145447343Y-72030280D01*
X145417375Y-72004271D01*
X145402109Y-71956209D01*
X145397585Y-71882138D01*
X145397585Y-71444497D01*
X145257359Y-71444497D01*
X145257359Y-71891185D01*
X144323272Y-71891185D01*
X144323272Y-71749828D01*
X144380946Y-71739085D01*
X144438619Y-71736258D01*
X144469152Y-71737389D01*
X144506471Y-71741347D01*
X144544354Y-71747566D01*
X144576584Y-71754352D01*
X144601462Y-71625434D01*
X144557925Y-71614691D01*
X144509863Y-71607906D01*
X144465194Y-71603948D01*
X144432965Y-71602817D01*
X144359883Y-71605927D01*
X144296697Y-71615256D01*
X144239164Y-71629675D01*
X144183046Y-71648051D01*
X144012286Y-71648051D01*
X144012286Y-71612994D01*
X143872060Y-71612994D01*
X143872060Y-72030280D01*
X143808732Y-72035935D01*
X143740315Y-72000313D01*
X143727169Y-71955220D01*
X143722787Y-71891185D01*
X143722787Y-71612994D01*
X143583692Y-71612994D01*
X143583692Y-71909279D01*
X143476180Y-71909279D01*
X143476826Y-71900232D01*
X143477391Y-71871961D01*
X143470606Y-71790099D01*
X143450251Y-71722436D01*
X143416325Y-71668972D01*
X143369332Y-71630334D01*
X143309773Y-71607152D01*
X143237650Y-71599424D01*
X143190719Y-71603948D01*
X143144920Y-71617518D01*
X143102230Y-71639994D01*
X143064629Y-71671234D01*
X143032965Y-71711238D01*
X143008086Y-71760006D01*
X142991971Y-71817397D01*
X142986600Y-71883269D01*
X142686923Y-71883269D01*
X142686923Y-71728342D01*
X142909702Y-71728342D01*
X142909702Y-71612994D01*
X142686923Y-71612994D01*
X142686923Y-71456936D01*
X142547828Y-71479553D01*
X142547828Y-71612994D01*
X142426826Y-71612994D01*
X142180012Y-71612994D01*
X142172383Y-71609979D01*
X142096616Y-71601686D01*
X142041911Y-71603665D01*
X141986357Y-71609602D01*
X141934762Y-71618649D01*
X141891931Y-71629957D01*
X141660499Y-71629957D01*
X141635792Y-71614691D01*
X141586741Y-71603241D01*
X141526664Y-71599424D01*
X141476624Y-71601262D01*
X141428280Y-71606775D01*
X141354774Y-71623172D01*
X141373999Y-71735127D01*
X141433369Y-71721557D01*
X141509702Y-71715902D01*
X141561721Y-71722546D01*
X141595647Y-71742478D01*
X141620525Y-71808633D01*
X141620525Y-71825595D01*
X141575574Y-71818810D01*
X141524403Y-71816549D01*
X141441850Y-71825030D01*
X141371737Y-71852736D01*
X141323110Y-71903625D01*
X141305017Y-71981654D01*
X140911346Y-71981654D01*
X140902997Y-71974303D01*
X140880066Y-71925488D01*
X140866307Y-71864233D01*
X140861721Y-71790539D01*
X140865538Y-71727211D01*
X140876988Y-71675192D01*
X140916567Y-71601120D01*
X140971979Y-71561541D01*
X141035873Y-71549667D01*
X141120122Y-71561541D01*
X141182884Y-71590377D01*
X141219072Y-71479553D01*
X141195889Y-71465983D01*
X141158005Y-71449020D01*
X141105420Y-71434885D01*
X141038135Y-71428665D01*
X140971838Y-71434743D01*
X140910913Y-71452978D01*
X140856632Y-71482946D01*
X140810267Y-71524222D01*
X140772525Y-71576383D01*
X140744112Y-71639004D01*
X140726301Y-71711662D01*
X140720364Y-71793931D01*
X140328259Y-71793931D01*
X140484769Y-71272230D01*
X140720364Y-71272230D01*
X149669960Y-71272230D01*
X149905555Y-71272230D01*
X150251484Y-72425326D01*
G37*
%TO.C,kibuzzard-67ED72B6*%
G36*
X162926397Y-100717858D02*
G01*
X162962585Y-100746937D01*
X162983263Y-100787648D01*
X162989725Y-100834821D01*
X162746753Y-100834821D01*
X162757738Y-100787002D01*
X162781002Y-100745645D01*
X162818481Y-100717212D01*
X162872116Y-100706873D01*
X162926397Y-100717858D01*
G37*
G36*
X160319612Y-100548553D02*
G01*
X160372601Y-100608650D01*
X160399742Y-100695241D01*
X160407496Y-100796049D01*
X160405073Y-100853076D01*
X160397803Y-100905257D01*
X160365493Y-100991202D01*
X160306042Y-101048068D01*
X160214927Y-101068747D01*
X160200711Y-101068747D01*
X160186494Y-101067454D01*
X160186494Y-100529813D01*
X160209758Y-100526582D01*
X160233021Y-100525936D01*
X160319612Y-100548553D01*
G37*
G36*
X164843037Y-100548553D02*
G01*
X164896026Y-100608650D01*
X164923166Y-100695241D01*
X164930921Y-100796049D01*
X164928498Y-100853076D01*
X164921228Y-100905257D01*
X164888918Y-100991202D01*
X164829467Y-101048068D01*
X164738352Y-101068747D01*
X164724136Y-101068747D01*
X164709919Y-101067454D01*
X164709919Y-100529813D01*
X164733183Y-100526582D01*
X164756446Y-100525936D01*
X164843037Y-100548553D01*
G37*
G36*
X165695810Y-101318612D02*
G01*
X165361723Y-101318612D01*
X165092472Y-101318612D01*
X164721551Y-101318612D01*
X163464039Y-101318612D01*
X162916058Y-101318612D01*
X162147076Y-101318612D01*
X161681809Y-101318612D01*
X160879225Y-101318612D01*
X160198126Y-101318612D01*
X160027528Y-101318612D01*
X159758277Y-101318612D01*
X159424190Y-101318612D01*
X159697663Y-100407034D01*
X160027528Y-100407034D01*
X160027528Y-101187648D01*
X160114766Y-101202511D01*
X160198126Y-101207034D01*
X160276155Y-101201380D01*
X160347399Y-101184417D01*
X160410565Y-101155176D01*
X160464362Y-101112689D01*
X160508142Y-101056307D01*
X160541260Y-100985386D01*
X160562100Y-100898957D01*
X160569047Y-100796049D01*
X160562746Y-100695403D01*
X160548021Y-100629328D01*
X160718966Y-100629328D01*
X160718966Y-101196695D01*
X160879225Y-101196695D01*
X160879225Y-100745645D01*
X160945137Y-100733367D01*
X161011050Y-100730136D01*
X161045945Y-100731428D01*
X161088595Y-100735952D01*
X161131890Y-100743060D01*
X161168724Y-100750815D01*
X161197157Y-100603480D01*
X161147399Y-100591202D01*
X161133671Y-100589264D01*
X161296672Y-100589264D01*
X161296672Y-100721089D01*
X161464685Y-100721089D01*
X161464685Y-100944676D01*
X161467270Y-101004449D01*
X161475024Y-101057115D01*
X161510565Y-101140475D01*
X161577771Y-101192818D01*
X161624782Y-101206388D01*
X161681809Y-101210911D01*
X161761292Y-101202511D01*
X161853700Y-101170847D01*
X161833021Y-101042899D01*
X161763231Y-101066808D01*
X161710242Y-101072624D01*
X161643683Y-101046130D01*
X161623651Y-100965354D01*
X161623651Y-100589264D01*
X161914443Y-100589264D01*
X161941947Y-100679207D01*
X161970178Y-100765516D01*
X161999136Y-100848189D01*
X162028821Y-100927228D01*
X162068670Y-101025810D01*
X162108088Y-101115632D01*
X162147076Y-101196695D01*
X162280194Y-101196695D01*
X162319828Y-101115632D01*
X162361185Y-101025810D01*
X162404265Y-100927228D01*
X162416122Y-100898149D01*
X162582617Y-100898149D01*
X162588433Y-100970847D01*
X162605880Y-101033852D01*
X162634152Y-101087325D01*
X162672439Y-101131428D01*
X162720258Y-101166000D01*
X162777124Y-101190879D01*
X162842553Y-101205903D01*
X162916058Y-101210911D01*
X163020743Y-101201218D01*
X163108627Y-101177309D01*
X163086656Y-101041606D01*
X163013635Y-101062285D01*
X162922520Y-101072624D01*
X162852084Y-101064062D01*
X162795864Y-101038375D01*
X162759031Y-100997826D01*
X162746753Y-100944676D01*
X163140937Y-100944676D01*
X163142876Y-100917535D01*
X163143522Y-100885225D01*
X163135767Y-100791669D01*
X163112504Y-100714340D01*
X163073732Y-100653238D01*
X163044651Y-100629328D01*
X163303780Y-100629328D01*
X163303780Y-101196695D01*
X163464039Y-101196695D01*
X163464039Y-100745645D01*
X163529952Y-100733367D01*
X163595864Y-100730136D01*
X163630759Y-100731428D01*
X163673409Y-100735952D01*
X163716704Y-100743060D01*
X163753538Y-100750815D01*
X163781971Y-100603480D01*
X163732213Y-100591202D01*
X163677286Y-100583448D01*
X163626236Y-100578924D01*
X163589402Y-100577632D01*
X163505880Y-100581186D01*
X163433667Y-100591848D01*
X163367916Y-100608327D01*
X163303780Y-100629328D01*
X163044651Y-100629328D01*
X163020025Y-100609081D01*
X162951958Y-100582586D01*
X162869532Y-100573755D01*
X162815897Y-100578924D01*
X162763554Y-100594433D01*
X162714766Y-100620120D01*
X162671793Y-100655823D01*
X162635606Y-100701542D01*
X162607173Y-100757277D01*
X162588756Y-100822866D01*
X162582617Y-100898149D01*
X162416122Y-100898149D01*
X162436494Y-100848189D01*
X162467270Y-100765516D01*
X162496591Y-100679207D01*
X162524459Y-100589264D01*
X162362908Y-100589264D01*
X162349499Y-100639991D01*
X162332536Y-100693949D01*
X162313473Y-100749684D01*
X162293764Y-100805742D01*
X162273570Y-100861154D01*
X162253053Y-100914950D01*
X162215574Y-101011881D01*
X162180032Y-100914950D01*
X162161454Y-100861154D01*
X162143199Y-100805742D01*
X162125590Y-100749684D01*
X162108950Y-100693949D01*
X162093926Y-100639991D01*
X162081163Y-100589264D01*
X161914443Y-100589264D01*
X161623651Y-100589264D01*
X161516381Y-100589264D01*
X161296672Y-100589264D01*
X161133671Y-100589264D01*
X161092472Y-100583448D01*
X161041422Y-100578924D01*
X161004588Y-100577632D01*
X160921066Y-100581186D01*
X160848853Y-100591848D01*
X160783102Y-100608327D01*
X160718966Y-100629328D01*
X160548021Y-100629328D01*
X160543845Y-100610588D01*
X160513635Y-100540475D01*
X160473409Y-100483932D01*
X160423166Y-100440798D01*
X160370727Y-100414789D01*
X161416866Y-100414789D01*
X161445945Y-100488456D01*
X161516381Y-100515596D01*
X161587464Y-100488456D01*
X161617189Y-100414789D01*
X161614114Y-100407034D01*
X164550953Y-100407034D01*
X164550953Y-101187648D01*
X164638191Y-101202511D01*
X164721551Y-101207034D01*
X164799580Y-101201380D01*
X164870824Y-101184417D01*
X164933990Y-101155176D01*
X164987787Y-101112689D01*
X165031567Y-101056307D01*
X165064685Y-100985386D01*
X165085525Y-100898957D01*
X165092472Y-100796049D01*
X165086171Y-100695403D01*
X165067270Y-100610588D01*
X165037060Y-100540475D01*
X164996834Y-100483932D01*
X164946591Y-100440798D01*
X164886333Y-100410911D01*
X164817674Y-100393464D01*
X164742229Y-100387648D01*
X164653053Y-100391525D01*
X164550953Y-100407034D01*
X161614114Y-100407034D01*
X161587464Y-100339829D01*
X161516381Y-100312689D01*
X161445945Y-100339829D01*
X161416866Y-100414789D01*
X160370727Y-100414789D01*
X160362908Y-100410911D01*
X160294249Y-100393464D01*
X160218805Y-100387648D01*
X160129628Y-100391525D01*
X160027528Y-100407034D01*
X159697663Y-100407034D01*
X159758277Y-100204988D01*
X160027528Y-100204988D01*
X165092472Y-100204988D01*
X165361723Y-100204988D01*
X165695810Y-101318612D01*
G37*
D13*
%TO.C,J3*%
X175490000Y-111925000D02*
X176495000Y-111925000D01*
X175490000Y-112040000D02*
X176490000Y-112040000D01*
X175490000Y-116115000D02*
X175490000Y-111925000D01*
X176490000Y-112040000D02*
X176490000Y-116000000D01*
X176490000Y-112040000D02*
X178160000Y-112040000D01*
X176490000Y-116000000D02*
X175490000Y-116000000D01*
X176495000Y-110020000D02*
X185720000Y-110020000D01*
X176495000Y-111925000D02*
X176495000Y-110020000D01*
X176495000Y-116115000D02*
X175490000Y-116115000D01*
X176495000Y-118020000D02*
X176495000Y-116115000D01*
X178160000Y-112040000D02*
X178160000Y-116000000D01*
X178160000Y-116000000D02*
X176490000Y-116000000D01*
X182500000Y-109730000D02*
X178500000Y-109730000D01*
X185120000Y-111240000D02*
X185120000Y-112840000D01*
X185120000Y-112840000D02*
X185720000Y-112840000D01*
X185120000Y-115200000D02*
X185120000Y-116800000D01*
X185120000Y-116800000D02*
X185720000Y-116800000D01*
X185720000Y-110020000D02*
X185720000Y-118020000D01*
X185720000Y-111240000D02*
X185120000Y-111240000D01*
X185720000Y-115200000D02*
X185120000Y-115200000D01*
X185720000Y-118020000D02*
X176495000Y-118020000D01*
D12*
%TO.C,kibuzzard-67ED6169*%
G36*
X124453522Y-84954766D02*
G01*
X124489709Y-84983845D01*
X124510388Y-85024556D01*
X124516850Y-85071729D01*
X124273877Y-85071729D01*
X124284863Y-85023910D01*
X124308126Y-84982553D01*
X124345606Y-84954120D01*
X124399241Y-84943780D01*
X124453522Y-84954766D01*
G37*
G36*
X126392132Y-84954766D02*
G01*
X126428320Y-84983845D01*
X126448998Y-85024556D01*
X126455460Y-85071729D01*
X126212488Y-85071729D01*
X126223473Y-85023910D01*
X126246737Y-84982553D01*
X126284216Y-84954120D01*
X126337851Y-84943780D01*
X126392132Y-84954766D01*
G37*
G36*
X128973231Y-84961389D02*
G01*
X129011195Y-84998708D01*
X129033005Y-85056381D01*
X129040275Y-85129887D01*
X129032359Y-85203554D01*
X129008611Y-85261712D01*
X128969354Y-85299515D01*
X128914911Y-85312116D01*
X128859176Y-85299515D01*
X128821212Y-85261712D01*
X128799402Y-85203554D01*
X128792132Y-85129887D01*
X128800048Y-85056381D01*
X128823796Y-84998708D01*
X128863053Y-84961389D01*
X128917496Y-84948950D01*
X128973231Y-84961389D01*
G37*
G36*
X133034373Y-85558104D02*
G01*
X132699510Y-85558104D01*
X132430258Y-85558104D01*
X132206672Y-85558104D01*
X131775008Y-85558104D01*
X130601502Y-85558104D01*
X129809257Y-85558104D01*
X128917496Y-85558104D01*
X128378562Y-85558104D01*
X127716850Y-85558104D01*
X127224443Y-85558104D01*
X126381793Y-85558104D01*
X125778239Y-85558104D01*
X125337528Y-85558104D01*
X124443183Y-85558104D01*
X124109742Y-85558104D01*
X123840490Y-85558104D01*
X123505627Y-85558104D01*
X123632541Y-85135057D01*
X124109742Y-85135057D01*
X124115557Y-85207754D01*
X124133005Y-85270759D01*
X124161276Y-85324233D01*
X124199564Y-85368336D01*
X124247383Y-85402908D01*
X124304249Y-85427787D01*
X124369677Y-85442811D01*
X124443183Y-85447819D01*
X124547868Y-85438126D01*
X124564493Y-85433603D01*
X124741729Y-85433603D01*
X124903279Y-85433603D01*
X124935267Y-85375767D01*
X124966607Y-85323748D01*
X124999564Y-85273990D01*
X125036397Y-85222940D01*
X125068384Y-85266882D01*
X125102310Y-85315994D01*
X125137205Y-85371244D01*
X125172100Y-85433603D01*
X125337528Y-85433603D01*
X125300048Y-85363813D01*
X125250937Y-85282391D01*
X125194071Y-85197738D01*
X125133328Y-85118255D01*
X125329774Y-84826171D01*
X125408611Y-84826171D01*
X125408611Y-84957997D01*
X125546898Y-84957997D01*
X125546898Y-85207431D01*
X125550775Y-85276414D01*
X125562407Y-85330856D01*
X125607641Y-85403877D01*
X125680016Y-85438772D01*
X125778239Y-85447819D01*
X125877108Y-85440065D01*
X125972100Y-85414216D01*
X125950129Y-85277221D01*
X125909418Y-85294023D01*
X125873231Y-85303716D01*
X125837044Y-85308239D01*
X125796333Y-85309532D01*
X125758853Y-85305654D01*
X125730420Y-85290145D01*
X125712326Y-85257835D01*
X125705864Y-85203554D01*
X125705864Y-85135057D01*
X126048352Y-85135057D01*
X126054168Y-85207754D01*
X126071616Y-85270759D01*
X126099887Y-85324233D01*
X126138174Y-85368336D01*
X126185994Y-85402908D01*
X126242859Y-85427787D01*
X126308288Y-85442811D01*
X126381793Y-85447819D01*
X126486478Y-85438126D01*
X126574362Y-85414216D01*
X126552391Y-85278514D01*
X126479370Y-85299192D01*
X126388255Y-85309532D01*
X126317819Y-85300969D01*
X126261599Y-85275283D01*
X126224766Y-85234733D01*
X126212488Y-85181583D01*
X126606672Y-85181583D01*
X126608611Y-85154443D01*
X126609257Y-85122132D01*
X126601502Y-85028577D01*
X126578239Y-84951248D01*
X126539467Y-84890145D01*
X126485760Y-84845988D01*
X126484653Y-84845557D01*
X126735913Y-84845557D01*
X126735913Y-85433603D01*
X126894879Y-85433603D01*
X126894879Y-84956704D01*
X126931712Y-84952827D01*
X126967254Y-84951535D01*
X127046090Y-84989015D01*
X127060630Y-85038449D01*
X127065477Y-85111793D01*
X127065477Y-85433603D01*
X127224443Y-85433603D01*
X127224443Y-85091115D01*
X127221535Y-85031826D01*
X127212811Y-84978029D01*
X127173393Y-84890145D01*
X127097787Y-84833279D01*
X127072259Y-84826171D01*
X127347221Y-84826171D01*
X127347221Y-84957997D01*
X127485509Y-84957997D01*
X127485509Y-85207431D01*
X127489386Y-85276414D01*
X127501018Y-85330856D01*
X127546252Y-85403877D01*
X127618627Y-85438772D01*
X127716850Y-85447819D01*
X127815719Y-85440065D01*
X127910711Y-85414216D01*
X127888740Y-85277221D01*
X127848029Y-85294023D01*
X127811842Y-85303716D01*
X127775654Y-85308239D01*
X127734943Y-85309532D01*
X127697464Y-85305654D01*
X127669031Y-85290145D01*
X127650937Y-85257835D01*
X127644475Y-85203554D01*
X127644475Y-84957997D01*
X127899079Y-84957997D01*
X127899079Y-84826171D01*
X127993425Y-84826171D01*
X127993425Y-84957997D01*
X128161438Y-84957997D01*
X128161438Y-85181583D01*
X128164023Y-85241357D01*
X128171777Y-85294023D01*
X128207318Y-85377383D01*
X128274523Y-85429725D01*
X128321535Y-85443296D01*
X128378562Y-85447819D01*
X128458045Y-85439418D01*
X128550452Y-85407754D01*
X128529774Y-85279806D01*
X128459984Y-85303716D01*
X128406995Y-85309532D01*
X128340436Y-85283037D01*
X128320404Y-85202262D01*
X128320404Y-85128595D01*
X128630582Y-85128595D01*
X128635751Y-85197577D01*
X128651260Y-85259774D01*
X128676300Y-85314540D01*
X128710065Y-85361228D01*
X128751745Y-85399031D01*
X128800533Y-85427141D01*
X128855945Y-85444588D01*
X128917496Y-85450404D01*
X128979047Y-85444588D01*
X129034459Y-85427141D01*
X129083086Y-85399031D01*
X129124281Y-85361228D01*
X129157561Y-85314540D01*
X129182439Y-85259774D01*
X129197948Y-85197577D01*
X129203118Y-85128595D01*
X129197948Y-85060582D01*
X129182439Y-84998708D01*
X129157399Y-84944103D01*
X129123635Y-84897900D01*
X129081955Y-84860743D01*
X129054978Y-84845557D01*
X129320727Y-84845557D01*
X129320727Y-85433603D01*
X129479693Y-85433603D01*
X129479693Y-84956704D01*
X129516527Y-84952827D01*
X129552068Y-84951535D01*
X129630905Y-84989015D01*
X129645444Y-85038449D01*
X129650291Y-85111793D01*
X129650291Y-85433603D01*
X129809257Y-85433603D01*
X129809257Y-85091115D01*
X129806349Y-85031826D01*
X129797625Y-84978029D01*
X129758207Y-84890145D01*
X129682601Y-84833279D01*
X129628643Y-84818255D01*
X129562407Y-84813247D01*
X129491486Y-84815832D01*
X129426058Y-84823586D01*
X129368384Y-84834249D01*
X129320727Y-84845557D01*
X129054978Y-84845557D01*
X129033166Y-84833279D01*
X128978078Y-84816317D01*
X128917496Y-84810662D01*
X128857722Y-84816317D01*
X128802472Y-84833279D01*
X128753199Y-84860743D01*
X128711357Y-84897900D01*
X128677431Y-84944103D01*
X128651906Y-84998708D01*
X128635913Y-85060582D01*
X128630582Y-85128595D01*
X128320404Y-85128595D01*
X128320404Y-84826171D01*
X128213134Y-84826171D01*
X127993425Y-84826171D01*
X127899079Y-84826171D01*
X127644475Y-84826171D01*
X127644475Y-84765428D01*
X130601502Y-84765428D01*
X130775977Y-84765428D01*
X130775977Y-85301777D01*
X130601502Y-85301777D01*
X130601502Y-85433603D01*
X131109418Y-85433603D01*
X131109418Y-85301777D01*
X130936236Y-85301777D01*
X130936236Y-84765428D01*
X131109418Y-84765428D01*
X131109418Y-84721486D01*
X131233489Y-84721486D01*
X131312326Y-84832633D01*
X131393748Y-84771890D01*
X131472585Y-84753796D01*
X131547544Y-84780291D01*
X131577270Y-84855897D01*
X131553360Y-84924394D01*
X131492617Y-84994184D01*
X131454491Y-85031179D01*
X131413780Y-85069790D01*
X131373069Y-85110824D01*
X131334943Y-85155089D01*
X131301341Y-85203069D01*
X131274200Y-85255250D01*
X131256268Y-85312116D01*
X131250291Y-85374152D01*
X131249645Y-85401292D01*
X131252876Y-85433603D01*
X131775008Y-85433603D01*
X131775008Y-85301777D01*
X131431228Y-85301777D01*
X131444798Y-85259128D01*
X131477754Y-85213247D01*
X131519111Y-85169305D01*
X131557884Y-85132472D01*
X131623796Y-85067851D01*
X131652876Y-85032956D01*
X131859015Y-85032956D01*
X131864588Y-85127383D01*
X131881309Y-85210339D01*
X131909176Y-85281826D01*
X131948191Y-85341842D01*
X132016545Y-85402154D01*
X132102705Y-85438341D01*
X132206672Y-85450404D01*
X132277270Y-85446042D01*
X132339144Y-85432956D01*
X132430258Y-85394830D01*
X132390194Y-85269467D01*
X132324927Y-85297900D01*
X132222181Y-85312116D01*
X132129935Y-85293861D01*
X132067738Y-85239095D01*
X132041531Y-85183306D01*
X132025807Y-85113301D01*
X132020565Y-85029079D01*
X132024927Y-84956704D01*
X132038013Y-84897254D01*
X132083247Y-84812601D01*
X132146575Y-84767367D01*
X132219596Y-84753796D01*
X132315880Y-84767367D01*
X132387609Y-84800323D01*
X132428966Y-84673667D01*
X132402472Y-84658158D01*
X132359176Y-84638772D01*
X132299079Y-84622617D01*
X132222181Y-84615509D01*
X132146414Y-84622456D01*
X132076785Y-84643296D01*
X132014750Y-84677544D01*
X131961761Y-84724717D01*
X131918627Y-84784330D01*
X131886155Y-84855897D01*
X131865800Y-84938934D01*
X131859015Y-85032956D01*
X131652876Y-85032956D01*
X131681955Y-84998061D01*
X131723312Y-84923748D01*
X131738821Y-84844265D01*
X131718142Y-84744103D01*
X131662569Y-84672375D01*
X131582439Y-84629725D01*
X131488094Y-84615509D01*
X131420727Y-84621971D01*
X131353037Y-84641357D01*
X131289225Y-84674313D01*
X131233489Y-84721486D01*
X131109418Y-84721486D01*
X131109418Y-84633603D01*
X130601502Y-84633603D01*
X130601502Y-84765428D01*
X127644475Y-84765428D01*
X127644475Y-84651696D01*
X128113619Y-84651696D01*
X128142698Y-84725363D01*
X128213134Y-84752504D01*
X128284216Y-84725363D01*
X128313942Y-84651696D01*
X128284216Y-84576737D01*
X128213134Y-84549596D01*
X128142698Y-84576737D01*
X128113619Y-84651696D01*
X127644475Y-84651696D01*
X127644475Y-84647819D01*
X127485509Y-84673667D01*
X127485509Y-84826171D01*
X127347221Y-84826171D01*
X127072259Y-84826171D01*
X127043829Y-84818255D01*
X126977593Y-84813247D01*
X126906672Y-84815832D01*
X126841244Y-84823586D01*
X126783570Y-84834249D01*
X126735913Y-84845557D01*
X126484653Y-84845557D01*
X126417693Y-84819494D01*
X126335267Y-84810662D01*
X126281632Y-84815832D01*
X126229289Y-84831341D01*
X126180501Y-84857027D01*
X126137528Y-84892730D01*
X126101341Y-84938449D01*
X126072908Y-84994184D01*
X126054491Y-85059774D01*
X126048352Y-85135057D01*
X125705864Y-85135057D01*
X125705864Y-84957997D01*
X125960468Y-84957997D01*
X125960468Y-84826171D01*
X125705864Y-84826171D01*
X125705864Y-84647819D01*
X125546898Y-84673667D01*
X125546898Y-84826171D01*
X125408611Y-84826171D01*
X125329774Y-84826171D01*
X125168223Y-84826171D01*
X125044152Y-85016155D01*
X124909742Y-84826171D01*
X124743021Y-84826171D01*
X124956268Y-85120840D01*
X124897464Y-85197092D01*
X124839305Y-85277868D01*
X124786317Y-85357997D01*
X124741729Y-85433603D01*
X124564493Y-85433603D01*
X124635751Y-85414216D01*
X124613780Y-85278514D01*
X124540759Y-85299192D01*
X124449645Y-85309532D01*
X124379208Y-85300969D01*
X124322989Y-85275283D01*
X124286155Y-85234733D01*
X124273877Y-85181583D01*
X124668061Y-85181583D01*
X124670000Y-85154443D01*
X124670646Y-85122132D01*
X124662892Y-85028577D01*
X124639628Y-84951248D01*
X124600856Y-84890145D01*
X124547150Y-84845988D01*
X124479083Y-84819494D01*
X124396656Y-84810662D01*
X124343021Y-84815832D01*
X124290679Y-84831341D01*
X124241890Y-84857027D01*
X124198918Y-84892730D01*
X124162730Y-84938449D01*
X124134297Y-84994184D01*
X124115880Y-85059774D01*
X124109742Y-85135057D01*
X123632541Y-85135057D01*
X123840490Y-84441896D01*
X124109742Y-84441896D01*
X132430258Y-84441896D01*
X132699510Y-84441896D01*
X133034373Y-85558104D01*
G37*
D13*
%TO.C,J14*%
X187290000Y-115090000D02*
X187290000Y-117910000D01*
X187290000Y-115090000D02*
X188990000Y-113790000D01*
X187290000Y-117910000D02*
X188990000Y-119210000D01*
X188990000Y-113790000D02*
X197710000Y-113790000D01*
X188990000Y-119210000D02*
X197710000Y-119210000D01*
X197710000Y-113790000D02*
X197710000Y-119210000D01*
%TO.C,J4*%
X122790000Y-62000000D02*
X122790000Y-66000000D01*
X123080000Y-60970000D02*
X123080000Y-66990000D01*
X123080000Y-66990000D02*
X133460000Y-66990000D01*
X123660000Y-60970000D02*
X123660000Y-61570000D01*
X123660000Y-61570000D02*
X125260000Y-61570000D01*
X124460000Y-65990000D02*
X124710000Y-65460000D01*
X124460000Y-65990000D02*
X132080000Y-65990000D01*
X124460000Y-66990000D02*
X124460000Y-65990000D01*
X124710000Y-65460000D02*
X131830000Y-65460000D01*
X124710000Y-66990000D02*
X124710000Y-65990000D01*
X125260000Y-61570000D02*
X125260000Y-60970000D01*
X126200000Y-60970000D02*
X126200000Y-61570000D01*
X126200000Y-61570000D02*
X127800000Y-61570000D01*
X127800000Y-61570000D02*
X127800000Y-60970000D01*
X128740000Y-60970000D02*
X128740000Y-61570000D01*
X128740000Y-61570000D02*
X130340000Y-61570000D01*
X130340000Y-61570000D02*
X130340000Y-60970000D01*
X131280000Y-60970000D02*
X131280000Y-61570000D01*
X131280000Y-61570000D02*
X132880000Y-61570000D01*
X131830000Y-65460000D02*
X132080000Y-65990000D01*
X131830000Y-66990000D02*
X131830000Y-65990000D01*
X132080000Y-65990000D02*
X132080000Y-66990000D01*
X132880000Y-61570000D02*
X132880000Y-60970000D01*
X133460000Y-60970000D02*
X123080000Y-60970000D01*
X133460000Y-66990000D02*
X133460000Y-60970000D01*
D12*
%TO.C,kibuzzard-67ED60FC*%
G36*
X147190883Y-87352445D02*
G01*
X147228363Y-87356968D01*
X147228363Y-87496548D01*
X147185714Y-87499779D01*
X147135310Y-87500425D01*
X147055181Y-87482978D01*
X147024163Y-87424173D01*
X147034502Y-87386693D01*
X147062289Y-87364722D01*
X147103000Y-87353737D01*
X147150819Y-87350506D01*
X147190883Y-87352445D01*
G37*
G36*
X146520124Y-87137905D02*
G01*
X146561481Y-87155353D01*
X146561481Y-87486209D01*
X146526586Y-87490086D01*
X146490399Y-87491378D01*
X146432402Y-87478454D01*
X146392822Y-87439682D01*
X146370043Y-87380554D01*
X146362450Y-87306564D01*
X146368912Y-87231281D01*
X146388299Y-87176031D01*
X146421901Y-87142105D01*
X146471013Y-87130797D01*
X146520124Y-87137905D01*
G37*
G36*
X148319586Y-87736074D02*
G01*
X148050334Y-87736074D01*
X147732402Y-87736074D01*
X147123678Y-87736074D01*
X146489106Y-87736074D01*
X145950173Y-87736074D01*
X145466812Y-87736074D01*
X144964066Y-87736074D01*
X144694814Y-87736074D01*
X144658239Y-87614157D01*
X144964066Y-87614157D01*
X145466812Y-87614157D01*
X145466812Y-87482332D01*
X145124324Y-87482332D01*
X145124324Y-87006726D01*
X145565035Y-87006726D01*
X145565035Y-87138551D01*
X145733048Y-87138551D01*
X145733048Y-87362138D01*
X145735633Y-87421911D01*
X145743387Y-87474577D01*
X145778929Y-87557937D01*
X145846134Y-87610280D01*
X145893145Y-87623850D01*
X145950173Y-87628374D01*
X146029656Y-87619973D01*
X146122063Y-87588309D01*
X146101384Y-87460361D01*
X146031594Y-87484270D01*
X145978605Y-87490086D01*
X145912047Y-87463592D01*
X145892014Y-87382816D01*
X145892014Y-87314319D01*
X146200900Y-87314319D01*
X146209013Y-87404787D01*
X146233353Y-87481470D01*
X146273921Y-87544367D01*
X146330284Y-87591037D01*
X146402012Y-87619039D01*
X146489106Y-87628374D01*
X146550496Y-87626112D01*
X146613177Y-87619327D01*
X146671659Y-87608987D01*
X146720447Y-87596063D01*
X146720447Y-87428050D01*
X146867782Y-87428050D01*
X146885875Y-87521750D01*
X146937572Y-87583785D01*
X147018347Y-87618034D01*
X147123678Y-87628374D01*
X147204777Y-87625789D01*
X147277475Y-87618034D01*
X147380867Y-87599941D01*
X147380867Y-87238067D01*
X147367943Y-87135320D01*
X147325294Y-87057776D01*
X147307514Y-87046790D01*
X147572143Y-87046790D01*
X147572143Y-87614157D01*
X147732402Y-87614157D01*
X147732402Y-87163107D01*
X147798315Y-87150829D01*
X147864227Y-87147598D01*
X147899122Y-87148890D01*
X147941772Y-87153414D01*
X147985068Y-87160522D01*
X148021901Y-87168277D01*
X148050334Y-87020942D01*
X148000576Y-87008664D01*
X147945649Y-87000910D01*
X147894599Y-86996386D01*
X147857765Y-86995094D01*
X147774244Y-86998648D01*
X147702030Y-87009311D01*
X147636279Y-87025789D01*
X147572143Y-87046790D01*
X147307514Y-87046790D01*
X147245811Y-87008664D01*
X147189753Y-86995579D01*
X147121093Y-86991217D01*
X147063904Y-86993317D01*
X147008654Y-86999617D01*
X146924647Y-87018357D01*
X146946618Y-87146306D01*
X147014470Y-87130797D01*
X147101707Y-87124335D01*
X147161158Y-87131928D01*
X147199930Y-87154706D01*
X147228363Y-87230312D01*
X147228363Y-87249698D01*
X147176990Y-87241944D01*
X147118509Y-87239359D01*
X147024163Y-87249052D01*
X146944034Y-87280716D01*
X146888460Y-87338874D01*
X146867782Y-87428050D01*
X146720447Y-87428050D01*
X146720447Y-86717226D01*
X146561481Y-86744367D01*
X146561481Y-87020942D01*
X146507200Y-87000910D01*
X146443872Y-86993802D01*
X146370277Y-87003351D01*
X146309749Y-87031999D01*
X146262289Y-87079747D01*
X146228184Y-87144008D01*
X146207721Y-87222199D01*
X146200900Y-87314319D01*
X145892014Y-87314319D01*
X145892014Y-87006726D01*
X145784744Y-87006726D01*
X145565035Y-87006726D01*
X145124324Y-87006726D01*
X145124324Y-86832251D01*
X145685229Y-86832251D01*
X145714308Y-86905918D01*
X145784744Y-86933058D01*
X145855827Y-86905918D01*
X145885552Y-86832251D01*
X145855827Y-86757291D01*
X145784744Y-86730151D01*
X145714308Y-86757291D01*
X145685229Y-86832251D01*
X145124324Y-86832251D01*
X145124324Y-86814157D01*
X144964066Y-86814157D01*
X144964066Y-87614157D01*
X144658239Y-87614157D01*
X144356850Y-86609526D01*
X144694814Y-86609526D01*
X144964066Y-86609526D01*
X148050334Y-86609526D01*
X148319586Y-86609526D01*
X148657550Y-86609526D01*
X148319586Y-87736074D01*
G37*
%TD*%
M02*
