%TF.GenerationSoftware,KiCad,Pcbnew,9.0.0*%
%TF.CreationDate,2025-04-07T10:39:53+02:00*%
%TF.ProjectId,UniBoard-Xiao,556e6942-6f61-4726-942d-5869616f2e6b,rev?*%
%TF.SameCoordinates,Original*%
%TF.FileFunction,Copper,L1,Top*%
%TF.FilePolarity,Positive*%
%FSLAX46Y46*%
G04 Gerber Fmt 4.6, Leading zero omitted, Abs format (unit mm)*
G04 Created by KiCad (PCBNEW 9.0.0) date 2025-04-07 10:39:53*
%MOMM*%
%LPD*%
G01*
G04 APERTURE LIST*
G04 Aperture macros list*
%AMRoundRect*
0 Rectangle with rounded corners*
0 $1 Rounding radius*
0 $2 $3 $4 $5 $6 $7 $8 $9 X,Y pos of 4 corners*
0 Add a 4 corners polygon primitive as box body*
4,1,4,$2,$3,$4,$5,$6,$7,$8,$9,$2,$3,0*
0 Add four circle primitives for the rounded corners*
1,1,$1+$1,$2,$3*
1,1,$1+$1,$4,$5*
1,1,$1+$1,$6,$7*
1,1,$1+$1,$8,$9*
0 Add four rect primitives between the rounded corners*
20,1,$1+$1,$2,$3,$4,$5,0*
20,1,$1+$1,$4,$5,$6,$7,0*
20,1,$1+$1,$6,$7,$8,$9,0*
20,1,$1+$1,$8,$9,$2,$3,0*%
G04 Aperture macros list end*
%TA.AperFunction,ComponentPad*%
%ADD10RoundRect,0.250000X0.600000X0.725000X-0.600000X0.725000X-0.600000X-0.725000X0.600000X-0.725000X0*%
%TD*%
%TA.AperFunction,ComponentPad*%
%ADD11O,1.700000X1.950000*%
%TD*%
%TA.AperFunction,ComponentPad*%
%ADD12RoundRect,0.250000X-0.620000X-0.845000X0.620000X-0.845000X0.620000X0.845000X-0.620000X0.845000X0*%
%TD*%
%TA.AperFunction,ComponentPad*%
%ADD13O,1.740000X2.190000*%
%TD*%
%TA.AperFunction,ComponentPad*%
%ADD14C,0.800000*%
%TD*%
%TA.AperFunction,ComponentPad*%
%ADD15C,6.400000*%
%TD*%
%TA.AperFunction,ComponentPad*%
%ADD16R,2.000000X2.000000*%
%TD*%
%TA.AperFunction,ComponentPad*%
%ADD17C,2.000000*%
%TD*%
%TA.AperFunction,ComponentPad*%
%ADD18R,1.508000X1.508000*%
%TD*%
%TA.AperFunction,ComponentPad*%
%ADD19C,1.508000*%
%TD*%
%TA.AperFunction,ComponentPad*%
%ADD20RoundRect,0.760000X-1.140000X-1.140000X1.140000X-1.140000X1.140000X1.140000X-1.140000X1.140000X0*%
%TD*%
%TA.AperFunction,ComponentPad*%
%ADD21C,4.000000*%
%TD*%
%TA.AperFunction,ComponentPad*%
%ADD22R,1.800000X1.800000*%
%TD*%
%TA.AperFunction,ComponentPad*%
%ADD23O,1.800000X1.800000*%
%TD*%
%TA.AperFunction,SMDPad,CuDef*%
%ADD24RoundRect,0.152400X1.063600X0.609600X-1.063600X0.609600X-1.063600X-0.609600X1.063600X-0.609600X0*%
%TD*%
%TA.AperFunction,ComponentPad*%
%ADD25C,1.524000*%
%TD*%
%TA.AperFunction,SMDPad,CuDef*%
%ADD26RoundRect,0.152400X-1.063600X-0.609600X1.063600X-0.609600X1.063600X0.609600X-1.063600X0.609600X0*%
%TD*%
%TA.AperFunction,ComponentPad*%
%ADD27RoundRect,0.250000X0.620000X0.845000X-0.620000X0.845000X-0.620000X-0.845000X0.620000X-0.845000X0*%
%TD*%
%TA.AperFunction,ComponentPad*%
%ADD28RoundRect,1.500000X1.500000X1.500000X-1.500000X1.500000X-1.500000X-1.500000X1.500000X-1.500000X0*%
%TD*%
%TA.AperFunction,ComponentPad*%
%ADD29C,6.000000*%
%TD*%
%TA.AperFunction,ComponentPad*%
%ADD30R,1.500000X1.500000*%
%TD*%
%TA.AperFunction,ComponentPad*%
%ADD31C,1.500000*%
%TD*%
%TA.AperFunction,ComponentPad*%
%ADD32C,1.803400*%
%TD*%
%TA.AperFunction,ComponentPad*%
%ADD33RoundRect,0.250000X-1.800000X1.330000X-1.800000X-1.330000X1.800000X-1.330000X1.800000X1.330000X0*%
%TD*%
%TA.AperFunction,ComponentPad*%
%ADD34O,4.100000X3.160000*%
%TD*%
%TA.AperFunction,ComponentPad*%
%ADD35RoundRect,0.250000X-0.550000X-0.550000X0.550000X-0.550000X0.550000X0.550000X-0.550000X0.550000X0*%
%TD*%
%TA.AperFunction,ComponentPad*%
%ADD36C,1.600000*%
%TD*%
%TA.AperFunction,Conductor*%
%ADD37C,2.000000*%
%TD*%
%TA.AperFunction,Conductor*%
%ADD38C,1.000000*%
%TD*%
%TA.AperFunction,Conductor*%
%ADD39C,3.000000*%
%TD*%
G04 APERTURE END LIST*
D10*
%TO.P,J11,1,Pin_1*%
%TO.N,+5VP*%
X151500000Y-84074000D03*
D11*
%TO.P,J11,2,Pin_2*%
%TO.N,TX-LIDAR*%
X149000000Y-84074000D03*
%TO.P,J11,3,Pin_3*%
%TO.N,RX-LIDAR*%
X146500000Y-84074000D03*
%TO.P,J11,4,Pin_4*%
%TO.N,GND*%
X144000000Y-84074000D03*
%TO.P,J11,5,Pin_5*%
%TO.N,Lidar_PWM*%
X141500000Y-84074000D03*
%TD*%
D12*
%TO.P,J6,1,Pin_1*%
%TO.N,Net-(J6-Pin_1)*%
X128690000Y-121500000D03*
D13*
%TO.P,J6,2,Pin_2*%
%TO.N,Net-(J6-Pin_2)*%
X131230000Y-121500000D03*
%TO.P,J6,3,Pin_3*%
%TO.N,Net-(J6-Pin_3)*%
X133770000Y-121500000D03*
%TO.P,J6,4,Pin_4*%
%TO.N,Net-(J6-Pin_4)*%
X136310000Y-121500000D03*
%TD*%
D14*
%TO.P,H3,1,1*%
%TO.N,GND*%
X192100000Y-124500000D03*
X192802944Y-122802944D03*
X192802944Y-126197056D03*
X194500000Y-122100000D03*
D15*
X194500000Y-124500000D03*
D14*
X194500000Y-126900000D03*
X196197056Y-122802944D03*
X196197056Y-126197056D03*
X196900000Y-124500000D03*
%TD*%
D16*
%TO.P,U5,1,Vin*%
%TO.N,+24V*%
X180803708Y-84619167D03*
D17*
%TO.P,U5,2,GND*%
%TO.N,GND*%
X183343708Y-84619167D03*
%TO.P,U5,3,Vout*%
%TO.N,+5VP*%
X185883708Y-84619167D03*
%TD*%
D18*
%TO.P,U3,1,GND*%
%TO.N,GND*%
X146610000Y-115350000D03*
D19*
%TO.P,U3,2,VIO*%
%TO.N,+3.3V*%
X149150000Y-115350000D03*
%TO.P,U3,3,M1B*%
%TO.N,Net-(J5-Pin_3)*%
X151690000Y-115350000D03*
%TO.P,U3,4,M1A*%
%TO.N,Net-(J5-Pin_1)*%
X154230000Y-115350000D03*
%TO.P,U3,5,M2A*%
%TO.N,Net-(J5-Pin_2)*%
X156770000Y-115350000D03*
%TO.P,U3,6,M2B*%
%TO.N,Net-(J5-Pin_4)*%
X159310000Y-115350000D03*
%TO.P,U3,7,GND*%
%TO.N,GND*%
X161850000Y-115350000D03*
%TO.P,U3,8,VM*%
%TO.N,+24V*%
X164390000Y-115350000D03*
%TO.P,U3,9,DIR*%
%TO.N,DIR D*%
X146610000Y-102650000D03*
%TO.P,U3,10,STEP*%
%TO.N,STEP D*%
X149150000Y-102650000D03*
%TO.P,U3,11,PDN*%
%TO.N,unconnected-(U3-PDN-Pad11)*%
X151690000Y-102650000D03*
%TO.P,U3,12,UART*%
%TO.N,unconnected-(U3-UART-Pad12)*%
X154230000Y-102650000D03*
%TO.P,U3,13,SPRD*%
%TO.N,unconnected-(U3-SPRD-Pad13)*%
X156770000Y-102650000D03*
%TO.P,U3,14,MS2*%
%TO.N,Net-(U3-MS2)*%
X159310000Y-102650000D03*
%TO.P,U3,15,MS1*%
%TO.N,Net-(U3-MS1)*%
X161850000Y-102650000D03*
%TO.P,U3,16,~{EN}*%
%TO.N,EN*%
X164390000Y-102650000D03*
%TO.P,U3,17,INDEX*%
%TO.N,unconnected-(U3-INDEX-Pad17)*%
X164390000Y-107730000D03*
%TO.P,U3,18,DIAG*%
%TO.N,unconnected-(U3-DIAG-Pad18)*%
X164390000Y-105190000D03*
%TD*%
D20*
%TO.P,J12,1,Pin_1*%
%TO.N,GND*%
X190000000Y-103500000D03*
D21*
%TO.P,J12,2,Pin_2*%
%TO.N,+5VP*%
X195000000Y-103500000D03*
%TD*%
D12*
%TO.P,J1,1,Pin_1*%
%TO.N,TIRETTE*%
X156464000Y-75438000D03*
D13*
%TO.P,J1,2,Pin_2*%
%TO.N,GND*%
X159004000Y-75438000D03*
%TD*%
D22*
%TO.P,D1,1,K*%
%TO.N,Net-(D1-K)*%
X162500000Y-51920000D03*
D23*
%TO.P,D1,2,A*%
%TO.N,+5V*%
X162500000Y-62080000D03*
%TD*%
D16*
%TO.P,C1,1*%
%TO.N,+24V*%
X144500000Y-120132323D03*
D17*
%TO.P,C1,2*%
%TO.N,GND*%
X144500000Y-125132323D03*
%TD*%
D24*
%TO.P,U1,1,GPIO1/D0/A0*%
%TO.N,DIR G*%
X140045000Y-51880000D03*
D25*
X140880000Y-51880000D03*
D24*
%TO.P,U1,2,GPIO2/DA/A1*%
%TO.N,STEP G*%
X140045000Y-54420000D03*
D25*
X140880000Y-54420000D03*
D24*
%TO.P,U1,3,GPIO3/D2/A2*%
%TO.N,DIR D*%
X140045000Y-56960000D03*
D25*
X140880000Y-56960000D03*
D24*
%TO.P,U1,4,GPIO4/D3/A3*%
%TO.N,STEP D*%
X140045000Y-59500000D03*
D25*
X140880000Y-59500000D03*
D24*
%TO.P,U1,5,GPIO5/D4/I2C_SDA*%
%TO.N,SDA*%
X140045000Y-62040000D03*
D25*
X140880000Y-62040000D03*
D24*
%TO.P,U1,6,GPIO9/D5/I2C_SCL*%
%TO.N,SCL*%
X140045000Y-64580000D03*
D25*
X140880000Y-64580000D03*
D24*
%TO.P,U1,7,U0TXD/D6/TX*%
%TO.N,RX-LIDAR*%
X140045000Y-67120000D03*
D25*
X140880000Y-67120000D03*
%TO.P,U1,8,U0RXD/D7/RX*%
%TO.N,TX-LIDAR*%
X156120000Y-67120000D03*
D26*
X156955000Y-67120000D03*
D25*
%TO.P,U1,9,GPIO7/D8/A8/SCK*%
%TO.N,EN*%
X156120000Y-64580000D03*
D26*
X156955000Y-64580000D03*
D25*
%TO.P,U1,10,GPIO8/D9/A9/MISO*%
%TO.N,Lidar_PWM*%
X156120000Y-62040000D03*
D26*
X156955000Y-62040000D03*
D25*
%TO.P,U1,11,GPIO9/D10/A10/MOSI*%
%TO.N,TIRETTE*%
X156120000Y-59500000D03*
D26*
X156955000Y-59500000D03*
D25*
%TO.P,U1,12,VCC_3V3*%
%TO.N,unconnected-(U1-VCC_3V3-Pad12)*%
X156120000Y-56960000D03*
D26*
%TO.N,unconnected-(U1-VCC_3V3-Pad12)_1*%
X156955000Y-56960000D03*
D25*
%TO.P,U1,13,GND*%
%TO.N,GND*%
X156120000Y-54420000D03*
D26*
X156955000Y-54420000D03*
D25*
%TO.P,U1,14,VBUS*%
%TO.N,Net-(D1-K)*%
X156120000Y-51880000D03*
D26*
X156955000Y-51880000D03*
%TD*%
D20*
%TO.P,J13,1,Pin_1*%
%TO.N,GND*%
X190000000Y-110000000D03*
D21*
%TO.P,J13,2,Pin_2*%
%TO.N,+5VP*%
X195000000Y-110000000D03*
%TD*%
D12*
%TO.P,J5,1,Pin_1*%
%TO.N,Net-(J5-Pin_1)*%
X152960000Y-122000000D03*
D13*
%TO.P,J5,2,Pin_2*%
%TO.N,Net-(J5-Pin_2)*%
X155500000Y-122000000D03*
%TO.P,J5,3,Pin_3*%
%TO.N,Net-(J5-Pin_3)*%
X158040000Y-122000000D03*
%TO.P,J5,4,Pin_4*%
%TO.N,Net-(J5-Pin_4)*%
X160580000Y-122000000D03*
%TD*%
D14*
%TO.P,H1,1,1*%
%TO.N,GND*%
X120100000Y-52500000D03*
X120802944Y-50802944D03*
X120802944Y-54197056D03*
X122500000Y-50100000D03*
D15*
X122500000Y-52500000D03*
D14*
X122500000Y-54900000D03*
X124197056Y-50802944D03*
X124197056Y-54197056D03*
X124900000Y-52500000D03*
%TD*%
D27*
%TO.P,J15,1,Pin_1*%
%TO.N,TX-LIDAR*%
X149098000Y-75438000D03*
D13*
%TO.P,J15,2,Pin_2*%
%TO.N,RX-LIDAR*%
X146558000Y-75438000D03*
%TO.P,J15,3,Pin_3*%
%TO.N,+3.3V*%
X144018000Y-75438000D03*
%TO.P,J15,4,Pin_4*%
%TO.N,GND*%
X141478000Y-75438000D03*
%TD*%
D28*
%TO.P,J8,1,Pin_1*%
%TO.N,GND*%
X186100000Y-123500000D03*
D29*
%TO.P,J8,2,Pin_2*%
%TO.N,+BATT*%
X178900000Y-123500000D03*
%TD*%
D12*
%TO.P,J9,1,Pin_1*%
%TO.N,SDA*%
X124460000Y-80000000D03*
D13*
%TO.P,J9,2,Pin_2*%
%TO.N,SCL*%
X127000000Y-80000000D03*
%TO.P,J9,3,Pin_3*%
%TO.N,+3.3V*%
X129540000Y-80000000D03*
%TO.P,J9,4,Pin_4*%
%TO.N,GND*%
X132080000Y-80000000D03*
%TD*%
D14*
%TO.P,H4,1,1*%
%TO.N,GND*%
X120100000Y-124500000D03*
X120802944Y-122802944D03*
X120802944Y-126197056D03*
X122500000Y-122100000D03*
D15*
X122500000Y-124500000D03*
D14*
X122500000Y-126900000D03*
X124197056Y-122802944D03*
X124197056Y-126197056D03*
X124900000Y-124500000D03*
%TD*%
D30*
%TO.P,U6,1,Vin*%
%TO.N,+24V*%
X177960000Y-107000000D03*
D31*
%TO.P,U6,2,GND*%
%TO.N,GND*%
X180500000Y-107000000D03*
%TO.P,U6,3,Vout*%
%TO.N,+5V*%
X183040000Y-107000000D03*
%TD*%
D12*
%TO.P,J10,1,Pin_1*%
%TO.N,SDA*%
X124460000Y-88520000D03*
D13*
%TO.P,J10,2,Pin_2*%
%TO.N,SCL*%
X127000000Y-88520000D03*
%TO.P,J10,3,Pin_3*%
%TO.N,+3.3V*%
X129540000Y-88520000D03*
%TO.P,J10,4,Pin_4*%
%TO.N,GND*%
X132080000Y-88520000D03*
%TD*%
D32*
%TO.P,PS1,1,+VIN(VCC)*%
%TO.N,+24V*%
X170380000Y-51640000D03*
%TO.P,PS1,2,-VIN(GND)*%
%TO.N,GND*%
X175460000Y-51640000D03*
%TO.P,PS1,3,ON/OFF*%
%TO.N,unconnected-(PS1-ON{slash}OFF-Pad3)*%
X185620000Y-51640000D03*
%TO.P,PS1,4,+VOUT*%
%TO.N,+5VP*%
X167840000Y-97360000D03*
%TO.P,PS1,5,-VOUT*%
%TO.N,GND*%
X178000000Y-97360000D03*
%TO.P,PS1,6,TRIM*%
%TO.N,unconnected-(PS1-TRIM-Pad6)*%
X188160000Y-97360000D03*
%TD*%
D30*
%TO.P,U4,1,Vin*%
%TO.N,+24V*%
X172000000Y-109500000D03*
D31*
%TO.P,U4,2,GND*%
%TO.N,GND*%
X172000000Y-106960000D03*
%TO.P,U4,3,Vout*%
%TO.N,+3.3V*%
X172000000Y-104420000D03*
%TD*%
D18*
%TO.P,U2,1,GND*%
%TO.N,GND*%
X122110000Y-115350000D03*
D19*
%TO.P,U2,2,VIO*%
%TO.N,+3.3V*%
X124650000Y-115350000D03*
%TO.P,U2,3,M1B*%
%TO.N,Net-(J6-Pin_3)*%
X127190000Y-115350000D03*
%TO.P,U2,4,M1A*%
%TO.N,Net-(J6-Pin_1)*%
X129730000Y-115350000D03*
%TO.P,U2,5,M2A*%
%TO.N,Net-(J6-Pin_2)*%
X132270000Y-115350000D03*
%TO.P,U2,6,M2B*%
%TO.N,Net-(J6-Pin_4)*%
X134810000Y-115350000D03*
%TO.P,U2,7,GND*%
%TO.N,GND*%
X137350000Y-115350000D03*
%TO.P,U2,8,VM*%
%TO.N,+24V*%
X139890000Y-115350000D03*
%TO.P,U2,9,DIR*%
%TO.N,DIR G*%
X122110000Y-102650000D03*
%TO.P,U2,10,STEP*%
%TO.N,STEP G*%
X124650000Y-102650000D03*
%TO.P,U2,11,PDN*%
%TO.N,unconnected-(U2-PDN-Pad11)*%
X127190000Y-102650000D03*
%TO.P,U2,12,UART*%
%TO.N,unconnected-(U2-UART-Pad12)*%
X129730000Y-102650000D03*
%TO.P,U2,13,SPRD*%
%TO.N,unconnected-(U2-SPRD-Pad13)*%
X132270000Y-102650000D03*
%TO.P,U2,14,MS2*%
%TO.N,Net-(U2-MS2)*%
X134810000Y-102650000D03*
%TO.P,U2,15,MS1*%
%TO.N,Net-(U2-MS1)*%
X137350000Y-102650000D03*
%TO.P,U2,16,~{EN}*%
%TO.N,EN*%
X139890000Y-102650000D03*
%TO.P,U2,17,INDEX*%
%TO.N,unconnected-(U2-INDEX-Pad17)*%
X139890000Y-107730000D03*
%TO.P,U2,18,DIAG*%
%TO.N,unconnected-(U2-DIAG-Pad18)*%
X139890000Y-105190000D03*
%TD*%
D16*
%TO.P,C2,1*%
%TO.N,+24V*%
X169000000Y-120132323D03*
D17*
%TO.P,C2,2*%
%TO.N,GND*%
X169000000Y-125132323D03*
%TD*%
D12*
%TO.P,J7,1,Pin_1*%
%TO.N,SDA*%
X124460000Y-72000000D03*
D13*
%TO.P,J7,2,Pin_2*%
%TO.N,SCL*%
X127000000Y-72000000D03*
%TO.P,J7,3,Pin_3*%
%TO.N,+3.3V*%
X129540000Y-72000000D03*
%TO.P,J7,4,Pin_4*%
%TO.N,GND*%
X132080000Y-72000000D03*
%TD*%
D33*
%TO.P,J3,1,Pin_1*%
%TO.N,+24V*%
X180500000Y-112040000D03*
D34*
%TO.P,J3,2,Pin_2*%
%TO.N,+BATT*%
X180500000Y-116000000D03*
%TD*%
D14*
%TO.P,H2,1,1*%
%TO.N,GND*%
X192100000Y-52500000D03*
X192802944Y-50802944D03*
X192802944Y-54197056D03*
X194500000Y-50100000D03*
D15*
X194500000Y-52500000D03*
D14*
X194500000Y-54900000D03*
X196197056Y-50802944D03*
X196197056Y-54197056D03*
X196900000Y-52500000D03*
%TD*%
D20*
%TO.P,J14,1,Pin_1*%
%TO.N,GND*%
X190000000Y-116500000D03*
D21*
%TO.P,J14,2,Pin_2*%
%TO.N,+5VP*%
X195000000Y-116500000D03*
%TD*%
D12*
%TO.P,J4,1,Pin_1*%
%TO.N,SDA*%
X124460000Y-64000000D03*
D13*
%TO.P,J4,2,Pin_2*%
%TO.N,SCL*%
X127000000Y-64000000D03*
%TO.P,J4,3,Pin_3*%
%TO.N,+3.3V*%
X129540000Y-64000000D03*
%TO.P,J4,4,Pin_4*%
%TO.N,GND*%
X132080000Y-64000000D03*
%TD*%
D35*
%TO.P,SW1,1*%
%TO.N,+3.3V*%
X151638000Y-109461500D03*
D36*
%TO.P,SW1,2*%
X151638000Y-106921500D03*
%TO.P,SW1,3*%
%TO.N,Net-(U3-MS2)*%
X159258000Y-106921500D03*
%TO.P,SW1,4*%
%TO.N,Net-(U3-MS1)*%
X159258000Y-109461500D03*
%TD*%
D35*
%TO.P,SW2,1*%
%TO.N,+3.3V*%
X127254000Y-109474000D03*
D36*
%TO.P,SW2,2*%
X127254000Y-106934000D03*
%TO.P,SW2,3*%
%TO.N,Net-(U2-MS2)*%
X134874000Y-106934000D03*
%TO.P,SW2,4*%
%TO.N,Net-(U2-MS1)*%
X134874000Y-109474000D03*
%TD*%
D37*
%TO.N,+24V*%
X176000000Y-112040000D02*
X167500000Y-112040000D01*
X180500000Y-112040000D02*
X176000000Y-112040000D01*
X177960000Y-107000000D02*
X177960000Y-112040000D01*
X177960000Y-103345000D02*
X180803708Y-100501292D01*
X167500000Y-112040000D02*
X141452000Y-112040000D01*
X180803708Y-100501292D02*
X180803708Y-84619167D01*
X144500000Y-120132323D02*
X141341323Y-120132323D01*
X139890000Y-118681000D02*
X139890000Y-115350000D01*
X169000000Y-120132323D02*
X165852323Y-120132323D01*
X165852323Y-120132323D02*
X164390000Y-118670000D01*
X177960000Y-107000000D02*
X177960000Y-103345000D01*
X164390000Y-112040000D02*
X167500000Y-112040000D01*
X164390000Y-115350000D02*
X164390000Y-112040000D01*
X141341323Y-120132323D02*
X139890000Y-118681000D01*
X172000000Y-112040000D02*
X176000000Y-112040000D01*
X139890000Y-113602000D02*
X139890000Y-115350000D01*
X141452000Y-112040000D02*
X139890000Y-113602000D01*
X177960000Y-112040000D02*
X180500000Y-112040000D01*
X172000000Y-109500000D02*
X172000000Y-112040000D01*
X164390000Y-118670000D02*
X164390000Y-115350000D01*
D38*
%TO.N,Net-(D1-K)*%
X156160000Y-51920000D02*
X156120000Y-51880000D01*
X162500000Y-51920000D02*
X156160000Y-51920000D01*
%TO.N,+5V*%
X162500000Y-62080000D02*
X177650000Y-62080000D01*
X185674000Y-88900000D02*
X185674000Y-104366000D01*
X188500000Y-72930000D02*
X188500000Y-86074000D01*
X188500000Y-86074000D02*
X185674000Y-88900000D01*
X185674000Y-104366000D02*
X183040000Y-107000000D01*
X177650000Y-62080000D02*
X188500000Y-72930000D01*
D39*
%TO.N,+BATT*%
X178900000Y-123500000D02*
X178900000Y-117600000D01*
X178900000Y-117600000D02*
X180500000Y-116000000D01*
X178900000Y-123500000D02*
X179000000Y-123500000D01*
D38*
%TO.N,SCL*%
X127000000Y-88000000D02*
X127000000Y-80000000D01*
X127000000Y-64000000D02*
X127000000Y-72000000D01*
X127000000Y-80000000D02*
X127000000Y-72000000D01*
%TO.N,+3.3V*%
X129540000Y-72000000D02*
X129540000Y-80000000D01*
X129540000Y-80000000D02*
X129540000Y-88000000D01*
X129540000Y-64000000D02*
X129540000Y-72000000D01*
%TO.N,SDA*%
X124460000Y-72000000D02*
X124460000Y-64000000D01*
X124460000Y-88000000D02*
X124460000Y-80000000D01*
X124460000Y-72000000D02*
X124460000Y-80000000D01*
%TO.N,Net-(J5-Pin_4)*%
X159310000Y-118310000D02*
X160580000Y-119580000D01*
X160580000Y-119580000D02*
X160580000Y-122000000D01*
X159310000Y-115350000D02*
X159310000Y-118310000D01*
%TO.N,Net-(J5-Pin_2)*%
X156770000Y-115350000D02*
X156770000Y-118230000D01*
X156770000Y-118230000D02*
X155500000Y-119500000D01*
X155500000Y-119500000D02*
X155500000Y-122000000D01*
%TO.N,Net-(J5-Pin_1)*%
X154230000Y-115350000D02*
X154230000Y-117770000D01*
X154230000Y-117770000D02*
X152960000Y-119040000D01*
X152960000Y-119040000D02*
X152960000Y-122000000D01*
%TO.N,Net-(J6-Pin_4)*%
X136310000Y-120310000D02*
X136310000Y-121730000D01*
X134810000Y-118810000D02*
X136310000Y-120310000D01*
X134810000Y-115350000D02*
X134810000Y-118810000D01*
%TO.N,Net-(J6-Pin_1)*%
X129730000Y-118270000D02*
X128690000Y-119310000D01*
X129730000Y-115350000D02*
X129730000Y-118270000D01*
X128690000Y-119310000D02*
X128690000Y-121730000D01*
%TO.N,Net-(J6-Pin_2)*%
X132270000Y-115350000D02*
X132270000Y-118730000D01*
X132270000Y-118730000D02*
X131230000Y-119770000D01*
X131230000Y-121730000D02*
X131500000Y-121460000D01*
X131230000Y-119770000D02*
X131230000Y-121730000D01*
%TO.N,Net-(U3-MS1)*%
X159258000Y-109461500D02*
X160540500Y-109461500D01*
X160540500Y-109461500D02*
X161850000Y-108152000D01*
X161850000Y-108152000D02*
X161850000Y-102650000D01*
%TO.N,Net-(U3-MS2)*%
X159352500Y-102607500D02*
X159310000Y-102650000D01*
X159258000Y-106921500D02*
X159258000Y-102702000D01*
X159258000Y-102702000D02*
X159310000Y-102650000D01*
%TO.N,Net-(U2-MS1)*%
X134874000Y-109474000D02*
X136144000Y-109474000D01*
X136144000Y-109474000D02*
X137350000Y-108268000D01*
X137350000Y-108268000D02*
X137350000Y-102650000D01*
%TO.N,Net-(U2-MS2)*%
X134810000Y-102650000D02*
X134810000Y-106870000D01*
X134852500Y-102607500D02*
X134810000Y-102650000D01*
X134810000Y-106870000D02*
X134874000Y-106934000D01*
%TO.N,STEP G*%
X124650000Y-102650000D02*
X124621000Y-102650000D01*
X124621000Y-102650000D02*
X122000000Y-100029000D01*
X122000000Y-100029000D02*
X122000000Y-62000000D01*
X129580000Y-54420000D02*
X140045000Y-54420000D01*
X122000000Y-62000000D02*
X129580000Y-54420000D01*
%TO.N,DIR D*%
X146610000Y-101775670D02*
X146610000Y-102650000D01*
X135299000Y-90464670D02*
X135299001Y-90464671D01*
X138112000Y-56960000D02*
X135890000Y-59182000D01*
X140880000Y-56960000D02*
X138112000Y-56960000D01*
X135299001Y-90464671D02*
X136002530Y-91168200D01*
X135299000Y-85515000D02*
X135299001Y-89469729D01*
X135299000Y-59800530D02*
X135299000Y-85515000D01*
X135890000Y-59209530D02*
X135299001Y-59800529D01*
X135299001Y-59800529D02*
X135299000Y-59800530D01*
X135890000Y-59182000D02*
X135890000Y-59209530D01*
X136002530Y-91168200D02*
X146610000Y-101775670D01*
X135299001Y-89469729D02*
X135299000Y-90464670D01*
%TO.N,STEP D*%
X136500000Y-60298000D02*
X137298000Y-59500000D01*
X149150000Y-102650000D02*
X149150000Y-102617200D01*
X137298000Y-59500000D02*
X140045000Y-59500000D01*
X149150000Y-102617200D02*
X136500000Y-89967200D01*
X136500000Y-89967200D02*
X136500000Y-60298000D01*
%TO.N,DIR G*%
X120799001Y-61502529D02*
X130421530Y-51880000D01*
X122174000Y-102586000D02*
X122169400Y-102586000D01*
X122110000Y-102650000D02*
X122174000Y-102586000D01*
X130421530Y-51880000D02*
X140045000Y-51880000D01*
X120799001Y-101215601D02*
X120799001Y-61502529D01*
X122169400Y-102586000D02*
X120799001Y-101215601D01*
%TO.N,+5VP*%
X151500000Y-84074000D02*
X151500000Y-87238000D01*
X151500000Y-87238000D02*
X161622000Y-97360000D01*
X161622000Y-97360000D02*
X167840000Y-97360000D01*
%TO.N,Lidar_PWM*%
X156120000Y-62040000D02*
X152460000Y-62040000D01*
X139500000Y-70500000D02*
X138500000Y-71500000D01*
X138500000Y-81074000D02*
X141500000Y-84074000D01*
X138500000Y-71500000D02*
X138500000Y-81074000D01*
X144000000Y-70500000D02*
X139500000Y-70500000D01*
X152460000Y-62040000D02*
X144000000Y-70500000D01*
%TO.N,TX-LIDAR*%
X150880000Y-67120000D02*
X149098000Y-68902000D01*
X149098000Y-68902000D02*
X149098000Y-75438000D01*
X149098000Y-75438000D02*
X149098000Y-75750000D01*
X149098000Y-75750000D02*
X149000000Y-75848000D01*
X149000000Y-75848000D02*
X149000000Y-84074000D01*
X156120000Y-67120000D02*
X150880000Y-67120000D01*
%TD*%
%TA.AperFunction,Conductor*%
%TO.N,GND*%
G36*
X184566365Y-85488271D02*
G01*
X184586112Y-85486717D01*
X184654489Y-85501081D01*
X184696159Y-85537449D01*
X184739191Y-85596677D01*
X184906198Y-85763684D01*
X185097275Y-85902510D01*
X185196699Y-85953169D01*
X185307711Y-86009733D01*
X185307713Y-86009733D01*
X185307716Y-86009735D01*
X185428120Y-86048856D01*
X185532339Y-86082720D01*
X185765611Y-86119667D01*
X185765616Y-86119667D01*
X186001805Y-86119667D01*
X186235076Y-86082720D01*
X186236578Y-86082232D01*
X186459700Y-86009735D01*
X186670141Y-85902510D01*
X186861218Y-85763684D01*
X187028225Y-85596677D01*
X187167051Y-85405600D01*
X187265015Y-85213333D01*
X187312989Y-85162538D01*
X187380810Y-85145743D01*
X187446945Y-85168280D01*
X187490397Y-85222995D01*
X187499500Y-85269629D01*
X187499500Y-85608217D01*
X187479815Y-85675256D01*
X187463181Y-85695898D01*
X185036220Y-88122859D01*
X185036218Y-88122861D01*
X184971940Y-88187139D01*
X184896859Y-88262219D01*
X184787371Y-88426079D01*
X184787364Y-88426092D01*
X184711950Y-88608160D01*
X184711947Y-88608170D01*
X184673500Y-88801456D01*
X184673500Y-103900217D01*
X184653815Y-103967256D01*
X184637181Y-103987898D01*
X182891647Y-105733431D01*
X182830324Y-105766916D01*
X182823365Y-105768223D01*
X182747176Y-105780290D01*
X182559972Y-105841117D01*
X182384594Y-105930476D01*
X182331493Y-105969057D01*
X182225354Y-106046172D01*
X182225352Y-106046174D01*
X182225351Y-106046174D01*
X182086174Y-106185351D01*
X182086174Y-106185352D01*
X182086172Y-106185354D01*
X182036485Y-106253741D01*
X181970476Y-106344594D01*
X181880204Y-106521764D01*
X181832229Y-106572560D01*
X181764408Y-106589355D01*
X181698274Y-106566818D01*
X181659234Y-106521764D01*
X181569096Y-106344858D01*
X181543678Y-106309873D01*
X181543677Y-106309873D01*
X180982962Y-106870589D01*
X180965925Y-106807007D01*
X180900099Y-106692993D01*
X180807007Y-106599901D01*
X180692993Y-106534075D01*
X180629409Y-106517037D01*
X181190125Y-105956320D01*
X181190125Y-105956319D01*
X181155145Y-105930905D01*
X180979835Y-105841581D01*
X180792705Y-105780778D01*
X180598382Y-105750000D01*
X180401618Y-105750000D01*
X180207294Y-105780778D01*
X180020161Y-105841582D01*
X179844863Y-105930899D01*
X179844859Y-105930902D01*
X179809873Y-105956320D01*
X179809872Y-105956320D01*
X180370590Y-106517037D01*
X180307007Y-106534075D01*
X180192993Y-106599901D01*
X180099901Y-106692993D01*
X180034075Y-106807007D01*
X180017037Y-106870590D01*
X179496819Y-106350372D01*
X179463334Y-106289049D01*
X179460500Y-106262691D01*
X179460500Y-104017889D01*
X179480185Y-103950850D01*
X179496819Y-103930208D01*
X180715003Y-102712024D01*
X181948225Y-101478802D01*
X182087051Y-101287726D01*
X182194276Y-101077285D01*
X182222295Y-100991051D01*
X182267261Y-100852660D01*
X182304208Y-100619389D01*
X182304208Y-85961391D01*
X182323893Y-85894352D01*
X182376697Y-85848597D01*
X182445855Y-85838653D01*
X182501094Y-85861073D01*
X182557536Y-85902081D01*
X182767905Y-86009269D01*
X182992460Y-86082232D01*
X182992459Y-86082232D01*
X183225656Y-86119167D01*
X183461760Y-86119167D01*
X183694955Y-86082232D01*
X183919510Y-86009269D01*
X184129871Y-85902085D01*
X184129877Y-85902081D01*
X184212812Y-85841825D01*
X184212813Y-85841825D01*
X183629464Y-85258476D01*
X183675282Y-85239499D01*
X183789932Y-85162893D01*
X183887434Y-85065391D01*
X183964040Y-84950741D01*
X183983017Y-84904923D01*
X184566365Y-85488271D01*
G37*
%TD.AperFunction*%
%TA.AperFunction,Conductor*%
G36*
X155331899Y-63047635D02*
G01*
X155357033Y-63050780D01*
X155367973Y-63058227D01*
X155374638Y-63060185D01*
X155387069Y-63069313D01*
X155391338Y-63072877D01*
X155488053Y-63169592D01*
X155553636Y-63208378D01*
X155561344Y-63214813D01*
X155575410Y-63235842D01*
X155592679Y-63254338D01*
X155594508Y-63264394D01*
X155600190Y-63272889D01*
X155600654Y-63298185D01*
X155605182Y-63323079D01*
X155601284Y-63332526D01*
X155601472Y-63342747D01*
X155588184Y-63364281D01*
X155578536Y-63387669D01*
X155568257Y-63396575D01*
X155564782Y-63402208D01*
X155558017Y-63405448D01*
X155544996Y-63416732D01*
X155488053Y-63450408D01*
X155488046Y-63450413D01*
X155391854Y-63546604D01*
X155377061Y-63559239D01*
X155297536Y-63617018D01*
X155157021Y-63757533D01*
X155040213Y-63918305D01*
X154949994Y-64095367D01*
X154949993Y-64095370D01*
X154888587Y-64284362D01*
X154857500Y-64480639D01*
X154857500Y-64679360D01*
X154888587Y-64875637D01*
X154949993Y-65064629D01*
X154949994Y-65064632D01*
X155029350Y-65220375D01*
X155040213Y-65241694D01*
X155157019Y-65402464D01*
X155157021Y-65402466D01*
X155297539Y-65542984D01*
X155377060Y-65600758D01*
X155383824Y-65606039D01*
X155387998Y-65609537D01*
X155488053Y-65709592D01*
X155553737Y-65748437D01*
X155561522Y-65754962D01*
X155575488Y-65775926D01*
X155592679Y-65794338D01*
X155594528Y-65804506D01*
X155600260Y-65813110D01*
X155600674Y-65838297D01*
X155605182Y-65863079D01*
X155601239Y-65872634D01*
X155601410Y-65882970D01*
X155588143Y-65904381D01*
X155578536Y-65927669D01*
X155568122Y-65936692D01*
X155564609Y-65942363D01*
X155557871Y-65945575D01*
X155544996Y-65956732D01*
X155488053Y-65990408D01*
X155488051Y-65990409D01*
X155395278Y-66083182D01*
X155333954Y-66116666D01*
X155307597Y-66119500D01*
X150984675Y-66119500D01*
X150984655Y-66119499D01*
X150978541Y-66119499D01*
X150781460Y-66119499D01*
X150781457Y-66119499D01*
X150588172Y-66157946D01*
X150588164Y-66157948D01*
X150406088Y-66233366D01*
X150406079Y-66233371D01*
X150242219Y-66342859D01*
X150242215Y-66342862D01*
X148803385Y-67781694D01*
X148460220Y-68124859D01*
X148460218Y-68124861D01*
X148390538Y-68194540D01*
X148320859Y-68264219D01*
X148211371Y-68428079D01*
X148211364Y-68428092D01*
X148135950Y-68610160D01*
X148135947Y-68610170D01*
X148097500Y-68803456D01*
X148097500Y-73876705D01*
X148077815Y-73943744D01*
X148038599Y-73982242D01*
X148009347Y-74000285D01*
X148009343Y-74000288D01*
X147885289Y-74124342D01*
X147793179Y-74273677D01*
X147792861Y-74274360D01*
X147792518Y-74274748D01*
X147789395Y-74279813D01*
X147788529Y-74279278D01*
X147746683Y-74326794D01*
X147679487Y-74345939D01*
X147612608Y-74325716D01*
X147592804Y-74309624D01*
X147450823Y-74167643D01*
X147450821Y-74167641D01*
X147276299Y-74040843D01*
X147084089Y-73942908D01*
X146878926Y-73876246D01*
X146878924Y-73876245D01*
X146878922Y-73876245D01*
X146665866Y-73842500D01*
X146665861Y-73842500D01*
X146450139Y-73842500D01*
X146450134Y-73842500D01*
X146237077Y-73876245D01*
X146031908Y-73942909D01*
X145839700Y-74040843D01*
X145740129Y-74113186D01*
X145665179Y-74167641D01*
X145665177Y-74167643D01*
X145665176Y-74167643D01*
X145512643Y-74320176D01*
X145512643Y-74320177D01*
X145512641Y-74320179D01*
X145435729Y-74426038D01*
X145388318Y-74491294D01*
X145332988Y-74533959D01*
X145263374Y-74539938D01*
X145201579Y-74507332D01*
X145187682Y-74491294D01*
X145165435Y-74460674D01*
X145063359Y-74320179D01*
X144910821Y-74167641D01*
X144736299Y-74040843D01*
X144544089Y-73942908D01*
X144338926Y-73876246D01*
X144338924Y-73876245D01*
X144338922Y-73876245D01*
X144125866Y-73842500D01*
X144125861Y-73842500D01*
X143910139Y-73842500D01*
X143910134Y-73842500D01*
X143697077Y-73876245D01*
X143491908Y-73942909D01*
X143299700Y-74040843D01*
X143200129Y-74113186D01*
X143125179Y-74167641D01*
X143125177Y-74167643D01*
X143125176Y-74167643D01*
X142972642Y-74320177D01*
X142848008Y-74491720D01*
X142792677Y-74534385D01*
X142723064Y-74540364D01*
X142661269Y-74507758D01*
X142647372Y-74491720D01*
X142522974Y-74320503D01*
X142522974Y-74320502D01*
X142370497Y-74168025D01*
X142196036Y-74041271D01*
X142003899Y-73943372D01*
X141798805Y-73876733D01*
X141728000Y-73865518D01*
X141728000Y-74895290D01*
X141707661Y-74883548D01*
X141556333Y-74843000D01*
X141399667Y-74843000D01*
X141248339Y-74883548D01*
X141228000Y-74895290D01*
X141228000Y-73865518D01*
X141227999Y-73865518D01*
X141157194Y-73876733D01*
X140952100Y-73943372D01*
X140759963Y-74041271D01*
X140585503Y-74168025D01*
X140585502Y-74168025D01*
X140433025Y-74320502D01*
X140433025Y-74320503D01*
X140306271Y-74494963D01*
X140208372Y-74687098D01*
X140141734Y-74892190D01*
X140108000Y-75105179D01*
X140108000Y-75188000D01*
X140935291Y-75188000D01*
X140923548Y-75208339D01*
X140883000Y-75359667D01*
X140883000Y-75516333D01*
X140923548Y-75667661D01*
X140935291Y-75688000D01*
X140108000Y-75688000D01*
X140108000Y-75770820D01*
X140141734Y-75983809D01*
X140208372Y-76188901D01*
X140306271Y-76381036D01*
X140433025Y-76555496D01*
X140433025Y-76555497D01*
X140585502Y-76707974D01*
X140759963Y-76834728D01*
X140952098Y-76932627D01*
X141157190Y-76999266D01*
X141228000Y-77010481D01*
X141228000Y-75980709D01*
X141248339Y-75992452D01*
X141399667Y-76033000D01*
X141556333Y-76033000D01*
X141707661Y-75992452D01*
X141728000Y-75980709D01*
X141728000Y-77010480D01*
X141798809Y-76999266D01*
X142003901Y-76932627D01*
X142196036Y-76834728D01*
X142370496Y-76707974D01*
X142370497Y-76707974D01*
X142522974Y-76555497D01*
X142522979Y-76555491D01*
X142647372Y-76384280D01*
X142702702Y-76341614D01*
X142772315Y-76335635D01*
X142834110Y-76368241D01*
X142848008Y-76384279D01*
X142972641Y-76555821D01*
X143125179Y-76708359D01*
X143299701Y-76835157D01*
X143491911Y-76933092D01*
X143697074Y-76999754D01*
X143764796Y-77010480D01*
X143910134Y-77033500D01*
X143910139Y-77033500D01*
X144125866Y-77033500D01*
X144244230Y-77014752D01*
X144338926Y-76999754D01*
X144544089Y-76933092D01*
X144736299Y-76835157D01*
X144910821Y-76708359D01*
X145063359Y-76555821D01*
X145187682Y-76384704D01*
X145243012Y-76342040D01*
X145312626Y-76336061D01*
X145374420Y-76368667D01*
X145388315Y-76384702D01*
X145512641Y-76555821D01*
X145665179Y-76708359D01*
X145839701Y-76835157D01*
X146031911Y-76933092D01*
X146237074Y-76999754D01*
X146304796Y-77010480D01*
X146450134Y-77033500D01*
X146450139Y-77033500D01*
X146665866Y-77033500D01*
X146784230Y-77014752D01*
X146878926Y-76999754D01*
X147084089Y-76933092D01*
X147276299Y-76835157D01*
X147450821Y-76708359D01*
X147592807Y-76566372D01*
X147654126Y-76532890D01*
X147723818Y-76537874D01*
X147779752Y-76579745D01*
X147792864Y-76601645D01*
X147793181Y-76602326D01*
X147793186Y-76602334D01*
X147858582Y-76708359D01*
X147885289Y-76751657D01*
X147963181Y-76829549D01*
X147996666Y-76890872D01*
X147999500Y-76917230D01*
X147999500Y-82988800D01*
X147993474Y-83009321D01*
X147992216Y-83030672D01*
X147982069Y-83048162D01*
X147979815Y-83055839D01*
X147975692Y-83061859D01*
X147971510Y-83067593D01*
X147969896Y-83069208D01*
X147850319Y-83233793D01*
X147850192Y-83233967D01*
X147822518Y-83255229D01*
X147794989Y-83276459D01*
X147794876Y-83276468D01*
X147794788Y-83276537D01*
X147760086Y-83279456D01*
X147725375Y-83282438D01*
X147725275Y-83282385D01*
X147725164Y-83282395D01*
X147694611Y-83266206D01*
X147663580Y-83249833D01*
X147663468Y-83249704D01*
X147663426Y-83249682D01*
X147663383Y-83249605D01*
X147649682Y-83233793D01*
X147530109Y-83069214D01*
X147530105Y-83069209D01*
X147379786Y-82918890D01*
X147207820Y-82793951D01*
X147018414Y-82697444D01*
X147018413Y-82697443D01*
X147018412Y-82697443D01*
X146816243Y-82631754D01*
X146816241Y-82631753D01*
X146816240Y-82631753D01*
X146654957Y-82606208D01*
X146606287Y-82598500D01*
X146393713Y-82598500D01*
X146345042Y-82606208D01*
X146183760Y-82631753D01*
X145981585Y-82697444D01*
X145792179Y-82793951D01*
X145620213Y-82918890D01*
X145469894Y-83069209D01*
X145469890Y-83069214D01*
X145350008Y-83234218D01*
X145294678Y-83276884D01*
X145225065Y-83282863D01*
X145163270Y-83250257D01*
X145149372Y-83234218D01*
X145029727Y-83069540D01*
X145029723Y-83069535D01*
X144879464Y-82919276D01*
X144879459Y-82919272D01*
X144707557Y-82794379D01*
X144518215Y-82697903D01*
X144316124Y-82632241D01*
X144250000Y-82621768D01*
X144250000Y-83669854D01*
X144183343Y-83631370D01*
X144062535Y-83599000D01*
X143937465Y-83599000D01*
X143816657Y-83631370D01*
X143750000Y-83669854D01*
X143750000Y-82621768D01*
X143749999Y-82621768D01*
X143683875Y-82632241D01*
X143481784Y-82697903D01*
X143292442Y-82794379D01*
X143120540Y-82919272D01*
X143120535Y-82919276D01*
X142970276Y-83069535D01*
X142970272Y-83069540D01*
X142850627Y-83234218D01*
X142795297Y-83276884D01*
X142725684Y-83282863D01*
X142663889Y-83250257D01*
X142649991Y-83234218D01*
X142530109Y-83069214D01*
X142530105Y-83069209D01*
X142379786Y-82918890D01*
X142207820Y-82793951D01*
X142018414Y-82697444D01*
X142018413Y-82697443D01*
X142018412Y-82697443D01*
X141816243Y-82631754D01*
X141816241Y-82631753D01*
X141816240Y-82631753D01*
X141654957Y-82606208D01*
X141606287Y-82598500D01*
X141606286Y-82598500D01*
X141490783Y-82598500D01*
X141423744Y-82578815D01*
X141403102Y-82562181D01*
X139536819Y-80695898D01*
X139503334Y-80634575D01*
X139500500Y-80608217D01*
X139500500Y-71965782D01*
X139520185Y-71898743D01*
X139536819Y-71878101D01*
X139878102Y-71536819D01*
X139939425Y-71503334D01*
X139965783Y-71500500D01*
X144098542Y-71500500D01*
X144129566Y-71494328D01*
X144195188Y-71481275D01*
X144291836Y-71462051D01*
X144345165Y-71439961D01*
X144473914Y-71386632D01*
X144637782Y-71277139D01*
X144777139Y-71137782D01*
X144777139Y-71137780D01*
X144787347Y-71127573D01*
X144787348Y-71127570D01*
X152838102Y-63076819D01*
X152899425Y-63043334D01*
X152925783Y-63040500D01*
X155307599Y-63040500D01*
X155331899Y-63047635D01*
G37*
%TD.AperFunction*%
%TA.AperFunction,Conductor*%
G36*
X193206467Y-48820185D02*
G01*
X193252222Y-48872989D01*
X193262166Y-48942147D01*
X193233141Y-49005703D01*
X193186881Y-49039061D01*
X192916135Y-49151207D01*
X192916130Y-49151209D01*
X192595537Y-49322570D01*
X192595519Y-49322581D01*
X192293258Y-49524545D01*
X192293254Y-49524548D01*
X192065233Y-49711679D01*
X192065233Y-49711680D01*
X193559301Y-51205748D01*
X193457670Y-51279588D01*
X193279588Y-51457670D01*
X193205748Y-51559301D01*
X191711680Y-50065233D01*
X191711679Y-50065233D01*
X191524548Y-50293254D01*
X191524545Y-50293258D01*
X191322581Y-50595519D01*
X191322570Y-50595537D01*
X191151209Y-50916130D01*
X191151207Y-50916135D01*
X191012086Y-51252002D01*
X190906553Y-51599898D01*
X190906550Y-51599909D01*
X190835632Y-51956443D01*
X190800000Y-52318234D01*
X190800000Y-52681765D01*
X190835632Y-53043556D01*
X190906550Y-53400090D01*
X190906553Y-53400101D01*
X191012086Y-53747997D01*
X191151207Y-54083864D01*
X191151209Y-54083869D01*
X191322570Y-54404462D01*
X191322581Y-54404480D01*
X191524551Y-54706750D01*
X191711678Y-54934765D01*
X191711679Y-54934766D01*
X193205747Y-53440697D01*
X193279588Y-53542330D01*
X193457670Y-53720412D01*
X193559301Y-53794251D01*
X192065232Y-55288319D01*
X192065233Y-55288320D01*
X192293249Y-55475448D01*
X192595519Y-55677418D01*
X192595537Y-55677429D01*
X192916130Y-55848790D01*
X192916135Y-55848792D01*
X193252002Y-55987913D01*
X193599898Y-56093446D01*
X193599909Y-56093449D01*
X193956443Y-56164367D01*
X194318234Y-56200000D01*
X194681766Y-56200000D01*
X195043556Y-56164367D01*
X195400090Y-56093449D01*
X195400101Y-56093446D01*
X195747997Y-55987913D01*
X196083864Y-55848792D01*
X196083869Y-55848790D01*
X196404462Y-55677429D01*
X196404480Y-55677418D01*
X196706736Y-55475457D01*
X196706750Y-55475447D01*
X196934765Y-55288320D01*
X196934766Y-55288319D01*
X195440698Y-53794251D01*
X195542330Y-53720412D01*
X195720412Y-53542330D01*
X195794251Y-53440698D01*
X197288319Y-54934766D01*
X197288320Y-54934765D01*
X197475447Y-54706750D01*
X197475457Y-54706736D01*
X197677418Y-54404480D01*
X197677429Y-54404462D01*
X197848790Y-54083869D01*
X197848792Y-54083864D01*
X197960939Y-53813119D01*
X198004780Y-53758716D01*
X198071074Y-53736651D01*
X198138773Y-53753930D01*
X198186384Y-53805067D01*
X198199500Y-53860572D01*
X198199500Y-123139427D01*
X198179815Y-123206466D01*
X198127011Y-123252221D01*
X198057853Y-123262165D01*
X197994297Y-123233140D01*
X197960939Y-123186880D01*
X197848792Y-122916135D01*
X197848790Y-122916130D01*
X197677429Y-122595537D01*
X197677418Y-122595519D01*
X197475448Y-122293249D01*
X197288320Y-122065233D01*
X197288319Y-122065232D01*
X195794251Y-123559301D01*
X195720412Y-123457670D01*
X195542330Y-123279588D01*
X195440698Y-123205748D01*
X196934766Y-121711679D01*
X196934765Y-121711678D01*
X196706750Y-121524551D01*
X196404480Y-121322581D01*
X196404462Y-121322570D01*
X196083869Y-121151209D01*
X196083864Y-121151207D01*
X195747997Y-121012086D01*
X195400101Y-120906553D01*
X195400090Y-120906550D01*
X195043556Y-120835632D01*
X194681766Y-120800000D01*
X194318234Y-120800000D01*
X193956443Y-120835632D01*
X193599909Y-120906550D01*
X193599898Y-120906553D01*
X193252002Y-121012086D01*
X192916135Y-121151207D01*
X192916130Y-121151209D01*
X192595537Y-121322570D01*
X192595519Y-121322581D01*
X192293258Y-121524545D01*
X192293254Y-121524548D01*
X192065233Y-121711679D01*
X192065233Y-121711680D01*
X193559301Y-123205748D01*
X193457670Y-123279588D01*
X193279588Y-123457670D01*
X193205748Y-123559301D01*
X191711680Y-122065233D01*
X191711679Y-122065233D01*
X191524548Y-122293254D01*
X191524545Y-122293258D01*
X191322581Y-122595519D01*
X191322570Y-122595537D01*
X191151209Y-122916130D01*
X191151207Y-122916135D01*
X191012086Y-123252002D01*
X190906553Y-123599898D01*
X190906550Y-123599909D01*
X190835632Y-123956443D01*
X190800000Y-124318234D01*
X190800000Y-124681765D01*
X190835632Y-125043556D01*
X190906550Y-125400090D01*
X190906553Y-125400101D01*
X191012086Y-125747997D01*
X191151207Y-126083864D01*
X191151209Y-126083869D01*
X191322570Y-126404462D01*
X191322581Y-126404480D01*
X191524551Y-126706750D01*
X191711678Y-126934765D01*
X191711679Y-126934766D01*
X193205747Y-125440697D01*
X193279588Y-125542330D01*
X193457670Y-125720412D01*
X193559301Y-125794251D01*
X192065232Y-127288319D01*
X192065233Y-127288320D01*
X192293249Y-127475448D01*
X192595519Y-127677418D01*
X192595537Y-127677429D01*
X192916130Y-127848790D01*
X192916135Y-127848792D01*
X193186881Y-127960939D01*
X193241284Y-128004780D01*
X193263349Y-128071074D01*
X193246070Y-128138773D01*
X193194933Y-128186384D01*
X193139428Y-128199500D01*
X123860572Y-128199500D01*
X123793533Y-128179815D01*
X123747778Y-128127011D01*
X123737834Y-128057853D01*
X123766859Y-127994297D01*
X123813119Y-127960939D01*
X124083864Y-127848792D01*
X124083869Y-127848790D01*
X124404462Y-127677429D01*
X124404480Y-127677418D01*
X124706736Y-127475457D01*
X124706750Y-127475447D01*
X124934765Y-127288320D01*
X124934766Y-127288319D01*
X123440698Y-125794251D01*
X123542330Y-125720412D01*
X123720412Y-125542330D01*
X123794251Y-125440698D01*
X125288319Y-126934766D01*
X125288320Y-126934765D01*
X125475447Y-126706750D01*
X125475457Y-126706736D01*
X125677418Y-126404480D01*
X125677429Y-126404462D01*
X125760382Y-126249269D01*
X125848790Y-126083869D01*
X125848792Y-126083864D01*
X125987913Y-125747997D01*
X126093446Y-125400101D01*
X126093449Y-125400090D01*
X126164367Y-125043557D01*
X126167252Y-125014270D01*
X143000000Y-125014270D01*
X143000000Y-125250375D01*
X143036934Y-125483570D01*
X143109897Y-125708125D01*
X143217087Y-125918497D01*
X143277338Y-126001427D01*
X143277340Y-126001428D01*
X144017037Y-125261731D01*
X144034075Y-125325316D01*
X144099901Y-125439330D01*
X144192993Y-125532422D01*
X144307007Y-125598248D01*
X144370590Y-125615285D01*
X143630893Y-126354981D01*
X143713828Y-126415237D01*
X143924197Y-126522425D01*
X144148752Y-126595388D01*
X144148751Y-126595388D01*
X144381948Y-126632323D01*
X144618052Y-126632323D01*
X144851247Y-126595388D01*
X145075802Y-126522425D01*
X145286163Y-126415241D01*
X145286169Y-126415237D01*
X145369104Y-126354981D01*
X145369105Y-126354981D01*
X144629408Y-125615285D01*
X144692993Y-125598248D01*
X144807007Y-125532422D01*
X144900099Y-125439330D01*
X144965925Y-125325316D01*
X144982962Y-125261732D01*
X145722658Y-126001428D01*
X145722658Y-126001427D01*
X145782914Y-125918492D01*
X145782918Y-125918486D01*
X145890102Y-125708125D01*
X145963065Y-125483570D01*
X146000000Y-125250375D01*
X146000000Y-125014270D01*
X167500000Y-125014270D01*
X167500000Y-125250375D01*
X167536934Y-125483570D01*
X167609897Y-125708125D01*
X167717087Y-125918497D01*
X167777338Y-126001427D01*
X167777340Y-126001428D01*
X168517037Y-125261731D01*
X168534075Y-125325316D01*
X168599901Y-125439330D01*
X168692993Y-125532422D01*
X168807007Y-125598248D01*
X168870590Y-125615285D01*
X168130893Y-126354981D01*
X168213828Y-126415237D01*
X168424197Y-126522425D01*
X168648752Y-126595388D01*
X168648751Y-126595388D01*
X168881948Y-126632323D01*
X169118052Y-126632323D01*
X169351247Y-126595388D01*
X169575802Y-126522425D01*
X169786163Y-126415241D01*
X169786169Y-126415237D01*
X169869104Y-126354981D01*
X169869105Y-126354981D01*
X169129408Y-125615285D01*
X169192993Y-125598248D01*
X169307007Y-125532422D01*
X169400099Y-125439330D01*
X169465925Y-125325316D01*
X169482962Y-125261732D01*
X170222658Y-126001428D01*
X170222658Y-126001427D01*
X170282914Y-125918492D01*
X170282918Y-125918486D01*
X170390102Y-125708125D01*
X170463065Y-125483570D01*
X170500000Y-125250375D01*
X170500000Y-125014270D01*
X170463065Y-124781075D01*
X170390102Y-124556520D01*
X170282914Y-124346151D01*
X170222658Y-124263217D01*
X170222658Y-124263216D01*
X169482962Y-125002913D01*
X169465925Y-124939330D01*
X169400099Y-124825316D01*
X169307007Y-124732224D01*
X169192993Y-124666398D01*
X169129409Y-124649360D01*
X169869105Y-123909663D01*
X169869104Y-123909661D01*
X169786174Y-123849410D01*
X169575802Y-123742220D01*
X169351247Y-123669257D01*
X169351248Y-123669257D01*
X169118052Y-123632323D01*
X168881948Y-123632323D01*
X168648752Y-123669257D01*
X168424197Y-123742220D01*
X168213830Y-123849407D01*
X168130894Y-123909663D01*
X168870591Y-124649360D01*
X168807007Y-124666398D01*
X168692993Y-124732224D01*
X168599901Y-124825316D01*
X168534075Y-124939330D01*
X168517037Y-125002913D01*
X167777340Y-124263217D01*
X167717084Y-124346153D01*
X167609897Y-124556520D01*
X167536934Y-124781075D01*
X167500000Y-125014270D01*
X146000000Y-125014270D01*
X145963065Y-124781075D01*
X145890102Y-124556520D01*
X145782914Y-124346151D01*
X145722658Y-124263217D01*
X145722658Y-124263216D01*
X144982962Y-125002913D01*
X144965925Y-124939330D01*
X144900099Y-124825316D01*
X144807007Y-124732224D01*
X144692993Y-124666398D01*
X144629409Y-124649360D01*
X145369105Y-123909663D01*
X145369104Y-123909662D01*
X145286174Y-123849410D01*
X145075802Y-123742220D01*
X144851247Y-123669257D01*
X144851248Y-123669257D01*
X144618052Y-123632323D01*
X144381948Y-123632323D01*
X144148752Y-123669257D01*
X143924197Y-123742220D01*
X143713830Y-123849407D01*
X143630894Y-123909663D01*
X144370591Y-124649360D01*
X144307007Y-124666398D01*
X144192993Y-124732224D01*
X144099901Y-124825316D01*
X144034075Y-124939330D01*
X144017037Y-125002914D01*
X143277340Y-124263217D01*
X143217084Y-124346153D01*
X143109897Y-124556520D01*
X143036934Y-124781075D01*
X143000000Y-125014270D01*
X126167252Y-125014270D01*
X126168929Y-124997243D01*
X126168929Y-124997242D01*
X126200000Y-124681765D01*
X126200000Y-124318234D01*
X126165612Y-123969076D01*
X126164366Y-123956441D01*
X126093449Y-123599909D01*
X126093446Y-123599898D01*
X125987913Y-123252002D01*
X125848792Y-122916135D01*
X125848790Y-122916130D01*
X125677429Y-122595537D01*
X125677418Y-122595519D01*
X125475448Y-122293249D01*
X125288320Y-122065233D01*
X125288319Y-122065232D01*
X123794251Y-123559300D01*
X123720412Y-123457670D01*
X123542330Y-123279588D01*
X123440698Y-123205748D01*
X124934766Y-121711679D01*
X124934765Y-121711678D01*
X124706750Y-121524551D01*
X124404480Y-121322581D01*
X124404462Y-121322570D01*
X124083869Y-121151209D01*
X124083864Y-121151207D01*
X123747997Y-121012086D01*
X123400101Y-120906553D01*
X123400090Y-120906550D01*
X123043556Y-120835632D01*
X122681766Y-120800000D01*
X122318234Y-120800000D01*
X121956443Y-120835632D01*
X121599909Y-120906550D01*
X121599898Y-120906553D01*
X121252002Y-121012086D01*
X120916135Y-121151207D01*
X120916130Y-121151209D01*
X120595537Y-121322570D01*
X120595519Y-121322581D01*
X120293258Y-121524545D01*
X120293254Y-121524548D01*
X120065233Y-121711679D01*
X120065233Y-121711680D01*
X121559301Y-123205748D01*
X121457670Y-123279588D01*
X121279588Y-123457670D01*
X121205748Y-123559301D01*
X119711680Y-122065233D01*
X119711679Y-122065233D01*
X119524548Y-122293254D01*
X119524545Y-122293258D01*
X119322581Y-122595519D01*
X119322570Y-122595537D01*
X119151209Y-122916130D01*
X119151207Y-122916135D01*
X119039061Y-123186880D01*
X118995220Y-123241283D01*
X118928926Y-123263348D01*
X118861226Y-123246069D01*
X118813616Y-123194931D01*
X118800500Y-123139427D01*
X118800500Y-106831648D01*
X125953500Y-106831648D01*
X125953500Y-107036351D01*
X125985522Y-107238534D01*
X126048781Y-107433223D01*
X126098572Y-107530942D01*
X126141476Y-107615145D01*
X126141715Y-107615613D01*
X126262028Y-107781213D01*
X126262034Y-107781219D01*
X126406781Y-107925966D01*
X126500452Y-107994021D01*
X126543117Y-108049350D01*
X126549096Y-108118963D01*
X126516491Y-108180759D01*
X126466571Y-108212045D01*
X126384666Y-108239186D01*
X126384663Y-108239187D01*
X126235342Y-108331289D01*
X126111289Y-108455342D01*
X126019187Y-108604663D01*
X126019185Y-108604668D01*
X126000023Y-108662497D01*
X125964001Y-108771203D01*
X125964001Y-108771204D01*
X125964000Y-108771204D01*
X125953500Y-108873983D01*
X125953500Y-110074001D01*
X125953501Y-110074018D01*
X125964000Y-110176796D01*
X125964001Y-110176799D01*
X126016191Y-110334297D01*
X126019186Y-110343334D01*
X126111288Y-110492656D01*
X126235344Y-110616712D01*
X126384666Y-110708814D01*
X126551203Y-110763999D01*
X126653991Y-110774500D01*
X127854008Y-110774499D01*
X127956797Y-110763999D01*
X128123334Y-110708814D01*
X128272656Y-110616712D01*
X128396712Y-110492656D01*
X128488814Y-110343334D01*
X128543999Y-110176797D01*
X128554500Y-110074009D01*
X128554499Y-108873992D01*
X128546458Y-108795280D01*
X128543999Y-108771203D01*
X128543998Y-108771200D01*
X128536610Y-108748906D01*
X128488814Y-108604666D01*
X128396712Y-108455344D01*
X128272656Y-108331288D01*
X128161855Y-108262946D01*
X128123336Y-108239187D01*
X128123335Y-108239186D01*
X128123334Y-108239186D01*
X128041427Y-108212044D01*
X127983984Y-108172272D01*
X127957161Y-108107756D01*
X127969476Y-108038980D01*
X128007547Y-107994021D01*
X128101219Y-107925966D01*
X128245966Y-107781219D01*
X128245968Y-107781215D01*
X128245971Y-107781213D01*
X128315001Y-107686200D01*
X128366287Y-107615610D01*
X128459220Y-107433219D01*
X128522477Y-107238534D01*
X128554500Y-107036352D01*
X128554500Y-106831648D01*
X128532539Y-106692993D01*
X128522477Y-106629465D01*
X128467414Y-106460000D01*
X128459220Y-106434781D01*
X128459218Y-106434778D01*
X128459218Y-106434776D01*
X128393021Y-106304859D01*
X128366287Y-106252390D01*
X128317583Y-106185354D01*
X128245971Y-106086786D01*
X128101213Y-105942028D01*
X127935613Y-105821715D01*
X127935612Y-105821714D01*
X127935610Y-105821713D01*
X127854313Y-105780290D01*
X127753223Y-105728781D01*
X127558534Y-105665522D01*
X127383995Y-105637878D01*
X127356352Y-105633500D01*
X127151648Y-105633500D01*
X127127329Y-105637351D01*
X126949465Y-105665522D01*
X126754776Y-105728781D01*
X126572386Y-105821715D01*
X126406786Y-105942028D01*
X126262028Y-106086786D01*
X126141715Y-106252386D01*
X126048781Y-106434776D01*
X125985522Y-106629465D01*
X125953500Y-106831648D01*
X118800500Y-106831648D01*
X118800500Y-101314144D01*
X119798500Y-101314144D01*
X119836948Y-101507430D01*
X119836951Y-101507440D01*
X119912365Y-101689508D01*
X119912372Y-101689521D01*
X120021861Y-101853382D01*
X120021864Y-101853386D01*
X120165538Y-101997060D01*
X120165560Y-101997080D01*
X120819181Y-102650701D01*
X120852666Y-102712024D01*
X120855500Y-102738382D01*
X120855500Y-102748736D01*
X120886389Y-102943763D01*
X120942715Y-103117114D01*
X120947409Y-103131561D01*
X121013422Y-103261117D01*
X121037058Y-103307504D01*
X121153115Y-103467246D01*
X121292753Y-103606884D01*
X121442234Y-103715486D01*
X121452499Y-103722944D01*
X121628439Y-103812591D01*
X121739122Y-103848554D01*
X121816236Y-103873610D01*
X122011264Y-103904500D01*
X122011269Y-103904500D01*
X122208736Y-103904500D01*
X122403763Y-103873610D01*
X122453375Y-103857490D01*
X122591561Y-103812591D01*
X122767501Y-103722944D01*
X122857192Y-103657779D01*
X122927246Y-103606884D01*
X122927248Y-103606881D01*
X122927252Y-103606879D01*
X123066879Y-103467252D01*
X123066881Y-103467248D01*
X123066884Y-103467246D01*
X123182941Y-103307505D01*
X123182943Y-103307502D01*
X123182944Y-103307501D01*
X123269517Y-103137593D01*
X123317490Y-103086800D01*
X123385311Y-103070005D01*
X123451446Y-103092542D01*
X123490482Y-103137593D01*
X123553422Y-103261117D01*
X123577058Y-103307505D01*
X123693115Y-103467246D01*
X123832753Y-103606884D01*
X123982234Y-103715486D01*
X123992499Y-103722944D01*
X124168439Y-103812591D01*
X124279122Y-103848554D01*
X124356236Y-103873610D01*
X124551264Y-103904500D01*
X124551269Y-103904500D01*
X124748736Y-103904500D01*
X124943763Y-103873610D01*
X124993375Y-103857490D01*
X125131561Y-103812591D01*
X125307501Y-103722944D01*
X125397192Y-103657779D01*
X125467246Y-103606884D01*
X125467248Y-103606881D01*
X125467252Y-103606879D01*
X125606879Y-103467252D01*
X125606881Y-103467248D01*
X125606884Y-103467246D01*
X125722941Y-103307505D01*
X125722943Y-103307502D01*
X125722944Y-103307501D01*
X125809517Y-103137593D01*
X125857490Y-103086800D01*
X125925311Y-103070005D01*
X125991446Y-103092542D01*
X126030482Y-103137593D01*
X126093422Y-103261117D01*
X126117058Y-103307505D01*
X126233115Y-103467246D01*
X126372753Y-103606884D01*
X126522234Y-103715486D01*
X126532499Y-103722944D01*
X126708439Y-103812591D01*
X126819122Y-103848554D01*
X126896236Y-103873610D01*
X127091264Y-103904500D01*
X127091269Y-103904500D01*
X127288736Y-103904500D01*
X127483763Y-103873610D01*
X127533375Y-103857490D01*
X127671561Y-103812591D01*
X127847501Y-103722944D01*
X127937192Y-103657779D01*
X128007246Y-103606884D01*
X128007248Y-103606881D01*
X128007252Y-103606879D01*
X128146879Y-103467252D01*
X128146881Y-103467248D01*
X128146884Y-103467246D01*
X128262941Y-103307505D01*
X128262943Y-103307502D01*
X128262944Y-103307501D01*
X128349517Y-103137593D01*
X128397490Y-103086800D01*
X128465311Y-103070005D01*
X128531446Y-103092542D01*
X128570482Y-103137593D01*
X128633422Y-103261117D01*
X128657058Y-103307505D01*
X128773115Y-103467246D01*
X128912753Y-103606884D01*
X129062234Y-103715486D01*
X129072499Y-103722944D01*
X129248439Y-103812591D01*
X129359122Y-103848554D01*
X129436236Y-103873610D01*
X129631264Y-103904500D01*
X129631269Y-103904500D01*
X129828736Y-103904500D01*
X130023763Y-103873610D01*
X130073375Y-103857490D01*
X130211561Y-103812591D01*
X130387501Y-103722944D01*
X130477192Y-103657779D01*
X130547246Y-103606884D01*
X130547248Y-103606881D01*
X130547252Y-103606879D01*
X130686879Y-103467252D01*
X130686881Y-103467248D01*
X130686884Y-103467246D01*
X130802941Y-103307505D01*
X130802943Y-103307502D01*
X130802944Y-103307501D01*
X130889517Y-103137593D01*
X130937490Y-103086800D01*
X131005311Y-103070005D01*
X131071446Y-103092542D01*
X131110482Y-103137593D01*
X131173422Y-103261117D01*
X131197058Y-103307505D01*
X131313115Y-103467246D01*
X131452753Y-103606884D01*
X131602234Y-103715486D01*
X131612499Y-103722944D01*
X131788439Y-103812591D01*
X131899122Y-103848554D01*
X131976236Y-103873610D01*
X132171264Y-103904500D01*
X132171269Y-103904500D01*
X132368736Y-103904500D01*
X132563763Y-103873610D01*
X132613375Y-103857490D01*
X132751561Y-103812591D01*
X132927501Y-103722944D01*
X133017192Y-103657779D01*
X133087246Y-103606884D01*
X133087248Y-103606881D01*
X133087252Y-103606879D01*
X133226879Y-103467252D01*
X133226881Y-103467248D01*
X133226884Y-103467246D01*
X133342941Y-103307505D01*
X133342943Y-103307502D01*
X133342944Y-103307501D01*
X133429517Y-103137593D01*
X133477490Y-103086800D01*
X133545311Y-103070005D01*
X133611446Y-103092542D01*
X133650482Y-103137593D01*
X133737056Y-103307501D01*
X133785818Y-103374617D01*
X133809298Y-103440421D01*
X133809500Y-103447501D01*
X133809500Y-106146326D01*
X133789815Y-106213365D01*
X133785819Y-106219210D01*
X133761713Y-106252389D01*
X133761712Y-106252391D01*
X133668781Y-106434776D01*
X133605522Y-106629465D01*
X133573500Y-106831648D01*
X133573500Y-107036351D01*
X133605522Y-107238534D01*
X133668781Y-107433223D01*
X133718572Y-107530942D01*
X133761476Y-107615145D01*
X133761715Y-107615613D01*
X133882028Y-107781213D01*
X134026786Y-107925971D01*
X134161388Y-108023763D01*
X134192390Y-108046287D01*
X134283840Y-108092883D01*
X134285080Y-108093515D01*
X134335876Y-108141490D01*
X134352671Y-108209311D01*
X134330134Y-108275446D01*
X134285080Y-108314485D01*
X134192386Y-108361715D01*
X134026786Y-108482028D01*
X133882028Y-108626786D01*
X133761715Y-108792386D01*
X133668781Y-108974776D01*
X133605522Y-109169465D01*
X133573500Y-109371648D01*
X133573500Y-109576351D01*
X133605522Y-109778534D01*
X133668781Y-109973223D01*
X133720135Y-110074009D01*
X133755345Y-110143113D01*
X133761715Y-110155613D01*
X133882028Y-110321213D01*
X134026786Y-110465971D01*
X134152359Y-110557203D01*
X134192390Y-110586287D01*
X134308607Y-110645503D01*
X134374776Y-110679218D01*
X134374778Y-110679218D01*
X134374781Y-110679220D01*
X134461984Y-110707554D01*
X134569465Y-110742477D01*
X134659006Y-110756659D01*
X134771648Y-110774500D01*
X134771649Y-110774500D01*
X134976351Y-110774500D01*
X134976352Y-110774500D01*
X135178534Y-110742477D01*
X135373219Y-110679220D01*
X135555610Y-110586287D01*
X135676877Y-110498181D01*
X135742683Y-110474702D01*
X135749762Y-110474500D01*
X136242543Y-110474500D01*
X136305382Y-110462000D01*
X136348285Y-110453466D01*
X136435836Y-110436051D01*
X136489165Y-110413961D01*
X136617914Y-110360632D01*
X136781782Y-110251139D01*
X136921139Y-110111782D01*
X136921139Y-110111780D01*
X136931347Y-110101573D01*
X136931348Y-110101570D01*
X138127140Y-108905781D01*
X138236632Y-108741914D01*
X138312052Y-108559835D01*
X138350501Y-108366540D01*
X138350501Y-108169459D01*
X138350501Y-108164349D01*
X138350500Y-108164323D01*
X138350500Y-103447501D01*
X138370185Y-103380462D01*
X138374165Y-103374638D01*
X138422944Y-103307501D01*
X138509517Y-103137593D01*
X138557490Y-103086800D01*
X138625311Y-103070005D01*
X138691446Y-103092542D01*
X138730482Y-103137593D01*
X138793422Y-103261117D01*
X138817058Y-103307505D01*
X138933115Y-103467246D01*
X139072753Y-103606884D01*
X139222234Y-103715486D01*
X139232499Y-103722944D01*
X139402404Y-103809516D01*
X139453199Y-103857490D01*
X139469994Y-103925311D01*
X139447456Y-103991446D01*
X139402404Y-104030483D01*
X139245321Y-104110522D01*
X139232495Y-104117058D01*
X139072753Y-104233115D01*
X138933115Y-104372753D01*
X138817058Y-104532495D01*
X138727408Y-104708441D01*
X138666389Y-104896236D01*
X138635500Y-105091263D01*
X138635500Y-105288736D01*
X138666389Y-105483763D01*
X138710277Y-105618834D01*
X138727409Y-105671561D01*
X138817056Y-105847501D01*
X138817058Y-105847504D01*
X138933115Y-106007246D01*
X139072753Y-106146884D01*
X139217974Y-106252391D01*
X139232499Y-106262944D01*
X139402404Y-106349516D01*
X139453199Y-106397490D01*
X139469994Y-106465311D01*
X139447456Y-106531446D01*
X139402404Y-106570483D01*
X139351336Y-106596505D01*
X139232495Y-106657058D01*
X139072753Y-106773115D01*
X138933115Y-106912753D01*
X138817058Y-107072495D01*
X138727408Y-107248441D01*
X138666389Y-107436236D01*
X138635500Y-107631263D01*
X138635500Y-107828736D01*
X138666389Y-108023763D01*
X138715964Y-108176336D01*
X138727409Y-108211561D01*
X138806376Y-108366540D01*
X138817058Y-108387504D01*
X138933115Y-108547246D01*
X139072753Y-108686884D01*
X139221950Y-108795280D01*
X139232499Y-108802944D01*
X139408439Y-108892591D01*
X139505116Y-108924003D01*
X139596236Y-108953610D01*
X139791264Y-108984500D01*
X139791269Y-108984500D01*
X139988736Y-108984500D01*
X140183763Y-108953610D01*
X140371561Y-108892591D01*
X140547501Y-108802944D01*
X140637192Y-108737779D01*
X140707246Y-108686884D01*
X140707248Y-108686881D01*
X140707252Y-108686879D01*
X140846879Y-108547252D01*
X140846881Y-108547248D01*
X140846884Y-108547246D01*
X140909544Y-108461000D01*
X140962944Y-108387501D01*
X141052591Y-108211561D01*
X141113610Y-108023763D01*
X141131079Y-107913469D01*
X141144500Y-107828736D01*
X141144500Y-107631263D01*
X141113610Y-107436236D01*
X141075925Y-107320255D01*
X141052591Y-107248439D01*
X140962944Y-107072499D01*
X140955486Y-107062234D01*
X140846884Y-106912753D01*
X140707246Y-106773115D01*
X140547505Y-106657058D01*
X140493351Y-106629465D01*
X140377593Y-106570482D01*
X140326800Y-106522510D01*
X140310005Y-106454689D01*
X140332542Y-106388554D01*
X140377593Y-106349517D01*
X140547501Y-106262944D01*
X140615741Y-106213365D01*
X140707246Y-106146884D01*
X140707248Y-106146881D01*
X140707252Y-106146879D01*
X140846879Y-106007252D01*
X140846881Y-106007248D01*
X140846884Y-106007246D01*
X140920038Y-105906556D01*
X140962944Y-105847501D01*
X141052591Y-105671561D01*
X141113610Y-105483763D01*
X141118836Y-105450770D01*
X141144500Y-105288736D01*
X141144500Y-105091263D01*
X141113610Y-104896236D01*
X141054016Y-104712826D01*
X141052591Y-104708439D01*
X140962944Y-104532499D01*
X140952713Y-104518417D01*
X140846884Y-104372753D01*
X140707246Y-104233115D01*
X140547505Y-104117058D01*
X140541119Y-104113804D01*
X140377593Y-104030482D01*
X140326800Y-103982510D01*
X140310005Y-103914689D01*
X140332542Y-103848554D01*
X140377593Y-103809517D01*
X140547501Y-103722944D01*
X140567912Y-103708114D01*
X140707246Y-103606884D01*
X140707248Y-103606881D01*
X140707252Y-103606879D01*
X140846879Y-103467252D01*
X140846881Y-103467248D01*
X140846884Y-103467246D01*
X140909935Y-103380462D01*
X140962944Y-103307501D01*
X141052591Y-103131561D01*
X141113610Y-102943763D01*
X141127433Y-102856487D01*
X141144500Y-102748736D01*
X141144500Y-102551263D01*
X141113610Y-102356236D01*
X141065268Y-102207456D01*
X141052591Y-102168439D01*
X140962944Y-101992499D01*
X140926376Y-101942167D01*
X140846884Y-101832753D01*
X140707246Y-101693115D01*
X140547504Y-101577058D01*
X140547503Y-101577057D01*
X140547501Y-101577056D01*
X140371561Y-101487409D01*
X140371558Y-101487408D01*
X140183763Y-101426389D01*
X139988736Y-101395500D01*
X139988731Y-101395500D01*
X139791269Y-101395500D01*
X139791264Y-101395500D01*
X139596236Y-101426389D01*
X139408441Y-101487408D01*
X139232495Y-101577058D01*
X139072753Y-101693115D01*
X138933115Y-101832753D01*
X138817058Y-101992495D01*
X138817056Y-101992499D01*
X138730643Y-102162093D01*
X138730485Y-102162403D01*
X138682510Y-102213199D01*
X138614689Y-102229994D01*
X138548554Y-102207456D01*
X138509515Y-102162403D01*
X138422944Y-101992499D01*
X138386376Y-101942167D01*
X138306884Y-101832753D01*
X138167246Y-101693115D01*
X138007504Y-101577058D01*
X138007503Y-101577057D01*
X138007501Y-101577056D01*
X137831561Y-101487409D01*
X137831558Y-101487408D01*
X137643763Y-101426389D01*
X137448736Y-101395500D01*
X137448731Y-101395500D01*
X137251269Y-101395500D01*
X137251264Y-101395500D01*
X137056236Y-101426389D01*
X136868441Y-101487408D01*
X136692495Y-101577058D01*
X136532753Y-101693115D01*
X136393115Y-101832753D01*
X136277058Y-101992495D01*
X136277056Y-101992499D01*
X136190643Y-102162093D01*
X136190485Y-102162403D01*
X136142510Y-102213199D01*
X136074689Y-102229994D01*
X136008554Y-102207456D01*
X135969515Y-102162403D01*
X135882944Y-101992499D01*
X135846376Y-101942167D01*
X135766884Y-101832753D01*
X135627246Y-101693115D01*
X135467504Y-101577058D01*
X135467503Y-101577057D01*
X135467501Y-101577056D01*
X135291561Y-101487409D01*
X135291558Y-101487408D01*
X135103763Y-101426389D01*
X134908736Y-101395500D01*
X134908731Y-101395500D01*
X134711269Y-101395500D01*
X134711264Y-101395500D01*
X134516236Y-101426389D01*
X134328441Y-101487408D01*
X134152495Y-101577058D01*
X133992753Y-101693115D01*
X133853115Y-101832753D01*
X133737058Y-101992495D01*
X133737056Y-101992499D01*
X133650643Y-102162093D01*
X133650485Y-102162403D01*
X133602510Y-102213199D01*
X133534689Y-102229994D01*
X133468554Y-102207456D01*
X133429515Y-102162403D01*
X133342944Y-101992499D01*
X133306376Y-101942167D01*
X133226884Y-101832753D01*
X133087246Y-101693115D01*
X132927504Y-101577058D01*
X132927503Y-101577057D01*
X132927501Y-101577056D01*
X132751561Y-101487409D01*
X132751558Y-101487408D01*
X132563763Y-101426389D01*
X132368736Y-101395500D01*
X132368731Y-101395500D01*
X132171269Y-101395500D01*
X132171264Y-101395500D01*
X131976236Y-101426389D01*
X131788441Y-101487408D01*
X131612495Y-101577058D01*
X131452753Y-101693115D01*
X131313115Y-101832753D01*
X131197058Y-101992495D01*
X131197056Y-101992499D01*
X131110643Y-102162093D01*
X131110485Y-102162403D01*
X131062510Y-102213199D01*
X130994689Y-102229994D01*
X130928554Y-102207456D01*
X130889515Y-102162403D01*
X130802944Y-101992499D01*
X130766376Y-101942167D01*
X130686884Y-101832753D01*
X130547246Y-101693115D01*
X130387504Y-101577058D01*
X130387503Y-101577057D01*
X130387501Y-101577056D01*
X130211561Y-101487409D01*
X130211558Y-101487408D01*
X130023763Y-101426389D01*
X129828736Y-101395500D01*
X129828731Y-101395500D01*
X129631269Y-101395500D01*
X129631264Y-101395500D01*
X129436236Y-101426389D01*
X129248441Y-101487408D01*
X129072495Y-101577058D01*
X128912753Y-101693115D01*
X128773115Y-101832753D01*
X128657058Y-101992495D01*
X128657056Y-101992499D01*
X128570643Y-102162093D01*
X128570485Y-102162403D01*
X128522510Y-102213199D01*
X128454689Y-102229994D01*
X128388554Y-102207456D01*
X128349515Y-102162403D01*
X128262944Y-101992499D01*
X128226376Y-101942167D01*
X128146884Y-101832753D01*
X128007246Y-101693115D01*
X127847504Y-101577058D01*
X127847503Y-101577057D01*
X127847501Y-101577056D01*
X127671561Y-101487409D01*
X127671558Y-101487408D01*
X127483763Y-101426389D01*
X127288736Y-101395500D01*
X127288731Y-101395500D01*
X127091269Y-101395500D01*
X127091264Y-101395500D01*
X126896236Y-101426389D01*
X126708441Y-101487408D01*
X126532495Y-101577058D01*
X126372753Y-101693115D01*
X126233115Y-101832753D01*
X126117058Y-101992495D01*
X126117056Y-101992499D01*
X126030643Y-102162093D01*
X126030485Y-102162403D01*
X125982510Y-102213199D01*
X125914689Y-102229994D01*
X125848554Y-102207456D01*
X125809515Y-102162403D01*
X125722944Y-101992499D01*
X125686376Y-101942167D01*
X125606884Y-101832753D01*
X125467246Y-101693115D01*
X125307504Y-101577058D01*
X125307503Y-101577057D01*
X125307501Y-101577056D01*
X125131561Y-101487409D01*
X125131558Y-101487408D01*
X124943766Y-101426390D01*
X124827364Y-101407953D01*
X124764229Y-101378023D01*
X124759082Y-101373161D01*
X123036819Y-99650898D01*
X123003334Y-99589575D01*
X123000500Y-99563217D01*
X123000500Y-89870786D01*
X123020185Y-89803747D01*
X123072989Y-89757992D01*
X123142147Y-89748048D01*
X123205703Y-89777073D01*
X123230036Y-89805687D01*
X123247288Y-89833656D01*
X123371344Y-89957712D01*
X123520666Y-90049814D01*
X123687203Y-90104999D01*
X123789991Y-90115500D01*
X125130008Y-90115499D01*
X125232797Y-90104999D01*
X125399334Y-90049814D01*
X125548656Y-89957712D01*
X125672712Y-89833656D01*
X125764814Y-89684334D01*
X125764817Y-89684322D01*
X125765129Y-89683657D01*
X125765469Y-89683269D01*
X125768605Y-89678187D01*
X125769473Y-89678722D01*
X125811299Y-89631216D01*
X125878491Y-89612060D01*
X125945373Y-89632272D01*
X125965195Y-89648375D01*
X126107179Y-89790359D01*
X126281701Y-89917157D01*
X126473911Y-90015092D01*
X126679074Y-90081754D01*
X126746796Y-90092480D01*
X126892134Y-90115500D01*
X126892139Y-90115500D01*
X127107866Y-90115500D01*
X127226230Y-90096752D01*
X127320926Y-90081754D01*
X127526089Y-90015092D01*
X127718299Y-89917157D01*
X127892821Y-89790359D01*
X128045359Y-89637821D01*
X128169682Y-89466704D01*
X128225012Y-89424040D01*
X128294626Y-89418061D01*
X128356420Y-89450667D01*
X128370315Y-89466702D01*
X128494641Y-89637821D01*
X128647179Y-89790359D01*
X128821701Y-89917157D01*
X129013911Y-90015092D01*
X129219074Y-90081754D01*
X129286796Y-90092480D01*
X129432134Y-90115500D01*
X129432139Y-90115500D01*
X129647866Y-90115500D01*
X129766230Y-90096752D01*
X129860926Y-90081754D01*
X130066089Y-90015092D01*
X130258299Y-89917157D01*
X130432821Y-89790359D01*
X130585359Y-89637821D01*
X130709991Y-89466279D01*
X130765321Y-89423614D01*
X130834934Y-89417635D01*
X130896729Y-89450241D01*
X130910627Y-89466279D01*
X131035025Y-89637496D01*
X131035025Y-89637497D01*
X131187502Y-89789974D01*
X131361963Y-89916728D01*
X131554098Y-90014627D01*
X131759190Y-90081266D01*
X131830000Y-90092481D01*
X131830000Y-89062709D01*
X131850339Y-89074452D01*
X132001667Y-89115000D01*
X132158333Y-89115000D01*
X132309661Y-89074452D01*
X132330000Y-89062709D01*
X132330000Y-90092480D01*
X132400809Y-90081266D01*
X132605901Y-90014627D01*
X132798036Y-89916728D01*
X132972496Y-89789974D01*
X132972497Y-89789974D01*
X133124974Y-89637497D01*
X133124974Y-89637496D01*
X133251728Y-89463036D01*
X133349627Y-89270901D01*
X133416265Y-89065809D01*
X133450000Y-88852820D01*
X133450000Y-88770000D01*
X132622709Y-88770000D01*
X132634452Y-88749661D01*
X132675000Y-88598333D01*
X132675000Y-88441667D01*
X132634452Y-88290339D01*
X132622709Y-88270000D01*
X133450000Y-88270000D01*
X133450000Y-88187179D01*
X133416265Y-87974190D01*
X133349627Y-87769098D01*
X133251728Y-87576963D01*
X133124974Y-87402503D01*
X133124974Y-87402502D01*
X132972497Y-87250025D01*
X132798036Y-87123271D01*
X132605899Y-87025372D01*
X132400805Y-86958733D01*
X132330000Y-86947518D01*
X132330000Y-87977290D01*
X132309661Y-87965548D01*
X132158333Y-87925000D01*
X132001667Y-87925000D01*
X131850339Y-87965548D01*
X131830000Y-87977290D01*
X131830000Y-86947518D01*
X131829999Y-86947518D01*
X131759194Y-86958733D01*
X131554100Y-87025372D01*
X131361963Y-87123271D01*
X131187503Y-87250025D01*
X131187502Y-87250025D01*
X131035024Y-87402503D01*
X130910627Y-87573720D01*
X130889016Y-87590383D01*
X130869710Y-87609681D01*
X130861746Y-87611411D01*
X130855296Y-87616385D01*
X130828107Y-87618720D01*
X130801433Y-87624516D01*
X130793799Y-87621666D01*
X130785683Y-87622364D01*
X130761542Y-87609626D01*
X130735975Y-87600083D01*
X130727868Y-87591858D01*
X130723888Y-87589758D01*
X130711024Y-87575120D01*
X130710483Y-87574397D01*
X130585359Y-87402179D01*
X130570537Y-87387357D01*
X130565215Y-87380244D01*
X130555991Y-87355496D01*
X130543334Y-87332316D01*
X130541704Y-87317164D01*
X130540814Y-87314774D01*
X130541238Y-87312825D01*
X130540500Y-87305958D01*
X130540500Y-81214042D01*
X130560185Y-81147003D01*
X130576819Y-81126361D01*
X130585359Y-81117821D01*
X130709991Y-80946279D01*
X130765321Y-80903614D01*
X130834934Y-80897635D01*
X130896729Y-80930241D01*
X130910627Y-80946279D01*
X131035025Y-81117496D01*
X131035025Y-81117497D01*
X131187502Y-81269974D01*
X131361963Y-81396728D01*
X131554098Y-81494627D01*
X131759190Y-81561266D01*
X131830000Y-81572481D01*
X131830000Y-80542709D01*
X131850339Y-80554452D01*
X132001667Y-80595000D01*
X132158333Y-80595000D01*
X132309661Y-80554452D01*
X132330000Y-80542709D01*
X132330000Y-81572480D01*
X132400809Y-81561266D01*
X132605901Y-81494627D01*
X132798036Y-81396728D01*
X132972496Y-81269974D01*
X132972497Y-81269974D01*
X133124974Y-81117497D01*
X133124974Y-81117496D01*
X133251728Y-80943036D01*
X133349627Y-80750901D01*
X133416265Y-80545809D01*
X133450000Y-80332820D01*
X133450000Y-80250000D01*
X132622709Y-80250000D01*
X132634452Y-80229661D01*
X132675000Y-80078333D01*
X132675000Y-79921667D01*
X132634452Y-79770339D01*
X132622709Y-79750000D01*
X133450000Y-79750000D01*
X133450000Y-79667179D01*
X133416265Y-79454190D01*
X133349627Y-79249098D01*
X133251728Y-79056963D01*
X133124974Y-78882503D01*
X133124974Y-78882502D01*
X132972497Y-78730025D01*
X132798036Y-78603271D01*
X132605899Y-78505372D01*
X132400805Y-78438733D01*
X132330000Y-78427518D01*
X132330000Y-79457290D01*
X132309661Y-79445548D01*
X132158333Y-79405000D01*
X132001667Y-79405000D01*
X131850339Y-79445548D01*
X131830000Y-79457290D01*
X131830000Y-78427518D01*
X131829999Y-78427518D01*
X131759194Y-78438733D01*
X131554100Y-78505372D01*
X131361963Y-78603271D01*
X131187503Y-78730025D01*
X131187502Y-78730025D01*
X131035024Y-78882503D01*
X130910627Y-79053720D01*
X130889016Y-79070383D01*
X130869710Y-79089681D01*
X130861746Y-79091411D01*
X130855296Y-79096385D01*
X130828107Y-79098720D01*
X130801433Y-79104516D01*
X130793799Y-79101666D01*
X130785683Y-79102364D01*
X130761542Y-79089626D01*
X130735975Y-79080083D01*
X130727868Y-79071858D01*
X130723888Y-79069758D01*
X130711024Y-79055120D01*
X130710483Y-79054397D01*
X130585359Y-78882179D01*
X130570537Y-78867357D01*
X130565215Y-78860244D01*
X130555991Y-78835496D01*
X130543334Y-78812316D01*
X130541704Y-78797164D01*
X130540814Y-78794774D01*
X130541238Y-78792825D01*
X130540500Y-78785958D01*
X130540500Y-73214042D01*
X130560185Y-73147003D01*
X130576819Y-73126361D01*
X130585359Y-73117821D01*
X130709991Y-72946279D01*
X130765321Y-72903614D01*
X130834934Y-72897635D01*
X130896729Y-72930241D01*
X130910627Y-72946279D01*
X131035025Y-73117496D01*
X131035025Y-73117497D01*
X131187502Y-73269974D01*
X131361963Y-73396728D01*
X131554098Y-73494627D01*
X131759190Y-73561266D01*
X131830000Y-73572481D01*
X131830000Y-72542709D01*
X131850339Y-72554452D01*
X132001667Y-72595000D01*
X132158333Y-72595000D01*
X132309661Y-72554452D01*
X132330000Y-72542709D01*
X132330000Y-73572480D01*
X132400809Y-73561266D01*
X132605901Y-73494627D01*
X132798036Y-73396728D01*
X132972496Y-73269974D01*
X132972497Y-73269974D01*
X133124974Y-73117497D01*
X133124974Y-73117496D01*
X133251728Y-72943036D01*
X133349627Y-72750901D01*
X133416265Y-72545809D01*
X133450000Y-72332820D01*
X133450000Y-72250000D01*
X132622709Y-72250000D01*
X132634452Y-72229661D01*
X132675000Y-72078333D01*
X132675000Y-71921667D01*
X132634452Y-71770339D01*
X132622709Y-71750000D01*
X133450000Y-71750000D01*
X133450000Y-71667179D01*
X133416265Y-71454190D01*
X133349627Y-71249098D01*
X133251728Y-71056963D01*
X133124974Y-70882503D01*
X133124974Y-70882502D01*
X132972497Y-70730025D01*
X132798036Y-70603271D01*
X132605899Y-70505372D01*
X132400805Y-70438733D01*
X132330000Y-70427518D01*
X132330000Y-71457290D01*
X132309661Y-71445548D01*
X132158333Y-71405000D01*
X132001667Y-71405000D01*
X131850339Y-71445548D01*
X131830000Y-71457290D01*
X131830000Y-70427518D01*
X131829999Y-70427518D01*
X131759194Y-70438733D01*
X131554100Y-70505372D01*
X131361963Y-70603271D01*
X131187503Y-70730025D01*
X131187502Y-70730025D01*
X131035024Y-70882503D01*
X130910627Y-71053720D01*
X130889016Y-71070383D01*
X130869710Y-71089681D01*
X130861746Y-71091411D01*
X130855296Y-71096385D01*
X130828107Y-71098720D01*
X130801433Y-71104516D01*
X130793799Y-71101666D01*
X130785683Y-71102364D01*
X130761542Y-71089626D01*
X130735975Y-71080083D01*
X130727868Y-71071858D01*
X130723888Y-71069758D01*
X130711024Y-71055120D01*
X130710483Y-71054397D01*
X130585359Y-70882179D01*
X130570537Y-70867357D01*
X130565215Y-70860244D01*
X130555991Y-70835496D01*
X130543334Y-70812316D01*
X130541704Y-70797164D01*
X130540814Y-70794774D01*
X130541238Y-70792825D01*
X130540500Y-70785958D01*
X130540500Y-65214042D01*
X130560185Y-65147003D01*
X130576819Y-65126361D01*
X130585359Y-65117821D01*
X130709991Y-64946279D01*
X130765321Y-64903614D01*
X130834934Y-64897635D01*
X130896729Y-64930241D01*
X130910627Y-64946279D01*
X131035025Y-65117496D01*
X131035025Y-65117497D01*
X131187502Y-65269974D01*
X131361963Y-65396728D01*
X131554098Y-65494627D01*
X131759190Y-65561266D01*
X131830000Y-65572481D01*
X131830000Y-64542709D01*
X131850339Y-64554452D01*
X132001667Y-64595000D01*
X132158333Y-64595000D01*
X132309661Y-64554452D01*
X132330000Y-64542709D01*
X132330000Y-65572480D01*
X132400809Y-65561266D01*
X132605901Y-65494627D01*
X132798036Y-65396728D01*
X132972496Y-65269974D01*
X132972497Y-65269974D01*
X133124974Y-65117497D01*
X133124974Y-65117496D01*
X133251728Y-64943036D01*
X133349627Y-64750901D01*
X133416265Y-64545809D01*
X133450000Y-64332820D01*
X133450000Y-64250000D01*
X132622709Y-64250000D01*
X132634452Y-64229661D01*
X132675000Y-64078333D01*
X132675000Y-63921667D01*
X132634452Y-63770339D01*
X132622709Y-63750000D01*
X133450000Y-63750000D01*
X133450000Y-63667179D01*
X133416265Y-63454190D01*
X133349627Y-63249098D01*
X133251728Y-63056963D01*
X133124974Y-62882503D01*
X133124974Y-62882502D01*
X132972497Y-62730025D01*
X132798036Y-62603271D01*
X132605899Y-62505372D01*
X132400805Y-62438733D01*
X132330000Y-62427518D01*
X132330000Y-63457290D01*
X132309661Y-63445548D01*
X132158333Y-63405000D01*
X132001667Y-63405000D01*
X131850339Y-63445548D01*
X131830000Y-63457290D01*
X131830000Y-62427518D01*
X131829999Y-62427518D01*
X131759194Y-62438733D01*
X131554100Y-62505372D01*
X131361963Y-62603271D01*
X131187503Y-62730025D01*
X131187502Y-62730025D01*
X131035024Y-62882503D01*
X130910627Y-63053720D01*
X130855296Y-63096385D01*
X130785683Y-63102364D01*
X130723888Y-63069758D01*
X130709991Y-63053720D01*
X130585359Y-62882179D01*
X130432821Y-62729641D01*
X130258299Y-62602843D01*
X130066089Y-62504908D01*
X129860926Y-62438246D01*
X129860924Y-62438245D01*
X129860922Y-62438245D01*
X129647866Y-62404500D01*
X129647861Y-62404500D01*
X129432139Y-62404500D01*
X129432134Y-62404500D01*
X129219077Y-62438245D01*
X129013908Y-62504909D01*
X128821700Y-62602843D01*
X128757878Y-62649213D01*
X128647179Y-62729641D01*
X128647177Y-62729643D01*
X128647176Y-62729643D01*
X128494643Y-62882176D01*
X128494643Y-62882177D01*
X128494641Y-62882179D01*
X128473735Y-62910954D01*
X128370318Y-63053294D01*
X128314988Y-63095959D01*
X128245374Y-63101938D01*
X128183579Y-63069332D01*
X128169682Y-63053294D01*
X128133127Y-63002981D01*
X128045359Y-62882179D01*
X127892821Y-62729641D01*
X127718299Y-62602843D01*
X127526089Y-62504908D01*
X127320926Y-62438246D01*
X127320924Y-62438245D01*
X127320922Y-62438245D01*
X127107866Y-62404500D01*
X127107861Y-62404500D01*
X126892139Y-62404500D01*
X126892134Y-62404500D01*
X126679077Y-62438245D01*
X126473908Y-62504909D01*
X126281700Y-62602843D01*
X126107180Y-62729640D01*
X125965195Y-62871625D01*
X125903872Y-62905109D01*
X125834180Y-62900125D01*
X125778247Y-62858253D01*
X125765132Y-62836348D01*
X125764815Y-62835669D01*
X125764814Y-62835668D01*
X125764814Y-62835666D01*
X125672712Y-62686344D01*
X125548656Y-62562288D01*
X125399334Y-62470186D01*
X125232797Y-62415001D01*
X125232795Y-62415000D01*
X125130010Y-62404500D01*
X123789998Y-62404500D01*
X123789981Y-62404501D01*
X123687203Y-62415000D01*
X123687200Y-62415001D01*
X123520668Y-62470185D01*
X123520663Y-62470187D01*
X123371342Y-62562289D01*
X123247289Y-62686342D01*
X123230039Y-62714310D01*
X123178091Y-62761034D01*
X123109128Y-62772257D01*
X123045046Y-62744413D01*
X123006190Y-62686345D01*
X123000500Y-62649213D01*
X123000500Y-62465782D01*
X123020185Y-62398743D01*
X123036819Y-62378101D01*
X129958101Y-55456819D01*
X130019424Y-55423334D01*
X130045782Y-55420500D01*
X138397598Y-55420500D01*
X138421900Y-55427636D01*
X138447032Y-55430780D01*
X138457971Y-55438227D01*
X138464637Y-55440185D01*
X138477068Y-55449313D01*
X138481343Y-55452882D01*
X138578053Y-55549592D01*
X138643636Y-55588378D01*
X138651344Y-55594813D01*
X138665411Y-55615843D01*
X138682679Y-55634338D01*
X138684507Y-55644393D01*
X138690190Y-55652888D01*
X138690654Y-55678185D01*
X138695182Y-55703079D01*
X138691284Y-55712526D01*
X138691472Y-55722746D01*
X138678185Y-55744278D01*
X138668536Y-55767669D01*
X138658256Y-55776576D01*
X138654782Y-55782207D01*
X138648020Y-55785446D01*
X138634996Y-55796732D01*
X138578053Y-55830408D01*
X138578047Y-55830412D01*
X138485279Y-55923181D01*
X138458351Y-55937884D01*
X138432533Y-55954477D01*
X138426332Y-55955368D01*
X138423956Y-55956666D01*
X138397598Y-55959500D01*
X138216675Y-55959500D01*
X138216655Y-55959499D01*
X138210541Y-55959499D01*
X138013460Y-55959499D01*
X138013457Y-55959499D01*
X137820172Y-55997946D01*
X137820164Y-55997948D01*
X137638088Y-56073366D01*
X137638079Y-56073371D01*
X137474219Y-56182859D01*
X137474215Y-56182862D01*
X135734100Y-57922979D01*
X135252220Y-58404859D01*
X135252218Y-58404861D01*
X135193898Y-58463181D01*
X135112863Y-58544215D01*
X135064205Y-58617035D01*
X135048785Y-58635823D01*
X134846304Y-58838305D01*
X134661221Y-59023388D01*
X134661218Y-59023391D01*
X134591538Y-59093070D01*
X134521859Y-59162749D01*
X134412371Y-59326610D01*
X134412364Y-59326623D01*
X134381367Y-59401458D01*
X134381367Y-59401461D01*
X134338635Y-59504625D01*
X134337464Y-59507190D01*
X134336949Y-59508693D01*
X134298500Y-59701986D01*
X134298500Y-85416459D01*
X134298501Y-89371187D01*
X134298500Y-90366129D01*
X134298500Y-90563214D01*
X134336947Y-90756498D01*
X134336949Y-90756506D01*
X134377263Y-90853832D01*
X134412368Y-90938585D01*
X134521858Y-91102449D01*
X134521859Y-91102450D01*
X134521860Y-91102451D01*
X134661216Y-91241807D01*
X134668284Y-91248874D01*
X134668290Y-91248880D01*
X135369067Y-91949659D01*
X135369089Y-91949679D01*
X145431108Y-102011698D01*
X145464593Y-102073021D01*
X145459609Y-102142713D01*
X145453914Y-102155669D01*
X145447412Y-102168430D01*
X145447407Y-102168441D01*
X145386389Y-102356235D01*
X145355500Y-102551263D01*
X145355500Y-102748736D01*
X145386389Y-102943763D01*
X145442715Y-103117114D01*
X145447409Y-103131561D01*
X145513422Y-103261117D01*
X145537058Y-103307504D01*
X145653115Y-103467246D01*
X145792753Y-103606884D01*
X145942234Y-103715486D01*
X145952499Y-103722944D01*
X146128439Y-103812591D01*
X146239122Y-103848554D01*
X146316236Y-103873610D01*
X146511264Y-103904500D01*
X146511269Y-103904500D01*
X146708736Y-103904500D01*
X146903763Y-103873610D01*
X146953375Y-103857490D01*
X147091561Y-103812591D01*
X147267501Y-103722944D01*
X147357192Y-103657779D01*
X147427246Y-103606884D01*
X147427248Y-103606881D01*
X147427252Y-103606879D01*
X147566879Y-103467252D01*
X147566881Y-103467248D01*
X147566884Y-103467246D01*
X147682941Y-103307505D01*
X147682943Y-103307502D01*
X147682944Y-103307501D01*
X147769517Y-103137593D01*
X147817490Y-103086800D01*
X147885311Y-103070005D01*
X147951446Y-103092542D01*
X147990482Y-103137593D01*
X148053422Y-103261117D01*
X148077058Y-103307505D01*
X148193115Y-103467246D01*
X148332753Y-103606884D01*
X148482234Y-103715486D01*
X148492499Y-103722944D01*
X148668439Y-103812591D01*
X148779122Y-103848554D01*
X148856236Y-103873610D01*
X149051264Y-103904500D01*
X149051269Y-103904500D01*
X149248736Y-103904500D01*
X149443763Y-103873610D01*
X149493375Y-103857490D01*
X149631561Y-103812591D01*
X149807501Y-103722944D01*
X149897192Y-103657779D01*
X149967246Y-103606884D01*
X149967248Y-103606881D01*
X149967252Y-103606879D01*
X150106879Y-103467252D01*
X150106881Y-103467248D01*
X150106884Y-103467246D01*
X150222941Y-103307505D01*
X150222943Y-103307502D01*
X150222944Y-103307501D01*
X150309517Y-103137593D01*
X150357490Y-103086800D01*
X150425311Y-103070005D01*
X150491446Y-103092542D01*
X150530482Y-103137593D01*
X150593422Y-103261117D01*
X150617058Y-103307505D01*
X150733115Y-103467246D01*
X150872753Y-103606884D01*
X151022234Y-103715486D01*
X151032499Y-103722944D01*
X151208439Y-103812591D01*
X151319122Y-103848554D01*
X151396236Y-103873610D01*
X151591264Y-103904500D01*
X151591269Y-103904500D01*
X151788736Y-103904500D01*
X151983763Y-103873610D01*
X152033375Y-103857490D01*
X152171561Y-103812591D01*
X152347501Y-103722944D01*
X152437192Y-103657779D01*
X152507246Y-103606884D01*
X152507248Y-103606881D01*
X152507252Y-103606879D01*
X152646879Y-103467252D01*
X152646881Y-103467248D01*
X152646884Y-103467246D01*
X152762941Y-103307505D01*
X152762943Y-103307502D01*
X152762944Y-103307501D01*
X152849517Y-103137593D01*
X152897490Y-103086800D01*
X152965311Y-103070005D01*
X153031446Y-103092542D01*
X153070482Y-103137593D01*
X153133422Y-103261117D01*
X153157058Y-103307505D01*
X153273115Y-103467246D01*
X153412753Y-103606884D01*
X153562234Y-103715486D01*
X153572499Y-103722944D01*
X153748439Y-103812591D01*
X153859122Y-103848554D01*
X153936236Y-103873610D01*
X154131264Y-103904500D01*
X154131269Y-103904500D01*
X154328736Y-103904500D01*
X154523763Y-103873610D01*
X154573375Y-103857490D01*
X154711561Y-103812591D01*
X154887501Y-103722944D01*
X154977192Y-103657779D01*
X155047246Y-103606884D01*
X155047248Y-103606881D01*
X155047252Y-103606879D01*
X155186879Y-103467252D01*
X155186881Y-103467248D01*
X155186884Y-103467246D01*
X155302941Y-103307505D01*
X155302943Y-103307502D01*
X155302944Y-103307501D01*
X155389517Y-103137593D01*
X155437490Y-103086800D01*
X155505311Y-103070005D01*
X155571446Y-103092542D01*
X155610482Y-103137593D01*
X155673422Y-103261117D01*
X155697058Y-103307505D01*
X155813115Y-103467246D01*
X155952753Y-103606884D01*
X156102234Y-103715486D01*
X156112499Y-103722944D01*
X156288439Y-103812591D01*
X156399122Y-103848554D01*
X156476236Y-103873610D01*
X156671264Y-103904500D01*
X156671269Y-103904500D01*
X156868736Y-103904500D01*
X157063763Y-103873610D01*
X157113375Y-103857490D01*
X157251561Y-103812591D01*
X157427501Y-103722944D01*
X157517192Y-103657779D01*
X157587246Y-103606884D01*
X157587248Y-103606881D01*
X157587252Y-103606879D01*
X157726879Y-103467252D01*
X157726881Y-103467248D01*
X157726884Y-103467246D01*
X157842943Y-103307502D01*
X157842944Y-103307501D01*
X157929517Y-103137593D01*
X157938012Y-103128598D01*
X157942627Y-103117114D01*
X157961549Y-103103675D01*
X157977488Y-103086800D01*
X157989504Y-103083824D01*
X157999594Y-103076659D01*
X158022778Y-103075584D01*
X158045309Y-103070005D01*
X158057023Y-103073997D01*
X158069389Y-103073424D01*
X158089475Y-103085055D01*
X158111444Y-103092542D01*
X158120613Y-103103087D01*
X158129852Y-103108437D01*
X158149885Y-103136750D01*
X158150288Y-103137213D01*
X158150390Y-103137412D01*
X158237056Y-103307501D01*
X158239596Y-103310997D01*
X158243789Y-103319156D01*
X158248593Y-103344258D01*
X158257500Y-103375834D01*
X158257500Y-106045737D01*
X158237815Y-106112776D01*
X158233818Y-106118622D01*
X158145715Y-106239886D01*
X158052781Y-106422276D01*
X157989522Y-106616965D01*
X157957500Y-106819148D01*
X157957500Y-107023851D01*
X157989522Y-107226034D01*
X158052781Y-107420723D01*
X158108943Y-107530945D01*
X158144128Y-107600000D01*
X158145715Y-107603113D01*
X158266028Y-107768713D01*
X158410786Y-107913471D01*
X158534948Y-108003678D01*
X158576390Y-108033787D01*
X158644477Y-108068479D01*
X158669080Y-108081015D01*
X158719876Y-108128990D01*
X158736671Y-108196811D01*
X158714134Y-108262946D01*
X158669080Y-108301985D01*
X158576386Y-108349215D01*
X158410786Y-108469528D01*
X158266028Y-108614286D01*
X158145715Y-108779886D01*
X158052781Y-108962276D01*
X157989522Y-109156965D01*
X157957500Y-109359148D01*
X157957500Y-109563851D01*
X157989522Y-109766034D01*
X158052781Y-109960723D01*
X158104135Y-110061509D01*
X158126930Y-110106247D01*
X158145715Y-110143113D01*
X158266028Y-110308713D01*
X158285134Y-110327819D01*
X158318619Y-110389142D01*
X158313635Y-110458834D01*
X158271763Y-110514767D01*
X158206299Y-110539184D01*
X158197453Y-110539500D01*
X152966282Y-110539500D01*
X152899243Y-110519815D01*
X152853488Y-110467011D01*
X152843544Y-110397853D01*
X152860744Y-110350403D01*
X152872809Y-110330842D01*
X152872808Y-110330842D01*
X152872814Y-110330834D01*
X152927999Y-110164297D01*
X152938500Y-110061509D01*
X152938499Y-108861492D01*
X152927999Y-108758703D01*
X152872814Y-108592166D01*
X152780712Y-108442844D01*
X152656656Y-108318788D01*
X152553605Y-108255226D01*
X152507336Y-108226687D01*
X152507335Y-108226686D01*
X152507334Y-108226686D01*
X152425427Y-108199544D01*
X152367984Y-108159772D01*
X152341161Y-108095256D01*
X152353476Y-108026480D01*
X152391547Y-107981521D01*
X152485219Y-107913466D01*
X152629966Y-107768719D01*
X152629968Y-107768715D01*
X152629971Y-107768713D01*
X152689920Y-107686199D01*
X152750287Y-107603110D01*
X152843220Y-107420719D01*
X152906477Y-107226034D01*
X152938500Y-107023852D01*
X152938500Y-106819148D01*
X152906477Y-106616966D01*
X152900932Y-106599901D01*
X152857201Y-106465311D01*
X152843220Y-106422281D01*
X152843218Y-106422278D01*
X152843218Y-106422276D01*
X152783390Y-106304859D01*
X152750287Y-106239890D01*
X152731016Y-106213365D01*
X152629971Y-106074286D01*
X152485213Y-105929528D01*
X152319613Y-105809215D01*
X152319612Y-105809214D01*
X152319610Y-105809213D01*
X152236598Y-105766916D01*
X152137223Y-105716281D01*
X151942534Y-105653022D01*
X151767995Y-105625378D01*
X151740352Y-105621000D01*
X151535648Y-105621000D01*
X151511329Y-105624851D01*
X151333465Y-105653022D01*
X151138776Y-105716281D01*
X150956386Y-105809215D01*
X150790786Y-105929528D01*
X150646028Y-106074286D01*
X150525715Y-106239886D01*
X150432781Y-106422276D01*
X150369522Y-106616965D01*
X150337500Y-106819148D01*
X150337500Y-107023851D01*
X150369522Y-107226034D01*
X150432781Y-107420723D01*
X150488943Y-107530945D01*
X150524128Y-107600000D01*
X150525715Y-107603113D01*
X150646028Y-107768713D01*
X150646034Y-107768719D01*
X150790781Y-107913466D01*
X150884452Y-107981521D01*
X150927117Y-108036850D01*
X150933096Y-108106463D01*
X150900491Y-108168259D01*
X150850571Y-108199545D01*
X150768666Y-108226686D01*
X150768663Y-108226687D01*
X150619342Y-108318789D01*
X150495289Y-108442842D01*
X150403187Y-108592163D01*
X150403185Y-108592168D01*
X150384022Y-108650000D01*
X150348001Y-108758703D01*
X150348001Y-108758704D01*
X150348000Y-108758704D01*
X150337500Y-108861483D01*
X150337500Y-110061501D01*
X150337501Y-110061518D01*
X150348000Y-110164296D01*
X150348001Y-110164299D01*
X150403185Y-110330831D01*
X150403190Y-110330842D01*
X150415256Y-110350403D01*
X150433697Y-110417795D01*
X150412775Y-110484458D01*
X150359133Y-110529228D01*
X150309718Y-110539500D01*
X141333904Y-110539500D01*
X141244489Y-110553662D01*
X141222135Y-110557203D01*
X141100631Y-110576447D01*
X140876003Y-110649433D01*
X140665563Y-110756659D01*
X140474496Y-110895476D01*
X140474491Y-110895480D01*
X138745485Y-112624487D01*
X138745484Y-112624488D01*
X138606657Y-112815565D01*
X138503762Y-113017510D01*
X138499432Y-113026007D01*
X138426446Y-113250631D01*
X138389500Y-113483902D01*
X138389500Y-114612691D01*
X138369815Y-114679730D01*
X138353181Y-114700372D01*
X137832962Y-115220590D01*
X137815925Y-115157007D01*
X137750099Y-115042993D01*
X137657007Y-114949901D01*
X137542993Y-114884075D01*
X137479409Y-114867037D01*
X138042989Y-114303457D01*
X138007239Y-114277483D01*
X137831373Y-114187873D01*
X137643646Y-114126876D01*
X137448697Y-114096000D01*
X137251303Y-114096000D01*
X137056353Y-114126876D01*
X136868626Y-114187873D01*
X136692762Y-114277482D01*
X136692760Y-114277483D01*
X136657010Y-114303456D01*
X136657010Y-114303457D01*
X137220591Y-114867037D01*
X137157007Y-114884075D01*
X137042993Y-114949901D01*
X136949901Y-115042993D01*
X136884075Y-115157007D01*
X136867037Y-115220590D01*
X136303457Y-114657010D01*
X136303456Y-114657010D01*
X136277483Y-114692760D01*
X136277479Y-114692767D01*
X136190763Y-114862954D01*
X136142788Y-114913749D01*
X136074967Y-114930544D01*
X136008833Y-114908006D01*
X135969798Y-114862957D01*
X135882944Y-114692499D01*
X135882942Y-114692496D01*
X135882941Y-114692494D01*
X135766884Y-114532753D01*
X135627246Y-114393115D01*
X135467504Y-114277058D01*
X135467503Y-114277057D01*
X135467501Y-114277056D01*
X135291561Y-114187409D01*
X135287837Y-114186199D01*
X135103763Y-114126389D01*
X134908736Y-114095500D01*
X134908731Y-114095500D01*
X134711269Y-114095500D01*
X134711264Y-114095500D01*
X134516236Y-114126389D01*
X134328441Y-114187408D01*
X134152495Y-114277058D01*
X133992753Y-114393115D01*
X133853115Y-114532753D01*
X133737058Y-114692495D01*
X133737056Y-114692499D01*
X133656805Y-114850000D01*
X133650485Y-114862403D01*
X133602510Y-114913199D01*
X133534689Y-114929994D01*
X133468554Y-114907456D01*
X133429515Y-114862403D01*
X133342944Y-114692499D01*
X133299413Y-114632583D01*
X133226884Y-114532753D01*
X133087246Y-114393115D01*
X132927504Y-114277058D01*
X132927503Y-114277057D01*
X132927501Y-114277056D01*
X132751561Y-114187409D01*
X132747837Y-114186199D01*
X132563763Y-114126389D01*
X132368736Y-114095500D01*
X132368731Y-114095500D01*
X132171269Y-114095500D01*
X132171264Y-114095500D01*
X131976236Y-114126389D01*
X131788441Y-114187408D01*
X131612495Y-114277058D01*
X131452753Y-114393115D01*
X131313115Y-114532753D01*
X131197058Y-114692495D01*
X131197056Y-114692499D01*
X131116805Y-114850000D01*
X131110485Y-114862403D01*
X131062510Y-114913199D01*
X130994689Y-114929994D01*
X130928554Y-114907456D01*
X130889515Y-114862403D01*
X130802944Y-114692499D01*
X130759413Y-114632583D01*
X130686884Y-114532753D01*
X130547246Y-114393115D01*
X130387504Y-114277058D01*
X130387503Y-114277057D01*
X130387501Y-114277056D01*
X130211561Y-114187409D01*
X130207837Y-114186199D01*
X130023763Y-114126389D01*
X129828736Y-114095500D01*
X129828731Y-114095500D01*
X129631269Y-114095500D01*
X129631264Y-114095500D01*
X129436236Y-114126389D01*
X129248441Y-114187408D01*
X129072495Y-114277058D01*
X128912753Y-114393115D01*
X128773115Y-114532753D01*
X128657058Y-114692495D01*
X128657056Y-114692499D01*
X128576805Y-114850000D01*
X128570485Y-114862403D01*
X128522510Y-114913199D01*
X128454689Y-114929994D01*
X128388554Y-114907456D01*
X128349515Y-114862403D01*
X128262944Y-114692499D01*
X128219413Y-114632583D01*
X128146884Y-114532753D01*
X128007246Y-114393115D01*
X127847504Y-114277058D01*
X127847503Y-114277057D01*
X127847501Y-114277056D01*
X127671561Y-114187409D01*
X127667837Y-114186199D01*
X127483763Y-114126389D01*
X127288736Y-114095500D01*
X127288731Y-114095500D01*
X127091269Y-114095500D01*
X127091264Y-114095500D01*
X126896236Y-114126389D01*
X126708441Y-114187408D01*
X126532495Y-114277058D01*
X126372753Y-114393115D01*
X126233115Y-114532753D01*
X126117058Y-114692495D01*
X126117056Y-114692499D01*
X126036805Y-114850000D01*
X126030485Y-114862403D01*
X125982510Y-114913199D01*
X125914689Y-114929994D01*
X125848554Y-114907456D01*
X125809515Y-114862403D01*
X125722944Y-114692499D01*
X125679413Y-114632583D01*
X125606884Y-114532753D01*
X125467246Y-114393115D01*
X125307504Y-114277058D01*
X125307503Y-114277057D01*
X125307501Y-114277056D01*
X125131561Y-114187409D01*
X125127837Y-114186199D01*
X124943763Y-114126389D01*
X124748736Y-114095500D01*
X124748731Y-114095500D01*
X124551269Y-114095500D01*
X124551264Y-114095500D01*
X124356236Y-114126389D01*
X124168441Y-114187408D01*
X123992495Y-114277058D01*
X123832753Y-114393115D01*
X123693115Y-114532753D01*
X123588318Y-114676997D01*
X123532989Y-114719663D01*
X123463375Y-114725642D01*
X123401580Y-114693037D01*
X123367223Y-114632198D01*
X123364000Y-114604112D01*
X123364000Y-114548172D01*
X123363999Y-114548155D01*
X123357598Y-114488627D01*
X123357596Y-114488620D01*
X123307354Y-114353913D01*
X123307350Y-114353906D01*
X123221190Y-114238812D01*
X123221187Y-114238809D01*
X123106093Y-114152649D01*
X123106086Y-114152645D01*
X122971379Y-114102403D01*
X122971372Y-114102401D01*
X122911844Y-114096000D01*
X122360000Y-114096000D01*
X122360000Y-114916988D01*
X122302993Y-114884075D01*
X122175826Y-114850000D01*
X122044174Y-114850000D01*
X121917007Y-114884075D01*
X121860000Y-114916988D01*
X121860000Y-114096000D01*
X121308155Y-114096000D01*
X121248627Y-114102401D01*
X121248620Y-114102403D01*
X121113913Y-114152645D01*
X121113906Y-114152649D01*
X120998812Y-114238809D01*
X120998809Y-114238812D01*
X120912649Y-114353906D01*
X120912645Y-114353913D01*
X120862403Y-114488620D01*
X120862401Y-114488627D01*
X120856000Y-114548155D01*
X120856000Y-115100000D01*
X121676988Y-115100000D01*
X121644075Y-115157007D01*
X121610000Y-115284174D01*
X121610000Y-115415826D01*
X121644075Y-115542993D01*
X121676988Y-115600000D01*
X120856000Y-115600000D01*
X120856000Y-116151844D01*
X120862401Y-116211372D01*
X120862403Y-116211379D01*
X120912645Y-116346086D01*
X120912649Y-116346093D01*
X120998809Y-116461187D01*
X120998812Y-116461190D01*
X121113906Y-116547350D01*
X121113913Y-116547354D01*
X121248620Y-116597596D01*
X121248627Y-116597598D01*
X121308155Y-116603999D01*
X121308172Y-116604000D01*
X121860000Y-116604000D01*
X121860000Y-115783012D01*
X121917007Y-115815925D01*
X122044174Y-115850000D01*
X122175826Y-115850000D01*
X122302993Y-115815925D01*
X122360000Y-115783012D01*
X122360000Y-116604000D01*
X122911828Y-116604000D01*
X122911844Y-116603999D01*
X122971372Y-116597598D01*
X122971379Y-116597596D01*
X123106086Y-116547354D01*
X123106093Y-116547350D01*
X123221187Y-116461190D01*
X123221190Y-116461187D01*
X123307350Y-116346093D01*
X123307354Y-116346086D01*
X123357596Y-116211379D01*
X123357598Y-116211372D01*
X123363999Y-116151844D01*
X123364000Y-116151827D01*
X123364000Y-116095887D01*
X123383685Y-116028848D01*
X123436489Y-115983093D01*
X123505647Y-115973149D01*
X123569203Y-116002174D01*
X123588314Y-116022997D01*
X123635039Y-116087308D01*
X123693121Y-116167252D01*
X123832753Y-116306884D01*
X123955233Y-116395869D01*
X123992499Y-116422944D01*
X124168439Y-116512591D01*
X124275417Y-116547350D01*
X124356236Y-116573610D01*
X124551264Y-116604500D01*
X124551269Y-116604500D01*
X124748736Y-116604500D01*
X124943763Y-116573610D01*
X124945262Y-116573123D01*
X125131561Y-116512591D01*
X125307501Y-116422944D01*
X125413288Y-116346086D01*
X125467246Y-116306884D01*
X125467248Y-116306881D01*
X125467252Y-116306879D01*
X125606879Y-116167252D01*
X125606881Y-116167248D01*
X125606884Y-116167246D01*
X125722941Y-116007505D01*
X125722940Y-116007505D01*
X125722944Y-116007501D01*
X125809517Y-115837593D01*
X125857490Y-115786800D01*
X125925311Y-115770005D01*
X125991446Y-115792542D01*
X126030482Y-115837593D01*
X126099553Y-115973149D01*
X126117058Y-116007505D01*
X126233115Y-116167246D01*
X126372753Y-116306884D01*
X126495233Y-116395869D01*
X126532499Y-116422944D01*
X126708439Y-116512591D01*
X126815417Y-116547350D01*
X126896236Y-116573610D01*
X127091264Y-116604500D01*
X127091269Y-116604500D01*
X127288736Y-116604500D01*
X127483763Y-116573610D01*
X127485262Y-116573123D01*
X127671561Y-116512591D01*
X127847501Y-116422944D01*
X127953288Y-116346086D01*
X128007246Y-116306884D01*
X128007248Y-116306881D01*
X128007252Y-116306879D01*
X128146879Y-116167252D01*
X128146881Y-116167248D01*
X128146884Y-116167246D01*
X128262941Y-116007505D01*
X128262940Y-116007505D01*
X128262944Y-116007501D01*
X128349517Y-115837593D01*
X128397490Y-115786800D01*
X128465311Y-115770005D01*
X128531446Y-115792542D01*
X128570482Y-115837593D01*
X128657056Y-116007501D01*
X128705818Y-116074617D01*
X128729298Y-116140421D01*
X128729500Y-116147501D01*
X128729500Y-117804217D01*
X128709815Y-117871256D01*
X128693181Y-117891898D01*
X128389926Y-118195153D01*
X128052221Y-118532858D01*
X128052218Y-118532861D01*
X128010303Y-118574776D01*
X127912859Y-118672219D01*
X127803371Y-118836079D01*
X127803364Y-118836092D01*
X127727950Y-119018160D01*
X127727947Y-119018170D01*
X127689500Y-119211456D01*
X127689500Y-119938705D01*
X127669815Y-120005744D01*
X127630599Y-120044242D01*
X127601347Y-120062285D01*
X127601343Y-120062288D01*
X127477289Y-120186342D01*
X127385187Y-120335663D01*
X127385186Y-120335666D01*
X127330001Y-120502203D01*
X127330001Y-120502204D01*
X127330000Y-120502204D01*
X127319500Y-120604983D01*
X127319500Y-122395001D01*
X127319501Y-122395018D01*
X127330000Y-122497796D01*
X127330001Y-122497799D01*
X127362383Y-122595519D01*
X127385186Y-122664334D01*
X127477288Y-122813656D01*
X127601344Y-122937712D01*
X127750666Y-123029814D01*
X127917203Y-123084999D01*
X128019991Y-123095500D01*
X129360008Y-123095499D01*
X129462797Y-123084999D01*
X129629334Y-123029814D01*
X129778656Y-122937712D01*
X129902712Y-122813656D01*
X129994814Y-122664334D01*
X129994817Y-122664322D01*
X129995129Y-122663657D01*
X129995469Y-122663269D01*
X129998605Y-122658187D01*
X129999473Y-122658722D01*
X130041299Y-122611216D01*
X130108491Y-122592060D01*
X130175373Y-122612272D01*
X130195195Y-122628375D01*
X130337179Y-122770359D01*
X130511701Y-122897157D01*
X130703911Y-122995092D01*
X130909074Y-123061754D01*
X130988973Y-123074408D01*
X131122134Y-123095500D01*
X131122139Y-123095500D01*
X131337866Y-123095500D01*
X131456230Y-123076752D01*
X131550926Y-123061754D01*
X131756089Y-122995092D01*
X131948299Y-122897157D01*
X132122821Y-122770359D01*
X132275359Y-122617821D01*
X132399682Y-122446704D01*
X132455012Y-122404040D01*
X132524626Y-122398061D01*
X132586420Y-122430667D01*
X132600315Y-122446702D01*
X132724641Y-122617821D01*
X132877179Y-122770359D01*
X133051701Y-122897157D01*
X133243911Y-122995092D01*
X133449074Y-123061754D01*
X133528973Y-123074408D01*
X133662134Y-123095500D01*
X133662139Y-123095500D01*
X133877866Y-123095500D01*
X133996230Y-123076752D01*
X134090926Y-123061754D01*
X134296089Y-122995092D01*
X134488299Y-122897157D01*
X134662821Y-122770359D01*
X134815359Y-122617821D01*
X134939682Y-122446704D01*
X134995012Y-122404040D01*
X135064626Y-122398061D01*
X135126420Y-122430667D01*
X135140315Y-122446702D01*
X135264641Y-122617821D01*
X135417179Y-122770359D01*
X135591701Y-122897157D01*
X135783911Y-122995092D01*
X135989074Y-123061754D01*
X136068973Y-123074408D01*
X136202134Y-123095500D01*
X136202139Y-123095500D01*
X136417866Y-123095500D01*
X136536230Y-123076752D01*
X136630926Y-123061754D01*
X136836089Y-122995092D01*
X137028299Y-122897157D01*
X137202821Y-122770359D01*
X137355359Y-122617821D01*
X137482157Y-122443299D01*
X137580092Y-122251089D01*
X137646754Y-122045926D01*
X137665342Y-121928566D01*
X137680500Y-121832866D01*
X137680500Y-121167133D01*
X137646754Y-120954077D01*
X137646754Y-120954074D01*
X137580092Y-120748911D01*
X137482157Y-120556701D01*
X137355359Y-120382179D01*
X137346819Y-120373639D01*
X137333316Y-120348911D01*
X137317099Y-120325869D01*
X137315520Y-120316319D01*
X137313334Y-120312316D01*
X137310610Y-120291177D01*
X137310500Y-120288565D01*
X137310500Y-120211459D01*
X137308250Y-120200150D01*
X137272051Y-120018164D01*
X137211440Y-119871836D01*
X137196632Y-119836086D01*
X137196631Y-119836084D01*
X137196630Y-119836082D01*
X137087140Y-119672219D01*
X137062431Y-119647510D01*
X136947782Y-119532861D01*
X136947781Y-119532860D01*
X135846819Y-118431898D01*
X135813334Y-118370575D01*
X135810500Y-118344217D01*
X135810500Y-116147501D01*
X135830185Y-116080462D01*
X135834165Y-116074638D01*
X135882944Y-116007501D01*
X135969797Y-115837043D01*
X136017768Y-115786250D01*
X136085589Y-115769455D01*
X136151724Y-115791992D01*
X136190763Y-115837045D01*
X136277481Y-116007236D01*
X136303457Y-116042988D01*
X136303457Y-116042989D01*
X136867037Y-115479409D01*
X136884075Y-115542993D01*
X136949901Y-115657007D01*
X137042993Y-115750099D01*
X137157007Y-115815925D01*
X137220590Y-115832962D01*
X136657009Y-116396541D01*
X136657010Y-116396542D01*
X136692755Y-116422512D01*
X136692768Y-116422520D01*
X136868626Y-116512126D01*
X137056353Y-116573123D01*
X137251303Y-116604000D01*
X137448697Y-116604000D01*
X137643646Y-116573123D01*
X137831373Y-116512126D01*
X138007241Y-116422516D01*
X138042988Y-116396543D01*
X138042988Y-116396541D01*
X137479410Y-115832962D01*
X137542993Y-115815925D01*
X137657007Y-115750099D01*
X137750099Y-115657007D01*
X137815925Y-115542993D01*
X137832962Y-115479409D01*
X138353181Y-115999627D01*
X138386666Y-116060950D01*
X138389500Y-116087308D01*
X138389500Y-118799097D01*
X138426446Y-119032368D01*
X138468519Y-119161852D01*
X138499432Y-119256992D01*
X138606657Y-119467434D01*
X138693628Y-119587139D01*
X138745484Y-119658511D01*
X138745485Y-119658512D01*
X140363814Y-121276842D01*
X140363819Y-121276846D01*
X140498447Y-121374658D01*
X140554890Y-121415666D01*
X140688982Y-121483989D01*
X140765326Y-121522889D01*
X140765328Y-121522889D01*
X140765331Y-121522891D01*
X140885735Y-121562012D01*
X140989954Y-121595876D01*
X141223226Y-121632823D01*
X141223231Y-121632823D01*
X144628082Y-121632823D01*
X144628094Y-121632822D01*
X145547871Y-121632822D01*
X145547872Y-121632822D01*
X145607483Y-121626414D01*
X145742331Y-121576119D01*
X145857546Y-121489869D01*
X145943796Y-121374654D01*
X145994091Y-121239806D01*
X146000500Y-121180196D01*
X146000500Y-120133553D01*
X146000500Y-120014231D01*
X146000500Y-120006636D01*
X146000499Y-120006618D01*
X146000499Y-119084452D01*
X146000498Y-119084446D01*
X146000321Y-119082800D01*
X145994091Y-119024840D01*
X145991603Y-119018170D01*
X145943797Y-118889994D01*
X145943793Y-118889987D01*
X145857547Y-118774778D01*
X145857544Y-118774775D01*
X145742335Y-118688529D01*
X145742328Y-118688525D01*
X145607482Y-118638231D01*
X145607483Y-118638231D01*
X145547883Y-118631824D01*
X145547881Y-118631823D01*
X145547873Y-118631823D01*
X145547865Y-118631823D01*
X142014213Y-118631823D01*
X141947174Y-118612138D01*
X141926532Y-118595504D01*
X141426819Y-118095791D01*
X141393334Y-118034468D01*
X141390500Y-118008110D01*
X141390500Y-114274889D01*
X141410185Y-114207850D01*
X141426819Y-114187208D01*
X142037209Y-113576819D01*
X142098532Y-113543334D01*
X142124890Y-113540500D01*
X162765500Y-113540500D01*
X162832539Y-113560185D01*
X162878294Y-113612989D01*
X162889500Y-113664500D01*
X162889500Y-114612691D01*
X162869815Y-114679730D01*
X162853181Y-114700372D01*
X162332962Y-115220590D01*
X162315925Y-115157007D01*
X162250099Y-115042993D01*
X162157007Y-114949901D01*
X162042993Y-114884075D01*
X161979409Y-114867037D01*
X162542989Y-114303457D01*
X162507239Y-114277483D01*
X162331373Y-114187873D01*
X162143646Y-114126876D01*
X161948697Y-114096000D01*
X161751303Y-114096000D01*
X161556353Y-114126876D01*
X161368626Y-114187873D01*
X161192762Y-114277482D01*
X161192760Y-114277483D01*
X161157010Y-114303456D01*
X161157010Y-114303457D01*
X161720591Y-114867037D01*
X161657007Y-114884075D01*
X161542993Y-114949901D01*
X161449901Y-115042993D01*
X161384075Y-115157007D01*
X161367037Y-115220590D01*
X160803457Y-114657010D01*
X160803456Y-114657010D01*
X160777483Y-114692760D01*
X160777479Y-114692767D01*
X160690763Y-114862954D01*
X160642788Y-114913749D01*
X160574967Y-114930544D01*
X160508833Y-114908006D01*
X160469798Y-114862957D01*
X160382944Y-114692499D01*
X160382942Y-114692496D01*
X160382941Y-114692494D01*
X160266884Y-114532753D01*
X160127246Y-114393115D01*
X159967504Y-114277058D01*
X159967503Y-114277057D01*
X159967501Y-114277056D01*
X159791561Y-114187409D01*
X159787837Y-114186199D01*
X159603763Y-114126389D01*
X159408736Y-114095500D01*
X159408731Y-114095500D01*
X159211269Y-114095500D01*
X159211264Y-114095500D01*
X159016236Y-114126389D01*
X158828441Y-114187408D01*
X158652495Y-114277058D01*
X158492753Y-114393115D01*
X158353115Y-114532753D01*
X158237058Y-114692495D01*
X158237056Y-114692499D01*
X158156805Y-114850000D01*
X158150485Y-114862403D01*
X158102510Y-114913199D01*
X158034689Y-114929994D01*
X157968554Y-114907456D01*
X157929515Y-114862403D01*
X157842944Y-114692499D01*
X157799413Y-114632583D01*
X157726884Y-114532753D01*
X157587246Y-114393115D01*
X157427504Y-114277058D01*
X157427503Y-114277057D01*
X157427501Y-114277056D01*
X157251561Y-114187409D01*
X157247837Y-114186199D01*
X157063763Y-114126389D01*
X156868736Y-114095500D01*
X156868731Y-114095500D01*
X156671269Y-114095500D01*
X156671264Y-114095500D01*
X156476236Y-114126389D01*
X156288441Y-114187408D01*
X156112495Y-114277058D01*
X155952753Y-114393115D01*
X155813115Y-114532753D01*
X155697058Y-114692495D01*
X155697056Y-114692499D01*
X155616805Y-114850000D01*
X155610485Y-114862403D01*
X155562510Y-114913199D01*
X155494689Y-114929994D01*
X155428554Y-114907456D01*
X155389515Y-114862403D01*
X155302944Y-114692499D01*
X155259413Y-114632583D01*
X155186884Y-114532753D01*
X155047246Y-114393115D01*
X154887504Y-114277058D01*
X154887503Y-114277057D01*
X154887501Y-114277056D01*
X154711561Y-114187409D01*
X154707837Y-114186199D01*
X154523763Y-114126389D01*
X154328736Y-114095500D01*
X154328731Y-114095500D01*
X154131269Y-114095500D01*
X154131264Y-114095500D01*
X153936236Y-114126389D01*
X153748441Y-114187408D01*
X153572495Y-114277058D01*
X153412753Y-114393115D01*
X153273115Y-114532753D01*
X153157058Y-114692495D01*
X153157056Y-114692499D01*
X153076805Y-114850000D01*
X153070485Y-114862403D01*
X153022510Y-114913199D01*
X152954689Y-114929994D01*
X152888554Y-114907456D01*
X152849515Y-114862403D01*
X152762944Y-114692499D01*
X152719413Y-114632583D01*
X152646884Y-114532753D01*
X152507246Y-114393115D01*
X152347504Y-114277058D01*
X152347503Y-114277057D01*
X152347501Y-114277056D01*
X152171561Y-114187409D01*
X152167837Y-114186199D01*
X151983763Y-114126389D01*
X151788736Y-114095500D01*
X151788731Y-114095500D01*
X151591269Y-114095500D01*
X151591264Y-114095500D01*
X151396236Y-114126389D01*
X151208441Y-114187408D01*
X151032495Y-114277058D01*
X150872753Y-114393115D01*
X150733115Y-114532753D01*
X150617058Y-114692495D01*
X150617056Y-114692499D01*
X150536805Y-114850000D01*
X150530485Y-114862403D01*
X150482510Y-114913199D01*
X150414689Y-114929994D01*
X150348554Y-114907456D01*
X150309515Y-114862403D01*
X150222944Y-114692499D01*
X150179413Y-114632583D01*
X150106884Y-114532753D01*
X149967246Y-114393115D01*
X149807504Y-114277058D01*
X149807503Y-114277057D01*
X149807501Y-114277056D01*
X149631561Y-114187409D01*
X149627837Y-114186199D01*
X149443763Y-114126389D01*
X149248736Y-114095500D01*
X149248731Y-114095500D01*
X149051269Y-114095500D01*
X149051264Y-114095500D01*
X148856236Y-114126389D01*
X148668441Y-114187408D01*
X148492495Y-114277058D01*
X148332753Y-114393115D01*
X148193115Y-114532753D01*
X148088318Y-114676997D01*
X148032989Y-114719663D01*
X147963375Y-114725642D01*
X147901580Y-114693037D01*
X147867223Y-114632198D01*
X147864000Y-114604112D01*
X147864000Y-114548172D01*
X147863999Y-114548155D01*
X147857598Y-114488627D01*
X147857596Y-114488620D01*
X147807354Y-114353913D01*
X147807350Y-114353906D01*
X147721190Y-114238812D01*
X147721187Y-114238809D01*
X147606093Y-114152649D01*
X147606086Y-114152645D01*
X147471379Y-114102403D01*
X147471372Y-114102401D01*
X147411844Y-114096000D01*
X146860000Y-114096000D01*
X146860000Y-114916988D01*
X146802993Y-114884075D01*
X146675826Y-114850000D01*
X146544174Y-114850000D01*
X146417007Y-114884075D01*
X146360000Y-114916988D01*
X146360000Y-114096000D01*
X145808155Y-114096000D01*
X145748627Y-114102401D01*
X145748620Y-114102403D01*
X145613913Y-114152645D01*
X145613906Y-114152649D01*
X145498812Y-114238809D01*
X145498809Y-114238812D01*
X145412649Y-114353906D01*
X145412645Y-114353913D01*
X145362403Y-114488620D01*
X145362401Y-114488627D01*
X145356000Y-114548155D01*
X145356000Y-115100000D01*
X146176988Y-115100000D01*
X146144075Y-115157007D01*
X146110000Y-115284174D01*
X146110000Y-115415826D01*
X146144075Y-115542993D01*
X146176988Y-115600000D01*
X145356000Y-115600000D01*
X145356000Y-116151844D01*
X145362401Y-116211372D01*
X145362403Y-116211379D01*
X145412645Y-116346086D01*
X145412649Y-116346093D01*
X145498809Y-116461187D01*
X145498812Y-116461190D01*
X145613906Y-116547350D01*
X145613913Y-116547354D01*
X145748620Y-116597596D01*
X145748627Y-116597598D01*
X145808155Y-116603999D01*
X145808172Y-116604000D01*
X146360000Y-116604000D01*
X146360000Y-115783012D01*
X146417007Y-115815925D01*
X146544174Y-115850000D01*
X146675826Y-115850000D01*
X146802993Y-115815925D01*
X146860000Y-115783012D01*
X146860000Y-116604000D01*
X147411828Y-116604000D01*
X147411844Y-116603999D01*
X147471372Y-116597598D01*
X147471379Y-116597596D01*
X147606086Y-116547354D01*
X147606093Y-116547350D01*
X147721187Y-116461190D01*
X147721190Y-116461187D01*
X147807350Y-116346093D01*
X147807354Y-116346086D01*
X147857596Y-116211379D01*
X147857598Y-116211372D01*
X147863999Y-116151844D01*
X147864000Y-116151827D01*
X147864000Y-116095887D01*
X147883685Y-116028848D01*
X147936489Y-115983093D01*
X148005647Y-115973149D01*
X148069203Y-116002174D01*
X148088314Y-116022997D01*
X148135039Y-116087308D01*
X148193121Y-116167252D01*
X148332753Y-116306884D01*
X148455233Y-116395869D01*
X148492499Y-116422944D01*
X148668439Y-116512591D01*
X148775417Y-116547350D01*
X148856236Y-116573610D01*
X149051264Y-116604500D01*
X149051269Y-116604500D01*
X149248736Y-116604500D01*
X149443763Y-116573610D01*
X149445262Y-116573123D01*
X149631561Y-116512591D01*
X149807501Y-116422944D01*
X149913288Y-116346086D01*
X149967246Y-116306884D01*
X149967248Y-116306881D01*
X149967252Y-116306879D01*
X150106879Y-116167252D01*
X150106881Y-116167248D01*
X150106884Y-116167246D01*
X150222941Y-116007505D01*
X150222940Y-116007505D01*
X150222944Y-116007501D01*
X150309517Y-115837593D01*
X150357490Y-115786800D01*
X150425311Y-115770005D01*
X150491446Y-115792542D01*
X150530482Y-115837593D01*
X150599553Y-115973149D01*
X150617058Y-116007505D01*
X150733115Y-116167246D01*
X150872753Y-116306884D01*
X150995233Y-116395869D01*
X151032499Y-116422944D01*
X151208439Y-116512591D01*
X151315417Y-116547350D01*
X151396236Y-116573610D01*
X151591264Y-116604500D01*
X151591269Y-116604500D01*
X151788736Y-116604500D01*
X151983763Y-116573610D01*
X151985262Y-116573123D01*
X152171561Y-116512591D01*
X152347501Y-116422944D01*
X152453288Y-116346086D01*
X152507246Y-116306884D01*
X152507248Y-116306881D01*
X152507252Y-116306879D01*
X152646879Y-116167252D01*
X152646881Y-116167248D01*
X152646884Y-116167246D01*
X152762941Y-116007505D01*
X152762940Y-116007505D01*
X152762944Y-116007501D01*
X152849517Y-115837593D01*
X152897490Y-115786800D01*
X152965311Y-115770005D01*
X153031446Y-115792542D01*
X153070482Y-115837593D01*
X153157056Y-116007501D01*
X153205818Y-116074617D01*
X153229298Y-116140421D01*
X153229500Y-116147501D01*
X153229500Y-117304217D01*
X153209815Y-117371256D01*
X153193181Y-117391898D01*
X152769499Y-117815580D01*
X152322221Y-118262858D01*
X152322218Y-118262861D01*
X152269499Y-118315580D01*
X152182859Y-118402219D01*
X152073371Y-118566080D01*
X152073364Y-118566093D01*
X152035863Y-118656632D01*
X151999712Y-118743909D01*
X151999710Y-118743915D01*
X151997949Y-118748164D01*
X151997946Y-118748175D01*
X151959500Y-118941454D01*
X151959500Y-120438705D01*
X151939815Y-120505744D01*
X151900599Y-120544242D01*
X151871347Y-120562285D01*
X151871343Y-120562288D01*
X151747289Y-120686342D01*
X151655187Y-120835663D01*
X151655186Y-120835666D01*
X151600001Y-121002203D01*
X151600001Y-121002204D01*
X151600000Y-121002204D01*
X151589500Y-121104983D01*
X151589500Y-122895001D01*
X151589501Y-122895018D01*
X151600000Y-122997796D01*
X151600001Y-122997799D01*
X151637584Y-123111216D01*
X151655186Y-123164334D01*
X151747288Y-123313656D01*
X151871344Y-123437712D01*
X152020666Y-123529814D01*
X152187203Y-123584999D01*
X152289991Y-123595500D01*
X153630008Y-123595499D01*
X153732797Y-123584999D01*
X153899334Y-123529814D01*
X154048656Y-123437712D01*
X154172712Y-123313656D01*
X154264814Y-123164334D01*
X154264817Y-123164322D01*
X154265129Y-123163657D01*
X154265469Y-123163269D01*
X154268605Y-123158187D01*
X154269473Y-123158722D01*
X154311299Y-123111216D01*
X154378491Y-123092060D01*
X154445373Y-123112272D01*
X154465195Y-123128375D01*
X154607179Y-123270359D01*
X154781701Y-123397157D01*
X154973911Y-123495092D01*
X155179074Y-123561754D01*
X155258973Y-123574408D01*
X155392134Y-123595500D01*
X155392139Y-123595500D01*
X155607866Y-123595500D01*
X155726230Y-123576752D01*
X155820926Y-123561754D01*
X156026089Y-123495092D01*
X156218299Y-123397157D01*
X156392821Y-123270359D01*
X156545359Y-123117821D01*
X156669682Y-122946704D01*
X156725012Y-122904040D01*
X156794626Y-122898061D01*
X156856420Y-122930667D01*
X156870315Y-122946702D01*
X156994641Y-123117821D01*
X157147179Y-123270359D01*
X157321701Y-123397157D01*
X157513911Y-123495092D01*
X157719074Y-123561754D01*
X157798973Y-123574408D01*
X157932134Y-123595500D01*
X157932139Y-123595500D01*
X158147866Y-123595500D01*
X158266230Y-123576752D01*
X158360926Y-123561754D01*
X158566089Y-123495092D01*
X158758299Y-123397157D01*
X158932821Y-123270359D01*
X159085359Y-123117821D01*
X159209682Y-122946704D01*
X159265012Y-122904040D01*
X159334626Y-122898061D01*
X159396420Y-122930667D01*
X159410315Y-122946702D01*
X159534641Y-123117821D01*
X159687179Y-123270359D01*
X159861701Y-123397157D01*
X160053911Y-123495092D01*
X160259074Y-123561754D01*
X160338973Y-123574408D01*
X160472134Y-123595500D01*
X160472139Y-123595500D01*
X160687866Y-123595500D01*
X160806230Y-123576752D01*
X160900926Y-123561754D01*
X161106089Y-123495092D01*
X161298299Y-123397157D01*
X161472821Y-123270359D01*
X161625359Y-123117821D01*
X161752157Y-122943299D01*
X161850092Y-122751089D01*
X161916754Y-122545926D01*
X161935009Y-122430667D01*
X161950500Y-122332866D01*
X161950500Y-121667133D01*
X161916754Y-121454077D01*
X161916754Y-121454074D01*
X161850092Y-121248911D01*
X161752157Y-121056701D01*
X161625359Y-120882179D01*
X161616819Y-120873639D01*
X161583334Y-120812316D01*
X161580500Y-120785958D01*
X161580500Y-119481456D01*
X161580499Y-119481454D01*
X161542053Y-119288175D01*
X161542052Y-119288174D01*
X161542051Y-119288165D01*
X161540290Y-119283914D01*
X161510279Y-119211460D01*
X161489520Y-119161342D01*
X161466635Y-119106092D01*
X161466628Y-119106079D01*
X161357139Y-118942218D01*
X161357136Y-118942214D01*
X161214686Y-118799764D01*
X161214655Y-118799735D01*
X160346819Y-117931899D01*
X160313334Y-117870576D01*
X160310500Y-117844218D01*
X160310500Y-116147501D01*
X160330185Y-116080462D01*
X160334165Y-116074638D01*
X160382944Y-116007501D01*
X160469797Y-115837043D01*
X160517768Y-115786250D01*
X160585589Y-115769455D01*
X160651724Y-115791992D01*
X160690763Y-115837045D01*
X160777481Y-116007236D01*
X160803457Y-116042988D01*
X160803457Y-116042989D01*
X161367037Y-115479409D01*
X161384075Y-115542993D01*
X161449901Y-115657007D01*
X161542993Y-115750099D01*
X161657007Y-115815925D01*
X161720590Y-115832962D01*
X161157009Y-116396541D01*
X161157010Y-116396542D01*
X161192755Y-116422512D01*
X161192768Y-116422520D01*
X161368626Y-116512126D01*
X161556353Y-116573123D01*
X161751303Y-116604000D01*
X161948697Y-116604000D01*
X162143646Y-116573123D01*
X162331373Y-116512126D01*
X162507241Y-116422516D01*
X162542988Y-116396543D01*
X162542988Y-116396541D01*
X161979410Y-115832962D01*
X162042993Y-115815925D01*
X162157007Y-115750099D01*
X162250099Y-115657007D01*
X162315925Y-115542993D01*
X162332962Y-115479409D01*
X162853181Y-115999627D01*
X162886666Y-116060950D01*
X162889500Y-116087308D01*
X162889500Y-118788097D01*
X162926446Y-119021368D01*
X162999433Y-119245996D01*
X163102248Y-119447780D01*
X163106657Y-119456434D01*
X163245483Y-119647510D01*
X164874813Y-121276840D01*
X165065889Y-121415666D01*
X165141275Y-121454077D01*
X165276326Y-121522889D01*
X165276328Y-121522889D01*
X165276331Y-121522891D01*
X165396735Y-121562012D01*
X165500954Y-121595876D01*
X165734226Y-121632823D01*
X165734231Y-121632823D01*
X169128082Y-121632823D01*
X169128094Y-121632822D01*
X170047871Y-121632822D01*
X170047872Y-121632822D01*
X170107483Y-121626414D01*
X170242331Y-121576119D01*
X170357546Y-121489869D01*
X170443796Y-121374654D01*
X170494091Y-121239806D01*
X170500500Y-121180196D01*
X170500500Y-120133553D01*
X170500500Y-120014231D01*
X170500500Y-120006636D01*
X170500499Y-120006618D01*
X170500499Y-119084452D01*
X170500498Y-119084446D01*
X170500321Y-119082800D01*
X170494091Y-119024840D01*
X170491603Y-119018170D01*
X170443797Y-118889994D01*
X170443793Y-118889987D01*
X170357547Y-118774778D01*
X170357544Y-118774775D01*
X170242335Y-118688529D01*
X170242328Y-118688525D01*
X170107482Y-118638231D01*
X170107483Y-118638231D01*
X170047883Y-118631824D01*
X170047881Y-118631823D01*
X170047873Y-118631823D01*
X170047865Y-118631823D01*
X166525212Y-118631823D01*
X166458173Y-118612138D01*
X166437531Y-118595504D01*
X165926819Y-118084792D01*
X165893334Y-118023469D01*
X165890500Y-117997111D01*
X165890500Y-113664500D01*
X165910185Y-113597461D01*
X165962989Y-113551706D01*
X166014500Y-113540500D01*
X167381908Y-113540500D01*
X171881908Y-113540500D01*
X172118092Y-113540500D01*
X175881908Y-113540500D01*
X177841908Y-113540500D01*
X177876326Y-113540500D01*
X177943365Y-113560185D01*
X177989120Y-113612989D01*
X177994030Y-113625490D01*
X178015186Y-113689334D01*
X178107288Y-113838656D01*
X178231344Y-113962712D01*
X178380666Y-114054814D01*
X178547203Y-114109999D01*
X178649991Y-114120500D01*
X178696526Y-114120499D01*
X178763562Y-114140182D01*
X178809318Y-114192985D01*
X178819263Y-114262144D01*
X178790240Y-114325700D01*
X178772012Y-114342875D01*
X178655282Y-114432445D01*
X178462445Y-114625282D01*
X178462439Y-114625289D01*
X178296415Y-114841656D01*
X178160054Y-115077840D01*
X178160047Y-115077855D01*
X178055684Y-115329811D01*
X177985098Y-115593245D01*
X177976564Y-115658063D01*
X177948297Y-115721960D01*
X177941306Y-115729558D01*
X177392721Y-116278143D01*
X177392715Y-116278150D01*
X177304011Y-116393753D01*
X177302388Y-116395868D01*
X177281937Y-116422520D01*
X177233072Y-116486201D01*
X177164774Y-116604500D01*
X177101958Y-116713299D01*
X177101954Y-116713309D01*
X177001602Y-116955580D01*
X176933729Y-117208884D01*
X176933728Y-117208889D01*
X176919073Y-117320211D01*
X176919073Y-117320212D01*
X176899500Y-117468872D01*
X176899500Y-120560396D01*
X176879815Y-120627435D01*
X176844391Y-120663498D01*
X176812248Y-120684974D01*
X176812234Y-120684985D01*
X176546367Y-120903176D01*
X176303176Y-121146367D01*
X176084985Y-121412234D01*
X176084975Y-121412248D01*
X175893904Y-121698206D01*
X175893893Y-121698224D01*
X175731772Y-122001530D01*
X175731770Y-122001535D01*
X175600150Y-122319293D01*
X175500308Y-122648427D01*
X175433210Y-122985750D01*
X175399500Y-123328034D01*
X175399500Y-123671965D01*
X175433210Y-124014249D01*
X175500308Y-124351572D01*
X175600150Y-124680706D01*
X175731770Y-124998464D01*
X175731772Y-124998469D01*
X175893893Y-125301775D01*
X175893904Y-125301793D01*
X176084975Y-125587751D01*
X176084985Y-125587765D01*
X176303176Y-125853632D01*
X176546367Y-126096823D01*
X176546372Y-126096827D01*
X176546373Y-126096828D01*
X176812240Y-126315019D01*
X177098213Y-126506100D01*
X177098222Y-126506105D01*
X177098224Y-126506106D01*
X177401530Y-126668227D01*
X177401532Y-126668227D01*
X177401538Y-126668231D01*
X177719295Y-126799850D01*
X178048422Y-126899690D01*
X178385750Y-126966789D01*
X178728031Y-127000500D01*
X178728034Y-127000500D01*
X179071966Y-127000500D01*
X179071969Y-127000500D01*
X179414250Y-126966789D01*
X179751578Y-126899690D01*
X180080705Y-126799850D01*
X180398462Y-126668231D01*
X180701787Y-126506100D01*
X180987760Y-126315019D01*
X181253627Y-126096828D01*
X181496828Y-125853627D01*
X181715019Y-125587760D01*
X181906100Y-125301787D01*
X182068231Y-124998462D01*
X182199850Y-124680705D01*
X182299690Y-124351578D01*
X182354383Y-124076619D01*
X182386768Y-124014708D01*
X182447484Y-123980134D01*
X182517253Y-123983873D01*
X182573925Y-124024740D01*
X182599506Y-124089758D01*
X182600000Y-124100810D01*
X182600000Y-125071436D01*
X182615300Y-125285362D01*
X182676109Y-125564895D01*
X182776091Y-125832958D01*
X182913191Y-126084038D01*
X182913192Y-126084039D01*
X183084639Y-126313065D01*
X183084649Y-126313077D01*
X183286922Y-126515350D01*
X183286934Y-126515360D01*
X183515960Y-126686807D01*
X183515961Y-126686808D01*
X183767042Y-126823908D01*
X183767041Y-126823908D01*
X184035104Y-126923890D01*
X184314637Y-126984699D01*
X184528563Y-126999999D01*
X184528566Y-127000000D01*
X185850000Y-127000000D01*
X185850000Y-125736502D01*
X185952527Y-125750000D01*
X186247473Y-125750000D01*
X186350000Y-125736502D01*
X186350000Y-127000000D01*
X187671434Y-127000000D01*
X187671436Y-126999999D01*
X187885362Y-126984699D01*
X188164895Y-126923890D01*
X188432958Y-126823908D01*
X188684038Y-126686808D01*
X188684039Y-126686807D01*
X188913065Y-126515360D01*
X188913077Y-126515350D01*
X189115350Y-126313077D01*
X189115360Y-126313065D01*
X189286807Y-126084039D01*
X189286808Y-126084038D01*
X189423908Y-125832958D01*
X189523890Y-125564895D01*
X189584699Y-125285362D01*
X189599999Y-125071436D01*
X189600000Y-125071434D01*
X189600000Y-123750000D01*
X188336502Y-123750000D01*
X188350000Y-123647473D01*
X188350000Y-123352527D01*
X188336502Y-123250000D01*
X189600000Y-123250000D01*
X189600000Y-121928566D01*
X189599999Y-121928563D01*
X189588612Y-121769340D01*
X189584699Y-121714637D01*
X189523890Y-121435104D01*
X189423908Y-121167041D01*
X189286808Y-120915961D01*
X189286807Y-120915960D01*
X189115360Y-120686934D01*
X189115350Y-120686922D01*
X188913077Y-120484649D01*
X188913065Y-120484639D01*
X188684039Y-120313192D01*
X188684038Y-120313191D01*
X188432957Y-120176091D01*
X188432958Y-120176091D01*
X188164895Y-120076109D01*
X187885362Y-120015300D01*
X187671436Y-120000000D01*
X186350000Y-120000000D01*
X186350000Y-121263497D01*
X186247473Y-121250000D01*
X185952527Y-121250000D01*
X185850000Y-121263497D01*
X185850000Y-120000000D01*
X184528563Y-120000000D01*
X184314637Y-120015300D01*
X184035104Y-120076109D01*
X183767041Y-120176091D01*
X183515961Y-120313191D01*
X183515960Y-120313192D01*
X183286934Y-120484639D01*
X183286922Y-120484649D01*
X183084649Y-120686922D01*
X183084639Y-120686934D01*
X182913192Y-120915960D01*
X182913191Y-120915961D01*
X182776091Y-121167041D01*
X182676109Y-121435104D01*
X182615300Y-121714637D01*
X182600000Y-121928563D01*
X182600000Y-122899189D01*
X182580315Y-122966228D01*
X182527511Y-123011983D01*
X182458353Y-123021927D01*
X182394797Y-122992902D01*
X182357023Y-122934124D01*
X182354383Y-122923380D01*
X182299691Y-122648427D01*
X182299690Y-122648426D01*
X182299690Y-122648422D01*
X182199850Y-122319295D01*
X182068231Y-122001538D01*
X181906100Y-121698213D01*
X181715019Y-121412240D01*
X181496828Y-121146373D01*
X181496827Y-121146372D01*
X181496823Y-121146367D01*
X181253632Y-120903176D01*
X180987765Y-120684985D01*
X180987751Y-120684974D01*
X180955609Y-120663498D01*
X180910804Y-120609885D01*
X180900500Y-120560396D01*
X180900500Y-118479995D01*
X180920185Y-118412956D01*
X180936815Y-118392318D01*
X181240440Y-118088692D01*
X181301763Y-118055208D01*
X181311935Y-118053435D01*
X181376756Y-118044902D01*
X181640190Y-117974315D01*
X181888996Y-117871256D01*
X181892144Y-117869952D01*
X181892144Y-117869951D01*
X181892156Y-117869947D01*
X182128344Y-117733584D01*
X182344712Y-117567559D01*
X182537559Y-117374712D01*
X182703584Y-117158344D01*
X182839947Y-116922156D01*
X182944315Y-116670190D01*
X182961449Y-116606247D01*
X182977230Y-116547350D01*
X183014902Y-116406756D01*
X183050500Y-116136363D01*
X183050500Y-115863637D01*
X183014902Y-115593244D01*
X182944315Y-115329810D01*
X182930012Y-115295280D01*
X187600000Y-115295280D01*
X187600000Y-116250000D01*
X188672769Y-116250000D01*
X188650000Y-116393753D01*
X188650000Y-116606247D01*
X188672769Y-116750000D01*
X187600000Y-116750000D01*
X187600000Y-117704719D01*
X187610482Y-117837906D01*
X187610483Y-117837912D01*
X187665898Y-118057829D01*
X187665899Y-118057832D01*
X187759695Y-118264330D01*
X187759698Y-118264336D01*
X187888851Y-118450758D01*
X187888861Y-118450770D01*
X188049229Y-118611138D01*
X188049241Y-118611148D01*
X188235663Y-118740301D01*
X188235669Y-118740304D01*
X188442167Y-118834100D01*
X188442170Y-118834101D01*
X188662087Y-118889516D01*
X188662093Y-118889517D01*
X188795280Y-118899999D01*
X188795294Y-118900000D01*
X189750000Y-118900000D01*
X189750000Y-117827231D01*
X189893753Y-117850000D01*
X190106247Y-117850000D01*
X190250000Y-117827231D01*
X190250000Y-118900000D01*
X191204706Y-118900000D01*
X191204719Y-118899999D01*
X191337906Y-118889517D01*
X191337912Y-118889516D01*
X191557829Y-118834101D01*
X191557832Y-118834100D01*
X191764330Y-118740304D01*
X191764336Y-118740301D01*
X191950758Y-118611148D01*
X191950770Y-118611138D01*
X192111138Y-118450770D01*
X192111148Y-118450758D01*
X192240301Y-118264336D01*
X192240304Y-118264330D01*
X192334100Y-118057832D01*
X192334101Y-118057829D01*
X192389516Y-117837912D01*
X192389517Y-117837906D01*
X192399999Y-117704719D01*
X192400000Y-117704706D01*
X192400000Y-117370309D01*
X192419685Y-117303270D01*
X192472489Y-117257515D01*
X192541647Y-117247571D01*
X192605203Y-117276596D01*
X192641041Y-117329354D01*
X192686200Y-117458411D01*
X192808053Y-117711442D01*
X192808055Y-117711445D01*
X192957477Y-117949248D01*
X193132584Y-118168825D01*
X193331175Y-118367416D01*
X193550752Y-118542523D01*
X193788555Y-118691945D01*
X194041592Y-118813801D01*
X194195861Y-118867782D01*
X194306670Y-118906556D01*
X194306682Y-118906560D01*
X194580491Y-118969055D01*
X194580497Y-118969055D01*
X194580505Y-118969057D01*
X194766547Y-118990018D01*
X194859569Y-119000499D01*
X194859572Y-119000500D01*
X194859575Y-119000500D01*
X195140428Y-119000500D01*
X195140429Y-119000499D01*
X195283055Y-118984429D01*
X195419494Y-118969057D01*
X195419499Y-118969056D01*
X195419509Y-118969055D01*
X195693318Y-118906560D01*
X195958408Y-118813801D01*
X196211445Y-118691945D01*
X196449248Y-118542523D01*
X196668825Y-118367416D01*
X196867416Y-118168825D01*
X197042523Y-117949248D01*
X197191945Y-117711445D01*
X197313801Y-117458408D01*
X197406560Y-117193318D01*
X197469055Y-116919509D01*
X197500500Y-116640425D01*
X197500500Y-116359575D01*
X197488154Y-116250000D01*
X197469057Y-116080505D01*
X197469054Y-116080487D01*
X197455933Y-116023002D01*
X197406560Y-115806682D01*
X197313801Y-115541592D01*
X197191945Y-115288555D01*
X197042523Y-115050752D01*
X196867416Y-114831175D01*
X196668825Y-114632584D01*
X196659677Y-114625289D01*
X196543641Y-114532753D01*
X196449248Y-114457477D01*
X196211445Y-114308055D01*
X196211442Y-114308053D01*
X195958411Y-114186200D01*
X195693329Y-114093443D01*
X195693317Y-114093439D01*
X195419512Y-114030945D01*
X195419494Y-114030942D01*
X195140431Y-113999500D01*
X195140425Y-113999500D01*
X194859575Y-113999500D01*
X194859568Y-113999500D01*
X194580505Y-114030942D01*
X194580487Y-114030945D01*
X194306682Y-114093439D01*
X194306670Y-114093443D01*
X194041588Y-114186200D01*
X193788557Y-114308053D01*
X193550753Y-114457476D01*
X193331175Y-114632583D01*
X193132583Y-114831175D01*
X192957476Y-115050753D01*
X192808053Y-115288557D01*
X192686200Y-115541588D01*
X192641041Y-115670645D01*
X192600319Y-115727421D01*
X192535367Y-115753168D01*
X192466805Y-115739712D01*
X192416402Y-115691324D01*
X192400000Y-115629690D01*
X192400000Y-115295293D01*
X192399999Y-115295280D01*
X192389517Y-115162093D01*
X192389516Y-115162087D01*
X192334101Y-114942170D01*
X192334100Y-114942167D01*
X192240304Y-114735669D01*
X192240301Y-114735663D01*
X192111148Y-114549241D01*
X192111138Y-114549229D01*
X191950770Y-114388861D01*
X191950758Y-114388851D01*
X191764336Y-114259698D01*
X191764330Y-114259695D01*
X191557832Y-114165899D01*
X191557829Y-114165898D01*
X191337912Y-114110483D01*
X191337906Y-114110482D01*
X191204719Y-114100000D01*
X190250000Y-114100000D01*
X190250000Y-115172768D01*
X190106247Y-115150000D01*
X189893753Y-115150000D01*
X189750000Y-115172768D01*
X189750000Y-114100000D01*
X188795280Y-114100000D01*
X188662093Y-114110482D01*
X188662087Y-114110483D01*
X188442170Y-114165898D01*
X188442167Y-114165899D01*
X188235669Y-114259695D01*
X188235663Y-114259698D01*
X188049241Y-114388851D01*
X188049229Y-114388861D01*
X187888861Y-114549229D01*
X187888851Y-114549241D01*
X187759698Y-114735663D01*
X187759695Y-114735669D01*
X187665899Y-114942167D01*
X187665898Y-114942170D01*
X187610483Y-115162087D01*
X187610482Y-115162093D01*
X187600000Y-115295280D01*
X182930012Y-115295280D01*
X182874842Y-115162087D01*
X182839952Y-115077855D01*
X182839945Y-115077840D01*
X182703584Y-114841656D01*
X182537560Y-114625289D01*
X182537554Y-114625282D01*
X182344717Y-114432445D01*
X182344710Y-114432439D01*
X182227988Y-114342875D01*
X182186785Y-114286447D01*
X182182630Y-114216701D01*
X182216842Y-114155781D01*
X182278560Y-114123028D01*
X182303474Y-114120499D01*
X182350002Y-114120499D01*
X182350008Y-114120499D01*
X182452797Y-114109999D01*
X182619334Y-114054814D01*
X182768656Y-113962712D01*
X182892712Y-113838656D01*
X182984814Y-113689334D01*
X183039999Y-113522797D01*
X183050500Y-113420009D01*
X183050499Y-110659992D01*
X183039999Y-110557203D01*
X182984814Y-110390666D01*
X182892712Y-110241344D01*
X182768656Y-110117288D01*
X182619334Y-110025186D01*
X182452797Y-109970001D01*
X182452795Y-109970000D01*
X182350016Y-109959500D01*
X182350009Y-109959500D01*
X179584500Y-109959500D01*
X179517461Y-109939815D01*
X179471706Y-109887011D01*
X179460500Y-109835500D01*
X179460500Y-108795280D01*
X187600000Y-108795280D01*
X187600000Y-109750000D01*
X188672769Y-109750000D01*
X188650000Y-109893753D01*
X188650000Y-110106247D01*
X188672769Y-110250000D01*
X187600000Y-110250000D01*
X187600000Y-111204719D01*
X187610482Y-111337906D01*
X187610483Y-111337912D01*
X187665898Y-111557829D01*
X187665899Y-111557832D01*
X187759695Y-111764330D01*
X187759698Y-111764336D01*
X187888851Y-111950758D01*
X187888861Y-111950770D01*
X188049229Y-112111138D01*
X188049241Y-112111148D01*
X188235663Y-112240301D01*
X188235669Y-112240304D01*
X188442167Y-112334100D01*
X188442170Y-112334101D01*
X188662087Y-112389516D01*
X188662093Y-112389517D01*
X188795280Y-112399999D01*
X188795294Y-112400000D01*
X189750000Y-112400000D01*
X189750000Y-111327231D01*
X189893753Y-111350000D01*
X190106247Y-111350000D01*
X190250000Y-111327231D01*
X190250000Y-112400000D01*
X191204706Y-112400000D01*
X191204719Y-112399999D01*
X191337906Y-112389517D01*
X191337912Y-112389516D01*
X191557829Y-112334101D01*
X191557832Y-112334100D01*
X191764330Y-112240304D01*
X191764336Y-112240301D01*
X191950758Y-112111148D01*
X191950770Y-112111138D01*
X192111138Y-111950770D01*
X192111148Y-111950758D01*
X192240301Y-111764336D01*
X192240304Y-111764330D01*
X192334100Y-111557832D01*
X192334101Y-111557829D01*
X192389516Y-111337912D01*
X192389517Y-111337906D01*
X192399999Y-111204719D01*
X192400000Y-111204706D01*
X192400000Y-110870309D01*
X192419685Y-110803270D01*
X192472489Y-110757515D01*
X192541647Y-110747571D01*
X192605203Y-110776596D01*
X192641041Y-110829354D01*
X192686200Y-110958411D01*
X192808053Y-111211442D01*
X192808055Y-111211445D01*
X192957477Y-111449248D01*
X193132584Y-111668825D01*
X193331175Y-111867416D01*
X193550752Y-112042523D01*
X193788555Y-112191945D01*
X194041592Y-112313801D01*
X194240680Y-112383465D01*
X194306670Y-112406556D01*
X194306682Y-112406560D01*
X194580491Y-112469055D01*
X194580497Y-112469055D01*
X194580505Y-112469057D01*
X194766547Y-112490018D01*
X194859569Y-112500499D01*
X194859572Y-112500500D01*
X194859575Y-112500500D01*
X195140428Y-112500500D01*
X195140429Y-112500499D01*
X195283055Y-112484429D01*
X195419494Y-112469057D01*
X195419499Y-112469056D01*
X195419509Y-112469055D01*
X195693318Y-112406560D01*
X195958408Y-112313801D01*
X196211445Y-112191945D01*
X196449248Y-112042523D01*
X196668825Y-111867416D01*
X196867416Y-111668825D01*
X197042523Y-111449248D01*
X197191945Y-111211445D01*
X197313801Y-110958408D01*
X197406560Y-110693318D01*
X197469055Y-110419509D01*
X197469992Y-110411198D01*
X197489434Y-110238639D01*
X197500500Y-110140425D01*
X197500500Y-109859575D01*
X197488154Y-109750000D01*
X197469057Y-109580505D01*
X197469054Y-109580487D01*
X197406560Y-109306682D01*
X197406556Y-109306670D01*
X197366194Y-109191324D01*
X197313801Y-109041592D01*
X197191945Y-108788555D01*
X197042523Y-108550752D01*
X196867416Y-108331175D01*
X196668825Y-108132584D01*
X196664412Y-108129065D01*
X196560608Y-108046284D01*
X196449248Y-107957477D01*
X196221936Y-107814647D01*
X196211442Y-107808053D01*
X195958411Y-107686200D01*
X195693329Y-107593443D01*
X195693317Y-107593439D01*
X195419512Y-107530945D01*
X195419494Y-107530942D01*
X195140431Y-107499500D01*
X195140425Y-107499500D01*
X194859575Y-107499500D01*
X194859568Y-107499500D01*
X194580505Y-107530942D01*
X194580487Y-107530945D01*
X194306682Y-107593439D01*
X194306670Y-107593443D01*
X194041588Y-107686200D01*
X193788557Y-107808053D01*
X193550753Y-107957476D01*
X193331175Y-108132583D01*
X193132583Y-108331175D01*
X192957476Y-108550753D01*
X192808053Y-108788557D01*
X192686200Y-109041588D01*
X192641041Y-109170645D01*
X192600319Y-109227421D01*
X192535367Y-109253168D01*
X192466805Y-109239712D01*
X192416402Y-109191324D01*
X192400000Y-109129690D01*
X192400000Y-108795293D01*
X192399999Y-108795280D01*
X192389517Y-108662093D01*
X192389516Y-108662087D01*
X192334101Y-108442170D01*
X192334100Y-108442167D01*
X192240304Y-108235669D01*
X192240301Y-108235663D01*
X192111148Y-108049241D01*
X192111138Y-108049229D01*
X191950770Y-107888861D01*
X191950758Y-107888851D01*
X191764336Y-107759698D01*
X191764330Y-107759695D01*
X191557832Y-107665899D01*
X191557829Y-107665898D01*
X191337912Y-107610483D01*
X191337906Y-107610482D01*
X191204719Y-107600000D01*
X190250000Y-107600000D01*
X190250000Y-108672768D01*
X190106247Y-108650000D01*
X189893753Y-108650000D01*
X189750000Y-108672768D01*
X189750000Y-107600000D01*
X188795280Y-107600000D01*
X188662093Y-107610482D01*
X188662087Y-107610483D01*
X188442170Y-107665898D01*
X188442167Y-107665899D01*
X188235669Y-107759695D01*
X188235663Y-107759698D01*
X188049241Y-107888851D01*
X188049229Y-107888861D01*
X187888861Y-108049229D01*
X187888851Y-108049241D01*
X187759698Y-108235663D01*
X187759695Y-108235669D01*
X187665899Y-108442167D01*
X187665898Y-108442170D01*
X187610483Y-108662087D01*
X187610482Y-108662093D01*
X187600000Y-108795280D01*
X179460500Y-108795280D01*
X179460500Y-107737308D01*
X179480185Y-107670269D01*
X179496819Y-107649627D01*
X180017037Y-107129408D01*
X180034075Y-107192993D01*
X180099901Y-107307007D01*
X180192993Y-107400099D01*
X180307007Y-107465925D01*
X180370590Y-107482962D01*
X179809873Y-108043677D01*
X179809873Y-108043678D01*
X179844858Y-108069096D01*
X180020164Y-108158418D01*
X180207294Y-108219221D01*
X180401618Y-108250000D01*
X180598382Y-108250000D01*
X180792705Y-108219221D01*
X180979835Y-108158418D01*
X181155143Y-108069095D01*
X181190125Y-108043678D01*
X181190126Y-108043678D01*
X180629410Y-107482962D01*
X180692993Y-107465925D01*
X180807007Y-107400099D01*
X180900099Y-107307007D01*
X180965925Y-107192993D01*
X180982962Y-107129410D01*
X181543678Y-107690126D01*
X181543678Y-107690125D01*
X181569097Y-107655141D01*
X181659234Y-107478236D01*
X181707208Y-107427439D01*
X181775029Y-107410644D01*
X181841164Y-107433181D01*
X181880204Y-107478235D01*
X181881115Y-107480024D01*
X181881116Y-107480025D01*
X181970476Y-107655405D01*
X182086172Y-107814646D01*
X182225354Y-107953828D01*
X182384595Y-108069524D01*
X182457092Y-108106463D01*
X182559970Y-108158882D01*
X182559972Y-108158882D01*
X182559975Y-108158884D01*
X182627299Y-108180759D01*
X182747173Y-108219709D01*
X182941578Y-108250500D01*
X182941583Y-108250500D01*
X183138422Y-108250500D01*
X183332826Y-108219709D01*
X183357912Y-108211558D01*
X183520025Y-108158884D01*
X183695405Y-108069524D01*
X183854646Y-107953828D01*
X183993828Y-107814646D01*
X184109524Y-107655405D01*
X184198884Y-107480025D01*
X184259709Y-107292826D01*
X184271776Y-107216631D01*
X184301704Y-107153499D01*
X184306550Y-107148368D01*
X186451140Y-105003781D01*
X186560632Y-104839914D01*
X186636052Y-104657835D01*
X186674501Y-104464540D01*
X186674501Y-104267459D01*
X186674501Y-104262349D01*
X186674500Y-104262323D01*
X186674500Y-102295280D01*
X187600000Y-102295280D01*
X187600000Y-103250000D01*
X188672769Y-103250000D01*
X188650000Y-103393753D01*
X188650000Y-103606247D01*
X188672769Y-103750000D01*
X187600000Y-103750000D01*
X187600000Y-104704719D01*
X187610482Y-104837906D01*
X187610483Y-104837912D01*
X187665898Y-105057829D01*
X187665899Y-105057832D01*
X187759695Y-105264330D01*
X187759698Y-105264336D01*
X187888851Y-105450758D01*
X187888861Y-105450770D01*
X188049229Y-105611138D01*
X188049241Y-105611148D01*
X188235663Y-105740301D01*
X188235669Y-105740304D01*
X188442167Y-105834100D01*
X188442170Y-105834101D01*
X188662087Y-105889516D01*
X188662093Y-105889517D01*
X188795280Y-105899999D01*
X188795294Y-105900000D01*
X189750000Y-105900000D01*
X189750000Y-104827231D01*
X189893753Y-104850000D01*
X190106247Y-104850000D01*
X190250000Y-104827231D01*
X190250000Y-105900000D01*
X191204706Y-105900000D01*
X191204719Y-105899999D01*
X191337906Y-105889517D01*
X191337912Y-105889516D01*
X191557829Y-105834101D01*
X191557832Y-105834100D01*
X191764330Y-105740304D01*
X191764336Y-105740301D01*
X191950758Y-105611148D01*
X191950770Y-105611138D01*
X192111138Y-105450770D01*
X192111148Y-105450758D01*
X192240301Y-105264336D01*
X192240304Y-105264330D01*
X192334100Y-105057832D01*
X192334101Y-105057829D01*
X192389516Y-104837912D01*
X192389517Y-104837906D01*
X192399999Y-104704719D01*
X192400000Y-104704706D01*
X192400000Y-104370309D01*
X192419685Y-104303270D01*
X192472489Y-104257515D01*
X192541647Y-104247571D01*
X192605203Y-104276596D01*
X192641041Y-104329354D01*
X192686200Y-104458411D01*
X192808053Y-104711442D01*
X192808055Y-104711445D01*
X192957477Y-104949248D01*
X193132584Y-105168825D01*
X193331175Y-105367416D01*
X193550752Y-105542523D01*
X193788555Y-105691945D01*
X194041592Y-105813801D01*
X194240680Y-105883465D01*
X194306670Y-105906556D01*
X194306682Y-105906560D01*
X194580491Y-105969055D01*
X194580497Y-105969055D01*
X194580505Y-105969057D01*
X194766547Y-105990018D01*
X194859569Y-106000499D01*
X194859572Y-106000500D01*
X194859575Y-106000500D01*
X195140428Y-106000500D01*
X195140429Y-106000499D01*
X195283055Y-105984429D01*
X195419494Y-105969057D01*
X195419499Y-105969056D01*
X195419509Y-105969055D01*
X195693318Y-105906560D01*
X195958408Y-105813801D01*
X196211445Y-105691945D01*
X196449248Y-105542523D01*
X196668825Y-105367416D01*
X196867416Y-105168825D01*
X197042523Y-104949248D01*
X197191945Y-104711445D01*
X197313801Y-104458408D01*
X197406560Y-104193318D01*
X197469055Y-103919509D01*
X197500500Y-103640425D01*
X197500500Y-103359575D01*
X197485552Y-103226908D01*
X197469057Y-103080505D01*
X197469054Y-103080487D01*
X197406560Y-102806682D01*
X197406556Y-102806670D01*
X197364688Y-102687020D01*
X197313801Y-102541592D01*
X197191945Y-102288555D01*
X197042523Y-102050752D01*
X196867416Y-101831175D01*
X196668825Y-101632584D01*
X196449248Y-101457477D01*
X196221136Y-101314144D01*
X196211442Y-101308053D01*
X195958411Y-101186200D01*
X195693329Y-101093443D01*
X195693317Y-101093439D01*
X195419512Y-101030945D01*
X195419494Y-101030942D01*
X195140431Y-100999500D01*
X195140425Y-100999500D01*
X194859575Y-100999500D01*
X194859568Y-100999500D01*
X194580505Y-101030942D01*
X194580487Y-101030945D01*
X194306682Y-101093439D01*
X194306670Y-101093443D01*
X194041588Y-101186200D01*
X193788557Y-101308053D01*
X193550753Y-101457476D01*
X193331175Y-101632583D01*
X193132583Y-101831175D01*
X192957476Y-102050753D01*
X192808053Y-102288557D01*
X192686200Y-102541588D01*
X192641041Y-102670645D01*
X192600319Y-102727421D01*
X192535367Y-102753168D01*
X192466805Y-102739712D01*
X192416402Y-102691324D01*
X192400000Y-102629690D01*
X192400000Y-102295293D01*
X192399999Y-102295280D01*
X192389517Y-102162093D01*
X192389516Y-102162087D01*
X192334101Y-101942170D01*
X192334100Y-101942167D01*
X192240304Y-101735669D01*
X192240301Y-101735663D01*
X192111148Y-101549241D01*
X192111138Y-101549229D01*
X191950770Y-101388861D01*
X191950758Y-101388851D01*
X191764336Y-101259698D01*
X191764330Y-101259695D01*
X191557832Y-101165899D01*
X191557829Y-101165898D01*
X191337912Y-101110483D01*
X191337906Y-101110482D01*
X191204719Y-101100000D01*
X190250000Y-101100000D01*
X190250000Y-102172768D01*
X190106247Y-102150000D01*
X189893753Y-102150000D01*
X189750000Y-102172768D01*
X189750000Y-101100000D01*
X188795280Y-101100000D01*
X188662093Y-101110482D01*
X188662087Y-101110483D01*
X188442170Y-101165898D01*
X188442167Y-101165899D01*
X188235669Y-101259695D01*
X188235663Y-101259698D01*
X188049241Y-101388851D01*
X188049229Y-101388861D01*
X187888861Y-101549229D01*
X187888851Y-101549241D01*
X187759698Y-101735663D01*
X187759695Y-101735669D01*
X187665899Y-101942167D01*
X187665898Y-101942170D01*
X187610483Y-102162087D01*
X187610482Y-102162093D01*
X187600000Y-102295280D01*
X186674500Y-102295280D01*
X186674500Y-98049651D01*
X186694185Y-97982612D01*
X186746989Y-97936857D01*
X186816147Y-97926913D01*
X186879703Y-97955938D01*
X186908984Y-97993355D01*
X186960731Y-98094913D01*
X187090462Y-98273472D01*
X187246528Y-98429538D01*
X187425087Y-98559269D01*
X187521540Y-98608414D01*
X187621741Y-98659470D01*
X187621744Y-98659471D01*
X187726696Y-98693571D01*
X187831651Y-98727673D01*
X188049644Y-98762200D01*
X188049645Y-98762200D01*
X188270355Y-98762200D01*
X188270356Y-98762200D01*
X188488349Y-98727673D01*
X188698258Y-98659470D01*
X188894913Y-98559269D01*
X189073472Y-98429538D01*
X189229538Y-98273472D01*
X189359269Y-98094913D01*
X189459470Y-97898258D01*
X189527673Y-97688349D01*
X189562200Y-97470356D01*
X189562200Y-97249644D01*
X189527673Y-97031651D01*
X189459470Y-96821742D01*
X189459470Y-96821741D01*
X189403706Y-96712300D01*
X189359269Y-96625087D01*
X189229538Y-96446528D01*
X189073472Y-96290462D01*
X188894913Y-96160731D01*
X188698258Y-96060529D01*
X188698255Y-96060528D01*
X188488350Y-95992327D01*
X188379352Y-95975063D01*
X188270356Y-95957800D01*
X188049644Y-95957800D01*
X187976979Y-95969309D01*
X187831649Y-95992327D01*
X187621744Y-96060528D01*
X187621741Y-96060529D01*
X187425086Y-96160731D01*
X187360419Y-96207715D01*
X187246528Y-96290462D01*
X187246526Y-96290464D01*
X187246525Y-96290464D01*
X187090464Y-96446525D01*
X187090464Y-96446526D01*
X187090462Y-96446528D01*
X187047222Y-96506042D01*
X186960727Y-96625091D01*
X186908984Y-96726643D01*
X186861010Y-96777439D01*
X186793189Y-96794234D01*
X186727054Y-96771696D01*
X186683603Y-96716981D01*
X186674500Y-96670348D01*
X186674500Y-89365782D01*
X186694185Y-89298743D01*
X186710819Y-89278101D01*
X189277137Y-86711784D01*
X189277137Y-86711783D01*
X189277140Y-86711781D01*
X189386632Y-86547914D01*
X189462052Y-86365835D01*
X189500501Y-86172540D01*
X189500501Y-85975459D01*
X189500501Y-85970349D01*
X189500500Y-85970323D01*
X189500500Y-72831456D01*
X189481188Y-72734373D01*
X189462051Y-72638165D01*
X189461892Y-72637782D01*
X189435542Y-72574167D01*
X189386632Y-72456086D01*
X189386628Y-72456080D01*
X189277139Y-72292217D01*
X189134686Y-72149764D01*
X189134655Y-72149735D01*
X178431479Y-61446559D01*
X178431459Y-61446537D01*
X178287785Y-61302863D01*
X178287781Y-61302860D01*
X178123920Y-61193371D01*
X178123907Y-61193364D01*
X177978224Y-61133021D01*
X177978220Y-61133020D01*
X177969722Y-61129500D01*
X177941836Y-61117949D01*
X177826464Y-61095000D01*
X177823542Y-61094418D01*
X177823531Y-61094416D01*
X177748543Y-61079500D01*
X177748541Y-61079500D01*
X163531469Y-61079500D01*
X163464430Y-61059815D01*
X163443788Y-61043181D01*
X163412363Y-61011756D01*
X163412358Y-61011752D01*
X163234025Y-60882187D01*
X163234024Y-60882186D01*
X163234022Y-60882185D01*
X163124610Y-60826436D01*
X163037606Y-60782104D01*
X163037603Y-60782103D01*
X162827952Y-60713985D01*
X162691240Y-60692332D01*
X162610222Y-60679500D01*
X162389778Y-60679500D01*
X162317201Y-60690995D01*
X162172047Y-60713985D01*
X161962396Y-60782103D01*
X161962393Y-60782104D01*
X161765974Y-60882187D01*
X161587641Y-61011752D01*
X161587636Y-61011756D01*
X161431756Y-61167636D01*
X161431752Y-61167641D01*
X161302187Y-61345974D01*
X161202104Y-61542393D01*
X161202103Y-61542396D01*
X161133985Y-61752047D01*
X161099500Y-61969778D01*
X161099500Y-62190221D01*
X161133985Y-62407952D01*
X161202103Y-62617603D01*
X161202104Y-62617606D01*
X161251998Y-62715526D01*
X161280904Y-62772257D01*
X161302187Y-62814025D01*
X161431752Y-62992358D01*
X161431756Y-62992363D01*
X161587636Y-63148243D01*
X161587641Y-63148247D01*
X161743192Y-63261260D01*
X161765978Y-63277815D01*
X161893413Y-63342747D01*
X161962393Y-63377895D01*
X161962396Y-63377896D01*
X162019886Y-63396575D01*
X162172049Y-63446015D01*
X162389778Y-63480500D01*
X162389779Y-63480500D01*
X162610221Y-63480500D01*
X162610222Y-63480500D01*
X162827951Y-63446015D01*
X163037606Y-63377895D01*
X163234022Y-63277815D01*
X163412365Y-63148242D01*
X163443788Y-63116819D01*
X163505111Y-63083334D01*
X163531469Y-63080500D01*
X177184218Y-63080500D01*
X177251257Y-63100185D01*
X177271899Y-63116819D01*
X187463181Y-73308101D01*
X187496666Y-73369424D01*
X187499500Y-73395782D01*
X187499500Y-83968704D01*
X187479815Y-84035743D01*
X187427011Y-84081498D01*
X187357853Y-84091442D01*
X187294297Y-84062417D01*
X187265015Y-84024999D01*
X187236331Y-83968704D01*
X187167051Y-83832734D01*
X187028225Y-83641657D01*
X186861218Y-83474650D01*
X186670141Y-83335824D01*
X186459704Y-83228600D01*
X186235076Y-83155613D01*
X186001805Y-83118667D01*
X186001800Y-83118667D01*
X185765616Y-83118667D01*
X185765611Y-83118667D01*
X185532339Y-83155613D01*
X185307711Y-83228600D01*
X185097274Y-83335824D01*
X185030112Y-83384621D01*
X184906198Y-83474650D01*
X184906196Y-83474652D01*
X184906195Y-83474652D01*
X184739190Y-83641657D01*
X184696159Y-83700884D01*
X184640828Y-83743549D01*
X184586113Y-83751615D01*
X184566366Y-83750060D01*
X183983017Y-84333409D01*
X183964040Y-84287593D01*
X183887434Y-84172943D01*
X183789932Y-84075441D01*
X183675282Y-83998835D01*
X183629463Y-83979856D01*
X184212813Y-83396507D01*
X184212812Y-83396505D01*
X184129882Y-83336254D01*
X183919510Y-83229064D01*
X183694955Y-83156101D01*
X183694956Y-83156101D01*
X183461760Y-83119167D01*
X183225656Y-83119167D01*
X182992460Y-83156101D01*
X182767905Y-83229064D01*
X182557537Y-83336251D01*
X182433729Y-83426203D01*
X182367922Y-83449682D01*
X182299869Y-83433856D01*
X182251928Y-83384526D01*
X182251755Y-83384621D01*
X182251414Y-83383997D01*
X182251174Y-83383750D01*
X182250695Y-83382680D01*
X182247501Y-83376831D01*
X182161255Y-83261622D01*
X182161252Y-83261619D01*
X182046043Y-83175373D01*
X182046036Y-83175369D01*
X181911190Y-83125075D01*
X181911191Y-83125075D01*
X181851591Y-83118668D01*
X181851589Y-83118667D01*
X181851581Y-83118667D01*
X180921802Y-83118667D01*
X180921800Y-83118667D01*
X180685616Y-83118667D01*
X180685612Y-83118667D01*
X179755837Y-83118667D01*
X179755831Y-83118668D01*
X179696224Y-83125075D01*
X179561379Y-83175369D01*
X179561372Y-83175373D01*
X179446163Y-83261619D01*
X179446160Y-83261622D01*
X179359914Y-83376831D01*
X179359910Y-83376838D01*
X179309616Y-83511684D01*
X179303209Y-83571283D01*
X179303208Y-83571302D01*
X179303208Y-96439003D01*
X179283523Y-96506042D01*
X179230719Y-96551797D01*
X179169480Y-96562621D01*
X179152283Y-96561267D01*
X178599280Y-97114270D01*
X178573984Y-97053199D01*
X178503101Y-96947115D01*
X178412885Y-96856899D01*
X178306801Y-96786016D01*
X178245726Y-96760718D01*
X178798730Y-96207715D01*
X178734647Y-96161157D01*
X178538063Y-96060992D01*
X178328235Y-95992815D01*
X178110315Y-95958300D01*
X177889685Y-95958300D01*
X177671766Y-95992815D01*
X177671763Y-95992815D01*
X177461936Y-96060992D01*
X177265342Y-96161162D01*
X177201268Y-96207714D01*
X177201268Y-96207715D01*
X177754271Y-96760718D01*
X177693199Y-96786016D01*
X177587115Y-96856899D01*
X177496899Y-96947115D01*
X177426016Y-97053199D01*
X177400718Y-97114271D01*
X176847715Y-96561268D01*
X176847714Y-96561268D01*
X176801162Y-96625342D01*
X176700992Y-96821936D01*
X176632815Y-97031763D01*
X176632815Y-97031766D01*
X176598300Y-97249684D01*
X176598300Y-97470315D01*
X176632815Y-97688233D01*
X176632815Y-97688236D01*
X176700992Y-97898063D01*
X176801157Y-98094647D01*
X176847715Y-98158730D01*
X177400718Y-97605727D01*
X177426016Y-97666801D01*
X177496899Y-97772885D01*
X177587115Y-97863101D01*
X177693199Y-97933984D01*
X177754271Y-97959280D01*
X177201268Y-98512282D01*
X177201268Y-98512283D01*
X177265352Y-98558842D01*
X177461936Y-98659007D01*
X177671764Y-98727184D01*
X177889685Y-98761700D01*
X178110315Y-98761700D01*
X178328233Y-98727184D01*
X178328236Y-98727184D01*
X178538063Y-98659007D01*
X178734651Y-98558840D01*
X178798730Y-98512283D01*
X178798731Y-98512283D01*
X178245728Y-97959281D01*
X178306801Y-97933984D01*
X178412885Y-97863101D01*
X178503101Y-97772885D01*
X178573984Y-97666801D01*
X178599281Y-97605728D01*
X179152282Y-98158730D01*
X179169478Y-98157377D01*
X179237855Y-98171741D01*
X179287613Y-98220792D01*
X179303208Y-98280995D01*
X179303208Y-99828403D01*
X179283523Y-99895442D01*
X179266889Y-99916084D01*
X176815485Y-102367487D01*
X176815484Y-102367488D01*
X176676657Y-102558565D01*
X176579861Y-102748540D01*
X176579860Y-102748540D01*
X176569435Y-102768998D01*
X176496446Y-102993631D01*
X176459500Y-103226902D01*
X176459500Y-110415500D01*
X176439815Y-110482539D01*
X176387011Y-110528294D01*
X176335500Y-110539500D01*
X173624500Y-110539500D01*
X173557461Y-110519815D01*
X173511706Y-110467011D01*
X173500500Y-110415500D01*
X173500500Y-109381902D01*
X173463553Y-109148631D01*
X173407065Y-108974781D01*
X173390568Y-108924008D01*
X173390566Y-108924005D01*
X173390566Y-108924003D01*
X173317134Y-108779886D01*
X173283343Y-108713567D01*
X173264686Y-108687888D01*
X173247145Y-108649658D01*
X173246802Y-108649786D01*
X173245056Y-108645106D01*
X173244326Y-108643514D01*
X173244091Y-108642525D01*
X173244091Y-108642517D01*
X173209865Y-108550752D01*
X173193797Y-108507671D01*
X173193793Y-108507664D01*
X173107547Y-108392455D01*
X173107544Y-108392452D01*
X172992335Y-108306206D01*
X172992326Y-108306201D01*
X172857479Y-108255907D01*
X172856466Y-108255668D01*
X172855305Y-108255201D01*
X172854655Y-108255226D01*
X172850745Y-108253396D01*
X172850217Y-108253199D01*
X172850231Y-108253159D01*
X172822012Y-108241807D01*
X172816900Y-108238792D01*
X172786433Y-108216657D01*
X172734415Y-108190152D01*
X172731126Y-108188213D01*
X172709752Y-108165380D01*
X172687021Y-108143912D01*
X172686073Y-108140085D01*
X172683377Y-108137205D01*
X172677739Y-108106435D01*
X172670225Y-108076091D01*
X172671496Y-108072358D01*
X172670786Y-108068479D01*
X172682675Y-108039555D01*
X172688692Y-108021899D01*
X172690126Y-108003678D01*
X172129410Y-107442962D01*
X172192993Y-107425925D01*
X172307007Y-107360099D01*
X172400099Y-107267007D01*
X172465925Y-107152993D01*
X172482962Y-107089410D01*
X173043678Y-107650126D01*
X173043678Y-107650125D01*
X173069095Y-107615143D01*
X173158418Y-107439835D01*
X173219221Y-107252705D01*
X173250000Y-107058382D01*
X173250000Y-106861617D01*
X173219221Y-106667294D01*
X173158418Y-106480164D01*
X173069096Y-106304858D01*
X173043678Y-106269873D01*
X173043677Y-106269873D01*
X172482962Y-106830589D01*
X172465925Y-106767007D01*
X172400099Y-106652993D01*
X172307007Y-106559901D01*
X172192993Y-106494075D01*
X172129409Y-106477037D01*
X172690125Y-105916320D01*
X172690125Y-105916319D01*
X172655145Y-105890905D01*
X172478235Y-105800765D01*
X172427439Y-105752790D01*
X172410644Y-105684969D01*
X172433182Y-105618834D01*
X172478236Y-105579795D01*
X172480022Y-105578884D01*
X172480025Y-105578884D01*
X172655405Y-105489524D01*
X172814646Y-105373828D01*
X172953828Y-105234646D01*
X173069524Y-105075405D01*
X173158884Y-104900025D01*
X173219709Y-104712826D01*
X173228420Y-104657827D01*
X173250500Y-104518422D01*
X173250500Y-104321577D01*
X173219709Y-104127173D01*
X173174455Y-103987898D01*
X173158884Y-103939975D01*
X173158882Y-103939972D01*
X173158882Y-103939970D01*
X173069523Y-103764594D01*
X173058920Y-103750000D01*
X172953828Y-103605354D01*
X172814646Y-103466172D01*
X172655405Y-103350476D01*
X172480029Y-103261117D01*
X172292826Y-103200290D01*
X172098422Y-103169500D01*
X172098417Y-103169500D01*
X171901583Y-103169500D01*
X171901578Y-103169500D01*
X171707173Y-103200290D01*
X171519970Y-103261117D01*
X171344594Y-103350476D01*
X171266505Y-103407212D01*
X171185354Y-103466172D01*
X171185352Y-103466174D01*
X171185351Y-103466174D01*
X171046174Y-103605351D01*
X171046174Y-103605352D01*
X171046172Y-103605354D01*
X171020690Y-103640427D01*
X170930476Y-103764594D01*
X170841117Y-103939970D01*
X170780290Y-104127173D01*
X170749500Y-104321577D01*
X170749500Y-104518422D01*
X170780290Y-104712826D01*
X170841117Y-104900029D01*
X170921521Y-105057829D01*
X170930476Y-105075405D01*
X171046172Y-105234646D01*
X171185354Y-105373828D01*
X171291255Y-105450770D01*
X171344596Y-105489525D01*
X171521763Y-105579795D01*
X171572560Y-105627769D01*
X171589355Y-105695590D01*
X171566818Y-105761725D01*
X171521764Y-105800765D01*
X171344859Y-105890902D01*
X171309873Y-105916320D01*
X171309872Y-105916320D01*
X171870590Y-106477037D01*
X171807007Y-106494075D01*
X171692993Y-106559901D01*
X171599901Y-106652993D01*
X171534075Y-106767007D01*
X171517037Y-106830590D01*
X170956320Y-106269872D01*
X170956320Y-106269873D01*
X170930902Y-106304859D01*
X170930899Y-106304863D01*
X170841582Y-106480161D01*
X170780778Y-106667294D01*
X170750000Y-106861617D01*
X170750000Y-107058382D01*
X170780778Y-107252705D01*
X170841581Y-107439835D01*
X170930905Y-107615145D01*
X170956319Y-107650125D01*
X170956320Y-107650125D01*
X171517037Y-107089408D01*
X171534075Y-107152993D01*
X171599901Y-107267007D01*
X171692993Y-107360099D01*
X171807007Y-107425925D01*
X171870590Y-107442962D01*
X171309873Y-108003677D01*
X171311376Y-108022779D01*
X171320575Y-108034257D01*
X171320700Y-108035455D01*
X171321438Y-108036412D01*
X171324332Y-108070116D01*
X171327857Y-108103746D01*
X171327313Y-108104823D01*
X171327417Y-108106025D01*
X171311642Y-108135921D01*
X171296414Y-108166141D01*
X171295226Y-108167033D01*
X171294812Y-108167820D01*
X171268873Y-108188213D01*
X171265577Y-108190156D01*
X171213567Y-108216657D01*
X171183095Y-108238795D01*
X171177987Y-108241808D01*
X171168534Y-108244193D01*
X171149657Y-108252854D01*
X171149785Y-108253198D01*
X171145104Y-108254943D01*
X171143515Y-108255673D01*
X171142516Y-108255908D01*
X171007671Y-108306202D01*
X171007664Y-108306206D01*
X170892455Y-108392452D01*
X170892452Y-108392455D01*
X170806206Y-108507664D01*
X170806201Y-108507673D01*
X170755906Y-108642522D01*
X170755667Y-108643537D01*
X170754927Y-108645147D01*
X170753199Y-108649783D01*
X170752858Y-108649656D01*
X170735316Y-108687884D01*
X170716657Y-108713566D01*
X170609433Y-108924003D01*
X170536446Y-109148631D01*
X170499500Y-109381902D01*
X170499500Y-110415500D01*
X170479815Y-110482539D01*
X170427011Y-110528294D01*
X170375500Y-110539500D01*
X161136786Y-110539500D01*
X161069747Y-110519815D01*
X161023992Y-110467011D01*
X161014048Y-110397853D01*
X161043073Y-110334297D01*
X161067895Y-110312398D01*
X161161279Y-110250000D01*
X161178282Y-110238639D01*
X161317639Y-110099282D01*
X161317639Y-110099280D01*
X161327847Y-110089073D01*
X161327848Y-110089070D01*
X162627140Y-108789781D01*
X162736632Y-108625914D01*
X162812052Y-108443835D01*
X162850500Y-108250540D01*
X162850500Y-108053459D01*
X162850500Y-103447501D01*
X162870185Y-103380462D01*
X162874165Y-103374638D01*
X162922944Y-103307501D01*
X163009517Y-103137593D01*
X163057490Y-103086800D01*
X163125311Y-103070005D01*
X163191446Y-103092542D01*
X163230482Y-103137593D01*
X163293422Y-103261117D01*
X163317058Y-103307505D01*
X163433115Y-103467246D01*
X163572753Y-103606884D01*
X163722234Y-103715486D01*
X163732499Y-103722944D01*
X163902404Y-103809516D01*
X163953199Y-103857490D01*
X163969994Y-103925311D01*
X163947456Y-103991446D01*
X163902404Y-104030483D01*
X163745321Y-104110522D01*
X163732495Y-104117058D01*
X163572753Y-104233115D01*
X163433115Y-104372753D01*
X163317058Y-104532495D01*
X163227408Y-104708441D01*
X163166389Y-104896236D01*
X163135500Y-105091263D01*
X163135500Y-105288736D01*
X163166389Y-105483763D01*
X163210277Y-105618834D01*
X163227409Y-105671561D01*
X163317056Y-105847501D01*
X163317058Y-105847504D01*
X163433115Y-106007246D01*
X163572753Y-106146884D01*
X163717974Y-106252391D01*
X163732499Y-106262944D01*
X163902404Y-106349516D01*
X163953199Y-106397490D01*
X163969994Y-106465311D01*
X163947456Y-106531446D01*
X163902404Y-106570483D01*
X163851336Y-106596505D01*
X163732495Y-106657058D01*
X163572753Y-106773115D01*
X163433115Y-106912753D01*
X163317058Y-107072495D01*
X163227408Y-107248441D01*
X163166389Y-107436236D01*
X163135500Y-107631263D01*
X163135500Y-107828736D01*
X163166389Y-108023763D01*
X163215964Y-108176336D01*
X163227409Y-108211561D01*
X163306376Y-108366540D01*
X163317058Y-108387504D01*
X163433115Y-108547246D01*
X163572753Y-108686884D01*
X163721950Y-108795280D01*
X163732499Y-108802944D01*
X163908439Y-108892591D01*
X164005116Y-108924003D01*
X164096236Y-108953610D01*
X164291264Y-108984500D01*
X164291269Y-108984500D01*
X164488736Y-108984500D01*
X164683763Y-108953610D01*
X164871561Y-108892591D01*
X165047501Y-108802944D01*
X165137192Y-108737779D01*
X165207246Y-108686884D01*
X165207248Y-108686881D01*
X165207252Y-108686879D01*
X165346879Y-108547252D01*
X165346881Y-108547248D01*
X165346884Y-108547246D01*
X165409544Y-108461000D01*
X165462944Y-108387501D01*
X165552591Y-108211561D01*
X165613610Y-108023763D01*
X165631079Y-107913469D01*
X165644500Y-107828736D01*
X165644500Y-107631263D01*
X165613610Y-107436236D01*
X165575925Y-107320255D01*
X165552591Y-107248439D01*
X165462944Y-107072499D01*
X165458096Y-107065826D01*
X165359149Y-106929636D01*
X165359148Y-106929635D01*
X165346880Y-106912749D01*
X165207246Y-106773115D01*
X165047505Y-106657058D01*
X164993351Y-106629465D01*
X164877593Y-106570482D01*
X164826800Y-106522510D01*
X164810005Y-106454689D01*
X164832542Y-106388554D01*
X164877593Y-106349517D01*
X165047501Y-106262944D01*
X165115741Y-106213365D01*
X165207246Y-106146884D01*
X165207248Y-106146881D01*
X165207252Y-106146879D01*
X165346879Y-106007252D01*
X165346881Y-106007248D01*
X165346884Y-106007246D01*
X165420038Y-105906556D01*
X165462944Y-105847501D01*
X165552591Y-105671561D01*
X165613610Y-105483763D01*
X165618836Y-105450770D01*
X165644500Y-105288736D01*
X165644500Y-105091263D01*
X165613610Y-104896236D01*
X165554016Y-104712826D01*
X165552591Y-104708439D01*
X165462944Y-104532499D01*
X165346879Y-104372748D01*
X165207252Y-104233121D01*
X165207246Y-104233115D01*
X165047505Y-104117058D01*
X165041119Y-104113804D01*
X164877593Y-104030482D01*
X164826800Y-103982510D01*
X164810005Y-103914689D01*
X164832542Y-103848554D01*
X164877593Y-103809517D01*
X165047501Y-103722944D01*
X165067912Y-103708114D01*
X165207246Y-103606884D01*
X165207248Y-103606881D01*
X165207252Y-103606879D01*
X165346879Y-103467252D01*
X165346881Y-103467248D01*
X165346884Y-103467246D01*
X165409935Y-103380462D01*
X165462944Y-103307501D01*
X165552591Y-103131561D01*
X165613610Y-102943763D01*
X165627433Y-102856487D01*
X165644500Y-102748736D01*
X165644500Y-102551263D01*
X165613610Y-102356236D01*
X165565268Y-102207456D01*
X165552591Y-102168439D01*
X165462944Y-101992499D01*
X165426376Y-101942167D01*
X165346884Y-101832753D01*
X165207246Y-101693115D01*
X165047504Y-101577058D01*
X165047503Y-101577057D01*
X165047501Y-101577056D01*
X164871561Y-101487409D01*
X164871558Y-101487408D01*
X164683763Y-101426389D01*
X164488736Y-101395500D01*
X164488731Y-101395500D01*
X164291269Y-101395500D01*
X164291264Y-101395500D01*
X164096236Y-101426389D01*
X163908441Y-101487408D01*
X163732495Y-101577058D01*
X163572753Y-101693115D01*
X163433115Y-101832753D01*
X163317058Y-101992495D01*
X163317056Y-101992499D01*
X163230643Y-102162093D01*
X163230485Y-102162403D01*
X163182510Y-102213199D01*
X163114689Y-102229994D01*
X163048554Y-102207456D01*
X163009515Y-102162403D01*
X162922944Y-101992499D01*
X162886376Y-101942167D01*
X162806884Y-101832753D01*
X162667246Y-101693115D01*
X162507504Y-101577058D01*
X162507503Y-101577057D01*
X162507501Y-101577056D01*
X162331561Y-101487409D01*
X162331558Y-101487408D01*
X162143763Y-101426389D01*
X161948736Y-101395500D01*
X161948731Y-101395500D01*
X161751269Y-101395500D01*
X161751264Y-101395500D01*
X161556236Y-101426389D01*
X161368441Y-101487408D01*
X161192495Y-101577058D01*
X161032753Y-101693115D01*
X160893115Y-101832753D01*
X160777058Y-101992495D01*
X160777056Y-101992499D01*
X160690643Y-102162093D01*
X160690485Y-102162403D01*
X160642510Y-102213199D01*
X160574689Y-102229994D01*
X160508554Y-102207456D01*
X160469515Y-102162403D01*
X160382944Y-101992499D01*
X160346376Y-101942167D01*
X160266884Y-101832753D01*
X160127246Y-101693115D01*
X159967504Y-101577058D01*
X159967503Y-101577057D01*
X159967501Y-101577056D01*
X159791561Y-101487409D01*
X159791558Y-101487408D01*
X159603763Y-101426389D01*
X159408736Y-101395500D01*
X159408731Y-101395500D01*
X159211269Y-101395500D01*
X159211264Y-101395500D01*
X159016236Y-101426389D01*
X158828441Y-101487408D01*
X158652495Y-101577058D01*
X158492753Y-101693115D01*
X158353115Y-101832753D01*
X158237058Y-101992495D01*
X158237056Y-101992499D01*
X158150643Y-102162093D01*
X158150485Y-102162403D01*
X158102510Y-102213199D01*
X158034689Y-102229994D01*
X157968554Y-102207456D01*
X157929515Y-102162403D01*
X157842944Y-101992499D01*
X157806376Y-101942167D01*
X157726884Y-101832753D01*
X157587246Y-101693115D01*
X157427504Y-101577058D01*
X157427503Y-101577057D01*
X157427501Y-101577056D01*
X157251561Y-101487409D01*
X157251558Y-101487408D01*
X157063763Y-101426389D01*
X156868736Y-101395500D01*
X156868731Y-101395500D01*
X156671269Y-101395500D01*
X156671264Y-101395500D01*
X156476236Y-101426389D01*
X156288441Y-101487408D01*
X156112495Y-101577058D01*
X155952753Y-101693115D01*
X155813115Y-101832753D01*
X155697058Y-101992495D01*
X155697056Y-101992499D01*
X155610643Y-102162093D01*
X155610485Y-102162403D01*
X155562510Y-102213199D01*
X155494689Y-102229994D01*
X155428554Y-102207456D01*
X155389515Y-102162403D01*
X155302944Y-101992499D01*
X155266376Y-101942167D01*
X155186884Y-101832753D01*
X155047246Y-101693115D01*
X154887504Y-101577058D01*
X154887503Y-101577057D01*
X154887501Y-101577056D01*
X154711561Y-101487409D01*
X154711558Y-101487408D01*
X154523763Y-101426389D01*
X154328736Y-101395500D01*
X154328731Y-101395500D01*
X154131269Y-101395500D01*
X154131264Y-101395500D01*
X153936236Y-101426389D01*
X153748441Y-101487408D01*
X153572495Y-101577058D01*
X153412753Y-101693115D01*
X153273115Y-101832753D01*
X153157058Y-101992495D01*
X153157056Y-101992499D01*
X153070643Y-102162093D01*
X153070485Y-102162403D01*
X153022510Y-102213199D01*
X152954689Y-102229994D01*
X152888554Y-102207456D01*
X152849515Y-102162403D01*
X152762944Y-101992499D01*
X152726376Y-101942167D01*
X152646884Y-101832753D01*
X152507246Y-101693115D01*
X152347504Y-101577058D01*
X152347503Y-101577057D01*
X152347501Y-101577056D01*
X152171561Y-101487409D01*
X152171558Y-101487408D01*
X151983763Y-101426389D01*
X151788736Y-101395500D01*
X151788731Y-101395500D01*
X151591269Y-101395500D01*
X151591264Y-101395500D01*
X151396236Y-101426389D01*
X151208441Y-101487408D01*
X151032495Y-101577058D01*
X150872753Y-101693115D01*
X150733115Y-101832753D01*
X150617058Y-101992495D01*
X150617056Y-101992499D01*
X150530643Y-102162093D01*
X150530485Y-102162403D01*
X150482510Y-102213199D01*
X150414689Y-102229994D01*
X150348554Y-102207456D01*
X150309515Y-102162403D01*
X150222944Y-101992499D01*
X150186376Y-101942167D01*
X150106884Y-101832753D01*
X149967246Y-101693115D01*
X149807504Y-101577058D01*
X149807503Y-101577057D01*
X149807501Y-101577056D01*
X149631561Y-101487409D01*
X149631558Y-101487408D01*
X149443766Y-101426390D01*
X149400795Y-101419584D01*
X149337660Y-101389654D01*
X149332513Y-101384792D01*
X137536819Y-89589098D01*
X137503334Y-89527775D01*
X137500500Y-89501417D01*
X137500500Y-81787391D01*
X137506812Y-81765891D01*
X137508510Y-81743546D01*
X137516467Y-81733013D01*
X137520185Y-81720352D01*
X137537117Y-81705679D01*
X137550628Y-81687797D01*
X137563016Y-81683238D01*
X137572989Y-81674597D01*
X137595166Y-81671408D01*
X137616199Y-81663669D01*
X137629083Y-81666531D01*
X137642147Y-81664653D01*
X137662531Y-81673962D01*
X137684406Y-81678822D01*
X137698077Y-81690195D01*
X137705703Y-81693678D01*
X137712567Y-81700097D01*
X137720196Y-81707793D01*
X137722861Y-81711782D01*
X137862218Y-81851139D01*
X137862220Y-81851140D01*
X137869562Y-81858482D01*
X140113181Y-84102101D01*
X140146666Y-84163424D01*
X140149500Y-84189782D01*
X140149500Y-84305286D01*
X140180509Y-84501072D01*
X140182754Y-84515243D01*
X140238922Y-84688111D01*
X140248444Y-84717414D01*
X140344951Y-84906820D01*
X140469890Y-85078786D01*
X140620213Y-85229109D01*
X140792179Y-85354048D01*
X140792181Y-85354049D01*
X140792184Y-85354051D01*
X140981588Y-85450557D01*
X141183757Y-85516246D01*
X141393713Y-85549500D01*
X141393714Y-85549500D01*
X141606286Y-85549500D01*
X141606287Y-85549500D01*
X141816243Y-85516246D01*
X142018412Y-85450557D01*
X142207816Y-85354051D01*
X142255830Y-85319167D01*
X142379786Y-85229109D01*
X142379788Y-85229106D01*
X142379792Y-85229104D01*
X142530104Y-85078792D01*
X142649991Y-84913779D01*
X142705320Y-84871115D01*
X142774933Y-84865136D01*
X142836729Y-84897741D01*
X142850627Y-84913781D01*
X142970272Y-85078459D01*
X142970276Y-85078464D01*
X143120535Y-85228723D01*
X143120540Y-85228727D01*
X143292442Y-85353620D01*
X143481782Y-85450095D01*
X143683871Y-85515757D01*
X143750000Y-85526231D01*
X143750000Y-84478145D01*
X143816657Y-84516630D01*
X143937465Y-84549000D01*
X144062535Y-84549000D01*
X144183343Y-84516630D01*
X144250000Y-84478145D01*
X144250000Y-85526230D01*
X144316126Y-85515757D01*
X144316129Y-85515757D01*
X144518217Y-85450095D01*
X144707557Y-85353620D01*
X144879459Y-85228727D01*
X144879464Y-85228723D01*
X145029721Y-85078466D01*
X145149371Y-84913781D01*
X145204701Y-84871115D01*
X145274314Y-84865136D01*
X145336110Y-84897741D01*
X145350008Y-84913781D01*
X145469890Y-85078785D01*
X145469894Y-85078790D01*
X145620213Y-85229109D01*
X145792179Y-85354048D01*
X145792181Y-85354049D01*
X145792184Y-85354051D01*
X145981588Y-85450557D01*
X146183757Y-85516246D01*
X146393713Y-85549500D01*
X146393714Y-85549500D01*
X146606286Y-85549500D01*
X146606287Y-85549500D01*
X146816243Y-85516246D01*
X147018412Y-85450557D01*
X147207816Y-85354051D01*
X147255830Y-85319167D01*
X147379786Y-85229109D01*
X147379788Y-85229106D01*
X147379792Y-85229104D01*
X147530104Y-85078792D01*
X147649683Y-84914204D01*
X147705011Y-84871540D01*
X147774624Y-84865561D01*
X147836420Y-84898166D01*
X147850313Y-84914199D01*
X147953925Y-85056809D01*
X147969896Y-85078792D01*
X148120213Y-85229109D01*
X148292179Y-85354048D01*
X148292181Y-85354049D01*
X148292184Y-85354051D01*
X148481588Y-85450557D01*
X148683757Y-85516246D01*
X148893713Y-85549500D01*
X148893714Y-85549500D01*
X149106286Y-85549500D01*
X149106287Y-85549500D01*
X149316243Y-85516246D01*
X149518412Y-85450557D01*
X149707816Y-85354051D01*
X149826729Y-85267656D01*
X149879784Y-85229110D01*
X149879784Y-85229109D01*
X149879792Y-85229104D01*
X150018604Y-85090291D01*
X150079923Y-85056809D01*
X150149615Y-85061793D01*
X150205549Y-85103664D01*
X150211821Y-85112878D01*
X150215185Y-85118333D01*
X150215186Y-85118334D01*
X150307288Y-85267656D01*
X150431344Y-85391712D01*
X150440591Y-85397416D01*
X150487318Y-85449360D01*
X150499500Y-85502957D01*
X150499500Y-87336541D01*
X150499500Y-87336543D01*
X150499499Y-87336543D01*
X150537947Y-87529829D01*
X150537950Y-87529839D01*
X150613364Y-87711907D01*
X150613371Y-87711920D01*
X150722859Y-87875780D01*
X150722860Y-87875781D01*
X150722861Y-87875782D01*
X150862218Y-88015139D01*
X150862219Y-88015139D01*
X150869286Y-88022206D01*
X150869285Y-88022206D01*
X150869289Y-88022209D01*
X160984215Y-98137137D01*
X160984219Y-98137140D01*
X161148079Y-98246628D01*
X161148088Y-98246633D01*
X161212888Y-98273474D01*
X161330165Y-98322052D01*
X161491389Y-98354121D01*
X161523457Y-98360499D01*
X161523458Y-98360500D01*
X161523459Y-98360500D01*
X161523460Y-98360500D01*
X161720541Y-98360500D01*
X166806128Y-98360500D01*
X166873167Y-98380185D01*
X166893809Y-98396819D01*
X166926528Y-98429538D01*
X167105087Y-98559269D01*
X167201540Y-98608414D01*
X167301741Y-98659470D01*
X167301744Y-98659471D01*
X167406696Y-98693571D01*
X167511651Y-98727673D01*
X167729644Y-98762200D01*
X167729645Y-98762200D01*
X167950355Y-98762200D01*
X167950356Y-98762200D01*
X168168349Y-98727673D01*
X168378258Y-98659470D01*
X168574913Y-98559269D01*
X168753472Y-98429538D01*
X168909538Y-98273472D01*
X169039269Y-98094913D01*
X169139470Y-97898258D01*
X169207673Y-97688349D01*
X169242200Y-97470356D01*
X169242200Y-97249644D01*
X169207673Y-97031651D01*
X169139470Y-96821742D01*
X169139470Y-96821741D01*
X169083706Y-96712300D01*
X169039269Y-96625087D01*
X168909538Y-96446528D01*
X168753472Y-96290462D01*
X168574913Y-96160731D01*
X168378258Y-96060529D01*
X168378255Y-96060528D01*
X168168350Y-95992327D01*
X168059352Y-95975063D01*
X167950356Y-95957800D01*
X167729644Y-95957800D01*
X167656979Y-95969309D01*
X167511649Y-95992327D01*
X167301744Y-96060528D01*
X167301741Y-96060529D01*
X167105086Y-96160731D01*
X167040419Y-96207715D01*
X166926528Y-96290462D01*
X166926526Y-96290464D01*
X166926525Y-96290464D01*
X166893809Y-96323181D01*
X166832486Y-96356666D01*
X166806128Y-96359500D01*
X162087783Y-96359500D01*
X162020744Y-96339815D01*
X162000102Y-96323181D01*
X152536819Y-86859898D01*
X152503334Y-86798575D01*
X152500500Y-86772217D01*
X152500500Y-85502957D01*
X152520185Y-85435918D01*
X152559407Y-85397416D01*
X152568656Y-85391712D01*
X152692712Y-85267656D01*
X152784814Y-85118334D01*
X152839999Y-84951797D01*
X152850500Y-84849009D01*
X152850499Y-83298992D01*
X152848851Y-83282863D01*
X152839999Y-83196203D01*
X152839998Y-83196200D01*
X152816429Y-83125075D01*
X152784814Y-83029666D01*
X152692712Y-82880344D01*
X152568656Y-82756288D01*
X152419334Y-82664186D01*
X152252797Y-82609001D01*
X152252795Y-82609000D01*
X152150010Y-82598500D01*
X150849998Y-82598500D01*
X150849981Y-82598501D01*
X150747203Y-82609000D01*
X150747200Y-82609001D01*
X150580668Y-82664185D01*
X150580663Y-82664187D01*
X150431342Y-82756289D01*
X150307289Y-82880342D01*
X150307288Y-82880344D01*
X150240393Y-82988800D01*
X150230039Y-83005586D01*
X150178091Y-83052310D01*
X150109129Y-83063533D01*
X150045046Y-83035689D01*
X150006190Y-82977621D01*
X150000500Y-82940489D01*
X150000500Y-77059739D01*
X150020185Y-76992700D01*
X150059400Y-76954203D01*
X150186656Y-76875712D01*
X150310712Y-76751656D01*
X150402814Y-76602334D01*
X150457999Y-76435797D01*
X150468500Y-76333009D01*
X150468499Y-74542992D01*
X150468498Y-74542983D01*
X155093500Y-74542983D01*
X155093500Y-76333001D01*
X155093501Y-76333018D01*
X155104000Y-76435796D01*
X155104001Y-76435799D01*
X155141774Y-76549788D01*
X155159186Y-76602334D01*
X155251288Y-76751656D01*
X155375344Y-76875712D01*
X155524666Y-76967814D01*
X155691203Y-77022999D01*
X155793991Y-77033500D01*
X157134008Y-77033499D01*
X157236797Y-77022999D01*
X157403334Y-76967814D01*
X157552656Y-76875712D01*
X157676712Y-76751656D01*
X157768814Y-76602334D01*
X157768817Y-76602323D01*
X157769353Y-76601177D01*
X157769934Y-76600516D01*
X157772605Y-76596187D01*
X157773344Y-76596643D01*
X157815521Y-76548734D01*
X157882713Y-76529577D01*
X157949596Y-76549788D01*
X157969420Y-76565892D01*
X158111502Y-76707974D01*
X158285963Y-76834728D01*
X158478098Y-76932627D01*
X158683190Y-76999266D01*
X158754000Y-77010481D01*
X158754000Y-75980709D01*
X158774339Y-75992452D01*
X158925667Y-76033000D01*
X159082333Y-76033000D01*
X159233661Y-75992452D01*
X159254000Y-75980709D01*
X159254000Y-77010480D01*
X159324809Y-76999266D01*
X159529901Y-76932627D01*
X159722036Y-76834728D01*
X159896496Y-76707974D01*
X159896497Y-76707974D01*
X160048974Y-76555497D01*
X160048974Y-76555496D01*
X160175728Y-76381036D01*
X160273627Y-76188901D01*
X160340265Y-75983809D01*
X160374000Y-75770820D01*
X160374000Y-75688000D01*
X159546709Y-75688000D01*
X159558452Y-75667661D01*
X159599000Y-75516333D01*
X159599000Y-75359667D01*
X159558452Y-75208339D01*
X159546709Y-75188000D01*
X160374000Y-75188000D01*
X160374000Y-75105179D01*
X160340265Y-74892190D01*
X160273627Y-74687098D01*
X160175728Y-74494963D01*
X160048974Y-74320503D01*
X160048974Y-74320502D01*
X159896497Y-74168025D01*
X159722036Y-74041271D01*
X159529899Y-73943372D01*
X159324805Y-73876733D01*
X159254000Y-73865518D01*
X159254000Y-74895290D01*
X159233661Y-74883548D01*
X159082333Y-74843000D01*
X158925667Y-74843000D01*
X158774339Y-74883548D01*
X158754000Y-74895290D01*
X158754000Y-73865518D01*
X158753999Y-73865518D01*
X158683194Y-73876733D01*
X158478100Y-73943372D01*
X158285963Y-74041271D01*
X158111506Y-74168022D01*
X157969420Y-74310108D01*
X157908097Y-74343592D01*
X157838405Y-74338608D01*
X157782472Y-74296736D01*
X157769356Y-74274828D01*
X157768816Y-74273670D01*
X157703654Y-74168025D01*
X157676712Y-74124344D01*
X157552656Y-74000288D01*
X157459628Y-73942908D01*
X157403336Y-73908187D01*
X157403331Y-73908185D01*
X157401862Y-73907698D01*
X157236797Y-73853001D01*
X157236795Y-73853000D01*
X157134010Y-73842500D01*
X155793998Y-73842500D01*
X155793981Y-73842501D01*
X155691203Y-73853000D01*
X155691200Y-73853001D01*
X155524668Y-73908185D01*
X155524663Y-73908187D01*
X155375342Y-74000289D01*
X155251289Y-74124342D01*
X155159187Y-74273663D01*
X155159185Y-74273668D01*
X155147110Y-74310108D01*
X155104001Y-74440203D01*
X155104001Y-74440204D01*
X155104000Y-74440204D01*
X155093500Y-74542983D01*
X150468498Y-74542983D01*
X150457999Y-74440203D01*
X150402814Y-74273666D01*
X150310712Y-74124344D01*
X150186656Y-74000288D01*
X150186652Y-74000285D01*
X150157401Y-73982242D01*
X150110677Y-73930293D01*
X150098500Y-73876705D01*
X150098500Y-69367782D01*
X150118185Y-69300743D01*
X150134819Y-69280101D01*
X151258102Y-68156819D01*
X151319425Y-68123334D01*
X151345783Y-68120500D01*
X155307599Y-68120500D01*
X155374638Y-68140185D01*
X155395275Y-68156814D01*
X155488053Y-68249592D01*
X155630041Y-68333564D01*
X155671816Y-68345701D01*
X155788447Y-68379586D01*
X155788450Y-68379586D01*
X155788452Y-68379587D01*
X155825466Y-68382500D01*
X155825474Y-68382500D01*
X158084526Y-68382500D01*
X158084534Y-68382500D01*
X158121548Y-68379587D01*
X158121550Y-68379586D01*
X158121552Y-68379586D01*
X158163323Y-68367449D01*
X158279959Y-68333564D01*
X158421947Y-68249592D01*
X158538592Y-68132947D01*
X158622564Y-67990959D01*
X158668587Y-67832548D01*
X158671500Y-67795534D01*
X158671500Y-66444466D01*
X158668587Y-66407452D01*
X158622564Y-66249041D01*
X158538592Y-66107053D01*
X158538590Y-66107051D01*
X158538587Y-66107047D01*
X158421952Y-65990412D01*
X158421944Y-65990406D01*
X158365004Y-65956732D01*
X158317321Y-65905663D01*
X158304817Y-65836921D01*
X158331462Y-65772332D01*
X158365004Y-65743268D01*
X158421947Y-65709592D01*
X158538592Y-65592947D01*
X158622564Y-65450959D01*
X158668587Y-65292548D01*
X158671500Y-65255534D01*
X158671500Y-63904466D01*
X158668587Y-63867452D01*
X158622564Y-63709041D01*
X158538592Y-63567053D01*
X158538590Y-63567051D01*
X158538587Y-63567047D01*
X158421952Y-63450412D01*
X158421944Y-63450406D01*
X158365004Y-63416732D01*
X158317321Y-63365663D01*
X158304817Y-63296921D01*
X158331462Y-63232332D01*
X158365004Y-63203268D01*
X158421947Y-63169592D01*
X158538592Y-63052947D01*
X158622564Y-62910959D01*
X158668587Y-62752548D01*
X158671500Y-62715534D01*
X158671500Y-61364466D01*
X158668587Y-61327452D01*
X158661443Y-61302863D01*
X158629632Y-61193368D01*
X158622564Y-61169041D01*
X158544277Y-61036666D01*
X158538594Y-61027056D01*
X158538587Y-61027047D01*
X158421952Y-60910412D01*
X158421944Y-60910406D01*
X158365004Y-60876732D01*
X158317321Y-60825663D01*
X158304817Y-60756921D01*
X158331462Y-60692332D01*
X158365004Y-60663268D01*
X158421947Y-60629592D01*
X158538592Y-60512947D01*
X158622564Y-60370959D01*
X158668587Y-60212548D01*
X158671500Y-60175534D01*
X158671500Y-58824466D01*
X158668587Y-58787452D01*
X158622564Y-58629041D01*
X158538592Y-58487053D01*
X158538590Y-58487051D01*
X158538587Y-58487047D01*
X158421952Y-58370412D01*
X158421944Y-58370406D01*
X158365004Y-58336732D01*
X158317321Y-58285663D01*
X158304817Y-58216921D01*
X158331462Y-58152332D01*
X158365004Y-58123268D01*
X158421947Y-58089592D01*
X158538592Y-57972947D01*
X158622564Y-57830959D01*
X158668587Y-57672548D01*
X158671500Y-57635534D01*
X158671500Y-56284466D01*
X158668587Y-56247452D01*
X158644448Y-56164367D01*
X158622565Y-56089045D01*
X158622564Y-56089042D01*
X158622564Y-56089041D01*
X158538592Y-55947053D01*
X158538590Y-55947051D01*
X158538587Y-55947047D01*
X158421952Y-55830412D01*
X158421949Y-55830410D01*
X158421947Y-55830408D01*
X158364511Y-55796440D01*
X158316829Y-55745371D01*
X158304326Y-55676630D01*
X158330972Y-55612040D01*
X158364514Y-55582976D01*
X158421637Y-55549193D01*
X158421643Y-55549189D01*
X158538189Y-55432643D01*
X158538196Y-55432634D01*
X158622102Y-55290756D01*
X158622103Y-55290753D01*
X158647040Y-55204920D01*
X158647043Y-55204911D01*
X158668089Y-55132467D01*
X158670999Y-55095488D01*
X158670999Y-53744530D01*
X158670998Y-53744508D01*
X158668089Y-53707533D01*
X158622102Y-53549242D01*
X158538196Y-53407365D01*
X158538189Y-53407356D01*
X158421643Y-53290810D01*
X158421634Y-53290803D01*
X158364513Y-53257022D01*
X158342992Y-53233974D01*
X158320192Y-53212195D01*
X158319331Y-53208632D01*
X158316829Y-53205953D01*
X158311185Y-53174927D01*
X158303780Y-53144281D01*
X158304982Y-53140817D01*
X158304326Y-53137211D01*
X158316349Y-53108066D01*
X158326690Y-53078274D01*
X158329828Y-53075393D01*
X158330972Y-53072622D01*
X158351068Y-53052752D01*
X158357483Y-53047715D01*
X158421947Y-53009592D01*
X158479984Y-52951554D01*
X158485835Y-52946962D01*
X158511649Y-52936653D01*
X158536042Y-52923334D01*
X158548308Y-52922015D01*
X158550723Y-52921051D01*
X158553062Y-52921504D01*
X158562401Y-52920500D01*
X161017209Y-52920500D01*
X161084248Y-52940185D01*
X161130003Y-52992989D01*
X161133391Y-53001167D01*
X161156202Y-53062328D01*
X161156206Y-53062335D01*
X161242452Y-53177544D01*
X161242455Y-53177547D01*
X161357664Y-53263793D01*
X161357671Y-53263797D01*
X161492517Y-53314091D01*
X161492516Y-53314091D01*
X161499444Y-53314835D01*
X161552127Y-53320500D01*
X163447872Y-53320499D01*
X163507483Y-53314091D01*
X163642331Y-53263796D01*
X163757546Y-53177546D01*
X163843796Y-53062331D01*
X163894091Y-52927483D01*
X163900500Y-52867873D01*
X163900499Y-51529644D01*
X168977800Y-51529644D01*
X168977800Y-51750356D01*
X168990245Y-51828927D01*
X169012327Y-51968350D01*
X169080528Y-52178255D01*
X169080529Y-52178258D01*
X169173620Y-52360957D01*
X169180731Y-52374913D01*
X169310462Y-52553472D01*
X169466528Y-52709538D01*
X169645087Y-52839269D01*
X169726007Y-52880500D01*
X169841741Y-52939470D01*
X169841744Y-52939471D01*
X169946696Y-52973571D01*
X170051651Y-53007673D01*
X170269644Y-53042200D01*
X170269645Y-53042200D01*
X170490355Y-53042200D01*
X170490356Y-53042200D01*
X170708349Y-53007673D01*
X170918258Y-52939470D01*
X171114913Y-52839269D01*
X171293472Y-52709538D01*
X171449538Y-52553472D01*
X171579269Y-52374913D01*
X171679470Y-52178258D01*
X171747673Y-51968349D01*
X171782200Y-51750356D01*
X171782200Y-51529684D01*
X174058300Y-51529684D01*
X174058300Y-51750315D01*
X174092815Y-51968233D01*
X174092815Y-51968236D01*
X174160992Y-52178063D01*
X174261157Y-52374647D01*
X174307715Y-52438730D01*
X174860718Y-51885727D01*
X174886016Y-51946801D01*
X174956899Y-52052885D01*
X175047115Y-52143101D01*
X175153199Y-52213984D01*
X175214271Y-52239280D01*
X174661268Y-52792282D01*
X174661268Y-52792283D01*
X174725352Y-52838842D01*
X174921936Y-52939007D01*
X175131764Y-53007184D01*
X175349685Y-53041700D01*
X175570315Y-53041700D01*
X175788233Y-53007184D01*
X175788236Y-53007184D01*
X175998063Y-52939007D01*
X176194651Y-52838840D01*
X176258730Y-52792283D01*
X176258731Y-52792283D01*
X175705728Y-52239281D01*
X175766801Y-52213984D01*
X175872885Y-52143101D01*
X175963101Y-52052885D01*
X176033984Y-51946801D01*
X176059280Y-51885728D01*
X176612283Y-52438731D01*
X176612283Y-52438730D01*
X176658840Y-52374651D01*
X176759007Y-52178063D01*
X176827184Y-51968236D01*
X176827184Y-51968233D01*
X176861700Y-51750315D01*
X176861700Y-51529684D01*
X176861694Y-51529644D01*
X184217800Y-51529644D01*
X184217800Y-51750356D01*
X184230245Y-51828927D01*
X184252327Y-51968350D01*
X184320528Y-52178255D01*
X184320529Y-52178258D01*
X184413620Y-52360957D01*
X184420731Y-52374913D01*
X184550462Y-52553472D01*
X184706528Y-52709538D01*
X184885087Y-52839269D01*
X184966007Y-52880500D01*
X185081741Y-52939470D01*
X185081744Y-52939471D01*
X185186696Y-52973571D01*
X185291651Y-53007673D01*
X185509644Y-53042200D01*
X185509645Y-53042200D01*
X185730355Y-53042200D01*
X185730356Y-53042200D01*
X185948349Y-53007673D01*
X186158258Y-52939470D01*
X186354913Y-52839269D01*
X186533472Y-52709538D01*
X186689538Y-52553472D01*
X186819269Y-52374913D01*
X186919470Y-52178258D01*
X186987673Y-51968349D01*
X187022200Y-51750356D01*
X187022200Y-51529644D01*
X186987673Y-51311651D01*
X186929262Y-51131878D01*
X186919471Y-51101744D01*
X186919470Y-51101741D01*
X186864252Y-50993371D01*
X186819269Y-50905087D01*
X186689538Y-50726528D01*
X186533472Y-50570462D01*
X186354913Y-50440731D01*
X186285027Y-50405122D01*
X186158258Y-50340529D01*
X186158255Y-50340528D01*
X185948350Y-50272327D01*
X185839352Y-50255063D01*
X185730356Y-50237800D01*
X185509644Y-50237800D01*
X185436979Y-50249309D01*
X185291649Y-50272327D01*
X185081744Y-50340528D01*
X185081741Y-50340529D01*
X184885086Y-50440731D01*
X184820419Y-50487715D01*
X184706528Y-50570462D01*
X184706526Y-50570464D01*
X184706525Y-50570464D01*
X184550464Y-50726525D01*
X184550464Y-50726526D01*
X184550462Y-50726528D01*
X184494747Y-50803212D01*
X184420731Y-50905086D01*
X184320529Y-51101741D01*
X184320528Y-51101744D01*
X184252327Y-51311649D01*
X184229200Y-51457670D01*
X184217800Y-51529644D01*
X176861694Y-51529644D01*
X176827184Y-51311766D01*
X176827184Y-51311763D01*
X176759007Y-51101936D01*
X176658842Y-50905352D01*
X176612283Y-50841268D01*
X176612282Y-50841268D01*
X176059280Y-51394270D01*
X176033984Y-51333199D01*
X175963101Y-51227115D01*
X175872885Y-51136899D01*
X175766801Y-51066016D01*
X175705726Y-51040718D01*
X176258730Y-50487715D01*
X176194647Y-50441157D01*
X175998063Y-50340992D01*
X175788235Y-50272815D01*
X175570315Y-50238300D01*
X175349685Y-50238300D01*
X175131766Y-50272815D01*
X175131763Y-50272815D01*
X174921936Y-50340992D01*
X174725342Y-50441162D01*
X174661268Y-50487714D01*
X174661268Y-50487715D01*
X175214271Y-51040718D01*
X175153199Y-51066016D01*
X175047115Y-51136899D01*
X174956899Y-51227115D01*
X174886016Y-51333199D01*
X174860718Y-51394271D01*
X174307715Y-50841268D01*
X174307714Y-50841268D01*
X174261162Y-50905342D01*
X174160992Y-51101936D01*
X174092815Y-51311763D01*
X174092815Y-51311766D01*
X174058300Y-51529684D01*
X171782200Y-51529684D01*
X171782200Y-51529644D01*
X171747673Y-51311651D01*
X171689262Y-51131878D01*
X171679471Y-51101744D01*
X171679470Y-51101741D01*
X171624252Y-50993371D01*
X171579269Y-50905087D01*
X171449538Y-50726528D01*
X171293472Y-50570462D01*
X171114913Y-50440731D01*
X171045027Y-50405122D01*
X170918258Y-50340529D01*
X170918255Y-50340528D01*
X170708350Y-50272327D01*
X170599352Y-50255063D01*
X170490356Y-50237800D01*
X170269644Y-50237800D01*
X170196979Y-50249309D01*
X170051649Y-50272327D01*
X169841744Y-50340528D01*
X169841741Y-50340529D01*
X169645086Y-50440731D01*
X169580419Y-50487715D01*
X169466528Y-50570462D01*
X169466526Y-50570464D01*
X169466525Y-50570464D01*
X169310464Y-50726525D01*
X169310464Y-50726526D01*
X169310462Y-50726528D01*
X169254747Y-50803212D01*
X169180731Y-50905086D01*
X169080529Y-51101741D01*
X169080528Y-51101744D01*
X169012327Y-51311649D01*
X168989200Y-51457670D01*
X168977800Y-51529644D01*
X163900499Y-51529644D01*
X163900499Y-50972128D01*
X163894091Y-50912517D01*
X163891319Y-50905086D01*
X163843797Y-50777671D01*
X163843793Y-50777664D01*
X163757547Y-50662455D01*
X163757544Y-50662452D01*
X163642335Y-50576206D01*
X163642328Y-50576202D01*
X163507482Y-50525908D01*
X163507483Y-50525908D01*
X163447883Y-50519501D01*
X163447881Y-50519500D01*
X163447873Y-50519500D01*
X163447864Y-50519500D01*
X161552129Y-50519500D01*
X161552123Y-50519501D01*
X161492516Y-50525908D01*
X161357671Y-50576202D01*
X161357664Y-50576206D01*
X161242455Y-50662452D01*
X161242452Y-50662455D01*
X161156206Y-50777664D01*
X161156202Y-50777671D01*
X161133391Y-50838833D01*
X161091520Y-50894767D01*
X161026056Y-50919184D01*
X161017209Y-50919500D01*
X158640021Y-50919500D01*
X158572982Y-50899815D01*
X158542039Y-50871498D01*
X158538594Y-50867057D01*
X158538592Y-50867053D01*
X158538588Y-50867049D01*
X158538585Y-50867045D01*
X158421952Y-50750412D01*
X158421943Y-50750405D01*
X158279957Y-50666435D01*
X158279954Y-50666434D01*
X158121552Y-50620413D01*
X158121546Y-50620412D01*
X158084541Y-50617500D01*
X158084534Y-50617500D01*
X155825466Y-50617500D01*
X155825458Y-50617500D01*
X155788453Y-50620412D01*
X155788447Y-50620413D01*
X155630045Y-50666434D01*
X155630042Y-50666435D01*
X155488056Y-50750405D01*
X155488046Y-50750413D01*
X155391854Y-50846604D01*
X155377061Y-50859239D01*
X155297536Y-50917018D01*
X155157021Y-51057533D01*
X155040213Y-51218305D01*
X154949994Y-51395367D01*
X154949993Y-51395370D01*
X154888587Y-51584362D01*
X154857500Y-51780639D01*
X154857500Y-51979360D01*
X154888587Y-52175637D01*
X154949993Y-52364629D01*
X154949994Y-52364632D01*
X155018968Y-52499999D01*
X155040213Y-52541694D01*
X155157019Y-52702464D01*
X155157021Y-52702466D01*
X155297539Y-52842984D01*
X155377060Y-52900758D01*
X155383786Y-52906007D01*
X155387979Y-52909518D01*
X155488053Y-53009592D01*
X155554208Y-53048716D01*
X155561975Y-53055220D01*
X155575962Y-53076197D01*
X155593170Y-53094627D01*
X155595015Y-53104773D01*
X155600736Y-53113353D01*
X155601161Y-53138564D01*
X155605673Y-53163369D01*
X155601740Y-53172900D01*
X155601915Y-53183212D01*
X155588643Y-53204649D01*
X155579028Y-53227958D01*
X155568643Y-53236956D01*
X155565137Y-53242620D01*
X155558391Y-53245838D01*
X155545487Y-53257021D01*
X155488370Y-53290800D01*
X155488357Y-53290810D01*
X155416360Y-53362806D01*
X155416360Y-53362807D01*
X156035905Y-53982352D01*
X155948429Y-54005792D01*
X155847070Y-54064311D01*
X155764311Y-54147070D01*
X155705792Y-54248429D01*
X155682352Y-54335905D01*
X155067730Y-53721282D01*
X155067729Y-53721283D01*
X155040643Y-53758564D01*
X154950457Y-53935562D01*
X154889075Y-54124476D01*
X154889075Y-54124479D01*
X154858000Y-54320678D01*
X154858000Y-54519321D01*
X154889075Y-54715520D01*
X154889075Y-54715523D01*
X154950457Y-54904437D01*
X155040641Y-55081432D01*
X155067730Y-55118715D01*
X155067731Y-55118716D01*
X155682352Y-54504094D01*
X155705792Y-54591571D01*
X155764311Y-54692930D01*
X155847070Y-54775689D01*
X155948429Y-54834208D01*
X156035904Y-54857647D01*
X155416360Y-55477191D01*
X155488360Y-55549192D01*
X155488364Y-55549195D01*
X155545486Y-55582977D01*
X155593169Y-55634046D01*
X155605673Y-55702788D01*
X155579028Y-55767377D01*
X155561975Y-55784779D01*
X155554204Y-55791285D01*
X155488053Y-55830408D01*
X155387990Y-55930469D01*
X155383784Y-55933992D01*
X155382598Y-55934509D01*
X155377061Y-55939239D01*
X155297536Y-55997018D01*
X155157021Y-56137533D01*
X155040213Y-56298305D01*
X154949994Y-56475367D01*
X154949993Y-56475370D01*
X154888587Y-56664362D01*
X154857500Y-56860639D01*
X154857500Y-57059360D01*
X154888587Y-57255637D01*
X154949993Y-57444629D01*
X154949994Y-57444632D01*
X155040213Y-57621694D01*
X155157019Y-57782464D01*
X155157021Y-57782466D01*
X155297539Y-57922984D01*
X155377060Y-57980758D01*
X155383824Y-57986039D01*
X155387998Y-57989537D01*
X155488053Y-58089592D01*
X155553737Y-58128437D01*
X155561522Y-58134962D01*
X155575488Y-58155926D01*
X155592679Y-58174338D01*
X155594528Y-58184506D01*
X155600260Y-58193110D01*
X155600674Y-58218297D01*
X155605182Y-58243079D01*
X155601239Y-58252634D01*
X155601410Y-58262970D01*
X155588143Y-58284381D01*
X155578536Y-58307669D01*
X155568122Y-58316692D01*
X155564609Y-58322363D01*
X155557871Y-58325575D01*
X155544996Y-58336732D01*
X155488053Y-58370408D01*
X155488046Y-58370413D01*
X155391854Y-58466604D01*
X155377061Y-58479239D01*
X155297536Y-58537018D01*
X155157021Y-58677533D01*
X155040213Y-58838305D01*
X154949994Y-59015367D01*
X154949993Y-59015370D01*
X154888587Y-59204362D01*
X154857500Y-59400639D01*
X154857500Y-59599360D01*
X154888587Y-59795637D01*
X154949993Y-59984629D01*
X154949994Y-59984632D01*
X155040213Y-60161694D01*
X155157019Y-60322464D01*
X155157021Y-60322466D01*
X155297539Y-60462984D01*
X155377060Y-60520758D01*
X155383824Y-60526039D01*
X155387998Y-60529537D01*
X155488053Y-60629592D01*
X155553737Y-60668437D01*
X155561522Y-60674962D01*
X155575488Y-60695926D01*
X155592679Y-60714338D01*
X155594528Y-60724506D01*
X155600260Y-60733110D01*
X155600674Y-60758297D01*
X155605182Y-60783079D01*
X155601239Y-60792634D01*
X155601410Y-60802970D01*
X155588143Y-60824381D01*
X155578536Y-60847669D01*
X155568122Y-60856692D01*
X155564609Y-60862363D01*
X155557871Y-60865575D01*
X155544996Y-60876732D01*
X155488053Y-60910408D01*
X155488051Y-60910409D01*
X155395278Y-61003182D01*
X155333954Y-61036666D01*
X155307597Y-61039500D01*
X152361455Y-61039500D01*
X152268864Y-61057917D01*
X152268849Y-61057920D01*
X152264812Y-61058724D01*
X152168164Y-61077949D01*
X152127000Y-61095000D01*
X152119549Y-61098086D01*
X152119546Y-61098087D01*
X151986089Y-61153366D01*
X151986075Y-61153374D01*
X151863045Y-61235579D01*
X151863046Y-61235580D01*
X151822218Y-61262859D01*
X151822215Y-61262862D01*
X143621899Y-69463181D01*
X143560576Y-69496666D01*
X143534218Y-69499500D01*
X139604675Y-69499500D01*
X139604655Y-69499499D01*
X139598541Y-69499499D01*
X139401460Y-69499499D01*
X139401457Y-69499499D01*
X139208172Y-69537946D01*
X139208164Y-69537948D01*
X139026088Y-69613366D01*
X139026079Y-69613371D01*
X138862219Y-69722859D01*
X138862215Y-69722862D01*
X138092786Y-70492293D01*
X137862220Y-70722859D01*
X137862218Y-70722861D01*
X137824045Y-70761034D01*
X137722860Y-70862218D01*
X137720352Y-70865275D01*
X137718633Y-70866445D01*
X137718553Y-70866526D01*
X137718537Y-70866510D01*
X137662605Y-70904608D01*
X137592761Y-70906477D01*
X137532993Y-70870289D01*
X137502278Y-70807532D01*
X137500500Y-70786608D01*
X137500500Y-60763782D01*
X137509144Y-60734341D01*
X137515668Y-60704355D01*
X137519422Y-60699339D01*
X137520185Y-60696743D01*
X137536814Y-60676106D01*
X137676103Y-60536817D01*
X137737425Y-60503334D01*
X137763783Y-60500500D01*
X138397598Y-60500500D01*
X138464637Y-60520185D01*
X138485279Y-60536819D01*
X138578047Y-60629587D01*
X138578050Y-60629589D01*
X138578053Y-60629592D01*
X138634996Y-60663268D01*
X138682679Y-60714338D01*
X138695182Y-60783079D01*
X138668536Y-60847669D01*
X138634996Y-60876732D01*
X138578053Y-60910408D01*
X138578047Y-60910412D01*
X138461412Y-61027047D01*
X138461405Y-61027056D01*
X138377435Y-61169042D01*
X138377434Y-61169045D01*
X138331413Y-61327447D01*
X138331412Y-61327453D01*
X138328500Y-61364458D01*
X138328500Y-62715541D01*
X138331412Y-62752546D01*
X138331413Y-62752552D01*
X138377434Y-62910954D01*
X138377435Y-62910957D01*
X138461405Y-63052943D01*
X138461412Y-63052952D01*
X138578047Y-63169587D01*
X138578050Y-63169589D01*
X138578053Y-63169592D01*
X138634996Y-63203268D01*
X138682679Y-63254338D01*
X138695182Y-63323079D01*
X138668536Y-63387669D01*
X138634996Y-63416732D01*
X138578053Y-63450408D01*
X138578047Y-63450412D01*
X138461412Y-63567047D01*
X138461405Y-63567056D01*
X138377435Y-63709042D01*
X138377434Y-63709045D01*
X138331413Y-63867447D01*
X138331412Y-63867453D01*
X138328500Y-63904458D01*
X138328500Y-65255541D01*
X138331412Y-65292546D01*
X138331413Y-65292552D01*
X138377434Y-65450954D01*
X138377435Y-65450957D01*
X138461405Y-65592943D01*
X138461412Y-65592952D01*
X138578047Y-65709587D01*
X138578050Y-65709589D01*
X138578053Y-65709592D01*
X138634996Y-65743268D01*
X138682679Y-65794338D01*
X138695182Y-65863079D01*
X138668536Y-65927669D01*
X138634996Y-65956732D01*
X138578053Y-65990408D01*
X138578047Y-65990412D01*
X138461412Y-66107047D01*
X138461405Y-66107056D01*
X138377435Y-66249042D01*
X138377434Y-66249045D01*
X138331413Y-66407447D01*
X138331412Y-66407453D01*
X138328500Y-66444458D01*
X138328500Y-67795541D01*
X138331412Y-67832546D01*
X138331413Y-67832552D01*
X138377434Y-67990954D01*
X138377435Y-67990957D01*
X138461405Y-68132943D01*
X138461412Y-68132952D01*
X138578047Y-68249587D01*
X138578051Y-68249590D01*
X138578053Y-68249592D01*
X138720041Y-68333564D01*
X138761816Y-68345701D01*
X138878447Y-68379586D01*
X138878450Y-68379586D01*
X138878452Y-68379587D01*
X138915466Y-68382500D01*
X138915474Y-68382500D01*
X141174526Y-68382500D01*
X141174534Y-68382500D01*
X141211548Y-68379587D01*
X141211550Y-68379586D01*
X141211552Y-68379586D01*
X141253323Y-68367449D01*
X141369959Y-68333564D01*
X141511947Y-68249592D01*
X141608148Y-68153389D01*
X141622939Y-68140758D01*
X141623728Y-68140185D01*
X141702464Y-68082981D01*
X141842981Y-67942464D01*
X141959787Y-67781694D01*
X142050005Y-67604632D01*
X142111413Y-67415636D01*
X142142500Y-67219361D01*
X142142500Y-67020639D01*
X142111413Y-66824364D01*
X142050005Y-66635368D01*
X142050005Y-66635367D01*
X141959786Y-66458305D01*
X141842981Y-66297536D01*
X141702464Y-66157019D01*
X141650823Y-66119500D01*
X141622938Y-66099240D01*
X141616175Y-66093960D01*
X141612000Y-66090461D01*
X141511947Y-65990408D01*
X141446259Y-65951560D01*
X141438477Y-65945038D01*
X141424510Y-65924073D01*
X141407321Y-65905663D01*
X141405471Y-65895492D01*
X141399740Y-65886890D01*
X141399324Y-65861702D01*
X141394817Y-65836921D01*
X141398758Y-65827366D01*
X141398588Y-65817030D01*
X141411856Y-65795616D01*
X141421462Y-65772332D01*
X141431874Y-65763309D01*
X141435389Y-65757638D01*
X141442127Y-65754425D01*
X141455004Y-65743268D01*
X141511947Y-65709592D01*
X141608148Y-65613389D01*
X141622939Y-65600758D01*
X141702464Y-65542981D01*
X141842981Y-65402464D01*
X141959787Y-65241694D01*
X142050005Y-65064632D01*
X142111413Y-64875636D01*
X142142500Y-64679361D01*
X142142500Y-64480639D01*
X142111413Y-64284364D01*
X142050005Y-64095368D01*
X142050005Y-64095367D01*
X142004035Y-64005149D01*
X141959787Y-63918306D01*
X141842981Y-63757536D01*
X141702464Y-63617019D01*
X141622937Y-63559239D01*
X141616175Y-63553960D01*
X141612000Y-63550461D01*
X141511947Y-63450408D01*
X141446259Y-63411560D01*
X141438477Y-63405038D01*
X141424510Y-63384073D01*
X141407321Y-63365663D01*
X141405471Y-63355492D01*
X141399740Y-63346890D01*
X141399324Y-63321702D01*
X141394817Y-63296921D01*
X141398758Y-63287366D01*
X141398588Y-63277030D01*
X141411856Y-63255616D01*
X141421462Y-63232332D01*
X141431874Y-63223309D01*
X141435389Y-63217638D01*
X141442127Y-63214425D01*
X141455004Y-63203268D01*
X141511947Y-63169592D01*
X141608148Y-63073389D01*
X141622939Y-63060758D01*
X141702464Y-63002981D01*
X141842981Y-62862464D01*
X141959787Y-62701694D01*
X142050005Y-62524632D01*
X142111413Y-62335636D01*
X142142500Y-62139361D01*
X142142500Y-61940639D01*
X142111413Y-61744364D01*
X142050005Y-61555368D01*
X142050005Y-61555367D01*
X141994564Y-61446559D01*
X141959787Y-61378306D01*
X141842981Y-61217536D01*
X141702464Y-61077019D01*
X141650823Y-61039500D01*
X141622938Y-61019240D01*
X141616175Y-61013960D01*
X141612000Y-61010461D01*
X141511947Y-60910408D01*
X141446259Y-60871560D01*
X141438477Y-60865038D01*
X141424510Y-60844073D01*
X141407321Y-60825663D01*
X141405471Y-60815492D01*
X141399740Y-60806890D01*
X141399324Y-60781702D01*
X141394817Y-60756921D01*
X141398758Y-60747366D01*
X141398588Y-60737030D01*
X141411856Y-60715616D01*
X141421462Y-60692332D01*
X141431874Y-60683309D01*
X141435389Y-60677638D01*
X141442127Y-60674425D01*
X141455004Y-60663268D01*
X141511947Y-60629592D01*
X141608148Y-60533389D01*
X141622939Y-60520758D01*
X141623728Y-60520185D01*
X141702464Y-60462981D01*
X141842981Y-60322464D01*
X141959787Y-60161694D01*
X142050005Y-59984632D01*
X142111413Y-59795636D01*
X142142500Y-59599361D01*
X142142500Y-59400639D01*
X142111413Y-59204364D01*
X142050005Y-59015368D01*
X142050005Y-59015367D01*
X141959786Y-58838305D01*
X141842981Y-58677536D01*
X141702464Y-58537019D01*
X141650823Y-58499500D01*
X141622938Y-58479240D01*
X141616175Y-58473960D01*
X141612000Y-58470461D01*
X141511947Y-58370408D01*
X141446259Y-58331560D01*
X141438477Y-58325038D01*
X141424510Y-58304073D01*
X141407321Y-58285663D01*
X141405471Y-58275492D01*
X141399740Y-58266890D01*
X141399324Y-58241702D01*
X141394817Y-58216921D01*
X141398758Y-58207366D01*
X141398588Y-58197030D01*
X141411856Y-58175616D01*
X141421462Y-58152332D01*
X141431874Y-58143309D01*
X141435389Y-58137638D01*
X141442127Y-58134425D01*
X141455004Y-58123268D01*
X141511947Y-58089592D01*
X141608148Y-57993389D01*
X141622939Y-57980758D01*
X141702464Y-57922981D01*
X141842981Y-57782464D01*
X141959787Y-57621694D01*
X142050005Y-57444632D01*
X142111413Y-57255636D01*
X142142500Y-57059361D01*
X142142500Y-56860639D01*
X142111413Y-56664364D01*
X142050005Y-56475368D01*
X142050005Y-56475367D01*
X141959786Y-56298305D01*
X141842981Y-56137536D01*
X141702464Y-55997019D01*
X141650823Y-55959500D01*
X141622938Y-55939240D01*
X141616175Y-55933960D01*
X141612000Y-55930461D01*
X141511947Y-55830408D01*
X141446259Y-55791560D01*
X141438477Y-55785038D01*
X141424510Y-55764073D01*
X141407321Y-55745663D01*
X141405471Y-55735492D01*
X141399740Y-55726890D01*
X141399324Y-55701702D01*
X141394817Y-55676921D01*
X141398758Y-55667366D01*
X141398588Y-55657030D01*
X141411856Y-55635616D01*
X141421462Y-55612332D01*
X141431874Y-55603309D01*
X141435389Y-55597638D01*
X141442127Y-55594425D01*
X141455004Y-55583268D01*
X141455498Y-55582976D01*
X141511947Y-55549592D01*
X141608148Y-55453389D01*
X141622939Y-55440758D01*
X141626423Y-55438227D01*
X141702464Y-55382981D01*
X141842981Y-55242464D01*
X141959787Y-55081694D01*
X142050005Y-54904632D01*
X142111413Y-54715636D01*
X142142500Y-54519361D01*
X142142500Y-54320639D01*
X142111413Y-54124364D01*
X142050005Y-53935368D01*
X142050005Y-53935367D01*
X141964145Y-53766859D01*
X141959787Y-53758306D01*
X141842981Y-53597536D01*
X141702464Y-53457019D01*
X141650823Y-53419500D01*
X141622938Y-53399240D01*
X141616175Y-53393960D01*
X141612000Y-53390461D01*
X141511947Y-53290408D01*
X141446259Y-53251560D01*
X141438477Y-53245038D01*
X141424510Y-53224073D01*
X141407321Y-53205663D01*
X141405471Y-53195492D01*
X141399740Y-53186890D01*
X141399324Y-53161702D01*
X141394817Y-53136921D01*
X141398758Y-53127366D01*
X141398588Y-53117030D01*
X141411856Y-53095616D01*
X141421462Y-53072332D01*
X141431874Y-53063309D01*
X141435389Y-53057638D01*
X141442127Y-53054425D01*
X141455004Y-53043268D01*
X141456810Y-53042200D01*
X141511947Y-53009592D01*
X141608148Y-52913389D01*
X141622939Y-52900758D01*
X141623728Y-52900185D01*
X141702464Y-52842981D01*
X141842981Y-52702464D01*
X141959787Y-52541694D01*
X142050005Y-52364632D01*
X142111413Y-52175636D01*
X142142500Y-51979361D01*
X142142500Y-51780639D01*
X142111413Y-51584364D01*
X142070248Y-51457670D01*
X142050006Y-51395370D01*
X142050005Y-51395367D01*
X141971972Y-51242221D01*
X141959787Y-51218306D01*
X141842981Y-51057536D01*
X141702464Y-50917019D01*
X141701240Y-50916130D01*
X141622938Y-50859240D01*
X141608147Y-50846608D01*
X141511947Y-50750408D01*
X141511946Y-50750407D01*
X141511943Y-50750405D01*
X141369957Y-50666435D01*
X141369954Y-50666434D01*
X141211552Y-50620413D01*
X141211546Y-50620412D01*
X141174541Y-50617500D01*
X141174534Y-50617500D01*
X138915466Y-50617500D01*
X138915458Y-50617500D01*
X138878453Y-50620412D01*
X138878447Y-50620413D01*
X138720045Y-50666434D01*
X138720042Y-50666435D01*
X138578056Y-50750405D01*
X138578047Y-50750412D01*
X138485279Y-50843181D01*
X138423956Y-50876666D01*
X138397598Y-50879500D01*
X130322988Y-50879500D01*
X130263515Y-50891330D01*
X130263510Y-50891331D01*
X130260158Y-50891998D01*
X130129694Y-50917949D01*
X130088530Y-50935000D01*
X130080424Y-50938357D01*
X130080418Y-50938359D01*
X129947622Y-50993364D01*
X129947609Y-50993371D01*
X129783749Y-51102859D01*
X129714070Y-51172538D01*
X129644391Y-51242218D01*
X129644388Y-51242221D01*
X120161222Y-60725387D01*
X120161219Y-60725390D01*
X120124109Y-60762500D01*
X120021860Y-60864748D01*
X119912372Y-61028608D01*
X119912365Y-61028621D01*
X119869829Y-61131316D01*
X119844717Y-61191940D01*
X119844715Y-61191947D01*
X119840323Y-61202552D01*
X119836950Y-61210694D01*
X119798501Y-61403988D01*
X119798501Y-101314142D01*
X119798501Y-101314144D01*
X119798500Y-101314144D01*
X118800500Y-101314144D01*
X118800500Y-53860572D01*
X118820185Y-53793533D01*
X118872989Y-53747778D01*
X118942147Y-53737834D01*
X119005703Y-53766859D01*
X119039061Y-53813119D01*
X119151207Y-54083864D01*
X119151209Y-54083869D01*
X119322570Y-54404462D01*
X119322581Y-54404480D01*
X119524551Y-54706750D01*
X119711678Y-54934765D01*
X119711679Y-54934766D01*
X121205747Y-53440697D01*
X121279588Y-53542330D01*
X121457670Y-53720412D01*
X121559301Y-53794251D01*
X120065232Y-55288319D01*
X120065233Y-55288320D01*
X120293249Y-55475448D01*
X120595519Y-55677418D01*
X120595537Y-55677429D01*
X120916130Y-55848790D01*
X120916135Y-55848792D01*
X121252002Y-55987913D01*
X121599898Y-56093446D01*
X121599909Y-56093449D01*
X121956443Y-56164367D01*
X122318234Y-56200000D01*
X122681766Y-56200000D01*
X123043556Y-56164367D01*
X123400090Y-56093449D01*
X123400101Y-56093446D01*
X123747997Y-55987913D01*
X124083864Y-55848792D01*
X124083869Y-55848790D01*
X124404462Y-55677429D01*
X124404480Y-55677418D01*
X124706736Y-55475457D01*
X124706750Y-55475447D01*
X124934765Y-55288320D01*
X124934766Y-55288319D01*
X123440698Y-53794251D01*
X123542330Y-53720412D01*
X123720412Y-53542330D01*
X123794251Y-53440698D01*
X125288319Y-54934766D01*
X125288320Y-54934765D01*
X125475447Y-54706750D01*
X125475457Y-54706736D01*
X125677418Y-54404480D01*
X125677429Y-54404462D01*
X125848790Y-54083869D01*
X125848792Y-54083864D01*
X125987913Y-53747997D01*
X126093446Y-53400101D01*
X126093449Y-53400090D01*
X126164367Y-53043556D01*
X126200000Y-52681765D01*
X126200000Y-52318234D01*
X126164367Y-51956443D01*
X126093449Y-51599909D01*
X126093446Y-51599898D01*
X125987913Y-51252002D01*
X125848792Y-50916135D01*
X125848790Y-50916130D01*
X125677429Y-50595537D01*
X125677418Y-50595519D01*
X125475448Y-50293249D01*
X125288320Y-50065233D01*
X125288319Y-50065232D01*
X123794251Y-51559300D01*
X123720412Y-51457670D01*
X123542330Y-51279588D01*
X123440697Y-51205747D01*
X124934766Y-49711679D01*
X124934765Y-49711678D01*
X124706750Y-49524551D01*
X124404480Y-49322581D01*
X124404462Y-49322570D01*
X124083869Y-49151209D01*
X124083864Y-49151207D01*
X123813119Y-49039061D01*
X123758716Y-48995220D01*
X123736651Y-48928926D01*
X123753930Y-48861227D01*
X123805067Y-48813616D01*
X123860572Y-48800500D01*
X193139428Y-48800500D01*
X193206467Y-48820185D01*
G37*
%TD.AperFunction*%
%TD*%
M02*
